<?xml version="1.0" encoding="UTF-8"?>
<svg xmlns="http://www.w3.org/2000/svg" version="1.1" viewBox="0 0 1011 755">
  <defs>
    <style>
      .cls-1 {
        fill: #3aa0d8;
      }

      .cls-2 {
        fill: #4d4c4d;
      }

      .cls-3 {
        fill: #1e1e1e;
      }

      .cls-4 {
        fill: #4fbad3;
      }

      .cls-5 {
        fill: #59d82a;
      }

      .cls-6 {
        fill: #397cb2;
      }

      .cls-7 {
        fill: #30302f;
      }

      .cls-8 {
        fill: #f8bc17;
      }

      .cls-9 {
        fill: #f9da0e;
      }

      .cls-10 {
        fill: #161616;
      }

      .cls-11 {
        fill: #fff;
        isolation: isolate;
        opacity: .1;
      }
    </style>
  </defs>
  <!-- Generator: Adobe Illustrator 28.6.0, SVG Export Plug-In . SVG Version: 1.2.0 Build 709)  -->
  <g>
    <g id="road">
      <path class="cls-5" d="M871.3,200.7c1.9,0,1.9-3,0-3s-1.9,3,0,3h0Z"/>
      <path class="cls-9" d="M315.1,301.9c45-22.7,71-45.2,126-48-12.3-15.8-20.5-35-22.9-56.4-6.8-62.2,39-118,101.8-123.1,57.2-4.6,109.4,36,118.8,92.6,5.6,33.6-4.3,65.7-24.2,89.6,41.6,20.9,69.6,58.4,72,104.7,3.8,72.6-43.5,128.2-155.5,137.5s-165.1-15.8-206.4-53c-39.5-35.5-67.4-106.2-66.6-141.7,1.2-4,4.6-4.4,4.6-4.4,0,0,28.2,14.3,52.4,2.1h0Z"/>
      <path class="cls-8" d="M583.9,160.8c-17.2,5.7-14.8,23.4-24.3,29.4-9.4,6-25.9,7.6-22,17.3,3.9,9.7,40.6,21.3,59.8,18.5s83.5-39.3,63.7-59.2c-10.6-10.7-34.4,1.1-46.6-.9-12.2-1.9-16.9-9.7-30.7-5.1h0Z"/>
      <g>
        <rect class="cls-10" x="539.2" y="120.4" width="89" height="12.1" transform="translate(-7.6 210.2) rotate(-20.3)"/>
        <path class="cls-3" d="M484.5,159.4l62.3-23c3.9-1.4,8.3.6,9.7,4.5l3.1,8.4c4.8,13.1-1.9,27.6-14.9,32.5l-28.9,10.7c-13.2,4.9-27.8-1.9-32.7-15l-3-8.2c-1.4-3.9.6-8.3,4.5-9.7h0Z"/>
        <path class="cls-10" d="M506.9,196.4c-11.4,0-22.1-7-26.2-18.2l-3-8.2c-.9-2.5-.8-5.2.3-7.7,1.1-2.4,3.1-4.3,5.6-5.2l62.3-23c2.5-.9,5.2-.8,7.7.3,2.4,1.1,4.3,3.1,5.2,5.6l3.1,8.4c5.3,14.4-2.1,30.4-16.4,35.7l-28.9,10.7c-3.2,1.2-6.5,1.7-9.7,1.7h0ZM549.4,138.4c-.6,0-1.2.1-1.8.3l-62.3,23c-2.6,1-4,3.9-3,6.5l3,8.2c4.4,11.9,17.6,17.9,29.5,13.6l28.9-10.7c11.8-4.4,17.8-17.5,13.5-29.3l-3.1-8.4c-.5-1.3-1.4-2.3-2.6-2.8-.7-.3-1.4-.5-2.1-.5h0Z"/>
        <path class="cls-3" d="M596.5,117.9l62.3-23c3.9-1.4,8.3.6,9.7,4.5l3.1,8.4c4.8,13.1-1.9,27.6-14.9,32.5l-28.9,10.7c-13.2,4.9-27.8-1.9-32.7-15l-3-8.2c-1.4-3.9.6-8.3,4.5-9.7h0Z"/>
        <path class="cls-10" d="M619,154.9c-11.4,0-22.1-7-26.2-18.2l-3-8.2c-.9-2.5-.8-5.2.3-7.7s3.1-4.3,5.6-5.2l62.3-23c2.5-.9,5.2-.8,7.7.3,2.4,1.1,4.3,3.1,5.2,5.6l3.1,8.4c5.3,14.4-2,30.4-16.4,35.7l-28.9,10.7c-3.2,1.2-6.5,1.7-9.7,1.7h0ZM661.4,96.8c-.6,0-1.2,0-1.8.3l-62.3,23c-1.3.5-2.3,1.4-2.8,2.6s-.6,2.6-.2,3.9l3,8.2c4.4,11.9,17.6,17.9,29.5,13.6l28.9-10.7c11.8-4.4,17.8-17.5,13.5-29.3l-3.1-8.4c-.5-1.3-1.4-2.3-2.6-2.8-.7-.3-1.4-.5-2.1-.5h0Z"/>
        <path class="cls-11" d="M661,97.2v-.4c-.5,0-.9.1-1.3.3l-11.7,4.3-9.7,42.8,14.4-5.3,8.3-41.7h0Z"/>
        <path class="cls-11" d="M624.4,149.2l8.6-42.2-25.6,9.5-5.3,26c5.5,6,14.1,8.8,22.3,6.8h0Z"/>
        <path class="cls-11" d="M548.8,138.5c-.4,0-.8.1-1.2.3l-12.7,4.7-8.8,42.4,14.5-5.3,8.2-42h0Z"/>
        <path class="cls-11" d="M512.3,190.8l8.6-42.2-25.6,9.5-5.3,26c5.5,6,14.1,8.8,22.3,6.8h0Z"/>
      </g>
      <path class="cls-4" d="M645,350.2c-29.2,16.5-101,41.9-185,41-90-1-156.8-48.2-221.6-92.5-21.7-14.8-50.4-14.2-71.4,1.5-25.1,18.8-57.8,46.5-80.2,77.3-78.2,107.6-77.6,216.3-53.7,236.9,23.9,20.6,445.7,18,445.7,18,0,0,455.2,5.8,484.3,0,37.2-7.2,46.2-83,22.8-129.5-27.3-54.1-121.8-125.8-220.6-164.2-27.3-10.6-43.4-15.1-65.3-13.6-15,1-32,12-55,25h0Z"/>
      <g>
        <circle class="cls-7" cx="796.7" cy="606.4" r="146.2"/>
        <circle class="cls-2" cx="796.7" cy="606.4" r="106.7"/>
        <circle class="cls-7" cx="796.7" cy="606.4" r="31.2"/>
      </g>
      <path class="cls-1" d="M155.7,403.9c28.5-39.2,73.6-73.3,98.8-90.7.9-.6,1.9-1.2,2.9-1.7-6.4-4.3-12.8-8.5-18.8-12.7-21.8-14.9-50.6-14.3-71.8,1.6-25.1,18.8-57.6,46.4-80,77.1-78.2,107.6-77.6,216.3-53.7,236.9,5,4.3,27.3,7.6,59.5,10.1-12.6-39.1-2.5-130.3,63.2-220.7h0Z"/>
      <g>
        <circle class="cls-7" cx="223.5" cy="606.4" r="146.2"/>
        <circle class="cls-2" cx="223.5" cy="606.4" r="106.7"/>
        <circle class="cls-7" cx="223.5" cy="606.4" r="31.2"/>
      </g>
      <path class="cls-6" d="M459.6,590.8c1.9,0,1.9-3,0-3s-1.9,3,0,3h0Z"/>
      <polygon class="cls-1" points="254.1 404.3 393.8 404.3 436.7 531.7 516.1 404.3 566.8 404.3 509.7 493.1 561.2 493.1 618.3 404.3 666 404.3 547.5 591.8 499.3 591.8 542.2 524.9 490.7 524.9 427.5 624.8 362 438.8 266.8 438.8 254.1 404.3"/>
      <path class="cls-8" d="M467.4,312c52-25,111-17.6,120.3,31.4,8.3,44-20.8,85.1-84,96.9-90.1,16.8-141.8-13.2-165.7-72.8-12.5-31.1,18.1-29,37.5-32,16.5-2.6,62.9-9.5,92-23.5h0Z"/>
    </g>
  </g>
</svg>