<?xml version="1.0" encoding="UTF-8"?>
<svg xmlns="http://www.w3.org/2000/svg" version="1.1" viewBox="0 0 1004.3 755">
  <defs>
    <style>
      .cls-1 {
        fill: #4d4c4d;
      }

      .cls-2 {
        fill: #4fbad3;
      }

      .cls-3 {
        fill: #211e1f;
      }

      .cls-4 {
        fill: #59d82a;
      }

      .cls-5 {
        fill: #397cb2;
      }

      .cls-6 {
        fill: #30302f;
      }

      .cls-7 {
        fill: #f8bc17;
      }

      .cls-8 {
        fill: #f9da0e;
      }
    </style>
  </defs>
  <!-- Generator: Adobe Illustrator 28.6.0, SVG Export Plug-In . SVG Version: 1.2.0 Build 709)  -->
  <g>
    <g id="road">
      <path class="cls-8" d="M312.7,291.7c43.9-24.8,68.8-48.7,123.5-54.1-13.1-15.1-22.2-34-25.6-55.2-9.8-61.8,33.2-119.8,95.7-128,56.9-7.4,111,30.6,123.2,86.7,7.2,33.2-1.1,65.8-19.8,90.6,42.5,18.8,72.4,55,77,101.1,7.3,72.4-37.2,130.1-148.5,144.9-111.4,14.8-165.7-7.7-208.8-42.8-41.2-33.6-72.5-102.7-73.5-138.3,1-4.1,4.4-4.6,4.4-4.6,0,0,28.9,12.9,52.4-.4h0Z"/>
      <circle class="cls-3" cx="472.9" cy="131.6" r="20.1"/>
      <path class="cls-7" d="M591.6,129c-17.5,4.5-16.4,22.4-26.2,27.7s-26.3,5.8-23.1,15.8c3.3,10,39.1,24,58.5,22.4,19.4-1.6,86-33.6,67.5-54.8-9.9-11.4-34.4-1.2-46.5-4-12.1-2.8-16.2-10.8-30.3-7.1h0Z"/>
      <path class="cls-4" d="M686.8,332.9c-4.7-46-34.4-82.1-76.8-101-20.5,7.6-67.7,18.9-106.5,17.2-33.9-1.5-48.6-6.1-67.2-11.6,0,0,0,0,0,0-54.8,5.4-79.6,29.2-123.5,54.1-23.5,13.3-52.4.4-52.4.4,0,0-3.4.5-4.4,4.6,1,35.5,32.3,104.7,73.5,138.3,43.1,35.1,97.4,57.6,208.8,42.8,111.3-14.8,155.9-72.6,148.5-144.9h0Z"/>
      <path class="cls-2" d="M629.8,242.4c-7.4-5.1-11.3-6.6-19.8-10.4,0,0,0,0,0,0-20.5,7.6-67.7,18.9-106.5,17.2-33.9-1.5-48.6-6.1-67.2-11.6,0,0,0,0,0,0-12.3,1.2-23.1,3.4-33,6.3,24.1,8.6,44.5,15.8,89.5,19.6,49.5,4.2,105.4-11.1,137-21.1h0Z"/>
      <path class="cls-2" d="M515.2,440.6c-49,2.4-90.6-31-92.8-74.5-2.1-43.5,36-80.9,85-83.3,49-2.4,90.6,31,92.8,74.5s-36,80.9-85,83.3ZM508.8,308.8c-34.7,1.7-61.8,26.8-60.3,56s30.8,51.5,65.5,49.9c34.7-1.7,61.8-26.8,60.3-56s-30.8-51.5-65.5-49.9h0Z"/>
      <path class="cls-7" d="M463.1,312.7c51.1-21.3,107.2-11.2,113.6,36.2,5.7,42.6-24.2,80.4-85.4,88.5-87.2,11.5-135.1-19.8-155-78.1-10.4-30.4,18.8-26.8,37.5-28.8,16-1.7,60.8-5.9,89.3-17.8h0Z"/>
      <path class="cls-8" d="M645,350.2c-29.2,16.5-101,41.9-185,41-90-1-156.8-48.2-221.6-92.5-21.7-14.8-50.4-14.2-71.4,1.5-25.1,18.8-57.8,46.5-80.2,77.3-78.2,107.6-77.6,216.3-53.7,236.9,23.9,20.6,445.7,18,445.7,18,0,0,455.2,5.8,484.3,0,37.2-7.2,46.2-83,22.8-129.5-27.3-54.1-121.8-125.8-220.6-164.2-27.3-10.6-43.4-15.1-65.3-13.6-15,1-32,12-55,25h0Z"/>
      <g>
        <circle class="cls-6" cx="796.7" cy="606.4" r="146.2"/>
        <circle class="cls-1" cx="796.7" cy="606.4" r="106.7"/>
        <circle class="cls-6" cx="796.7" cy="606.4" r="31.2"/>
      </g>
      <path class="cls-7" d="M155.7,403.9c28.5-39.2,73.6-73.3,98.8-90.7.9-.6,1.9-1.2,2.9-1.7-6.4-4.3-12.8-8.5-18.8-12.7-21.8-14.9-50.6-14.3-71.8,1.6-25.1,18.8-57.6,46.4-80,77.1-78.2,107.6-77.6,216.3-53.7,236.9,5,4.3,27.3,7.6,59.5,10.1-12.6-39.1-2.5-130.3,63.2-220.7h0Z"/>
      <g>
        <circle class="cls-6" cx="223.5" cy="606.4" r="146.2"/>
        <circle class="cls-1" cx="223.5" cy="606.4" r="106.7"/>
        <circle class="cls-6" cx="223.5" cy="606.4" r="31.2"/>
      </g>
      <path class="cls-5" d="M459.6,590.8c1.9,0,1.9-3,0-3s-1.9,3,0,3h0Z"/>
      <polygon class="cls-7" points="254.1 404.3 393.8 404.3 436.7 531.7 516.1 404.3 566.8 404.3 509.7 493.1 561.2 493.1 618.3 404.3 666 404.3 547.5 591.8 499.3 591.8 542.2 524.9 490.7 524.9 427.5 624.8 362 438.8 266.8 438.8 254.1 404.3"/>
    </g>
  </g>
</svg>