<?xml version="1.0" encoding="UTF-8"?>
<svg id="road" xmlns="http://www.w3.org/2000/svg" viewBox="0 0 1001.47 755">
  <defs>
    <style>
      .cls-1 {
        fill: #f9da0e;
      }

      .cls-1, .cls-2, .cls-3, .cls-4, .cls-5, .cls-6, .cls-7, .cls-8, .cls-9, .cls-10, .cls-11 {
        stroke-width: 0px;
      }

      .cls-2 {
        fill: #f8bc17;
      }

      .cls-3 {
        fill: #4aad1c;
      }

      .cls-4 {
        fill: #4d4c4d;
      }

      .cls-5 {
        fill: #4fbad3;
      }

      .cls-6 {
        fill: #53bf26;
      }

      .cls-7 {
        fill: #397cb2;
      }

      .cls-8 {
        fill: #3aa0d8;
      }

      .cls-9 {
        fill: #211e1f;
      }

      .cls-10 {
        fill: #30302f;
      }

      .cls-11 {
        fill: #fff;
      }
    </style>
  </defs>
  <path class="cls-1" d="m312.03,293.69c44.07-24.46,69.15-48.08,123.96-53.02-12.93-15.25-21.93-34.17-25.12-55.4-9.3-61.89,34.22-119.53,96.76-127.15,56.97-6.95,110.77,31.56,122.45,87.76,6.92,33.29-1.69,65.79-20.56,90.48,42.39,19.18,71.89,55.56,76.18,101.71,6.73,72.43-38.3,129.82-149.77,143.67-111.47,13.85-165.65-9.12-208.42-44.6-40.89-33.92-71.63-103.35-72.29-138.9,1.06-4.06,4.42-4.57,4.42-4.57,0,0,28.76,13.14,52.4.02Z"/>
  <circle class="cls-9" cx="525.06" cy="126.4" r="20.65"/>
  <path class="cls-2" d="m602.23,132.99c-17.53,4.39-16.56,22.21-26.39,27.48-9.83,5.27-26.39,5.6-23.21,15.6,3.18,10,38.87,24.32,58.28,22.93,19.41-1.39,86.24-32.91,67.97-54.27-9.8-11.46-34.37-1.52-46.41-4.38s-16.11-10.9-30.24-7.37Z"/>
  <path class="cls-5" d="m685.69,338.07c-4.28-46.06-33.69-82.4-75.96-101.6-20.61,7.37-67.82,18.38-106.63,16.31-33.86-1.8-48.56-6.54-67.15-12.15.01.01.02.03.04.05-54.81,4.94-79.89,28.56-123.96,53.02-23.64,13.12-52.4-.02-52.4-.02,0,0-3.36.51-4.42,4.57.66,35.55,31.4,104.98,72.29,138.9,42.77,35.48,96.95,58.45,208.42,44.6,111.47-13.85,156.5-71.24,149.77-143.67Z"/>
  <path class="cls-8" d="m629.48,247.05c-7.33-5.16-11.26-6.72-19.73-10.57,0,0-.02,0-.03-.01-20.61,7.37-67.82,18.38-106.63,16.31-33.86-1.8-48.56-6.54-67.15-12.15.01.01.02.03.04.05-12.34,1.11-23.17,3.18-33.05,5.98,24.04,8.83,44.42,16.19,89.31,20.35,49.5,4.58,105.45-10.17,137.23-19.95Z"/>
  <path class="cls-8" d="m486.22,448.54c-49.03,1.99-90.36-31.81-92.12-75.33s36.7-80.55,85.73-82.54,90.36,31.81,92.12,75.33-36.7,80.55-85.73,82.54Zm-5.34-131.89c-34.71,1.41-61.99,26.31-60.8,55.51s30.38,51.81,65.09,50.41c34.71-1.41,61.99-26.31,60.8-55.51s-30.38-51.81-65.09-50.41Z"/>
  <path class="cls-2" d="m536.63,323.9c-49.66-24.43-106.34-17.83-115.64,29.06-8.35,42.14,19.18,81.77,79.77,93.66,86.27,16.92,136.09-11.43,159.52-68.4,12.21-29.7-17.14-27.93-35.65-31.02-15.84-2.65-60.27-9.66-87.99-23.3Z"/>
  <circle class="cls-11" cx="538.15" cy="126.2" r="9.19"/>
  <path class="cls-6" d="m645,350.25c-29.2,16.5-101.01,41.93-185,41-90-1-156.79-48.18-221.61-92.55-21.68-14.84-50.38-14.25-71.41,1.5-25.15,18.84-57.76,46.48-80.18,77.32-78.19,107.56-77.6,216.33-53.73,236.93,23.88,20.6,445.73,18.03,445.73,18.03,0,0,455.19,5.78,484.29.1,37.18-7.25,46.25-83.03,22.83-129.45-27.28-54.08-121.79-125.8-220.58-164.24-27.35-10.64-43.37-15.1-65.35-13.64-15,1-32,12-55,25Z"/>
  <g>
    <circle class="cls-10" cx="796.66" cy="606.42" r="146.24"/>
    <circle class="cls-4" cx="796.66" cy="606.42" r="106.74"/>
    <circle class="cls-10" cx="796.66" cy="606.42" r="31.21"/>
  </g>
  <path class="cls-3" d="m155.73,403.89c28.53-39.25,73.59-73.33,98.76-90.67.93-.64,1.89-1.2,2.86-1.73-6.45-4.28-12.75-8.53-18.83-12.7-21.78-14.91-50.63-14.26-71.75,1.58-25.13,18.84-57.61,46.41-79.96,77.15-78.19,107.56-77.6,216.33-53.73,236.93,4.98,4.3,27.3,7.59,59.49,10.1-12.62-39.06-2.54-130.28,63.16-220.66Z"/>
  <g>
    <circle class="cls-10" cx="223.53" cy="606.42" r="146.24"/>
    <circle class="cls-4" cx="223.53" cy="606.42" r="106.74"/>
    <circle class="cls-10" cx="223.53" cy="606.42" r="31.21"/>
  </g>
  <polygon class="cls-3" points="254.08 404.26 393.75 404.26 436.67 531.7 516.06 404.26 566.85 404.26 509.71 493.14 561.2 493.14 618.34 404.26 666 404.26 547.51 591.81 499.33 591.81 542.16 524.88 490.67 524.88 427.49 624.85 362 438.83 266.78 438.83 254.08 404.26"/>
  <path class="cls-7" d="m440.37,563.75c1.93,0,1.93-3,0-3s-1.93,3,0,3h0Z"/>
</svg>