<?xml version="1.0" encoding="utf-8"?>
<!-- Generator: Adobe Illustrator 27.9.4, SVG Export Plug-In . SVG Version: 9.03 Build 54784)  -->
<svg version="1.1" id="Layer_1" xmlns="http://www.w3.org/2000/svg" xmlns:xlink="http://www.w3.org/1999/xlink" x="0px" y="0px"
	 viewBox="0 0 1004.3 755" style="enable-background:new 0 0 1004.3 755;" xml:space="preserve">
<style type="text/css">
	.st0{fill:#F9DA0E;}
	.st1{fill:#211E1F;}
	.st2{fill:#F8BC17;}
	.st3{fill:#59D82A;}
	.st4{fill:#4FBAD3;}
	.st5{fill:#FFDD34;}
	.st6{fill:#30302F;}
	.st7{fill:#4D4C4D;}
	.st8{fill:#FFC43E;}
	.st9{fill:#397CB2;}
</style>
<path class="st0" d="M312.7,291.7c43.9-24.8,68.8-48.7,123.5-54.1c-13.1-15.1-22.2-34-25.6-55.2c-9.8-61.8,33.2-119.8,95.7-128
	c56.9-7.4,111,30.6,123.2,86.7c7.2,33.2-1.1,65.8-19.8,90.6c42.5,18.8,72.4,55,77,101.1c7.3,72.4-37.2,130.1-148.5,144.9
	c-111.4,14.8-165.7-7.7-208.8-42.8c-41.2-33.6-72.5-102.7-73.5-138.3c1-4.1,4.4-4.6,4.4-4.6s28.9,12.9,52.4-0.4l0,0V291.7z"/>
<circle class="st1" cx="472.9" cy="131.6" r="20.1"/>
<path class="st2" d="M591.6,129c-17.5,4.5-16.4,22.4-26.2,27.7s-26.3,5.8-23.1,15.8c3.3,10,39.1,24,58.5,22.4s86-33.6,67.5-54.8
	c-9.9-11.4-34.4-1.2-46.5-4s-16.2-10.8-30.3-7.1l0,0L591.6,129z"/>
<path class="st3" d="M686.8,332.9c-4.7-46-34.4-82.1-76.8-101c-20.5,7.6-67.7,18.9-106.5,17.2c-33.9-1.5-48.6-6.1-67.2-11.6l0,0
	c-54.8,5.4-79.6,29.2-123.5,54.1c-23.5,13.3-52.4,0.4-52.4,0.4s-3.4,0.5-4.4,4.6c1,35.5,32.3,104.7,73.5,138.3
	c43.1,35.1,97.4,57.6,208.8,42.8c111.3-14.8,155.9-72.6,148.5-144.9l0,0V332.9z"/>
<path class="st4" d="M629.8,242.4c-7.4-5.1-11.3-6.6-19.8-10.4l0,0c-20.5,7.6-67.7,18.9-106.5,17.2c-33.9-1.5-48.6-6.1-67.2-11.6
	l0,0c-12.3,1.2-23.1,3.4-33,6.3c24.1,8.6,44.5,15.8,89.5,19.6C542.3,267.7,598.2,252.4,629.8,242.4L629.8,242.4z"/>
<path class="st4" d="M515.2,440.6c-49,2.4-90.6-31-92.8-74.5c-2.1-43.5,36-80.9,85-83.3c49-2.4,90.6,31,92.8,74.5
	S564.2,438.2,515.2,440.6L515.2,440.6z M508.8,308.8c-34.7,1.7-61.8,26.8-60.3,56s30.8,51.5,65.5,49.9c34.7-1.7,61.8-26.8,60.3-56
	S543.5,307.2,508.8,308.8L508.8,308.8z"/>
<path class="st2" d="M463.1,312.7c51.1-21.3,107.2-11.2,113.6,36.2c5.7,42.6-24.2,80.4-85.4,88.5c-87.2,11.5-135.1-19.8-155-78.1
	c-10.4-30.4,18.8-26.8,37.5-28.8C389.8,328.8,434.6,324.6,463.1,312.7L463.1,312.7L463.1,312.7z"/>
<path class="st5" d="M645,350.2c-29.2,16.5-101,41.9-185,41c-90-1-156.8-48.2-221.6-92.5c-21.7-14.8-50.4-14.2-71.4,1.5
	c-25.1,18.8-57.8,46.5-80.2,77.3C8.6,485.1,9.2,593.8,33.1,614.4c23.9,20.6,445.7,18,445.7,18s455.2,5.8,484.3,0
	c37.2-7.2,46.2-83,22.8-129.5c-27.3-54.1-121.8-125.8-220.6-164.2c-27.3-10.6-43.4-15.1-65.3-13.6c-15,1-32,12-55,25l0,0L645,350.2z
	"/>
<g>
	<circle class="st6" cx="796.7" cy="606.4" r="146.2"/>
	<circle class="st7" cx="796.7" cy="606.4" r="106.7"/>
	<circle class="st6" cx="796.7" cy="606.4" r="31.2"/>
</g>
<path class="st8" d="M155.7,403.9c28.5-39.2,73.6-73.3,98.8-90.7c0.9-0.6,1.9-1.2,2.9-1.7c-6.4-4.3-12.8-8.5-18.8-12.7
	c-21.8-14.9-50.6-14.3-71.8,1.6c-25.1,18.8-57.6,46.4-80,77.1C8.6,485.1,9.2,593.8,33.1,614.4c5,4.3,27.3,7.6,59.5,10.1
	c-12.6-39.1-2.5-130.3,63.2-220.7l0,0L155.7,403.9z"/>
<g>
	<circle class="st6" cx="223.5" cy="606.4" r="146.2"/>
	<circle class="st7" cx="223.5" cy="606.4" r="106.7"/>
	<circle class="st6" cx="223.5" cy="606.4" r="31.2"/>
</g>
<path class="st9" d="M459.6,590.8c1.9,0,1.9-3,0-3S457.7,590.8,459.6,590.8L459.6,590.8z"/>
<polygon class="st8" points="254.1,404.3 393.8,404.3 436.7,531.7 516.1,404.3 566.8,404.3 509.7,493.1 561.2,493.1 618.3,404.3 
	666,404.3 547.5,591.8 499.3,591.8 542.2,524.9 490.7,524.9 427.5,624.8 362,438.8 266.8,438.8 "/>
</svg>
