<?xml version="1.0" encoding="UTF-8"?>
<svg id="road" xmlns="http://www.w3.org/2000/svg" viewBox="0 0 1003.94 755">
  <defs>
    <style>
      .cls-1 {
        fill: #f9da0e;
      }

      .cls-1, .cls-2, .cls-3, .cls-4, .cls-5, .cls-6, .cls-7, .cls-8, .cls-9, .cls-10, .cls-11 {
        stroke-width: 0px;
      }

      .cls-2 {
        fill: #f8bc17;
      }

      .cls-3 {
        fill: #fc3f3f;
      }

      .cls-4 {
        fill: #f47211;
      }

      .cls-5 {
        fill: #4d4c4d;
      }

      .cls-6 {
        fill: #397cb2;
      }

      .cls-7 {
        fill: #211e1f;
      }

      .cls-8 {
        fill: #d62b2b;
      }

      .cls-9 {
        fill: #30302f;
      }

      .cls-10 {
        fill: #f44921;
      }

      .cls-11 {
        fill: #fff;
      }
    </style>
  </defs>
  <path class="cls-1" d="m313.41,280.36c45.92-20.8,72.83-42.3,127.86-42.76-11.65-16.26-19.08-35.84-20.53-57.25-4.24-62.44,43.82-116.35,106.77-118.86,57.35-2.29,107.83,40.46,114.91,97.42,4.19,33.75-7.03,65.43-27.85,88.51,40.69,22.57,67.14,61.23,67.66,107.56.82,72.74-48.73,126.28-160.95,131.02-112.23,4.74-164.36-22.56-204.1-61.4-38-37.14-62.99-108.83-60.76-144.32,1.39-3.96,4.78-4.19,4.78-4.19,0,0,27.59,15.43,52.22,4.28Z"/>
  <circle class="cls-7" cx="527.76" cy="144.49" r="20.65"/>
  <circle class="cls-11" cx="535.79" cy="139.58" r="5.75"/>
  <path class="cls-2" d="m614.17,154.77c-17.82,3-18.26,20.84-28.47,25.32-10.22,4.48-26.75,3.51-24.37,13.73,2.38,10.22,36.84,27.3,56.3,27.44,19.46.14,88.56-26.03,72.03-48.76-8.87-12.19-34.14-4.21-45.92-8.01s-15.21-12.14-29.57-9.72Z"/>
  <path class="cls-3" d="m682.22,354.97c-.52-46.26-26.88-84.86-67.45-107.44-21.14,5.67-69.09,12.8-107.6,7.59-33.6-4.55-47.87-10.46-65.94-17.57.01.02.02.03.03.05-55.03.47-81.95,21.97-127.86,42.76-24.63,11.15-52.22-4.28-52.22-4.28,0,0-3.39.23-4.78,4.19-2.23,35.49,22.76,107.18,60.76,144.32,39.74,38.84,91.88,66.14,204.1,61.4,112.22-4.74,161.77-58.28,160.95-131.02Z"/>
  <path class="cls-8" d="m633.6,259.69c-6.89-5.74-10.68-7.62-18.8-12.14,0,0-.02,0-.02-.01-21.14,5.67-69.09,12.8-107.6,7.59-33.6-4.55-47.87-10.46-65.94-17.57.01.02.02.03.03.05-12.39.11-23.35,1.28-33.43,3.27,23.24,10.75,42.95,19.75,87.36,27.54,48.97,8.59,105.93-1.57,138.39-8.73Z"/>
  <path class="cls-8" d="m489.3,449.08c-49.03-2.01-87.48-39.05-85.69-82.57,1.78-43.52,43.12-77.3,92.16-75.29s87.48,39.05,85.69,82.57c-1.78,43.52-43.12,77.3-92.16,75.29Zm5.4-131.89c-34.71-1.42-63.92,21.18-65.12,50.38-1.2,29.2,26.07,54.11,60.78,55.53s63.92-21.18,65.12-50.38-26.07-54.11-60.78-55.53Z"/>
  <path class="cls-2" d="m536.4,318.26c-52.28-18.17-107.73-4.67-111.21,43.01-3.13,42.85,29.05,78.81,90.64,83.18,87.7,6.23,133.66-28.01,149.94-87.42,8.48-30.97-20.43-25.62-39.18-26.42-16.05-.69-61-2.21-90.18-12.35Z"/>
  <rect class="cls-7" x="507.08" y="99.09" width="73.58" height="7.68" transform="translate(166.38 -301.9) rotate(36.28)"/>
  <path class="cls-4" d="m645,350.25c-29.2,16.5-101.01,41.93-185,41-90-1-156.79-48.18-221.61-92.55-21.68-14.84-50.38-14.25-71.41,1.5-25.15,18.84-57.76,46.48-80.18,77.32-78.19,107.56-77.6,216.33-53.73,236.93,23.88,20.6,445.73,18.03,445.73,18.03,0,0,455.19,5.78,484.29.1,37.18-7.25,46.25-83.03,22.83-129.45-27.28-54.08-121.79-125.8-220.58-164.24-27.35-10.64-43.37-15.1-65.35-13.64-15,1-32,12-55,25Z"/>
  <g>
    <circle class="cls-9" cx="796.66" cy="606.42" r="146.24"/>
    <circle class="cls-5" cx="796.66" cy="606.42" r="106.74"/>
    <circle class="cls-9" cx="796.66" cy="606.42" r="31.21"/>
  </g>
  <path class="cls-10" d="m155.73,403.89c28.53-39.25,73.59-73.33,98.76-90.67.93-.64,1.89-1.2,2.86-1.73-6.45-4.28-12.75-8.53-18.83-12.7-21.78-14.91-50.63-14.26-71.75,1.58-25.13,18.84-57.61,46.41-79.96,77.15-78.19,107.56-77.6,216.33-53.73,236.93,4.98,4.3,27.3,7.59,59.49,10.1-12.62-39.06-2.54-130.28,63.16-220.66Z"/>
  <g>
    <circle class="cls-9" cx="223.53" cy="606.42" r="146.24"/>
    <circle class="cls-5" cx="223.53" cy="606.42" r="106.74"/>
    <circle class="cls-9" cx="223.53" cy="606.42" r="31.21"/>
  </g>
  <polygon class="cls-10" points="254.08 404.26 393.75 404.26 436.67 531.7 516.06 404.26 566.85 404.26 509.71 493.14 561.2 493.14 618.34 404.26 666 404.26 547.51 591.81 499.33 591.81 542.16 524.88 490.67 524.88 427.49 624.85 362 438.83 266.78 438.83 254.08 404.26"/>
  <path class="cls-6" d="m440.37,563.75c1.93,0,1.93-3,0-3s-1.93,3,0,3h0Z"/>
</svg>