<?xml version="1.0" encoding="utf-8"?>
<!-- Generator: Adobe Illustrator 27.9.4, SVG Export Plug-In . SVG Version: 9.03 Build 54784)  -->
<svg version="1.1" id="road" xmlns="http://www.w3.org/2000/svg" xmlns:xlink="http://www.w3.org/1999/xlink" x="0px" y="0px"
	 viewBox="0 0 800 800" style="enable-background:new 0 0 800 800;" xml:space="preserve">
<style type="text/css">
	.st0{fill:#FFF3E6;}
	.st1{fill:#3D605D;}
	.st2{fill:none;}
	.st3{fill:#313F3E;}
	.st4{fill:#3E9332;}
</style>
<path class="st0" d="M64.66,150.65h506.9c10.1,0,18.31,8.2,18.31,18.31V431.3c0,10.1-8.2,18.31-18.31,18.31H64.66V150.65
	L64.66,150.65z"/>
<g>
	<rect x="139.25" y="150" class="st1" width="75.33" height="75.6"/>
	<rect x="289.6" y="150" class="st1" width="75.33" height="75.6"/>
	<rect x="439.95" y="150" class="st1" width="75.33" height="75.6"/>
	<rect x="64.07" y="225.26" class="st1" width="75.33" height="75.6"/>
	<rect x="214.42" y="225.26" class="st1" width="75.33" height="75.6"/>
	<rect x="364.78" y="225.26" class="st1" width="75.33" height="75.6"/>
	<rect x="515.13" y="225.26" class="st1" width="75.33" height="75.6"/>
	<rect x="139.25" y="300.51" class="st1" width="75.33" height="75.6"/>
	<rect x="289.6" y="300.51" class="st1" width="75.33" height="75.6"/>
	<rect x="439.95" y="300.51" class="st1" width="75.33" height="75.6"/>
	<rect x="64.07" y="375.77" class="st1" width="75.33" height="75.6"/>
	<rect x="214.42" y="375.77" class="st1" width="75.33" height="75.6"/>
	<rect x="364.78" y="375.77" class="st1" width="75.33" height="75.6"/>
	<path class="st1" d="M515.13,375.77h75.33v55.65c0,11.01-8.94,19.95-19.95,19.95h-55.38V375.77L515.13,375.77z"/>
</g>
<rect x="77.27" y="139.35" class="st2" width="520.5" height="300.55"/>
<path class="st3" d="M41.7,119H64c8.21,0,14.87,6.66,14.87,14.87v638.21c0,8.21-6.66,14.87-14.87,14.87H41.7
	c-8.21,0-14.87-6.66-14.87-14.87V133.87C26.83,125.66,33.49,119,41.7,119z"/>
<g>
	<path class="st4" d="M34.15,790.03c0,0-2.55-45,10.98-76.15c8.65-19.91,24.28-36.74,35.33-46.98c3.85-3.57,11.14-1.23,10.57,3.39
		c-1.73,13.98-7.48,32.34-5.66,52.57c3.33,37,21.6,54.14,21.6,54.14"/>
	<path class="st4" d="M62.17,757.94c0,0,19-25.7,39.42-38.91c12.12-7.85,26.6-11.74,36.99-13.65c4.7-0.86,7.89,4.64,4.78,8.27
		c-6.53,7.64-15.07,18.46-20.14,28.19c-8.05,15.47-11.69,34.27-13.25,45.53c-0.76,5.47-5.7,9.35-11.21,8.85
		c-9.4-0.86-23.54-1.77-34.51-0.88c-6.89,0.56-14.03,1.81-20.22,3.13c-10.9,2.33-21.9-3.33-26.42-13.51
		c-5.9-13.27-12.76-31.92-14-49.02c-1.43-19.83,3.95-39.89,8.44-52.68c1.68-4.79,8.44-4.82,10.19-0.06
		c4.49,12.19,11.8,30.02,20.17,42.58c19,28.5,53.26,50.16,53.26,50.16"/>
</g>
</svg>
