<?xml version="1.0" encoding="UTF-8"?>
<svg id="Layer_1" data-name="Layer 1" xmlns="http://www.w3.org/2000/svg" viewBox="0 0 1920 1164">
  <defs>
    <style>
      .cls-1, .cls-2, .cls-3, .cls-4 {
        isolation: isolate;
      }

      .cls-1, .cls-2, .cls-3, .cls-4, .cls-5 {
        opacity: .6;
      }

      .cls-1, .cls-2, .cls-3, .cls-4, .cls-6, .cls-7, .cls-8, .cls-9, .cls-10, .cls-11, .cls-12, .cls-13, .cls-14, .cls-15, .cls-16, .cls-17, .cls-18, .cls-19, .cls-20, .cls-21, .cls-22, .cls-23, .cls-24, .cls-25, .cls-26, .cls-27, .cls-28, .cls-29, .cls-30, .cls-31, .cls-32, .cls-33, .cls-34, .cls-35, .cls-36, .cls-37, .cls-38, .cls-39, .cls-40, .cls-41 {
        stroke-width: 0px;
      }

      .cls-1, .cls-31 {
        fill: #408532;
      }

      .cls-2, .cls-28 {
        fill: #35942e;
      }

      .cls-3, .cls-17 {
        fill: #2b8f2f;
      }

      .cls-4 {
        fill: #207d1f;
      }

      .cls-42 {
        stroke: #4a5663;
        stroke-width: 15px;
      }

      .cls-42, .cls-43, .cls-44 {
        fill: none;
        stroke-miterlimit: 10;
      }

      .cls-43 {
        stroke: #586274;
        stroke-width: 10px;
      }

      .cls-45 {
        opacity: .2;
      }

      .cls-46 {
        opacity: .3;
      }

      .cls-47 {
        opacity: .8;
      }

      .cls-6 {
        fill: #f9dd64;
      }

      .cls-7 {
        fill: #4aa630;
      }

      .cls-8 {
        fill: #60b99d;
      }

      .cls-9 {
        fill: #48992c;
      }

      .cls-10 {
        fill: #4b535e;
      }

      .cls-11 {
        fill: #5db783;
      }

      .cls-12 {
        fill: #70a8b7;
      }

      .cls-13 {
        fill: #4fb477;
      }

      .cls-14 {
        fill: #76bcad;
      }

      .cls-15 {
        fill: #2b9e1e;
      }

      .cls-16 {
        fill: #484e59;
      }

      .cls-18 {
        fill: #555a65;
      }

      .cls-19 {
        fill: #5aaab4;
      }

      .cls-20 {
        fill: #459932;
      }

      .cls-21 {
        fill: #6ebca5;
      }

      .cls-22 {
        fill: #36941f;
      }

      .cls-23 {
        fill: #378937;
      }

      .cls-24 {
        fill: #3a7a2b;
      }

      .cls-25 {
        fill: #438b27;
      }

      .cls-26 {
        fill: #36891f;
      }

      .cls-27 {
        fill: #367e24;
      }

      .cls-29 {
        fill: #407c32;
      }

      .cls-30 {
        fill: #409c36;
      }

      .cls-32 {
        fill: #24872b;
      }

      .cls-33 {
        fill: #8baeba;
      }

      .cls-34 {
        fill: #fff;
      }

      .cls-35 {
        fill: #ffa05a;
      }

      .cls-36 {
        fill: #ffe780;
      }

      .cls-37 {
        fill: #ffe67b;
      }

      .cls-38 {
        fill: #ffb358;
      }

      .cls-39 {
        fill: #ffce78;
      }

      .cls-40 {
        fill: #ffde76;
      }

      .cls-41 {
        fill: #68adb7;
      }

      .cls-44 {
        stroke: #fff0b3;
        stroke-dasharray: 0 0 0 0 0 0 25 38;
        stroke-width: 2px;
      }
    </style>
  </defs>
  <g id="bg">
    <rect class="cls-36" x="-11" width="1931" height="355"/>
  </g>
  <g id="sky">
    <path class="cls-40" d="m1684.98,341c0-.36.02-.72.02-1.08,0-314.58-324.72-569.59-725.28-569.59S234.44,25.34,234.44,339.92c0,.36.02.72.02,1.08h1450.53-.01Z"/>
    <path class="cls-39" d="m1490.99,339c0-.26.01-.53.01-.79,0-229.35-236.74-415.27-528.78-415.27S433.44,108.86,433.44,338.21c0,.26.01.53.01.79h1057.54Z"/>
    <g>
      <path class="cls-38" d="m1179.17,242v-.37c0-106.94-98.44-193.63-219.87-193.63s-219.87,86.69-219.87,193.63v.37h439.74Z"/>
      <path class="cls-35" d="m1131.85,242v-.29c0-83.92-77.25-151.95-172.54-151.95s-172.54,68.03-172.54,151.95v.29h345.08Z"/>
    </g>
  </g>
  <g id="buildings">
    <g class="cls-47">
      <path class="cls-12" d="m1796.8,200.33h17.54c4.31,0,7.8,3.49,7.8,7.8v68.9c0,4.31-3.49,7.8-7.8,7.8h-17.54c-4.31,0-7.8-3.49-7.8-7.8v-68.9c0-4.31,3.49-7.8,7.8-7.8Z"/>
    </g>
    <g class="cls-47">
      <path class="cls-19" d="m1841.58,191.02h20.14c3.59,0,6.5,2.91,6.5,6.5v88.95c0,3.59-2.91,6.5-6.5,6.5h-20.14c-3.59,0-6.5-2.91-6.5-6.5v-88.95c0-3.58,2.91-6.5,6.5-6.5Z"/>
    </g>
    <g class="cls-47">
      <path class="cls-41" d="m1887.36,231.5h20.14c3.59,0,6.5,2.91,6.5,6.5v82.16c0,3.59-2.91,6.5-6.5,6.5h-20.14c-3.59,0-6.5-2.91-6.5-6.5v-82.16c0-3.59,2.91-6.5,6.5-6.5Z"/>
    </g>
    <g class="cls-47">
      <path class="cls-19" d="m1701.06,179h20.14c3.59,0,6.5,2.91,6.5,6.5v64.69c0,3.59-2.91,6.5-6.5,6.5h-20.14c-3.59,0-6.5-2.91-6.5-6.5v-64.69c0-3.59,2.91-6.5,6.5-6.5Z"/>
    </g>
    <g class="cls-47">
      <path class="cls-41" d="m1748.84,141.45h20.14c3.59,0,6.5,2.91,6.5,6.5v143.77c0,3.59-2.91,6.5-6.5,6.5h-20.14c-3.59,0-6.5-2.91-6.5-6.5v-143.77c0-3.59,2.91-6.5,6.5-6.5Z"/>
    </g>
    <g class="cls-47">
      <path class="cls-14" d="m1511.98,200.27h20.14c3.59,0,6.5,2.91,6.5,6.5v45.62c0,3.59-2.91,6.5-6.5,6.5h-20.14c-3.59,0-6.5-2.91-6.5-6.5v-45.62c0-3.59,2.91-6.5,6.5-6.5Z"/>
    </g>
    <g class="cls-47">
      <path class="cls-21" d="m1559.06,161.03h20.14c3.59,0,6.5,2.91,6.5,6.5v88.95c0,3.59-2.91,6.5-6.5,6.5h-20.14c-3.59,0-6.5-2.91-6.5-6.5v-88.95c0-3.59,2.91-6.5,6.5-6.5Z"/>
    </g>
    <g class="cls-47">
      <path class="cls-8" d="m1607.84,219.61h20.14c3.59,0,6.5,2.91,6.5,6.5v82.16c0,3.59-2.91,6.5-6.5,6.5h-20.14c-3.59,0-6.5-2.91-6.5-6.5v-82.16c0-3.59,2.91-6.5,6.5-6.5Z"/>
    </g>
    <path class="cls-33" d="m110.48,219.28h20.14c3.59,0,6.5,2.91,6.5,6.5v34.44c0,3.59-2.91,6.5-6.5,6.5h-20.14c-3.59,0-6.5-2.91-6.5-6.5v-34.44c0-3.59,2.91-6.5,6.5-6.5Z"/>
    <g class="cls-47">
      <path class="cls-12" d="m64.4,187.26h20.14c3.59,0,6.5,2.91,6.5,6.5v82.24c0,3.59-2.91,6.5-6.5,6.5h-20.14c-3.59,0-6.5-2.91-6.5-6.5v-82.24c0-3.59,2.91-6.5,6.5-6.5Z"/>
    </g>
    <g class="cls-47">
      <path class="cls-41" d="m18.62,225h20.14c3.59,0,6.5,2.91,6.5,6.5v95.32c0,3.59-2.91,6.5-6.5,6.5h-20.14c-3.59,0-6.5-2.91-6.5-6.5v-95.32c0-3.59,2.91-6.5,6.5-6.5Z"/>
    </g>
    <g class="cls-47">
      <path class="cls-19" d="m204.92,189h20.14c3.59,0,6.5,2.91,6.5,6.5v60.01c0,3.59-2.91,6.5-6.5,6.5h-20.14c-3.59,0-6.5-2.91-6.5-6.5v-60.01c0-3.59,2.91-6.5,6.5-6.5Z"/>
    </g>
    <g class="cls-47">
      <path class="cls-41" d="m157.14,148.34h20.14c3.59,0,6.5,2.91,6.5,6.5v150.1c0,3.59-2.91,6.5-6.5,6.5h-20.14c-3.59,0-6.5-2.91-6.5-6.5v-150.1c0-3.59,2.91-6.5,6.5-6.5Z"/>
    </g>
    <g class="cls-47">
      <path class="cls-8" d="m395.85,177.46h20.14c3.59,0,6.5,2.91,6.5,6.5v77.22c0,3.59-2.91,6.5-6.5,6.5h-20.14c-3.59,0-6.5-2.91-6.5-6.5v-77.22c0-3.59,2.92-6.5,6.5-6.5Z"/>
    </g>
    <g class="cls-47">
      <path class="cls-14" d="m349.77,199.46h20.14c3.59,0,6.5,2.91,6.5,6.5v57.01c0,3.59-2.91,6.5-6.5,6.5h-20.14c-3.59,0-6.5-2.91-6.5-6.5v-57.01c0-3.59,2.91-6.5,6.5-6.5Z"/>
    </g>
    <g class="cls-47">
      <path class="cls-8" d="m299.98,165.46h20.14c3.59,0,6.5,2.91,6.5,6.5v107.1c0,3.59-2.91,6.5-6.5,6.5h-20.14c-3.59,0-6.5-2.91-6.5-6.5v-107.1c0-3.59,2.92-6.5,6.5-6.5Z"/>
    </g>
    <g class="cls-47">
      <path class="cls-13" d="m629.75,184.5h20.14c3.59,0,6.5,2.91,6.5,6.5v60.01c0,3.59-2.91,6.5-6.5,6.5h-20.14c-3.59,0-6.5-2.91-6.5-6.5v-60.01c0-3.59,2.91-6.5,6.5-6.5Z"/>
    </g>
    <g class="cls-47">
      <path class="cls-11" d="m581.97,142.5h20.14c3.59,0,6.5,2.91,6.5,6.5v150.1c0,3.59-2.91,6.5-6.5,6.5h-20.14c-3.59,0-6.5-2.91-6.5-6.5v-150.1c0-3.59,2.91-6.5,6.5-6.5Z"/>
    </g>
    <g class="cls-47">
      <path class="cls-13" d="m1348.75,206.07h20.14c3.59,0,6.5,2.91,6.5,6.5v60.01c0,3.59-2.91,6.5-6.5,6.5h-20.14c-3.59,0-6.5-2.91-6.5-6.5v-60.01c0-3.59,2.91-6.5,6.5-6.5Z"/>
    </g>
    <g class="cls-47">
      <path class="cls-11" d="m1298.97,147.9h20.14c3.59,0,6.5,2.91,6.5,6.5v150.1c0,3.59-2.91,6.5-6.5,6.5h-20.14c-3.59,0-6.5-2.91-6.5-6.5v-150.1c0-3.59,2.91-6.5,6.5-6.5Z"/>
    </g>
    <g class="cls-47">
      <path class="cls-11" d="m1248.65,192.95h20.14c3.59,0,6.5,2.91,6.5,6.5v150.1c0,3.59-2.91,6.5-6.5,6.5h-20.14c-3.59,0-6.5-2.91-6.5-6.5v-150.1c0-3.58,2.91-6.5,6.5-6.5Z"/>
    </g>
  </g>
  <g class="cls-45">
    <path class="cls-34" d="m1534.12,101.98l-318.63-.36c-4.86,0-8.79-3.65-8.79-8.16h0c0-4.51,3.94-8.16,8.79-8.16l318.63.36c4.86,0,8.79,3.65,8.79,8.16h0c0,4.51-3.94,8.16-8.79,8.16Z"/>
    <path class="cls-34" d="m1479.31,73.85l-192.27-.36c-.11,0-.2-.08-.2-.19h0c0-7.35,6.47-13.3,14.45-13.3l163.79.36c7.98,0,14.45,5.96,14.45,13.3h0c0,.1-.09.19-.2.19h-.02Z"/>
    <path class="cls-34" d="m1516.62,85.98l-276.05-.36c-.11,0-.21-.08-.21-.19h0c0-7.35,6.58-13.3,14.69-13.3l247.08.36c8.11,0,14.69,5.96,14.69,13.3h0c0,.1-.09.19-.21.19h.01Z"/>
  </g>
  <g class="cls-46">
    <g class="cls-47">
      <path class="cls-34" d="m1133.62,71.74c6.69,4.02,11.93,9.17,15.22,14.45,6.21.43,13.21,2.65,19.9,6.67,4.05,2.43,7.56,5.28,10.43,8.31-2.5-4.61-6.72-9.04-12.26-12.38-5.52-3.32-11.38-4.98-16.6-5.03-2.5-4.59-6.71-8.99-12.23-12.3-5.52-3.31-11.44-4.99-16.69-5.03,4.03,1.12,8.19,2.89,12.23,5.32h0s0,0,0,0Z"/>
    </g>
    <g class="cls-47">
      <path class="cls-34" d="m1093.43,19.51c7.27,2.86,13.29,7.06,17.42,11.73,6.19-.6,13.46.42,20.73,3.27,4.4,1.73,8.32,3.94,11.67,6.46-3.23-4.13-8.14-7.81-14.16-10.17-5.98-2.35-12.05-3.01-17.21-2.21-3.23-4.11-8.11-7.75-14.11-10.1s-12.12-3.02-17.29-2.2c4.16.44,8.55,1.49,12.95,3.22Z"/>
    </g>
    <g class="cls-47">
      <path class="cls-34" d="m973.23,21.95c7.54,2.03,13.99,5.54,18.61,9.72,6.09-1.29,13.44-1.08,20.97.96,4.56,1.23,8.71,3.01,12.31,5.12-3.67-3.75-8.96-6.85-15.2-8.54-6.22-1.68-12.3-1.66-17.35-.28-3.67-3.73-8.93-6.8-15.13-8.48-6.21-1.68-12.37-1.66-17.43-.26,4.18-.02,8.65.54,13.22,1.76h0Z"/>
    </g>
  </g>
  <g class="cls-45">
    <path class="cls-34" d="m730.32,157.82l-318.63-.36c-4.86,0-8.79-3.65-8.79-8.16h0c0-4.51,3.94-8.16,8.79-8.16l318.63.36c4.86,0,8.79,3.65,8.79,8.16h0c0,4.51-3.94,8.16-8.79,8.16Z"/>
    <path class="cls-34" d="m675.51,129.69l-192.27-.36c-.11,0-.2-.08-.2-.19h0c0-7.35,6.47-13.3,14.45-13.3l163.79.36c7.98,0,14.45,5.96,14.45,13.3h0c0,.1-.09.19-.2.19h-.02Z"/>
    <path class="cls-34" d="m712.82,141.82l-276.05-.36c-.11,0-.21-.08-.21-.19h0c0-7.35,6.58-13.3,14.69-13.3l247.08.36c8.11,0,14.69,5.96,14.69,13.3h0c0,.1-.09.19-.21.19h.01Z"/>
  </g>
  <g id="grass_" data-name="grass ">
    <rect class="cls-7" x="-31" y="311" width="1987" height="421"/>
  </g>
  <path class="cls-15" d="m799.62,383.31c.09,3.81,1.29,11.31,2.43,17.69.49,2.72-1.75,5.12-4.51,4.89-1.52-.12-3.1-.19-4.72-.19-3.54,0-6.88.32-9.81.87-2.04.39-4.09-.57-5.11-2.38-2.04-3.59-3.85-7.55-4.86-11.52-3.3-13.03-.15-23.64-.15-23.64,0,0,7.19,13.67,12.09,21.35.7-6.33,1.98-13.42,4.33-19.58,5.95-15.62,15.32-24.25,15.32-24.25,0,0-5.18,29.37-5.01,36.74v.02Z"/>
  <path class="cls-1" d="m222.44,389.5c2.45.16,4.35-2.04,3.92-4.45-.4-2.27-.69-5.51-.6-10.09.22-11.31,2.89-19.36,2.89-19.36,0,0-5.82,2.94-11.08,8.35h0c-4.83-11.04-6.38-22.17-6.38-22.17,0,0-4.61,15.56-5.24,30.48-.28,6.72.35,11.28,1.14,14.26.7,2.66,3.4,4.24,6.07,3.56,1.56-.4,3.48-.73,5.56-.73,1.21,0,2.5.06,3.72.14h0Z"/>
  <g class="cls-5">
    <path class="cls-32" d="m408.45,806.24s-12.82-8.11-19.94-18.78c-2.93-4.4-5.52-10.54-7.22-15.04-.79-2.09-3.77-2.05-4.47.07-1.6,4.8-3.34,11.83-2.84,18.78.53,7.36,3.85,15.48,6.2,20.43,1.23,2.6,4.18,3.92,6.93,3.1,2.76-.83,6.49-1.75,10.4-2.14,3.16-.32,7.94.25,11.44.8,2.38.37,4.61-1.26,4.96-3.64.63-4.27,2-10.86,4.86-16.35,1.68-3.23,4.39-6.78,6.68-9.54,1.45-1.74-.13-4.3-2.34-3.83-3.72.79-8.42,2.23-12.44,4.83-7.65,4.95-13.98,15.35-13.98,15.35"/>
    <path class="cls-32" d="m385.65,810.12s-1.01-18.92,3.35-31.95c2.59-7.74,7.18-14.35,10.72-18.66,1.47-1.8,4.39-.61,4.2,1.71-.48,5.86-.91,14.27-.2,20.88,1.69,15.51,8.85,30.63,8.85,30.63"/>
  </g>
  <g class="cls-5">
    <path class="cls-28" d="m72.66,666.36s19.44-12.29,30.23-28.47c4.45-6.67,8.37-15.97,10.94-22.8,1.19-3.17,5.71-3.11,6.78.1,2.43,7.27,5.06,17.93,4.3,28.47-.81,11.16-5.83,23.47-9.39,30.98-1.87,3.94-6.33,5.95-10.51,4.7s-9.84-2.65-15.76-3.24c-4.79-.48-12.04.39-17.34,1.21-3.61.56-6.99-1.9-7.52-5.51-.96-6.47-3.04-16.47-7.37-24.78-2.55-4.9-6.65-10.28-10.13-14.46-2.19-2.63.2-6.52,3.55-5.81,5.65,1.2,12.77,3.39,18.86,7.32,11.59,7.5,21.19,23.27,21.19,23.27"/>
    <path class="cls-28" d="m107.22,672.24s1.53-28.67-5.07-48.44c-3.92-11.74-10.88-21.75-16.25-28.29-2.23-2.72-6.65-.92-6.37,2.59.73,8.89,1.39,21.64.3,31.66-2.56,23.51-13.42,46.43-13.42,46.43"/>
  </g>
  <g class="cls-5">
    <path class="cls-30" d="m1149.92,407.28s-1.07-18.84,4.6-31.89c3.62-8.34,10.17-15.39,14.8-19.67,1.61-1.49,4.67-.52,4.43,1.42-.72,5.85-3.13,13.54-2.37,22.01,1.4,15.5,9.04,22.67,9.04,22.67"/>
    <path class="cls-30" d="m1161.65,393.85s7.96-10.76,16.51-16.29c5.08-3.29,11.14-4.92,15.49-5.72,1.97-.36,3.3,1.94,2,3.46-2.74,3.2-6.31,7.73-8.43,11.8-3.37,6.48-4.89,14.35-5.55,19.07-.32,2.29-2.39,3.92-4.69,3.71-3.94-.36-9.86-.74-14.45-.37-2.89.24-5.88.76-8.47,1.31-4.56.97-9.17-1.39-11.06-5.66-2.47-5.56-5.34-13.36-5.86-20.53-.6-8.31,1.65-16.71,3.53-22.06.7-2.01,3.53-2.02,4.27-.02,1.88,5.1,4.94,12.57,8.45,17.83,7.96,11.93,22.3,21,22.3,21"/>
  </g>
  <path class="cls-4" d="m1098.36,775.18c3.79.76,7.41-2.08,7.51-5.94.08-3.12.7-7.27,2.4-12.73,4.55-14.65,13.01-23.63,13.01-23.63,0,0-13.16.49-26.06,4.54h0c-6.05-17.2-5.25-32.63-5.25-32.63,0,0-15.21,17.68-21.9,36.81-3.48,9.95-3,19.01-1.73,25.42,1.02,5.16,5.91,8.64,11.11,7.81,3-.48,6.55-.87,10.16-.87s7.42.55,10.77,1.22h-.02Z"/>
  <path class="cls-2" d="m1879.68,400.77c2.88.15,5.12-1.89,4.62-4.12-.47-2.1-.81-5.1-.7-9.34.26-10.47,3.41-17.92,3.41-17.92,0,0-6.86,2.72-13.06,7.73h0c-5.69-10.22-7.52-20.52-7.52-20.52,0,0-5.43,14.41-6.17,28.22-.33,6.22.42,10.44,1.34,13.2.82,2.46,4.01,3.93,7.15,3.3,1.84-.37,4.09-.67,6.55-.67,1.42,0,2.94.05,4.39.13h-.01Z"/>
  <path class="cls-1" d="m1642.55,479.75c-1.49,4.61-2.34,11.08-2.61,16.51-.13,2.75-2.46,4.86-5.22,4.72-1.71-.09-3.48.01-4.87.24-.8.13-1.58.32-2.31.53-3.63,1.06-7.45-1.12-8.14-4.84s-.73-8.45,0-13.94c1.48-11,6.42-18.43,6.42-18.43,0,0,1.82,12.62,3.5,19.95,2.29-4.73,5.25-9.89,8.78-14.03,8.95-10.51,17.13-12.2,17.13-12.2,0,0-10.83,15.68-12.68,21.49h0Z"/>
  <path class="cls-2" d="m741.85,530.5c-2.88.58-5.63-1.58-5.7-4.51-.06-2.37-.53-5.52-1.82-9.66-3.45-11.13-9.87-17.94-9.87-17.94,0,0,9.99.37,19.78,3.45h0c4.59-13.06,3.99-24.78,3.99-24.78,0,0,11.55,13.42,16.63,27.95,2.64,7.56,2.27,14.44,1.31,19.3-.77,3.92-4.49,6.56-8.43,5.93-2.27-.36-4.97-.66-7.72-.66s-5.63.41-8.17.92h0Z"/>
  <path class="cls-3" d="m1148.32,788.6c3.61.24,6.43-3.01,5.79-6.58-.59-3.35-1.02-8.14-.88-14.91.33-16.71,4.27-28.59,4.27-28.59,0,0-8.6,4.34-16.37,12.34h0c-7.13-16.31-9.43-32.74-9.43-32.74,0,0-6.81,22.99-7.73,45.03-.41,9.92.52,16.66,1.68,21.07,1.03,3.93,5.03,6.26,8.97,5.26,2.3-.59,5.13-1.07,8.21-1.07,1.78,0,3.69.09,5.5.21v-.02Z"/>
  <path class="cls-1" d="m320.14,404.77c1.8,5.59,2.84,13.42,3.16,20.01.16,3.33,2.99,5.89,6.32,5.72,2.08-.1,4.21.02,5.9.29.97.16,1.91.38,2.79.64,4.4,1.29,9.02-1.36,9.86-5.87.87-4.67.89-10.24,0-16.89-1.79-13.33-7.77-22.32-7.77-22.32,0,0-2.2,15.29-4.24,24.17-2.78-5.73-6.36-11.98-10.64-17-10.84-12.73-20.75-14.78-20.75-14.78,0,0,13.12,19,15.38,26.02h-.01Z"/>
  <g>
    <path class="cls-30" d="m1785.95,610.59s1.39-21.2-4.61-35.82c-3.57-8.68-9.89-16.08-14.77-20.92-2.03-2.01-6.05-.68-5.78,1.91.67,6.57,1.26,16,.27,23.41-2.32,17.39-10.9,32.85-10.9,32.85"/>
    <path class="cls-30" d="m1770.74,599.56s-8.72-11.66-19.25-17.21c-5.53-2.91-12-4.53-17.13-5.42-3.04-.53-5.22,2.35-3.23,4.3,3.16,3.09,6.89,7.07,9.2,10.69,3.42,5.35,5.3,11.65,6.3,16.34.8,3.75,4.3,6.29,8.11,5.81,3.94-.5,9.25-.96,15.15-.95s11.64,1.33,15.34,2.53c3.08.99,6.44-.23,8.08-3.02,3.25-5.52,7.96-14.8,8.7-23.19.69-7.8-1.7-15.67-3.91-21.05-.98-2.38-5.08-2.42-6.17-.07-2.34,5.05-5.9,11.93-9.94,16.86-9.8,11.96-27.47,21.05-27.47,21.05"/>
  </g>
  <path class="cls-1" d="m48.95,442.31c-2.74.19-4.88-2.29-4.4-4.99.45-2.54.77-6.18.67-11.32-.25-12.69-3.24-21.71-3.24-21.71,0,0,6.53,3.29,12.43,9.37h0c5.41-12.38,7.16-24.86,7.16-24.86,0,0,5.17,17.45,5.87,34.19.31,7.53-.4,12.65-1.28,15.99-.78,2.99-3.82,4.76-6.81,3.99-1.75-.45-3.9-.81-6.23-.81-1.35,0-2.8.07-4.17.16h0Z"/>
  <g class="cls-5">
    <path class="cls-30" d="m583.88,399.9s1.07-18.84-4.6-31.89c-3.62-8.34-10.17-15.39-14.8-19.67-1.61-1.49-4.67-.52-4.43,1.42.72,5.85,3.13,13.54,2.37,22.01-1.4,15.5-9.04,22.67-9.04,22.67"/>
    <path class="cls-30" d="m572.15,386.47s-7.96-10.76-16.51-16.29c-5.08-3.29-11.14-4.92-15.49-5.72-1.97-.36-3.3,1.94-2,3.46,2.74,3.2,6.31,7.73,8.43,11.8,3.37,6.48,4.89,14.35,5.55,19.07.32,2.29,2.39,3.92,4.69,3.71,3.94-.36,9.86-.74,14.45-.37,2.89.24,5.88.76,8.47,1.31,4.56.97,9.17-1.39,11.06-5.66,2.47-5.56,5.34-13.36,5.86-20.53.6-8.31-1.65-16.71-3.53-22.06-.7-2.01-3.53-2.02-4.27-.02-1.88,5.1-4.94,12.57-8.45,17.83-7.96,11.93-22.3,21-22.3,21"/>
  </g>
  <g class="cls-5">
    <path class="cls-17" d="m542.64,791.02s-1.84-27.93,6.07-47.18c4.7-11.43,13.03-21.18,19.45-27.55,2.67-2.65,7.96-.9,7.62,2.52-.88,8.65-1.66,21.07-.35,30.83,3.06,22.9,14.36,43.26,14.36,43.26"/>
    <path class="cls-17" d="m562.85,778.53s9.22-11.96,21.07-17.12c6.22-2.71,13.65-3.92,19.57-4.46,3.51-.32,6.3,3,4.14,4.95-3.44,3.1-7.46,7.12-9.87,10.87-3.42,5.33-5.09,11.75-5.91,16.71-.72,4.41-5.01,7.1-9.96,6.25-5.65-.98-12.76-2-17.88-2.02-4.15-.02-8.77.48-12.74,1.06-6.19.91-12.86-2.32-16.31-7.85-3.88-6.23-6.87-14.44-8.15-21.9-1.46-8.54-.71-17.02,1.42-22.69.94-2.5,5.74-2.21,7.2.44,3.16,5.7,7.9,13.48,13.03,19.19,12.46,13.84,33.88,25.22,33.88,25.22"/>
  </g>
  <path class="cls-3" d="m158,777.13c.12,5.01,1.7,14.9,3.2,23.31.64,3.59-2.31,6.75-5.94,6.45-2-.16-4.08-.25-6.22-.25-4.67,0-9.06.42-12.92,1.15-2.69.51-5.38-.75-6.73-3.13-2.68-4.73-5.07-9.95-6.4-15.18-4.35-17.17-.2-31.13-.2-31.13,0,0,9.47,18,15.92,28.12.92-8.34,2.61-17.67,5.7-25.78,7.84-20.58,20.18-31.94,20.18-31.94,0,0-6.83,38.69-6.59,48.4v-.02Z"/>
  <path class="cls-2" d="m1895.36,667.05c-3.3.63-6.57-2.27-6.77-6.06-.16-3.06-.84-7.15-2.5-12.56-4.44-14.52-12.15-23.58-12.15-23.58,0,0,11.57.88,23.01,5.26h0c4.77-16.69,3.6-31.85,3.6-31.85,0,0,13.9,17.81,20.36,36.79,3.36,9.87,3.22,18.74,2.31,24.99-.74,5.03-4.92,8.29-9.51,7.32-2.64-.56-5.77-1.06-8.95-1.17-3.16-.11-6.5.31-9.41.86h.01Z"/>
  <g class="cls-5">
    <path class="cls-31" d="m1836.21,498.64s15.51-6.41,24.12-14.85c3.55-3.48,6.68-8.33,8.73-11.89.95-1.65,4.55-1.62,5.41.05,1.94,3.79,4.04,9.35,3.43,14.85-.64,5.82-4.65,12.24-7.49,16.16-1.49,2.05-5.05,3.1-8.38,2.45-3.34-.65-7.85-1.38-12.57-1.69-3.82-.25-9.6.2-13.83.63-2.88.29-5.57-.99-6-2.88-.77-3.37-2.42-8.59-5.88-12.92-2.03-2.55-5.31-5.36-8.08-7.54-1.75-1.37.16-3.4,2.83-3.03,4.5.63,10.19,1.77,15.04,3.82,9.25,3.91,16.91,12.14,16.91,12.14"/>
    <path class="cls-31" d="m1863.78,501.71s1.22-14.96-4.05-25.26c-3.13-6.12-8.68-11.34-12.97-14.75-1.78-1.42-5.31-.48-5.08,1.35.59,4.63,1.11,11.29.24,16.51-2.04,12.26-10.7,24.22-10.7,24.22"/>
  </g>
  <g class="cls-5">
    <path class="cls-17" d="m656.35,825.56s25.61-16.19,39.81-37.5c5.86-8.79,11.02-21.03,14.41-30.04,1.57-4.17,7.52-4.1,8.93.13,3.2,9.58,6.67,23.61,5.66,37.5-1.06,14.7-7.68,30.91-12.37,40.8-2.46,5.18-8.34,7.83-13.84,6.19-5.51-1.65-12.97-3.49-20.75-4.27-6.3-.63-15.86.51-22.83,1.59-4.75.74-9.2-2.51-9.91-7.26-1.26-8.52-4-21.69-9.7-32.63-3.36-6.45-8.76-13.54-13.35-19.05-2.89-3.46.27-8.59,4.68-7.65,7.44,1.58,16.82,4.46,24.83,9.65,15.26,9.88,27.91,30.65,27.91,30.65"/>
    <path class="cls-17" d="m701.87,833.3s2.02-37.77-6.68-63.8c-5.17-15.46-14.34-28.64-21.4-37.25-2.94-3.59-8.77-1.21-8.38,3.41.97,11.7,1.83,28.5.39,41.69-3.37,30.97-17.67,61.16-17.67,61.16"/>
  </g>
  <g class="cls-5">
    <path class="cls-30" d="m105.35,536.72s-1.39-21.2,4.61-35.82c3.57-8.68,9.89-16.08,14.77-20.92,2.03-2.01,6.05-.68,5.78,1.91-.67,6.57-1.26,16-.27,23.41,2.32,17.39,10.9,32.85,10.9,32.85"/>
    <path class="cls-30" d="m120.55,525.7s8.72-11.66,19.25-17.21c5.53-2.91,12-4.53,17.13-5.42,3.04-.53,5.22,2.35,3.23,4.3-3.16,3.09-6.89,7.07-9.2,10.69-3.42,5.35-5.3,11.65-6.3,16.34-.8,3.75-4.3,6.29-8.11,5.81-3.94-.5-9.25-.96-15.15-.95s-11.64,1.33-15.34,2.53c-3.08.99-6.44-.23-8.08-3.02-3.25-5.52-7.96-14.8-8.7-23.19-.69-7.8,1.7-15.67,3.91-21.05.98-2.38,5.08-2.42,6.17-.07,2.34,5.05,5.9,11.93,9.94,16.86,9.8,11.96,27.47,21.05,27.47,21.05"/>
  </g>
  <path class="cls-2" d="m1328.55,407.9c2.87.53,5.75-2.16,5.98-5.64.18-2.8.83-6.56,2.34-11.53,4.07-13.35,10.89-21.75,10.89-21.75,0,0-10.08.97-20.1,5.13h0c-3.93-15.21-2.71-29.11-2.71-29.11,0,0-12.34,16.5-18.22,33.96-3.06,9.08-3.05,17.21-2.34,22.91.57,4.6,4.18,7.53,8.18,6.57,2.31-.55,5.04-1.04,7.8-1.19,2.75-.14,5.65.19,8.18.66h0Z"/>
  <path class="cls-1" d="m1081.07,552.97c-.1,2.59-1.38,7.69-2.59,12.02-.52,1.85,1.87,3.48,4.81,3.33,1.62-.08,3.3-.13,5.03-.13,3.77,0,7.32.21,10.45.59,2.17.26,4.35-.39,5.45-1.61,2.17-2.44,4.1-5.13,5.18-7.83,3.52-8.86.16-16.06.16-16.06,0,0-7.66,9.29-12.88,14.51-.75-4.3-2.11-9.12-4.61-13.3-6.34-10.62-16.32-16.48-16.32-16.48,0,0,5.52,19.96,5.33,24.97h-.01Z"/>
  <g>
    <path class="cls-20" d="m1506.29,466.16s-.59-17.87-6.83-29.61c-3.7-6.97-9.61-12.65-14.1-16.29-1.87-1.52-5.12-.07-4.68,2.08,1.1,5.45,2.38,13.29,2.16,19.58-.51,14.75-6.41,28.41-6.41,28.41"/>
    <path class="cls-20" d="m1492.65,458.19s-8.27-9.04-17.55-12.81c-4.87-1.98-10.42-2.8-14.79-3.12-2.59-.19-4.18,2.4-2.35,3.87,2.91,2.33,6.35,5.35,8.59,8.19,3.31,4.2,5.4,9.31,6.63,13.16.98,3.08,4.12,4.91,7.27,4.2s7.67-1.57,12.6-2.05,9.86.15,13.06.84c2.66.58,5.37-.73,6.52-3.2,2.26-4.89,5.44-13.05,5.37-20.14-.07-6.59-2.72-12.99-5.01-17.3-1.01-1.91-4.46-1.6-5.17.45-1.54,4.43-3.95,10.48-6.93,14.94-7.22,10.83-21.26,19.9-21.26,19.9"/>
  </g>
  <g>
    <path class="cls-20" d="m1721.59,425.5s-13.3-13.83-19.94-30.51c-2.74-6.87-4.88-16.22-6.23-23.06-.62-3.17-3.95-3.58-4.99-.61-2.36,6.74-5.14,16.71-5.41,26.93-.29,10.81,2.42,23.17,4.45,30.76,1.06,3.98,4.18,6.37,7.34,5.6,3.17-.77,7.44-1.53,11.83-1.49,3.55.04,8.81,1.62,12.63,2.96,2.6.91,5.28-1.11,5.96-4.52,1.22-6.12,3.53-15.52,7.37-23.06,2.26-4.44,5.7-9.2,8.58-12.86,1.82-2.3.37-6.29-2.15-5.95-4.24.57-9.65,1.93-14.42,5.09-9.1,6.01-17.4,20.18-17.4,20.18"/>
    <path class="cls-20" d="m1695.75,427.57s1.14-27.73,7.56-46.05c3.81-10.88,9.71-19.78,14.17-25.51,1.86-2.39,4.96-.2,4.47,3.15-1.24,8.47-2.73,20.66-2.72,30.41.02,22.87,6.18,46.04,6.18,46.04"/>
  </g>
  <path class="cls-30" d="m740.03,635.77c-.12,5.01-1.7,14.9-3.2,23.31-.64,3.59,2.31,6.75,5.94,6.45,2-.16,4.08-.25,6.22-.25,4.67,0,9.06.42,12.92,1.15,2.69.51,5.38-.75,6.73-3.13,2.68-4.73,5.07-9.95,6.4-15.18,4.35-17.17.2-31.13.2-31.13,0,0-9.47,18-15.92,28.12-.92-8.34-2.61-17.67-5.7-25.78-7.84-20.58-20.18-31.94-20.18-31.94,0,0,6.83,38.69,6.59,48.4v-.02Z"/>
  <g>
    <path class="cls-30" d="m1259.57,676.33s1.29-22.83-5.57-38.63c-4.39-10.1-12.32-18.64-17.92-23.83-1.96-1.81-5.65-.63-5.36,1.72.88,7.09,3.8,16.41,2.87,26.67-1.69,18.77-10.96,27.46-10.96,27.46"/>
    <path class="cls-30" d="m1245.36,660.05s-9.64-13.04-20-19.74c-6.15-3.98-13.49-5.96-18.76-6.93-2.38-.44-4,2.35-2.42,4.19,3.32,3.88,7.65,9.36,10.22,14.3,4.09,7.85,5.93,17.39,6.72,23.1.38,2.78,2.89,4.75,5.69,4.49,4.77-.43,11.94-.9,17.51-.44,3.5.29,7.12.92,10.26,1.59,5.53,1.18,11.11-1.69,13.4-6.85,2.99-6.73,6.47-16.19,7.1-24.87.73-10.06-2-20.24-4.28-26.73-.85-2.43-4.28-2.45-5.17-.03-2.28,6.18-5.98,15.23-10.23,21.6-9.64,14.46-27.02,25.45-27.02,25.45"/>
  </g>
  <g>
    <path class="cls-30" d="m466.73,640.88s-1.29-22.83,5.57-38.63c4.39-10.1,12.32-18.64,17.92-23.83,1.96-1.81,5.65-.63,5.36,1.72-.88,7.09-3.8,16.41-2.87,26.67,1.69,18.77,10.96,27.46,10.96,27.46"/>
    <path class="cls-30" d="m480.94,624.6s9.64-13.04,20-19.74c6.15-3.98,13.49-5.96,18.76-6.93,2.38-.44,4,2.35,2.42,4.19-3.32,3.88-7.65,9.36-10.22,14.3-4.09,7.85-5.93,17.39-6.72,23.1-.38,2.78-2.89,4.75-5.69,4.49-4.77-.43-11.94-.9-17.51-.44-3.5.29-7.12.92-10.26,1.59-5.53,1.18-11.11-1.69-13.4-6.85-2.99-6.73-6.47-16.19-7.1-24.87-.73-10.06,2-20.24,4.28-26.73.85-2.43,4.28-2.45,5.17-.03,2.28,6.18,5.98,15.23,10.23,21.6,9.64,14.46,27.02,25.45,27.02,25.45"/>
  </g>
  <path class="cls-9" d="m282.08,562.93c.13,3.27,1.89,9.72,3.55,15.21.71,2.34-2.56,4.4-6.59,4.21-2.22-.11-4.53-.16-6.9-.16-5.17,0-10.04.27-14.32.75-2.98.33-5.97-.49-7.47-2.04-2.97-3.09-5.62-6.49-7.09-9.9-4.82-11.2-.22-20.32-.22-20.32,0,0,10.5,11.75,17.65,18.35,1.02-5.44,2.9-11.53,6.32-16.83,8.69-13.43,22.38-20.84,22.38-20.84,0,0-7.57,25.25-7.31,31.58h0Z"/>
  <g>
    <path class="cls-23" d="m925.38,608.84s1.07-18.84-4.6-31.89c-3.62-8.34-10.17-15.39-14.8-19.67-1.61-1.49-4.67-.52-4.43,1.42.72,5.85,3.13,13.54,2.37,22.01-1.4,15.5-9.04,22.67-9.04,22.67"/>
    <path class="cls-23" d="m913.65,595.4s-7.96-10.76-16.51-16.29c-5.08-3.29-11.14-4.92-15.49-5.72-1.97-.36-3.3,1.94-2,3.46,2.74,3.2,6.31,7.73,8.43,11.8,3.37,6.48,4.89,14.35,5.55,19.07.32,2.29,2.39,3.92,4.69,3.71,3.94-.36,9.86-.74,14.45-.37,2.89.24,5.88.76,8.47,1.31,4.56.97,9.17-1.39,11.06-5.66,2.47-5.56,5.34-13.36,5.86-20.53.6-8.31-1.65-16.71-3.53-22.06-.7-2.01-3.53-2.02-4.27-.02-1.88,5.1-4.94,12.57-8.45,17.83-7.96,11.93-22.3,21-22.3,21"/>
  </g>
  <path class="cls-2" d="m1560.12,387.75c3.89.13,6.92-1.57,6.23-3.43-.64-1.75-1.09-4.24-.95-7.77.35-8.71,4.6-14.91,4.6-14.91,0,0-9.25,2.26-17.62,6.43h0c-7.68-8.5-10.15-17.07-10.15-17.07,0,0-7.33,11.99-8.32,23.47-.45,5.17.56,8.68,1.81,10.98,1.11,2.05,5.41,3.27,9.65,2.74,2.48-.31,5.52-.56,8.83-.56,1.92,0,3.97.04,5.92.11h0Z"/>
  <ellipse class="cls-26" cx="973" cy="1062" rx="1183" ry="67"/>
  <ellipse class="cls-22" cx="973" cy="1016.5" rx="1183" ry="55.5"/>
  <rect class="cls-16" x="-36" y="828" width="1982" height="91"/>
  <rect class="cls-16" x="-34" y="913" width="1982" height="85"/>
  <rect class="cls-10" x="-28" y="736" width="1982" height="93"/>
  <rect class="cls-10" x="-19" y="659" width="1982" height="85"/>
  <path class="cls-18" d="m2107.48,269.6s-523-20.11-1073-19.98c-624,.14-1080,17.39-1080,17.39l-73.37,67s456-17.25,1080-17.39c550-.12,1073,19.98,1073,19.98l73.37-67Z"/>
  <path class="cls-42" d="m2034.11,336.6s-523-20.11-1073-19.98c-624,.14-1080,17.39-1080,17.39"/>
  <path class="cls-37" d="m2042.41,344.1s-10.76-.4-30.79-1.1l-4.12-7c20.04.69,30.81,1.1,30.81,1.1l4.1,7Zm-76.79-2.64c-9.44-.31-19.66-.64-30.64-.98l-4.15-7c10.98.35,21.21.67,30.65.98l4.14,7Zm-2055.88-.74l-4.61-7c7.79-.27,17.62-.61,29.4-1l4.6,7c-11.77.39-21.6.73-29.39,1Zm1979.33-1.65c-9.8-.29-20-.6-30.58-.9l-4.17-7c10.59.31,20.79.61,30.59.9l4.16,7Zm-1905.81-.75l-4.58-7c9.2-.28,19.03-.58,29.46-.88l4.57,7c-10.43.31-20.26.6-29.46.88h.01Zm1829.39-1.45c-9.92-.28-20.1-.55-30.53-.83l-4.18-7c10.43.28,20.62.56,30.54.83l4.17,7Zm-1755.71-.69l-4.56-7c9.48-.26,19.32-.53,29.51-.8l4.55,7c-10.19.27-20.03.53-29.51.8h0Zm1679.4-1.35c-9.98-.25-20.14-.51-30.49-.77l-4.2-7c10.35.26,20.52.51,30.5.77l4.19,7Zm-1605.6-.58l-4.54-7c9.6-.24,19.46-.48,29.56-.72l4.54,7c-10.1.24-19.95.48-29.56.72h0Zm1529.4-1.28c-10.01-.23-20.16-.47-30.45-.7l-4.21-7c10.29.23,20.44.47,30.45.7l4.21,7Zm-1455.48-.46l-4.53-7c9.68-.22,19.55-.43,29.6-.65l4.52,7c-10.05.22-19.92.43-29.59.65h0Zm1379.39-1.25c-10.03-.21-20.16-.43-30.4-.63l-4.23-7c10.24.21,20.38.42,30.41.63l4.22,7Zm-1305.36-.32l-4.51-7c9.73-.19,19.61-.39,29.65-.58l4.51,7c-10.03.19-19.91.38-29.64.58h-.01Zm1229.37-1.22c-10.03-.19-20.16-.38-30.36-.57l-4.24-7c10.21.19,20.33.38,30.37.57l4.24,7h-.01Zm-1155.23-.18l-4.5-7c9.77-.17,19.67-.34,29.69-.51l4.49,7c-10.02.17-19.91.34-29.68.51Zm1079.35-1.19c-10.04-.17-20.15-.34-30.32-.5l-4.26-7c10.18.16,20.29.33,30.33.5l4.25,7Zm-1005.12-.05l-4.48-7c9.8-.15,19.71-.3,29.73-.45l4.48,7c-10.01.15-19.92.3-29.72.45h-.01Zm74.34-1.07l-4.47-7c9.83-.13,19.75-.26,29.77-.39l4.46,7c-10.01.12-19.93.25-29.76.38h0Zm855.01-.07c-10.04-.15-20.13-.29-30.27-.43l-4.28-7c10.15.14,20.24.28,30.28.43l4.27,7Zm-780.57-.85l-4.45-7c9.86-.11,19.79-.22,29.81-.32l4.45,7c-10.01.1-19.95.21-29.8.32h-.01Zm704.91-.16c-10.03-.12-20.11-.24-30.23-.35l-4.3-7c10.12.11,20.2.23,30.23.35l4.29,7h.01Zm-630.38-.59l-4.44-7c9.88-.09,19.83-.18,29.85-.26l4.43,7c-10.02.08-19.97.17-29.84.26h0Zm554.84-.23c-10.03-.1-20.09-.19-30.18-.27l-4.31-7c10.09.09,20.16.18,30.18.27l4.31,7Zm-480.2-.37l-4.42-7c9.9-.07,19.86-.13,29.89-.19l4.42,7c-10.02.06-19.98.13-29.88.19h-.01Zm404.79-.25c-10.02-.07-20.06-.13-30.13-.19l-4.34-7c10.07.06,20.11.12,30.13.19l4.33,7h.01Zm-330.05-.19l-4.41-7c9.92-.05,19.9-.09,29.93-.13l4.4,7c-10.03.04-20,.08-29.92.13h0Zm254.77-.21c-9.98-.04-19.97-.07-29.98-.1l-4.36-7c10.01.03,20.01.06,29.99.1l4.35,7Zm-179.93-.06l-4.39-7c9.94-.03,19.93-.05,29.97-.07l4.39,7c-10.04.02-20.03.04-29.97.07h0Zm104.93-.11h-30l-4.38-7h30.01l4.37,7Z"/>
  <path class="cls-43" d="m2107.48,266.98s-523-20.11-1073-19.98c-624,.14-1080,17.39-1080,17.39"/>
  <path class="cls-44" d="m2107.48,262.98s-523-20.11-1073-19.98c-624,.14-1080,17.39-1080,17.39"/>
  <path class="cls-6" d="m1924.01,998h-62.29l20.97-31h62.29l-20.97,31Zm-124.58,0h-62.29l20.97-31h62.29l-20.97,31Zm-124.58,0h-62.29l20.97-31h62.29l-20.97,31Zm-124.58,0h-62.29l20.97-31h62.29l-20.97,31Zm-124.58,0h-62.29l20.97-31h62.29l-20.97,31Zm-124.58,0h-62.29l20.97-31h62.29l-20.97,31Zm-124.58,0h-62.29l20.97-31h62.29l-20.97,31Zm-124.58,0h-62.29l20.97-31h62.29l-20.97,31Zm-124.58,0h-62.29l20.97-31h62.29l-20.97,31Zm-124.58,0h-62.29l20.97-31h62.29l-20.97,31Zm-124.58,0h-62.29l20.97-31h62.29l-20.97,31Zm-124.58,0h-62.29l20.97-31h62.29l-20.97,31Zm-124.58,0h-62.29l20.97-31h62.29l-20.97,31Zm-124.58,0h-62.29l20.97-31h62.29l-20.97,31Zm-124.58,0h-62.29l20.97-31h62.29l-20.97,31h0Zm-124.58,0H-7l20.97-31h62.29l-20.97,31h.02Z"/>
  <path class="cls-6" d="m19.08,690l-20.97-31h62.29l20.97,31H19.08Zm124.58,0l-20.97-31h62.29l20.97,31h-62.29Zm124.58,0l-20.97-31h62.29l20.97,31h-62.29Zm124.58,0l-20.97-31h62.29l20.97,31h-62.29Zm124.58,0l-20.97-31h62.29l20.97,31h-62.29Zm124.58,0l-20.97-31h62.29l20.97,31h-62.29Zm124.58,0l-20.97-31h62.29l20.97,31h-62.29Zm124.58,0l-20.97-31h62.29l20.97,31h-62.29Zm124.58,0l-20.97-31h62.29l20.97,31h-62.29Zm124.58,0l-20.97-31h62.29l20.97,31h-62.29Zm124.58,0l-20.97-31h62.29l20.97,31h-62.29Zm124.58,0l-20.97-31h62.29l20.97,31h-62.29Zm124.58,0l-20.97-31h62.29l20.97,31h-62.29Zm124.58,0l-20.97-31h62.29l20.97,31h-62.29Zm124.58,0l-20.97-31h62.29l20.97,31h-62.29Zm124.58,0l-20.97-31h62.29l20.97,31h-62.29Z"/>
  <path class="cls-27" d="m1197.95,975.93c-2.7,8.39-4.26,20.14-4.74,30.03-.24,5-4.48,8.84-9.49,8.59-3.12-.16-6.33.02-8.86.44-1.46.24-2.87.58-4.19.96-6.61,1.93-13.55-2.04-14.81-8.81-1.3-7-1.33-15.38,0-25.36,2.69-20,11.67-33.51,11.67-33.51,0,0,3.3,22.95,6.37,36.28,4.17-8.6,9.55-17.98,15.97-25.51,16.27-19.11,31.16-22.18,31.16-22.18,0,0-19.69,28.53-23.08,39.07h0Z"/>
  <g>
    <path class="cls-24" d="m1666.11,1019.05s28.16-12.96,43.79-30c6.44-7.03,12.12-16.83,15.85-24.03,1.73-3.34,8.27-3.28,9.83.1,3.52,7.66,7.33,18.89,6.23,30.01-1.17,11.76-8.45,24.73-13.61,32.65-2.71,4.15-9.17,6.27-15.22,4.95-6.06-1.32-14.26-2.8-22.83-3.42-6.93-.5-17.44.41-25.11,1.27-5.23.59-10.12-2.01-10.9-5.81-1.39-6.81-4.4-17.36-10.67-26.11-3.69-5.16-9.63-10.84-14.68-15.24-3.17-2.77.29-6.87,5.15-6.12,8.18,1.27,18.5,3.57,27.31,7.72,16.79,7.9,30.7,24.52,30.7,24.52"/>
    <path class="cls-24" d="m1716.18,1025.25s2.22-30.22-7.35-51.05c-5.68-12.37-15.77-22.92-23.54-29.81-3.24-2.87-9.64-.97-9.22,2.73,1.06,9.36,2.01,22.8.43,33.36-3.7,24.78-19.43,48.94-19.43,48.94"/>
  </g>
  <path class="cls-29" d="m573.21,991.93c.21,4.97,2.96,14.76,5.58,23.09,1.11,3.56-4.03,6.68-10.35,6.39-3.48-.16-7.11-.25-10.85-.25-8.13,0-15.78.41-22.51,1.14-4.68.51-9.38-.75-11.74-3.1-4.68-4.68-8.84-9.85-11.15-15.03-7.58-17-.35-30.84-.35-30.84,0,0,16.51,17.83,27.74,27.86,1.61-8.26,4.55-17.51,9.94-25.55,13.66-20.38,35.16-31.64,35.16-31.64,0,0-11.88,38.31-11.47,47.93h0Z"/>
  <path class="cls-25" d="m152.66,1030.14c-4.66-.14-9.66-1.14-9.01-8.04.4-4.18,1.58-9.94,1.37-18.22-.51-20.43-6.64-34.95-6.64-34.95,0,0,13.37,5.3,25.46,15.08h0c11.09-19.93,14.66-40.02,14.66-40.02,0,0,10.59,28.1,12.03,55.03.65,12.12-.81,20.36-2.61,25.75-1.61,4.81-7.82,7.66-13.95,6.43-3.58-.72-7.98-1.31-12.76-1.31-2.77,0-5.73.34-8.55.25Z"/>
</svg>