<?xml version="1.0" encoding="utf-8"?>
<!-- Generator: Adobe Illustrator 27.9.4, SVG Export Plug-In . SVG Version: 9.03 Build 54784)  -->
<svg version="1.1" id="Layer_1" xmlns="http://www.w3.org/2000/svg" xmlns:xlink="http://www.w3.org/1999/xlink" x="0px" y="0px"
	 viewBox="0 0 1920 1164" style="enable-background:new 0 0 1920 1164;" xml:space="preserve">
<style type="text/css">
	.st0{fill:#FFF27D;}
	.st1{fill:#FFDE76;}
	.st2{fill:#FFCE78;}
	.st3{fill:#FFB358;}
	.st4{fill:#FFA05A;}
	.st5{opacity:0.8;}
	.st6{fill:#70A8B7;}
	.st7{fill:#5AAAB4;}
	.st8{fill:#68ADB7;}
	.st9{fill:#76BCAD;}
	.st10{fill:#6EBCA5;}
	.st11{fill:#60B99D;}
	.st12{fill:#8BAEBA;}
	.st13{fill:#4FB477;}
	.st14{fill:#5DB783;}
	.st15{opacity:0.2;}
	.st16{fill:#FFFFFF;}
	.st17{opacity:0.3;}
	.st18{fill:#4AA630;}
	.st19{fill:#2B9E1E;}
	.st20{fill:#36941F;}
	.st21{opacity:0.6;fill:#408532;enable-background:new    ;}
	.st22{opacity:0.6;}
	.st23{fill:#24872B;}
	.st24{fill:#35942E;}
	.st25{fill:#409C36;}
	.st26{opacity:0.6;fill:#207D1F;enable-background:new    ;}
	.st27{opacity:0.6;fill:#35942E;enable-background:new    ;}
	.st28{opacity:0.6;fill:#2B8F2F;enable-background:new    ;}
	.st29{fill:#2B8F2F;}
	.st30{fill:#408532;}
	.st31{fill:#459932;}
	.st32{fill:#48992C;}
	.st33{fill:#378937;}
	.st34{fill:#36891F;}
	.st35{fill:#484E59;}
	.st36{fill:#4B535E;}
	.st37{fill:#555A65;}
	.st38{fill:none;stroke:#4A5663;stroke-width:15;stroke-miterlimit:10;}
	.st39{fill:#FFE67B;}
	.st40{fill:none;stroke:#586274;stroke-width:10;stroke-miterlimit:10;}
	.st41{fill:none;stroke:#FFF0B3;stroke-width:2;stroke-miterlimit:10;stroke-dasharray:0,0,25,38;}
	.st42{fill:#F9DD64;}
	.st43{fill:#367E24;}
	.st44{fill:#3A7A2B;}
	.st45{fill:#407C32;}
	.st46{fill:#438B27;}
</style>
<g id="bg">
	<rect x="-11" class="st0" width="1931" height="355"/>
</g>
<g id="sky">
	<path class="st1" d="M1684.98,341c0-0.36,0.02-0.72,0.02-1.08c0-314.58-324.72-569.59-725.28-569.59S234.44,25.34,234.44,339.92
		c0,0.36,0.02,0.72,0.02,1.08h1450.53H1684.98z"/>
	<path class="st2" d="M1490.99,339c0-0.26,0.01-0.53,0.01-0.79c0-229.35-236.74-415.27-528.78-415.27S433.44,108.86,433.44,338.21
		c0,0.26,0.01,0.53,0.01,0.79H1490.99z"/>
	<g>
		<path class="st3" d="M1179.17,242c0-0.12,0-0.25,0-0.37C1179.17,134.69,1080.73,48,959.3,48s-219.87,86.69-219.87,193.63
			c0,0.12,0,0.25,0,0.37h439.73H1179.17z"/>
		<path class="st4" d="M1131.85,242c0-0.1,0-0.19,0-0.29c0-83.92-77.25-151.95-172.54-151.95s-172.54,68.03-172.54,151.95
			c0,0.1,0,0.19,0,0.29H1131.85z"/>
	</g>
</g>
<g id="buildings">
	<g class="st5">
		<path class="st6" d="M1796.8,200.33h17.54c4.31,0,7.8,3.49,7.8,7.8v68.9c0,4.31-3.49,7.8-7.8,7.8h-17.54c-4.31,0-7.8-3.49-7.8-7.8
			v-68.9C1789,203.82,1792.49,200.33,1796.8,200.33z"/>
	</g>
	<g class="st5">
		<path class="st7" d="M1841.58,191.02h20.14c3.59,0,6.5,2.91,6.5,6.5v88.95c0,3.59-2.91,6.5-6.5,6.5h-20.14
			c-3.59,0-6.5-2.91-6.5-6.5v-88.95C1835.08,193.94,1837.99,191.02,1841.58,191.02z"/>
	</g>
	<g class="st5">
		<path class="st8" d="M1887.36,231.5h20.14c3.59,0,6.5,2.91,6.5,6.5v82.16c0,3.59-2.91,6.5-6.5,6.5h-20.14
			c-3.59,0-6.5-2.91-6.5-6.5V238C1880.86,234.41,1883.77,231.5,1887.36,231.5z"/>
	</g>
	<g class="st5">
		<path class="st7" d="M1701.06,179h20.14c3.59,0,6.5,2.91,6.5,6.5v64.69c0,3.59-2.91,6.5-6.5,6.5h-20.14c-3.59,0-6.5-2.91-6.5-6.5
			V185.5C1694.56,181.91,1697.47,179,1701.06,179z"/>
	</g>
	<g class="st5">
		<path class="st8" d="M1748.84,141.45h20.14c3.59,0,6.5,2.91,6.5,6.5v143.77c0,3.59-2.91,6.5-6.5,6.5h-20.14
			c-3.59,0-6.5-2.91-6.5-6.5V147.95C1742.34,144.36,1745.25,141.45,1748.84,141.45z"/>
	</g>
	<g class="st5">
		<path class="st9" d="M1511.98,200.27h20.14c3.59,0,6.5,2.91,6.5,6.5v45.62c0,3.59-2.91,6.5-6.5,6.5h-20.14
			c-3.59,0-6.5-2.91-6.5-6.5v-45.62C1505.48,203.18,1508.39,200.27,1511.98,200.27z"/>
	</g>
	<g class="st5">
		<path class="st10" d="M1559.06,161.03h20.14c3.59,0,6.5,2.91,6.5,6.5v88.95c0,3.59-2.91,6.5-6.5,6.5h-20.14
			c-3.59,0-6.5-2.91-6.5-6.5v-88.95C1552.56,163.94,1555.47,161.03,1559.06,161.03z"/>
	</g>
	<g class="st5">
		<path class="st11" d="M1607.84,219.61h20.14c3.59,0,6.5,2.91,6.5,6.5v82.16c0,3.59-2.91,6.5-6.5,6.5h-20.14
			c-3.59,0-6.5-2.91-6.5-6.5v-82.16C1601.34,222.52,1604.25,219.61,1607.84,219.61z"/>
	</g>
	<path class="st12" d="M110.48,219.28h20.14c3.59,0,6.5,2.91,6.5,6.5v34.44c0,3.59-2.91,6.5-6.5,6.5h-20.14
		c-3.59,0-6.5-2.91-6.5-6.5v-34.44C103.98,222.19,106.89,219.28,110.48,219.28z"/>
	<g class="st5">
		<path class="st6" d="M64.4,187.26h20.14c3.59,0,6.5,2.91,6.5,6.5V276c0,3.59-2.91,6.5-6.5,6.5H64.4c-3.59,0-6.5-2.91-6.5-6.5
			v-82.24C57.9,190.17,60.81,187.26,64.4,187.26z"/>
	</g>
	<g class="st5">
		<path class="st8" d="M18.62,225h20.14c3.59,0,6.5,2.91,6.5,6.5v95.32c0,3.59-2.91,6.5-6.5,6.5H18.62c-3.59,0-6.5-2.91-6.5-6.5
			V231.5C12.12,227.91,15.03,225,18.62,225z"/>
	</g>
	<g class="st5">
		<path class="st7" d="M204.92,189h20.14c3.59,0,6.5,2.91,6.5,6.5v60.01c0,3.59-2.91,6.5-6.5,6.5h-20.14c-3.59,0-6.5-2.91-6.5-6.5
			V195.5C198.42,191.91,201.33,189,204.92,189z"/>
	</g>
	<g class="st5">
		<path class="st8" d="M157.14,148.34h20.14c3.59,0,6.5,2.91,6.5,6.5v150.1c0,3.59-2.91,6.5-6.5,6.5h-20.14
			c-3.59,0-6.5-2.91-6.5-6.5v-150.1C150.64,151.25,153.55,148.34,157.14,148.34z"/>
	</g>
	<g class="st5">
		<path class="st11" d="M395.85,177.46h20.14c3.59,0,6.5,2.91,6.5,6.5v77.22c0,3.59-2.91,6.5-6.5,6.5h-20.14
			c-3.59,0-6.5-2.91-6.5-6.5v-77.22C389.35,180.37,392.27,177.46,395.85,177.46z"/>
	</g>
	<g class="st5">
		<path class="st9" d="M349.77,199.46h20.14c3.59,0,6.5,2.91,6.5,6.5v57.01c0,3.59-2.91,6.5-6.5,6.5h-20.14
			c-3.59,0-6.5-2.91-6.5-6.5v-57.01C343.27,202.37,346.18,199.46,349.77,199.46z"/>
	</g>
	<g class="st5">
		<path class="st11" d="M299.98,165.46h20.14c3.59,0,6.5,2.91,6.5,6.5v107.1c0,3.59-2.91,6.5-6.5,6.5h-20.14
			c-3.59,0-6.5-2.91-6.5-6.5v-107.1C293.48,168.37,296.4,165.46,299.98,165.46z"/>
	</g>
	<g class="st5">
		<path class="st13" d="M629.75,184.5h20.14c3.59,0,6.5,2.91,6.5,6.5v60.01c0,3.59-2.91,6.5-6.5,6.5h-20.14
			c-3.59,0-6.5-2.91-6.5-6.5V191C623.25,187.41,626.16,184.5,629.75,184.5z"/>
	</g>
	<g class="st5">
		<path class="st14" d="M581.97,142.5h20.14c3.59,0,6.5,2.91,6.5,6.5v150.1c0,3.59-2.91,6.5-6.5,6.5h-20.14
			c-3.59,0-6.5-2.91-6.5-6.5V149C575.47,145.41,578.38,142.5,581.97,142.5z"/>
	</g>
	<g class="st5">
		<path class="st13" d="M1348.75,206.07h20.14c3.59,0,6.5,2.91,6.5,6.5v60.01c0,3.59-2.91,6.5-6.5,6.5h-20.14
			c-3.59,0-6.5-2.91-6.5-6.5v-60.01C1342.25,208.98,1345.16,206.07,1348.75,206.07z"/>
	</g>
	<g class="st5">
		<path class="st14" d="M1298.97,147.9h20.14c3.59,0,6.5,2.91,6.5,6.5v150.1c0,3.59-2.91,6.5-6.5,6.5h-20.14
			c-3.59,0-6.5-2.91-6.5-6.5V154.4C1292.47,150.81,1295.38,147.9,1298.97,147.9z"/>
	</g>
	<g class="st5">
		<path class="st14" d="M1248.65,192.95h20.14c3.59,0,6.5,2.91,6.5,6.5v150.1c0,3.59-2.91,6.5-6.5,6.5h-20.14
			c-3.59,0-6.5-2.91-6.5-6.5v-150.1C1242.15,195.87,1245.06,192.95,1248.65,192.95z"/>
	</g>
</g>
<g class="st15">
	<path class="st16" d="M1534.12,101.98l-318.63-0.36c-4.86,0-8.79-3.65-8.79-8.16l0,0c0-4.51,3.94-8.16,8.79-8.16l318.63,0.36
		c4.86,0,8.79,3.65,8.79,8.16l0,0C1542.91,98.33,1538.97,101.98,1534.12,101.98z"/>
	<path class="st16" d="M1479.31,73.85l-192.27-0.36c-0.11,0-0.2-0.08-0.2-0.19l0,0c0-7.35,6.47-13.3,14.45-13.3l163.79,0.36
		c7.98,0,14.45,5.96,14.45,13.3l0,0c0,0.1-0.09,0.19-0.2,0.19H1479.31z"/>
	<path class="st16" d="M1516.62,85.98l-276.05-0.36c-0.11,0-0.21-0.08-0.21-0.19l0,0c0-7.35,6.58-13.3,14.69-13.3l247.08,0.36
		c8.11,0,14.69,5.96,14.69,13.3l0,0c0,0.1-0.09,0.19-0.21,0.19H1516.62z"/>
</g>
<g class="st17">
	<g class="st5">
		<path class="st16" d="M1133.62,71.74c6.69,4.02,11.93,9.17,15.22,14.45c6.21,0.43,13.21,2.65,19.9,6.67
			c4.05,2.43,7.56,5.28,10.43,8.31c-2.5-4.61-6.72-9.04-12.26-12.38c-5.52-3.32-11.38-4.98-16.6-5.03
			c-2.5-4.59-6.71-8.99-12.23-12.3c-5.52-3.31-11.44-4.99-16.69-5.03c4.03,1.12,8.19,2.89,12.23,5.32V71.74L1133.62,71.74z"/>
	</g>
	<g class="st5">
		<path class="st16" d="M1093.43,19.51c7.27,2.86,13.29,7.06,17.42,11.73c6.19-0.6,13.46,0.42,20.73,3.27
			c4.4,1.73,8.32,3.94,11.67,6.46c-3.23-4.13-8.14-7.81-14.16-10.17c-5.98-2.35-12.05-3.01-17.21-2.21
			c-3.23-4.11-8.11-7.75-14.11-10.1s-12.12-3.02-17.29-2.2C1084.64,16.73,1089.03,17.78,1093.43,19.51z"/>
	</g>
	<g class="st5">
		<path class="st16" d="M973.23,21.95c7.54,2.03,13.99,5.54,18.61,9.72c6.09-1.29,13.44-1.08,20.97,0.96
			c4.56,1.23,8.71,3.01,12.31,5.12c-3.67-3.75-8.96-6.85-15.2-8.54c-6.22-1.68-12.3-1.66-17.35-0.28c-3.67-3.73-8.93-6.8-15.13-8.48
			c-6.21-1.68-12.37-1.66-17.43-0.26C964.19,20.17,968.66,20.73,973.23,21.95L973.23,21.95L973.23,21.95z"/>
	</g>
</g>
<g class="st15">
	<path class="st16" d="M730.32,157.82l-318.63-0.36c-4.86,0-8.79-3.65-8.79-8.16l0,0c0-4.51,3.94-8.16,8.79-8.16l318.63,0.36
		c4.86,0,8.79,3.65,8.79,8.16l0,0C739.11,154.17,735.17,157.82,730.32,157.82z"/>
	<path class="st16" d="M675.51,129.69l-192.27-0.36c-0.11,0-0.2-0.08-0.2-0.19l0,0c0-7.35,6.47-13.3,14.45-13.3l163.79,0.36
		c7.98,0,14.45,5.96,14.45,13.3l0,0c0,0.1-0.09,0.19-0.2,0.19H675.51z"/>
	<path class="st16" d="M712.82,141.82l-276.05-0.36c-0.11,0-0.21-0.08-0.21-0.19l0,0c0-7.35,6.58-13.3,14.69-13.3l247.08,0.36
		c8.11,0,14.69,5.96,14.69,13.3l0,0c0,0.1-0.09,0.19-0.21,0.19H712.82z"/>
</g>
<g id="grass_">
	<rect x="-31" y="311" class="st18" width="1987" height="421"/>
</g>
<path class="st19" d="M799.62,383.31c0.09,3.81,1.29,11.31,2.43,17.69c0.49,2.72-1.75,5.12-4.51,4.89c-1.52-0.12-3.1-0.19-4.72-0.19
	c-3.54,0-6.88,0.32-9.81,0.87c-2.04,0.39-4.09-0.57-5.11-2.38c-2.04-3.59-3.85-7.55-4.86-11.52c-3.3-13.03-0.15-23.64-0.15-23.64
	s7.19,13.67,12.09,21.35c0.7-6.33,1.98-13.42,4.33-19.58c5.95-15.62,15.32-24.25,15.32-24.25s-5.18,29.37-5.01,36.74L799.62,383.31z
	"/>
<g>
	<path class="st20" d="M1221.94,477c-5.9-1.51-10.39-3.58-13.47-6.2c-3.07-2.61-4.83-5.71-5.29-9.31c-0.58-4.47,0.74-8,3.94-10.59
		c3.19-2.58,7.99-3.87,14.41-3.87h30.91l1.97,11.67h-31.26c-1.73,0-2.9,0.27-3.53,0.82c-0.63,0.55-0.89,1.16-0.8,1.82
		c0.12,0.86,0.56,1.57,1.32,2.12c0.76,0.55,1.92,1.02,3.5,1.4l15.49,3.83c6.57,1.64,11.66,3.67,15.25,6.07
		c3.6,2.42,5.78,5.81,6.53,10.2c0.39,2.28,0.27,4.44-0.35,6.49s-1.79,3.83-3.51,5.34s-4.03,2.72-6.92,3.63s-6.37,1.37-10.44,1.37
		h-29.6l-1.63-12.43h31.82c2.1,0,3.5-0.37,4.22-1.12s0.99-1.61,0.83-2.6c-0.19-1.19-0.84-2.09-1.96-2.71
		c-1.11-0.62-3.13-1.29-6.04-2.03L1221.94,477L1221.94,477z"/>
	<path class="st20" d="M1282.92,483.48l0.06,0.3c0.53,2.82,1.57,4.71,3.13,5.65c1.56,0.95,4.03,1.42,7.4,1.42h25.22l2.32,10.94
		h-24.5c-4.91,0-9.14-0.49-12.69-1.48c-3.55-0.99-6.5-2.37-8.85-4.16c-2.34-1.78-4.19-3.92-5.54-6.42c-1.35-2.49-2.28-5.21-2.8-8.17
		l-0.98-5.59c-1.01-5.78,0.06-10.37,3.19-13.8c3.11-3.41,8.9-5.11,17.36-5.11h3.23c4.53,0,8.4,0.47,11.61,1.42s5.89,2.3,8.01,4.04
		c2.13,1.75,3.81,3.85,5.03,6.31c1.23,2.47,2.17,5.21,2.81,8.23l1.36,6.41h-35.39L1282.92,483.48z M1286.79,466.67
		c-2.61,0-4.33,0.51-5.17,1.52c-0.84,1.01-1.04,2.71-0.6,5.08l0.18,0.95h20.4l-0.19-0.95c-0.48-2.38-1.35-4.07-2.62-5.08
		c-1.26-1.01-3.14-1.52-5.64-1.52h-6.35H1286.79z"/>
	<path class="st20" d="M1320.74,457.63h34.47c5.99,0,11.13,1.76,15.43,5.29c4.33,3.55,7.27,8.28,8.81,14.22l1.15,4.41
		c1.56,6.03,1.09,10.91-1.45,14.62c-2.55,3.73-6.93,5.6-13.12,5.6h-19.73l2.65,11.5h-16.02l-12.19-55.66L1320.74,457.63z
		 M1338.56,468.25l5.16,22.37h14.18c3.37,0,5.52-0.7,6.45-2.09c0.93-1.39,1.03-3.55,0.31-6.46l-1.44-5.81
		c-0.71-2.87-1.85-4.93-3.4-6.16c-1.56-1.23-3.99-1.85-7.31-1.85H1338.56L1338.56,468.25z"/>
	<path class="st20" d="M1379,457.63h7.85l-2.32-8.63h14.07l2.41,8.63h16.59l3.04,10.41h-16.72l4.98,17.81
		c0.53,1.88,1.33,3.19,2.42,3.91c1.09,0.72,2.63,1.08,4.62,1.08h11.36l3.2,10.94h-13.29c-6.91,0-12.22-1.33-15.92-3.98
		c-3.69-2.64-6.24-6.63-7.67-11.95l-4.78-17.81h-7.09L1379,457.63L1379,457.63z"/>
	<path class="st20" d="M1434.56,486h17.36l4.91,15.79h-17.56L1434.56,486z"/>
	<path class="st20" d="M1274.76,599.57h-55.46l-1.36-10.57c-0.35-2.75-0.37-5.2-0.06-7.36s1.08-4.15,2.31-5.98
		c1.23-1.83,2.94-3.6,5.14-5.3c2.19-1.7,5-3.47,8.42-5.31l12.87-6.88c1.4-0.71,2.37-1.41,2.9-2.1c0.53-0.68,0.72-1.55,0.56-2.58
		c-0.24-1.53-0.94-2.56-2.12-3.11c-1.18-0.54-2.69-0.82-4.54-0.82h-29.16l-1.64-12.67h30.36c7.66,0,13.47,1.29,17.44,3.89
		c3.99,2.61,6.36,6.18,7.12,10.74c0.43,2.56,0.39,4.78-0.11,6.65s-1.43,3.55-2.79,5.05s-3.1,2.93-5.21,4.29
		c-2.12,1.37-4.58,2.83-7.39,4.4l-11.78,6.67c-1.86,1.02-3,1.95-3.44,2.8s-0.58,1.82-0.43,2.9l0.24,1.71h35.86l2.26,13.58
		L1274.76,599.57z"/>
	<path class="st20" d="M1279.45,539.65c3.95-2.38,10.5-3.56,19.64-3.56h1.97c9.14,0,16.14,1.19,21.01,3.56
		c4.88,2.39,7.89,6.2,9,11.46l0.69,3.27c0.56,2.63,0.35,5.13-0.64,7.5c-0.99,2.38-3.63,4.15-7.95,5.32
		c5.32,1.17,9.17,2.97,11.52,5.4s3.85,5.05,4.44,7.82l0.76,3.58c1.18,5.55-0.26,9.68-4.34,12.37c-4.09,2.7-11.17,4.05-21.21,4.05
		h-3.85c-10.04,0-17.63-1.35-22.76-4.05c-5.11-2.69-8.14-6.82-9.09-12.37l-0.61-3.58c-0.47-2.77,0-5.38,1.43-7.82
		c1.42-2.44,4.57-4.24,9.45-5.4c-4.76-1.17-8.09-2.94-9.99-5.32c-1.89-2.37-3.06-4.87-3.52-7.5l-0.56-3.27
		c-0.91-5.26,0.63-9.07,4.6-11.46H1279.45z M1319,574.59c-1.55-0.84-4.26-1.26-8.13-1.26h-7.3c-3.87,0-6.42,0.42-7.64,1.26
		c-1.23,0.84-1.66,2.22-1.31,4.14l0.54,2.98c0.35,1.93,1.33,3.4,2.93,4.4s4.48,1.5,8.63,1.5h6.49c4.15,0,6.83-0.5,8.05-1.5
		s1.63-2.47,1.24-4.4l-0.6-2.98c-0.39-1.92-1.36-3.3-2.91-4.14H1319z M1312.1,549.15c-1.51-0.76-4.16-1.14-7.96-1.14h-3.54
		c-3.8,0-6.31,0.38-7.53,1.14s-1.65,2.06-1.31,3.92l0.53,2.87c0.34,1.86,1.28,3.18,2.82,3.96c1.54,0.77,4.34,1.16,8.41,1.16h2.7
		c4.07,0,6.73-0.39,7.97-1.16c1.24-0.77,1.67-2.09,1.3-3.96l-0.57-2.87C1314.55,551.22,1313.61,549.91,1312.1,549.15z"/>
	<path class="st20" d="M1336.76,548.99h8.39l-2.19-9.86h15.03l2.29,9.86h28.11l3.01,11.9h-28.35l4.75,20.4
		c0.5,2.16,1.32,3.66,2.46,4.48c1.14,0.83,2.78,1.24,4.91,1.24h8.62l3.05,12.55h-10.66c-7.41,0-13.05-1.53-16.93-4.57
		c-3.86-3.03-6.46-7.61-7.81-13.71l-4.52-20.4h-7.59l-2.57-11.9L1336.76,548.99z"/>
	<path class="st20" d="M1381.31,536.89h16.29l3.16,12.1h15.74c7.56,0,13.54,1.79,17.97,5.39c4.45,3.62,7.58,8.55,9.39,14.83
		l8.73,30.35h-17.02l-8.49-30.77c-0.71-2.56-1.66-4.38-2.86-5.46s-3.08-1.62-5.64-1.62h-14.49l9.89,37.85h-17.02l-15.65-62.68
		V536.89z"/>
	<path class="st20" d="M1474.5,566.71h21.55l4.73,14.58h-21.76l-4.51-14.58H1474.5z"/>
	<path class="st20" d="M1591.74,599.57h-55.46l-3.65-10.57c-0.95-2.75-1.5-5.2-1.65-7.36s0.19-4.15,1.02-5.98
		c0.83-1.83,2.16-3.6,4-5.3c1.83-1.7,4.25-3.47,7.28-5.31l11.38-6.88c1.25-0.71,2.06-1.41,2.44-2.1c0.38-0.68,0.38-1.55,0-2.58
		c-0.57-1.53-1.5-2.56-2.8-3.11c-1.3-0.54-2.87-0.82-4.71-0.82h-29.16l-4.38-12.67h30.36c7.66,0,13.75,1.29,18.29,3.89
		c4.55,2.61,7.7,6.18,9.45,10.74c0.98,2.56,1.43,4.78,1.33,6.65c-0.1,1.87-0.66,3.55-1.7,5.05c-1.04,1.5-2.46,2.93-4.29,4.29
		c-1.83,1.37-3.97,2.83-6.43,4.4l-10.34,6.67c-1.64,1.02-2.58,1.95-2.84,2.8s-0.19,1.82,0.2,2.9l0.61,1.71h35.86L1591.74,599.57
		L1591.74,599.57z"/>
	<path class="st20" d="M1594.32,570.73c-5.37-2.96-9.13-7.23-11.29-12.81l-1.08-2.8c-2.37-6.1-2.12-10.73,0.72-13.9
		c2.82-3.16,8.72-4.73,17.69-4.73h3.34c10,0,18.14,1.99,24.44,5.98c6.34,4.02,11.38,10.38,15.15,19.17l4.69,10.94
		c1.74,4.05,2.71,7.74,2.93,11.06c0.21,3.34-0.48,6.17-2.07,8.51c-1.6,2.34-4.15,4.16-7.66,5.46c-3.51,1.31-8.08,1.96-13.7,1.96
		h-25.35l-5.12-13.15h25.75c5.15,0,8.27-0.8,9.35-2.4c1.08-1.59,0.84-4.26-0.71-7.99l-0.35-0.84h-15.33
		C1606.85,575.19,1599.71,573.7,1594.32,570.73L1594.32,570.73z M1625.85,562.72l-2.13-5.13c-1.6-3.83-3.42-6.38-5.48-7.66
		s-5.16-1.91-9.31-1.91h-2.16c-4.03,0-6.52,0.55-7.46,1.67c-0.94,1.11-0.99,2.71-0.16,4.78l0.72,1.81c0.97,2.42,2.32,4.1,4.06,5.03
		c1.74,0.94,4.42,1.41,8.03,1.41L1625.85,562.72L1625.85,562.72z"/>
	<path class="st20" d="M1643.92,548.99h8.39l-4.33-9.86h15.03l4.43,9.86h28.11l5.59,11.9h-28.35l9.17,20.4
		c0.97,2.16,2.12,3.66,3.44,4.48c1.32,0.83,3.05,1.24,5.18,1.24h8.62l5.77,12.55h-10.66c-7.41,0-13.39-1.53-17.92-4.57
		c-4.52-3.03-8.11-7.61-10.79-13.71l-8.94-20.4h-7.59l-5.15-11.9L1643.92,548.99z"/>
	<path class="st20" d="M1685.85,536.89h16.29l5.79,12.1h15.74c7.56,0,13.93,1.79,19.14,5.39c5.24,3.62,9.44,8.55,12.61,14.83
		l15.32,30.35h-17.02l-15.17-30.77c-1.26-2.56-2.61-4.38-4.05-5.46c-1.43-1.08-3.43-1.62-5.99-1.62h-14.49l18.1,37.85h-17.02
		l-29.25-62.68L1685.85,536.89z"/>
</g>
<g>
	<polygon class="st20" points="785.62,398.78 834.97,398.78 913.17,595.42 854.15,595.42 	"/>
	<polygon class="st20" points="365.17,398.78 511.97,398.78 518.05,519.08 640.53,398.78 693.91,398.78 612.28,480.36 
		669.85,480.36 748.03,398.78 798.13,398.78 630.34,584.03 572.37,584.03 641.01,512.07 582.1,512.07 473.21,622.36 466.82,429.32 
		364.35,429.32 	"/>
	<polygon class="st20" points="866.53,595.42 924.27,595.42 1045.29,422.44 994.31,422.44 	"/>
	<polygon class="st20" points="1023.78,381.93 1073.64,381.66 1053,410.75 1002.58,410.61 	"/>
	<path class="st20" d="M1092.64,354.95c0,0-33.69,0-44.09,0h-59.82c-31.21,0-39.89-0.88-58.13,17.53
		c-20.55,20.74-78.95,88.3-124.41,138.33c-8.99,9.89-26.07,28.92-37.67,38.97c-24.28,21.03-27.86,30.23-59.79,31.13
		c-40.64,1.15-194.46-0.13-194.46-0.13l-41.06,41.59c0,0,191.46,1.53,247.13,0c52.04-1.43,95.56-62.86,118.28-87.61
		c45.73-49.82,100.42-121.49,118.35-140.43c8.83-9.32,21.5-11.96,34.79-11.96c21.27,0,81.41-0.03,81.41-0.03l19.48-27.38
		L1092.64,354.95z"/>
	<polygon class="st20" points="307.45,482.08 259.13,482.08 280.57,441.1 327.44,441.1 	"/>
	<polygon class="st20" points="336.05,525.68 286.19,525.68 307.45,482.08 355.77,482.08 	"/>
	<polygon class="st20" points="404.09,482.08 355.77,482.08 374.3,441.1 421.17,441.1 	"/>
	<polygon class="st20" points="435.78,525.68 385.92,525.68 404.09,482.08 452.41,482.08 	"/>
	<polygon class="st20" points="366.53,572.19 315.02,572.19 336.04,525.71 385.9,525.71 	"/>
	<polygon class="st20" points="263.51,572.19 212,572.19 236.31,525.71 286.18,525.71 	"/>
	<polygon class="st20" points="455.7,525.71 436.82,525.71 419.12,572.19 456.18,572.19 	"/>
</g>
<path class="st21" d="M222.44,389.5c2.45,0.16,4.35-2.04,3.92-4.45c-0.4-2.27-0.69-5.51-0.6-10.09c0.22-11.31,2.89-19.36,2.89-19.36
	s-5.82,2.94-11.08,8.35l0,0c-4.83-11.04-6.38-22.17-6.38-22.17s-4.61,15.56-5.24,30.48c-0.28,6.72,0.35,11.28,1.14,14.26
	c0.7,2.66,3.4,4.24,6.07,3.56c1.56-0.4,3.48-0.73,5.56-0.73c1.21,0,2.5,0.06,3.72,0.14L222.44,389.5z"/>
<g class="st22">
	<path class="st23" d="M408.45,806.24c0,0-12.82-8.11-19.94-18.78c-2.93-4.4-5.52-10.54-7.22-15.04c-0.79-2.09-3.77-2.05-4.47,0.07
		c-1.6,4.8-3.34,11.83-2.84,18.78c0.53,7.36,3.85,15.48,6.2,20.43c1.23,2.6,4.18,3.92,6.93,3.1c2.76-0.83,6.49-1.75,10.4-2.14
		c3.16-0.32,7.94,0.25,11.44,0.8c2.38,0.37,4.61-1.26,4.96-3.64c0.63-4.27,2-10.86,4.86-16.35c1.68-3.23,4.39-6.78,6.68-9.54
		c1.45-1.74-0.13-4.3-2.34-3.83c-3.72,0.79-8.42,2.23-12.44,4.83c-7.65,4.95-13.98,15.35-13.98,15.35"/>
	<path class="st23" d="M385.65,810.12c0,0-1.01-18.92,3.35-31.95c2.59-7.74,7.18-14.35,10.72-18.66c1.47-1.8,4.39-0.61,4.2,1.71
		c-0.48,5.86-0.91,14.27-0.2,20.88c1.69,15.51,8.85,30.63,8.85,30.63"/>
</g>
<g class="st22">
	<path class="st24" d="M72.66,666.36c0,0,19.44-12.29,30.23-28.47c4.45-6.67,8.37-15.97,10.94-22.8c1.19-3.17,5.71-3.11,6.78,0.1
		c2.43,7.27,5.06,17.93,4.3,28.47c-0.81,11.16-5.83,23.47-9.39,30.98c-1.87,3.94-6.33,5.95-10.51,4.7s-9.84-2.65-15.76-3.24
		c-4.79-0.48-12.04,0.39-17.34,1.21c-3.61,0.56-6.99-1.9-7.52-5.51c-0.96-6.47-3.04-16.47-7.37-24.78
		c-2.55-4.9-6.65-10.28-10.13-14.46c-2.19-2.63,0.2-6.52,3.55-5.81c5.65,1.2,12.77,3.39,18.86,7.32
		c11.59,7.5,21.19,23.27,21.19,23.27"/>
	<path class="st24" d="M107.22,672.24c0,0,1.53-28.67-5.07-48.44c-3.92-11.74-10.88-21.75-16.25-28.29
		c-2.23-2.72-6.65-0.92-6.37,2.59c0.73,8.89,1.39,21.64,0.3,31.66c-2.56,23.51-13.42,46.43-13.42,46.43"/>
</g>
<g class="st22">
	<path class="st25" d="M1149.92,407.28c0,0-1.07-18.84,4.6-31.89c3.62-8.34,10.17-15.39,14.8-19.67c1.61-1.49,4.67-0.52,4.43,1.42
		c-0.72,5.85-3.13,13.54-2.37,22.01c1.4,15.5,9.04,22.67,9.04,22.67"/>
	<path class="st25" d="M1161.65,393.85c0,0,7.96-10.76,16.51-16.29c5.08-3.29,11.14-4.92,15.49-5.72c1.97-0.36,3.3,1.94,2,3.46
		c-2.74,3.2-6.31,7.73-8.43,11.8c-3.37,6.48-4.89,14.35-5.55,19.07c-0.32,2.29-2.39,3.92-4.69,3.71c-3.94-0.36-9.86-0.74-14.45-0.37
		c-2.89,0.24-5.88,0.76-8.47,1.31c-4.56,0.97-9.17-1.39-11.06-5.66c-2.47-5.56-5.34-13.36-5.86-20.53
		c-0.6-8.31,1.65-16.71,3.53-22.06c0.7-2.01,3.53-2.02,4.27-0.02c1.88,5.1,4.94,12.57,8.45,17.83c7.96,11.93,22.3,21,22.3,21"/>
</g>
<path class="st26" d="M1098.36,775.18c3.79,0.76,7.41-2.08,7.51-5.94c0.08-3.12,0.7-7.27,2.4-12.73
	c4.55-14.65,13.01-23.63,13.01-23.63s-13.16,0.49-26.06,4.54l0,0c-6.05-17.2-5.25-32.63-5.25-32.63s-15.21,17.68-21.9,36.81
	c-3.48,9.95-3,19.01-1.73,25.42c1.02,5.16,5.91,8.64,11.11,7.81c3-0.48,6.55-0.87,10.16-0.87s7.42,0.55,10.77,1.22L1098.36,775.18z"
	/>
<path class="st27" d="M1879.68,400.77c2.88,0.15,5.12-1.89,4.62-4.12c-0.47-2.1-0.81-5.1-0.7-9.34c0.26-10.47,3.41-17.92,3.41-17.92
	s-6.86,2.72-13.06,7.73l0,0c-5.69-10.22-7.52-20.52-7.52-20.52s-5.43,14.41-6.17,28.22c-0.33,6.22,0.42,10.44,1.34,13.2
	c0.82,2.46,4.01,3.93,7.15,3.3c1.84-0.37,4.09-0.67,6.55-0.67c1.42,0,2.94,0.05,4.39,0.13L1879.68,400.77z"/>
<path class="st21" d="M1642.55,479.75c-1.49,4.61-2.34,11.08-2.61,16.51c-0.13,2.75-2.46,4.86-5.22,4.72
	c-1.71-0.09-3.48,0.01-4.87,0.24c-0.8,0.13-1.58,0.32-2.31,0.53c-3.63,1.06-7.45-1.12-8.14-4.84s-0.73-8.45,0-13.94
	c1.48-11,6.42-18.43,6.42-18.43s1.82,12.62,3.5,19.95c2.29-4.73,5.25-9.89,8.78-14.03c8.95-10.51,17.13-12.2,17.13-12.2
	S1644.4,473.94,1642.55,479.75L1642.55,479.75z"/>
<path class="st27" d="M741.85,530.5c-2.88,0.58-5.63-1.58-5.7-4.51c-0.06-2.37-0.53-5.52-1.82-9.66
	c-3.45-11.13-9.87-17.94-9.87-17.94s9.99,0.37,19.78,3.45l0,0c4.59-13.06,3.99-24.78,3.99-24.78s11.55,13.42,16.63,27.95
	c2.64,7.56,2.27,14.44,1.31,19.3c-0.77,3.92-4.49,6.56-8.43,5.93c-2.27-0.36-4.97-0.66-7.72-0.66S744.39,529.99,741.85,530.5
	L741.85,530.5z"/>
<path class="st28" d="M1148.32,788.6c3.61,0.24,6.43-3.01,5.79-6.58c-0.59-3.35-1.02-8.14-0.88-14.91
	c0.33-16.71,4.27-28.59,4.27-28.59s-8.6,4.34-16.37,12.34l0,0c-7.13-16.31-9.43-32.74-9.43-32.74s-6.81,22.99-7.73,45.03
	c-0.41,9.92,0.52,16.66,1.68,21.07c1.03,3.93,5.03,6.26,8.97,5.26c2.3-0.59,5.13-1.07,8.21-1.07c1.78,0,3.69,0.09,5.5,0.21
	L1148.32,788.6z"/>
<path class="st21" d="M320.14,404.77c1.8,5.59,2.84,13.42,3.16,20.01c0.16,3.33,2.99,5.89,6.32,5.72c2.08-0.1,4.21,0.02,5.9,0.29
	c0.97,0.16,1.91,0.38,2.79,0.64c4.4,1.29,9.02-1.36,9.86-5.87c0.87-4.67,0.89-10.24,0-16.89c-1.79-13.33-7.77-22.32-7.77-22.32
	s-2.2,15.29-4.24,24.17c-2.78-5.73-6.36-11.98-10.64-17c-10.84-12.73-20.75-14.78-20.75-14.78s13.12,19,15.38,26.02L320.14,404.77z"
	/>
<g>
	<path class="st25" d="M1785.95,610.59c0,0,1.39-21.2-4.61-35.82c-3.57-8.68-9.89-16.08-14.77-20.92c-2.03-2.01-6.05-0.68-5.78,1.91
		c0.67,6.57,1.26,16,0.27,23.41c-2.32,17.39-10.9,32.85-10.9,32.85"/>
	<path class="st25" d="M1770.74,599.56c0,0-8.72-11.66-19.25-17.21c-5.53-2.91-12-4.53-17.13-5.42c-3.04-0.53-5.22,2.35-3.23,4.3
		c3.16,3.09,6.89,7.07,9.2,10.69c3.42,5.35,5.3,11.65,6.3,16.34c0.8,3.75,4.3,6.29,8.11,5.81c3.94-0.5,9.25-0.96,15.15-0.95
		s11.64,1.33,15.34,2.53c3.08,0.99,6.44-0.23,8.08-3.02c3.25-5.52,7.96-14.8,8.7-23.19c0.69-7.8-1.7-15.67-3.91-21.05
		c-0.98-2.38-5.08-2.42-6.17-0.07c-2.34,5.05-5.9,11.93-9.94,16.86c-9.8,11.96-27.47,21.05-27.47,21.05"/>
</g>
<path class="st21" d="M48.95,442.31c-2.74,0.19-4.88-2.29-4.4-4.99c0.45-2.54,0.77-6.18,0.67-11.32
	c-0.25-12.69-3.24-21.71-3.24-21.71s6.53,3.29,12.43,9.37l0,0c5.41-12.38,7.16-24.86,7.16-24.86s5.17,17.45,5.87,34.19
	c0.31,7.53-0.4,12.65-1.28,15.99c-0.78,2.99-3.82,4.76-6.81,3.99c-1.75-0.45-3.9-0.81-6.23-0.81c-1.35,0-2.8,0.07-4.17,0.16
	L48.95,442.31z"/>
<g class="st22">
	<path class="st25" d="M583.88,399.9c0,0,1.07-18.84-4.6-31.89c-3.62-8.34-10.17-15.39-14.8-19.67c-1.61-1.49-4.67-0.52-4.43,1.42
		c0.72,5.85,3.13,13.54,2.37,22.01c-1.4,15.5-9.04,22.67-9.04,22.67"/>
	<path class="st25" d="M572.15,386.47c0,0-7.96-10.76-16.51-16.29c-5.08-3.29-11.14-4.92-15.49-5.72c-1.97-0.36-3.3,1.94-2,3.46
		c2.74,3.2,6.31,7.73,8.43,11.8c3.37,6.48,4.89,14.35,5.55,19.07c0.32,2.29,2.39,3.92,4.69,3.71c3.94-0.36,9.86-0.74,14.45-0.37
		c2.89,0.24,5.88,0.76,8.47,1.31c4.56,0.97,9.17-1.39,11.06-5.66c2.47-5.56,5.34-13.36,5.86-20.53c0.6-8.31-1.65-16.71-3.53-22.06
		c-0.7-2.01-3.53-2.02-4.27-0.02c-1.88,5.1-4.94,12.57-8.45,17.83c-7.96,11.93-22.3,21-22.3,21"/>
</g>
<g class="st22">
	<path class="st29" d="M542.64,791.02c0,0-1.84-27.93,6.07-47.18c4.7-11.43,13.03-21.18,19.45-27.55c2.67-2.65,7.96-0.9,7.62,2.52
		c-0.88,8.65-1.66,21.07-0.35,30.83c3.06,22.9,14.36,43.26,14.36,43.26"/>
	<path class="st29" d="M562.85,778.53c0,0,9.22-11.96,21.07-17.12c6.22-2.71,13.65-3.92,19.57-4.46c3.51-0.32,6.3,3,4.14,4.95
		c-3.44,3.1-7.46,7.12-9.87,10.87c-3.42,5.33-5.09,11.75-5.91,16.71c-0.72,4.41-5.01,7.1-9.96,6.25c-5.65-0.98-12.76-2-17.88-2.02
		c-4.15-0.02-8.77,0.48-12.74,1.06c-6.19,0.91-12.86-2.32-16.31-7.85c-3.88-6.23-6.87-14.44-8.15-21.9
		c-1.46-8.54-0.71-17.02,1.42-22.69c0.94-2.5,5.74-2.21,7.2,0.44c3.16,5.7,7.9,13.48,13.03,19.19
		c12.46,13.84,33.88,25.22,33.88,25.22"/>
</g>
<path class="st28" d="M158,777.13c0.12,5.01,1.7,14.9,3.2,23.31c0.64,3.59-2.31,6.75-5.94,6.45c-2-0.16-4.08-0.25-6.22-0.25
	c-4.67,0-9.06,0.42-12.92,1.15c-2.69,0.51-5.38-0.75-6.73-3.13c-2.68-4.73-5.07-9.95-6.4-15.18c-4.35-17.17-0.2-31.13-0.2-31.13
	s9.47,18,15.92,28.12c0.92-8.34,2.61-17.67,5.7-25.78c7.84-20.58,20.18-31.94,20.18-31.94s-6.83,38.69-6.59,48.4V777.13z"/>
<path class="st27" d="M1895.36,667.05c-3.3,0.63-6.57-2.27-6.77-6.06c-0.16-3.06-0.84-7.15-2.5-12.56
	c-4.44-14.52-12.15-23.58-12.15-23.58s11.57,0.88,23.01,5.26l0,0c4.77-16.69,3.6-31.85,3.6-31.85s13.9,17.81,20.36,36.79
	c3.36,9.87,3.22,18.74,2.31,24.99c-0.74,5.03-4.92,8.29-9.51,7.32c-2.64-0.56-5.77-1.06-8.95-1.17c-3.16-0.11-6.5,0.31-9.41,0.86
	H1895.36z"/>
<g class="st22">
	<path class="st30" d="M1836.21,498.64c0,0,15.51-6.41,24.12-14.85c3.55-3.48,6.68-8.33,8.73-11.89c0.95-1.65,4.55-1.62,5.41,0.05
		c1.94,3.79,4.04,9.35,3.43,14.85c-0.64,5.82-4.65,12.24-7.49,16.16c-1.49,2.05-5.05,3.1-8.38,2.45c-3.34-0.65-7.85-1.38-12.57-1.69
		c-3.82-0.25-9.6,0.2-13.83,0.63c-2.88,0.29-5.57-0.99-6-2.88c-0.77-3.37-2.42-8.59-5.88-12.92c-2.03-2.55-5.31-5.36-8.08-7.54
		c-1.75-1.37,0.16-3.4,2.83-3.03c4.5,0.63,10.19,1.77,15.04,3.82c9.25,3.91,16.91,12.14,16.91,12.14"/>
	<path class="st30" d="M1863.78,501.71c0,0,1.22-14.96-4.05-25.26c-3.13-6.12-8.68-11.34-12.97-14.75
		c-1.78-1.42-5.31-0.48-5.08,1.35c0.59,4.63,1.11,11.29,0.24,16.51c-2.04,12.26-10.7,24.22-10.7,24.22"/>
</g>
<g class="st22">
	<path class="st29" d="M656.35,825.56c0,0,25.61-16.19,39.81-37.5c5.86-8.79,11.02-21.03,14.41-30.04c1.57-4.17,7.52-4.1,8.93,0.13
		c3.2,9.58,6.67,23.61,5.66,37.5c-1.06,14.7-7.68,30.91-12.37,40.8c-2.46,5.18-8.34,7.83-13.84,6.19
		c-5.51-1.65-12.97-3.49-20.75-4.27c-6.3-0.63-15.86,0.51-22.83,1.59c-4.75,0.74-9.2-2.51-9.91-7.26c-1.26-8.52-4-21.69-9.7-32.63
		c-3.36-6.45-8.76-13.54-13.35-19.05c-2.89-3.46,0.27-8.59,4.68-7.65c7.44,1.58,16.82,4.46,24.83,9.65
		c15.26,9.88,27.91,30.65,27.91,30.65"/>
	<path class="st29" d="M701.87,833.3c0,0,2.02-37.77-6.68-63.8c-5.17-15.46-14.34-28.64-21.4-37.25c-2.94-3.59-8.77-1.21-8.38,3.41
		c0.97,11.7,1.83,28.5,0.39,41.69c-3.37,30.97-17.67,61.16-17.67,61.16"/>
</g>
<g class="st22">
	<path class="st25" d="M105.35,536.72c0,0-1.39-21.2,4.61-35.82c3.57-8.68,9.89-16.08,14.77-20.92c2.03-2.01,6.05-0.68,5.78,1.91
		c-0.67,6.57-1.26,16-0.27,23.41c2.32,17.39,10.9,32.85,10.9,32.85"/>
	<path class="st25" d="M120.55,525.7c0,0,8.72-11.66,19.25-17.21c5.53-2.91,12-4.53,17.13-5.42c3.04-0.53,5.22,2.35,3.23,4.3
		c-3.16,3.09-6.89,7.07-9.2,10.69c-3.42,5.35-5.3,11.65-6.3,16.34c-0.8,3.75-4.3,6.29-8.11,5.81c-3.94-0.5-9.25-0.96-15.15-0.95
		s-11.64,1.33-15.34,2.53c-3.08,0.99-6.44-0.23-8.08-3.02c-3.25-5.52-7.96-14.8-8.7-23.19c-0.69-7.8,1.7-15.67,3.91-21.05
		c0.98-2.38,5.08-2.42,6.17-0.07c2.34,5.05,5.9,11.93,9.94,16.86c9.8,11.96,27.47,21.05,27.47,21.05"/>
</g>
<path class="st27" d="M1328.55,407.9c2.87,0.53,5.75-2.16,5.98-5.64c0.18-2.8,0.83-6.56,2.34-11.53
	c4.07-13.35,10.89-21.75,10.89-21.75s-10.08,0.97-20.1,5.13l0,0c-3.93-15.21-2.71-29.11-2.71-29.11s-12.34,16.5-18.22,33.96
	c-3.06,9.08-3.05,17.21-2.34,22.91c0.57,4.6,4.18,7.53,8.18,6.57c2.31-0.55,5.04-1.04,7.8-1.19c2.75-0.14,5.65,0.19,8.18,0.66
	L1328.55,407.9z"/>
<path class="st21" d="M1081.07,552.97c-0.1,2.59-1.38,7.69-2.59,12.02c-0.52,1.85,1.87,3.48,4.81,3.33c1.62-0.08,3.3-0.13,5.03-0.13
	c3.77,0,7.32,0.21,10.45,0.59c2.17,0.26,4.35-0.39,5.45-1.61c2.17-2.44,4.1-5.13,5.18-7.83c3.52-8.86,0.16-16.06,0.16-16.06
	s-7.66,9.29-12.88,14.51c-0.75-4.3-2.11-9.12-4.61-13.3c-6.34-10.62-16.32-16.48-16.32-16.48s5.52,19.96,5.33,24.97L1081.07,552.97z
	"/>
<g>
	<path class="st31" d="M1506.29,466.16c0,0-0.59-17.87-6.83-29.61c-3.7-6.97-9.61-12.65-14.1-16.29c-1.87-1.52-5.12-0.07-4.68,2.08
		c1.1,5.45,2.38,13.29,2.16,19.58c-0.51,14.75-6.41,28.41-6.41,28.41"/>
	<path class="st31" d="M1492.65,458.19c0,0-8.27-9.04-17.55-12.81c-4.87-1.98-10.42-2.8-14.79-3.12c-2.59-0.19-4.18,2.4-2.35,3.87
		c2.91,2.33,6.35,5.35,8.59,8.19c3.31,4.2,5.4,9.31,6.63,13.16c0.98,3.08,4.12,4.91,7.27,4.2s7.67-1.57,12.6-2.05
		s9.86,0.15,13.06,0.84c2.66,0.58,5.37-0.73,6.52-3.2c2.26-4.89,5.44-13.05,5.37-20.14c-0.07-6.59-2.72-12.99-5.01-17.3
		c-1.01-1.91-4.46-1.6-5.17,0.45c-1.54,4.43-3.95,10.48-6.93,14.94c-7.22,10.83-21.26,19.9-21.26,19.9"/>
</g>
<g>
	<path class="st31" d="M1721.59,425.5c0,0-13.3-13.83-19.94-30.51c-2.74-6.87-4.88-16.22-6.23-23.06c-0.62-3.17-3.95-3.58-4.99-0.61
		c-2.36,6.74-5.14,16.71-5.41,26.93c-0.29,10.81,2.42,23.17,4.45,30.76c1.06,3.98,4.18,6.37,7.34,5.6
		c3.17-0.77,7.44-1.53,11.83-1.49c3.55,0.04,8.81,1.62,12.63,2.96c2.6,0.91,5.28-1.11,5.96-4.52c1.22-6.12,3.53-15.52,7.37-23.06
		c2.26-4.44,5.7-9.2,8.58-12.86c1.82-2.3,0.37-6.29-2.15-5.95c-4.24,0.57-9.65,1.93-14.42,5.09c-9.1,6.01-17.4,20.18-17.4,20.18"/>
	<path class="st31" d="M1695.75,427.57c0,0,1.14-27.73,7.56-46.05c3.81-10.88,9.71-19.78,14.17-25.51c1.86-2.39,4.96-0.2,4.47,3.15
		c-1.24,8.47-2.73,20.66-2.72,30.41c0.02,22.87,6.18,46.04,6.18,46.04"/>
</g>
<path class="st25" d="M740.03,635.77c-0.12,5.01-1.7,14.9-3.2,23.31c-0.64,3.59,2.31,6.75,5.94,6.45c2-0.16,4.08-0.25,6.22-0.25
	c4.67,0,9.06,0.42,12.92,1.15c2.69,0.51,5.38-0.75,6.73-3.13c2.68-4.73,5.07-9.95,6.4-15.18c4.35-17.17,0.2-31.13,0.2-31.13
	s-9.47,18-15.92,28.12c-0.92-8.34-2.61-17.67-5.7-25.78c-7.84-20.58-20.18-31.94-20.18-31.94s6.83,38.69,6.59,48.4V635.77z"/>
<g>
	<path class="st25" d="M1259.57,676.33c0,0,1.29-22.83-5.57-38.63c-4.39-10.1-12.32-18.64-17.92-23.83
		c-1.96-1.81-5.65-0.63-5.36,1.72c0.88,7.09,3.8,16.41,2.87,26.67c-1.69,18.77-10.96,27.46-10.96,27.46"/>
	<path class="st25" d="M1245.36,660.05c0,0-9.64-13.04-20-19.74c-6.15-3.98-13.49-5.96-18.76-6.93c-2.38-0.44-4,2.35-2.42,4.19
		c3.32,3.88,7.65,9.36,10.22,14.3c4.09,7.85,5.93,17.39,6.72,23.1c0.38,2.78,2.89,4.75,5.69,4.49c4.77-0.43,11.94-0.9,17.51-0.44
		c3.5,0.29,7.12,0.92,10.26,1.59c5.53,1.18,11.11-1.69,13.4-6.85c2.99-6.73,6.47-16.19,7.1-24.87c0.73-10.06-2-20.24-4.28-26.73
		c-0.85-2.43-4.28-2.45-5.17-0.03c-2.28,6.18-5.98,15.23-10.23,21.6c-9.64,14.46-27.02,25.45-27.02,25.45"/>
</g>
<g>
	<path class="st25" d="M466.73,640.88c0,0-1.29-22.83,5.57-38.63c4.39-10.1,12.32-18.64,17.92-23.83c1.96-1.81,5.65-0.63,5.36,1.72
		c-0.88,7.09-3.8,16.41-2.87,26.67c1.69,18.77,10.96,27.46,10.96,27.46"/>
	<path class="st25" d="M480.94,624.6c0,0,9.64-13.04,20-19.74c6.15-3.98,13.49-5.96,18.76-6.93c2.38-0.44,4,2.35,2.42,4.19
		c-3.32,3.88-7.65,9.36-10.22,14.3c-4.09,7.85-5.93,17.39-6.72,23.1c-0.38,2.78-2.89,4.75-5.69,4.49
		c-4.77-0.43-11.94-0.9-17.51-0.44c-3.5,0.29-7.12,0.92-10.26,1.59c-5.53,1.18-11.11-1.69-13.4-6.85
		c-2.99-6.73-6.47-16.19-7.1-24.87c-0.73-10.06,2-20.24,4.28-26.73c0.85-2.43,4.28-2.45,5.17-0.03c2.28,6.18,5.98,15.23,10.23,21.6
		c9.64,14.46,27.02,25.45,27.02,25.45"/>
</g>
<path class="st32" d="M282.08,562.93c0.13,3.27,1.89,9.72,3.55,15.21c0.71,2.34-2.56,4.4-6.59,4.21c-2.22-0.11-4.53-0.16-6.9-0.16
	c-5.17,0-10.04,0.27-14.32,0.75c-2.98,0.33-5.97-0.49-7.47-2.04c-2.97-3.09-5.62-6.49-7.09-9.9c-4.82-11.2-0.22-20.32-0.22-20.32
	s10.5,11.75,17.65,18.35c1.02-5.44,2.9-11.53,6.32-16.83c8.69-13.43,22.38-20.84,22.38-20.84s-7.57,25.25-7.31,31.58V562.93z"/>
<g>
	<path class="st33" d="M925.38,608.84c0,0,1.07-18.84-4.6-31.89c-3.62-8.34-10.17-15.39-14.8-19.67c-1.61-1.49-4.67-0.52-4.43,1.42
		c0.72,5.85,3.13,13.54,2.37,22.01c-1.4,15.5-9.04,22.67-9.04,22.67"/>
	<path class="st33" d="M913.65,595.4c0,0-7.96-10.76-16.51-16.29c-5.08-3.29-11.14-4.92-15.49-5.72c-1.97-0.36-3.3,1.94-2,3.46
		c2.74,3.2,6.31,7.73,8.43,11.8c3.37,6.48,4.89,14.35,5.55,19.07c0.32,2.29,2.39,3.92,4.69,3.71c3.94-0.36,9.86-0.74,14.45-0.37
		c2.89,0.24,5.88,0.76,8.47,1.31c4.56,0.97,9.17-1.39,11.06-5.66c2.47-5.56,5.34-13.36,5.86-20.53c0.6-8.31-1.65-16.71-3.53-22.06
		c-0.7-2.01-3.53-2.02-4.27-0.02c-1.88,5.1-4.94,12.57-8.45,17.83c-7.96,11.93-22.3,21-22.3,21"/>
</g>
<path class="st27" d="M1560.12,387.75c3.89,0.13,6.92-1.57,6.23-3.43c-0.64-1.75-1.09-4.24-0.95-7.77c0.35-8.71,4.6-14.91,4.6-14.91
	s-9.25,2.26-17.62,6.43l0,0c-7.68-8.5-10.15-17.07-10.15-17.07s-7.33,11.99-8.32,23.47c-0.45,5.17,0.56,8.68,1.81,10.98
	c1.11,2.05,5.41,3.27,9.65,2.74c2.48-0.31,5.52-0.56,8.83-0.56c1.92,0,3.97,0.04,5.92,0.11L1560.12,387.75z"/>
<ellipse class="st34" cx="973" cy="1062" rx="1183" ry="67"/>
<ellipse class="st20" cx="973" cy="1016.5" rx="1183" ry="55.5"/>
<rect x="-36" y="828" class="st35" width="1982" height="91"/>
<rect x="-34" y="913" class="st35" width="1982" height="85"/>
<rect x="-28" y="736" class="st36" width="1982" height="93"/>
<rect x="-19" y="659" class="st36" width="1982" height="85"/>
<path class="st37" d="M2107.48,269.6c0,0-523-20.11-1073-19.98c-624,0.14-1080,17.39-1080,17.39l-73.37,67c0,0,456-17.25,1080-17.39
	c550-0.12,1073,19.98,1073,19.98L2107.48,269.6z"/>
<path class="st38" d="M2034.11,336.6c0,0-523-20.11-1073-19.98c-624,0.14-1080,17.39-1080,17.39"/>
<path class="st39" d="M2042.41,344.1c0,0-10.76-0.4-30.79-1.1l-4.12-7c20.04,0.69,30.81,1.1,30.81,1.1L2042.41,344.1z
	 M1965.62,341.46c-9.44-0.31-19.66-0.64-30.64-0.98l-4.15-7c10.98,0.35,21.21,0.67,30.65,0.98L1965.62,341.46z M-90.26,340.72
	l-4.61-7c7.79-0.27,17.62-0.61,29.4-1l4.6,7C-72.64,340.11-82.47,340.45-90.26,340.72z M1889.07,339.07c-9.8-0.29-20-0.6-30.58-0.9
	l-4.17-7c10.59,0.31,20.79,0.61,30.59,0.9L1889.07,339.07z M-16.74,338.32l-4.58-7c9.2-0.28,19.03-0.58,29.46-0.88l4.57,7
	c-10.43,0.31-20.26,0.6-29.46,0.88H-16.74z M1812.65,336.87c-9.92-0.28-20.1-0.55-30.53-0.83l-4.18-7
	c10.43,0.28,20.62,0.56,30.54,0.83L1812.65,336.87z M56.94,336.18l-4.56-7c9.48-0.26,19.32-0.53,29.51-0.8l4.55,7
	c-10.19,0.27-20.03,0.53-29.51,0.8H56.94z M1736.34,334.83c-9.98-0.25-20.14-0.51-30.49-0.77l-4.2-7
	c10.35,0.26,20.52,0.51,30.5,0.77L1736.34,334.83z M130.74,334.25l-4.54-7c9.6-0.24,19.46-0.48,29.56-0.72l4.54,7
	C150.2,333.77,140.35,334.01,130.74,334.25L130.74,334.25z M1660.14,332.97c-10.01-0.23-20.16-0.47-30.45-0.7l-4.21-7
	c10.29,0.23,20.44,0.47,30.45,0.7L1660.14,332.97z M204.66,332.51l-4.53-7c9.68-0.22,19.55-0.43,29.6-0.65l4.52,7
	C224.2,332.08,214.33,332.29,204.66,332.51L204.66,332.51z M1584.05,331.26c-10.03-0.21-20.16-0.43-30.4-0.63l-4.23-7
	c10.24,0.21,20.38,0.42,30.41,0.63L1584.05,331.26z M278.69,330.94l-4.51-7c9.73-0.19,19.61-0.39,29.65-0.58l4.51,7
	c-10.03,0.19-19.91,0.38-29.64,0.58H278.69z M1508.06,329.72c-10.03-0.19-20.16-0.38-30.36-0.57l-4.24-7
	c10.21,0.19,20.33,0.38,30.37,0.57l4.24,7H1508.06z M352.83,329.54l-4.5-7c9.77-0.17,19.67-0.34,29.69-0.51l4.49,7
	C372.49,329.2,362.6,329.37,352.83,329.54z M1432.18,328.35c-10.04-0.17-20.15-0.34-30.32-0.5l-4.26-7
	c10.18,0.16,20.29,0.33,30.33,0.5L1432.18,328.35z M427.06,328.3l-4.48-7c9.8-0.15,19.71-0.3,29.73-0.45l4.48,7
	c-10.01,0.15-19.92,0.3-29.72,0.45H427.06z M501.4,327.23l-4.47-7c9.83-0.13,19.75-0.26,29.77-0.39l4.46,7
	c-10.01,0.12-19.93,0.25-29.76,0.38L501.4,327.23z M1356.41,327.16c-10.04-0.15-20.13-0.29-30.27-0.43l-4.28-7
	c10.15,0.14,20.24,0.28,30.28,0.43L1356.41,327.16z M575.84,326.31l-4.45-7c9.86-0.11,19.79-0.22,29.81-0.32l4.45,7
	c-10.01,0.1-19.95,0.21-29.8,0.32H575.84z M1280.75,326.15c-10.03-0.12-20.11-0.24-30.23-0.35l-4.3-7
	c10.12,0.11,20.2,0.23,30.23,0.35l4.29,7H1280.75z M650.37,325.56l-4.44-7c9.88-0.09,19.83-0.18,29.85-0.26l4.43,7
	C670.19,325.38,660.24,325.47,650.37,325.56L650.37,325.56z M1205.21,325.33c-10.03-0.1-20.09-0.19-30.18-0.27l-4.31-7
	c10.09,0.09,20.16,0.18,30.18,0.27L1205.21,325.33z M725.01,324.96l-4.42-7c9.9-0.07,19.86-0.13,29.89-0.19l4.42,7
	c-10.02,0.06-19.98,0.13-29.88,0.19H725.01z M1129.8,324.71c-10.02-0.07-20.06-0.13-30.13-0.19l-4.34-7
	c10.07,0.06,20.11,0.12,30.13,0.19l4.33,7H1129.8z M799.75,324.52l-4.41-7c9.92-0.05,19.9-0.09,29.93-0.13l4.4,7
	C819.64,324.43,809.67,324.47,799.75,324.52L799.75,324.52z M1054.52,324.31c-9.98-0.04-19.97-0.07-29.98-0.1l-4.36-7
	c10.01,0.03,20.01,0.06,29.99,0.1L1054.52,324.31z M874.59,324.25l-4.39-7c9.94-0.03,19.93-0.05,29.97-0.07l4.39,7
	C894.52,324.2,884.53,324.22,874.59,324.25L874.59,324.25z M979.52,324.14c-5.81,0-11.62,0-17.43,0h-12.57l-4.38-7h12.57
	c5.82,0,11.63,0,17.44,0L979.52,324.14z"/>
<path class="st40" d="M2107.48,266.98c0,0-523-20.11-1073-19.98c-624,0.14-1080,17.39-1080,17.39"/>
<path class="st41" d="M2107.48,262.98c0,0-523-20.11-1073-19.98c-624,0.14-1080,17.39-1080,17.39"/>
<path class="st42" d="M1924.01,998h-62.29l20.97-31h62.29L1924.01,998z M1799.43,998h-62.29l20.97-31h62.29L1799.43,998z
	 M1674.85,998h-62.29l20.97-31h62.29L1674.85,998z M1550.27,998h-62.29l20.97-31h62.29L1550.27,998z M1425.69,998h-62.29l20.97-31
	h62.29L1425.69,998z M1301.11,998h-62.29l20.97-31h62.29L1301.11,998z M1176.53,998h-62.29l20.97-31h62.29L1176.53,998z
	 M1051.95,998h-62.29l20.97-31h62.29L1051.95,998z M927.37,998h-62.29l20.97-31h62.29L927.37,998z M802.79,998H740.5l20.97-31h62.29
	L802.79,998z M678.21,998h-62.29l20.97-31h62.29L678.21,998z M553.63,998h-62.29l20.97-31h62.29L553.63,998z M429.05,998h-62.29
	l20.97-31h62.29L429.05,998z M304.47,998h-62.29l20.97-31h62.29L304.47,998z M179.89,998H117.6l20.97-31h62.29L179.89,998
	L179.89,998z M55.31,998H-7l20.97-31h62.29l-20.97,31H55.31z"/>
<path class="st42" d="M19.08,690l-20.97-31H60.4l20.97,31H19.08z M143.66,690l-20.97-31h62.29l20.97,31H143.66z M268.24,690
	l-20.97-31h62.29l20.97,31H268.24z M392.82,690l-20.97-31h62.29l20.97,31H392.82z M517.4,690l-20.97-31h62.29l20.97,31H517.4z
	 M641.98,690l-20.97-31h62.29l20.97,31H641.98z M766.56,690l-20.97-31h62.29l20.97,31H766.56z M891.14,690l-20.97-31h62.29l20.97,31
	H891.14z M1015.72,690l-20.97-31h62.29l20.97,31H1015.72L1015.72,690z M1140.3,690l-20.97-31h62.29l20.97,31H1140.3z M1264.88,690
	l-20.97-31h62.29l20.97,31H1264.88z M1389.46,690l-20.97-31h62.29l20.97,31H1389.46z M1514.04,690l-20.97-31h62.29l20.97,31H1514.04
	z M1638.62,690l-20.97-31h62.29l20.97,31H1638.62z M1763.2,690l-20.97-31h62.29l20.97,31H1763.2z M1887.78,690l-20.97-31h62.29
	l20.97,31H1887.78z"/>
<path class="st43" d="M1197.95,975.93c-2.7,8.39-4.26,20.14-4.74,30.03c-0.24,5-4.48,8.84-9.49,8.59c-3.12-0.16-6.33,0.02-8.86,0.44
	c-1.46,0.24-2.87,0.58-4.19,0.96c-6.61,1.93-13.55-2.04-14.81-8.81c-1.3-7-1.33-15.38,0-25.36c2.69-20,11.67-33.51,11.67-33.51
	s3.3,22.95,6.37,36.28c4.17-8.6,9.55-17.98,15.97-25.51c16.27-19.11,31.16-22.18,31.16-22.18S1201.34,965.39,1197.95,975.93
	L1197.95,975.93z"/>
<g>
	<path class="st44" d="M1666.11,1019.05c0,0,28.16-12.96,43.79-30c6.44-7.03,12.12-16.83,15.85-24.03c1.73-3.34,8.27-3.28,9.83,0.1
		c3.52,7.66,7.33,18.89,6.23,30.01c-1.17,11.76-8.45,24.73-13.61,32.65c-2.71,4.15-9.17,6.27-15.22,4.95
		c-6.06-1.32-14.26-2.8-22.83-3.42c-6.93-0.5-17.44,0.41-25.11,1.27c-5.23,0.59-10.12-2.01-10.9-5.81
		c-1.39-6.81-4.4-17.36-10.67-26.11c-3.69-5.16-9.63-10.84-14.68-15.24c-3.17-2.77,0.29-6.87,5.15-6.12
		c8.18,1.27,18.5,3.57,27.31,7.72c16.79,7.9,30.7,24.52,30.7,24.52"/>
	<path class="st44" d="M1716.18,1025.25c0,0,2.22-30.22-7.35-51.05c-5.68-12.37-15.77-22.92-23.54-29.81
		c-3.24-2.87-9.64-0.97-9.22,2.73c1.06,9.36,2.01,22.8,0.43,33.36c-3.7,24.78-19.43,48.94-19.43,48.94"/>
</g>
<path class="st45" d="M573.21,991.93c0.21,4.97,2.96,14.76,5.58,23.09c1.11,3.56-4.03,6.68-10.35,6.39
	c-3.48-0.16-7.11-0.25-10.85-0.25c-8.13,0-15.78,0.41-22.51,1.14c-4.68,0.51-9.38-0.75-11.74-3.1c-4.68-4.68-8.84-9.85-11.15-15.03
	c-7.58-17-0.35-30.84-0.35-30.84s16.51,17.83,27.74,27.86c1.61-8.26,4.55-17.51,9.94-25.55c13.66-20.38,35.16-31.64,35.16-31.64
	S572.8,982.31,573.21,991.93L573.21,991.93z"/>
<path class="st46" d="M152.66,1030.14c-4.66-0.14-9.66-1.14-9.01-8.04c0.4-4.18,1.58-9.94,1.37-18.22
	c-0.51-20.43-6.64-34.95-6.64-34.95s13.37,5.3,25.46,15.08l0,0c11.09-19.93,14.66-40.02,14.66-40.02s10.59,28.1,12.03,55.03
	c0.65,12.12-0.81,20.36-2.61,25.75c-1.61,4.81-7.82,7.66-13.95,6.43c-3.58-0.72-7.98-1.31-12.76-1.31
	C158.44,1029.89,155.48,1030.23,152.66,1030.14z"/>
<text transform="matrix(1 0 0 1 989.6606 1295.1558)"><tspan x="0" y="0" class="st20" style="font-family:'Formula1-Display-Bold'; font-size:118.4263px;">Apply</tspan><tspan x="0" y="142.11" class="st20" style="font-family:'Formula1-Display-Bold'; font-size:118.4263px;">Now -&gt;</tspan></text>
</svg>
