<?xml version="1.0" encoding="utf-8"?>
<!-- Generator: Adobe Illustrator 27.9.5, SVG Export Plug-In . SVG Version: 9.03 Build 54986)  -->
<svg version="1.1" id="Layer_1" xmlns="http://www.w3.org/2000/svg" xmlns:xlink="http://www.w3.org/1999/xlink" x="0px" y="0px"
	 viewBox="0 0 1920 1164" style="enable-background:new 0 0 1920 1164;" xml:space="preserve">
<style type="text/css">
	.st0{fill:#FFF27D;}
	.st1{fill:#FFDE76;}
	.st2{fill:#FFCE78;}
	.st3{fill:#FFB358;}
	.st4{fill:#FFA05A;}
	.st5{opacity:0.8;}
	.st6{fill:#70A8B7;}
	.st7{fill:#5AAAB4;}
	.st8{fill:#68ADB7;}
	.st9{fill:#76BCAD;}
	.st10{fill:#6EBCA5;}
	.st11{fill:#60B99D;}
	.st12{fill:#8BAEBA;}
	.st13{fill:#4FB477;}
	.st14{fill:#5DB783;}
	.st15{opacity:0.2;}
	.st16{fill:#FFFFFF;}
	.st17{opacity:0.3;}
	.st18{fill:#4AA630;}
	.st19{fill:#2B9E1E;}
	.st20{fill:#36941F;}
	.st21{opacity:0.6;fill:#408532;enable-background:new    ;}
	.st22{opacity:0.6;}
	.st23{fill:#24872B;}
	.st24{fill:#35942E;}
	.st25{fill:#409C36;}
	.st26{opacity:0.6;fill:#207D1F;enable-background:new    ;}
	.st27{opacity:0.6;fill:#35942E;enable-background:new    ;}
	.st28{opacity:0.6;fill:#2B8F2F;enable-background:new    ;}
	.st29{fill:#2B8F2F;}
	.st30{fill:#408532;}
	.st31{fill:#459932;}
	.st32{fill:#48992C;}
	.st33{fill:#378937;}
	.st34{fill:#36891F;}
	.st35{fill:#484E59;}
	.st36{fill:#4B535E;}
	.st37{fill:#555A65;}
	.st38{fill:none;stroke:#4A5663;stroke-width:15;stroke-miterlimit:10;}
	.st39{fill:#FFE67B;}
	.st40{fill:none;stroke:#586274;stroke-width:10;stroke-miterlimit:10;}
	.st41{fill:none;stroke:#FFF0B3;stroke-width:2;stroke-miterlimit:10;stroke-dasharray:0,0,25,38;}
	.st42{fill:#F9DD64;}
	.st43{fill:#367E24;}
	.st44{fill:#3A7A2B;}
	.st45{fill:#407C32;}
	.st46{fill:#438B27;}
</style>
<g id="bg">
	<rect x="-11" class="st0" width="1931" height="355"/>
</g>
<g id="sky">
	<path class="st1" d="M1685,341c0-0.4,0-0.7,0-1.1c0-314.6-324.7-569.6-725.3-569.6s-725.3,255-725.3,569.6c0,0.4,0,0.7,0,1.1H1685
		L1685,341z"/>
	<path class="st2" d="M1491,339c0-0.3,0-0.5,0-0.8c0-229.4-236.7-415.3-528.8-415.3S433.4,108.9,433.4,338.2c0,0.3,0,0.5,0,0.8H1491
		z"/>
	<g>
		<path class="st3" d="M1179.2,242c0-0.1,0-0.2,0-0.4c0-106.9-98.4-193.6-219.9-193.6s-219.9,86.7-219.9,193.6c0,0.1,0,0.2,0,0.4
			H1179.2L1179.2,242z"/>
		<path class="st4" d="M1131.8,242c0-0.1,0-0.2,0-0.3c0-83.9-77.2-151.9-172.5-151.9s-172.5,68-172.5,151.9c0,0.1,0,0.2,0,0.3
			H1131.8z"/>
	</g>
</g>
<g id="buildings">
	<g class="st5">
		<path class="st6" d="M1796.8,200.3h17.5c4.3,0,7.8,3.5,7.8,7.8V277c0,4.3-3.5,7.8-7.8,7.8h-17.5c-4.3,0-7.8-3.5-7.8-7.8v-68.9
			C1789,203.8,1792.5,200.3,1796.8,200.3z"/>
	</g>
	<g class="st5">
		<path class="st7" d="M1841.6,191h20.1c3.6,0,6.5,2.9,6.5,6.5v88.9c0,3.6-2.9,6.5-6.5,6.5h-20.1c-3.6,0-6.5-2.9-6.5-6.5v-88.9
			C1835.1,193.9,1838,191,1841.6,191z"/>
	</g>
	<g class="st5">
		<path class="st8" d="M1887.4,231.5h20.1c3.6,0,6.5,2.9,6.5,6.5v82.2c0,3.6-2.9,6.5-6.5,6.5h-20.1c-3.6,0-6.5-2.9-6.5-6.5V238
			C1880.9,234.4,1883.8,231.5,1887.4,231.5z"/>
	</g>
	<g class="st5">
		<path class="st7" d="M1701.1,179h20.1c3.6,0,6.5,2.9,6.5,6.5v64.7c0,3.6-2.9,6.5-6.5,6.5h-20.1c-3.6,0-6.5-2.9-6.5-6.5v-64.7
			C1694.6,181.9,1697.5,179,1701.1,179z"/>
	</g>
	<g class="st5">
		<path class="st8" d="M1748.8,141.4h20.1c3.6,0,6.5,2.9,6.5,6.5v143.8c0,3.6-2.9,6.5-6.5,6.5h-20.1c-3.6,0-6.5-2.9-6.5-6.5V147.9
			C1742.3,144.4,1745.2,141.4,1748.8,141.4z"/>
	</g>
	<g class="st5">
		<path class="st9" d="M1512,200.3h20.1c3.6,0,6.5,2.9,6.5,6.5v45.6c0,3.6-2.9,6.5-6.5,6.5H1512c-3.6,0-6.5-2.9-6.5-6.5v-45.6
			C1505.5,203.2,1508.4,200.3,1512,200.3z"/>
	</g>
	<g class="st5">
		<path class="st10" d="M1559.1,161h20.1c3.6,0,6.5,2.9,6.5,6.5v88.9c0,3.6-2.9,6.5-6.5,6.5h-20.1c-3.6,0-6.5-2.9-6.5-6.5v-88.9
			C1552.6,163.9,1555.5,161,1559.1,161z"/>
	</g>
	<g class="st5">
		<path class="st11" d="M1607.8,219.6h20.1c3.6,0,6.5,2.9,6.5,6.5v82.2c0,3.6-2.9,6.5-6.5,6.5h-20.1c-3.6,0-6.5-2.9-6.5-6.5v-82.2
			C1601.3,222.5,1604.2,219.6,1607.8,219.6z"/>
	</g>
	<path class="st12" d="M110.5,219.3h20.1c3.6,0,6.5,2.9,6.5,6.5v34.4c0,3.6-2.9,6.5-6.5,6.5h-20.1c-3.6,0-6.5-2.9-6.5-6.5v-34.4
		C104,222.2,106.9,219.3,110.5,219.3z"/>
	<g class="st5">
		<path class="st6" d="M64.4,187.3h20.1c3.6,0,6.5,2.9,6.5,6.5V276c0,3.6-2.9,6.5-6.5,6.5H64.4c-3.6,0-6.5-2.9-6.5-6.5v-82.2
			C57.9,190.2,60.8,187.3,64.4,187.3z"/>
	</g>
	<g class="st5">
		<path class="st8" d="M18.6,225h20.1c3.6,0,6.5,2.9,6.5,6.5v95.3c0,3.6-2.9,6.5-6.5,6.5H18.6c-3.6,0-6.5-2.9-6.5-6.5v-95.3
			C12.1,227.9,15,225,18.6,225z"/>
	</g>
	<g class="st5">
		<path class="st7" d="M204.9,189h20.1c3.6,0,6.5,2.9,6.5,6.5v60c0,3.6-2.9,6.5-6.5,6.5h-20.1c-3.6,0-6.5-2.9-6.5-6.5v-60
			C198.4,191.9,201.3,189,204.9,189z"/>
	</g>
	<g class="st5">
		<path class="st8" d="M157.1,148.3h20.1c3.6,0,6.5,2.9,6.5,6.5v150.1c0,3.6-2.9,6.5-6.5,6.5h-20.1c-3.6,0-6.5-2.9-6.5-6.5V154.8
			C150.6,151.2,153.6,148.3,157.1,148.3z"/>
	</g>
	<g class="st5">
		<path class="st11" d="M395.9,177.5H416c3.6,0,6.5,2.9,6.5,6.5v77.2c0,3.6-2.9,6.5-6.5,6.5h-20.1c-3.6,0-6.5-2.9-6.5-6.5V184
			C389.4,180.4,392.3,177.5,395.9,177.5z"/>
	</g>
	<g class="st5">
		<path class="st9" d="M349.8,199.5h20.1c3.6,0,6.5,2.9,6.5,6.5v57c0,3.6-2.9,6.5-6.5,6.5h-20.1c-3.6,0-6.5-2.9-6.5-6.5v-57
			C343.3,202.4,346.2,199.5,349.8,199.5z"/>
	</g>
	<g class="st5">
		<path class="st11" d="M300,165.5h20.1c3.6,0,6.5,2.9,6.5,6.5v107.1c0,3.6-2.9,6.5-6.5,6.5H300c-3.6,0-6.5-2.9-6.5-6.5V172
			C293.5,168.4,296.4,165.5,300,165.5z"/>
	</g>
	<g class="st5">
		<path class="st13" d="M629.8,184.5h20.1c3.6,0,6.5,2.9,6.5,6.5v60c0,3.6-2.9,6.5-6.5,6.5h-20.1c-3.6,0-6.5-2.9-6.5-6.5v-60
			C623.2,187.4,626.2,184.5,629.8,184.5z"/>
	</g>
	<g class="st5">
		<path class="st14" d="M582,142.5h20.1c3.6,0,6.5,2.9,6.5,6.5v150.1c0,3.6-2.9,6.5-6.5,6.5H582c-3.6,0-6.5-2.9-6.5-6.5V149
			C575.5,145.4,578.4,142.5,582,142.5z"/>
	</g>
	<g class="st5">
		<path class="st13" d="M1348.8,206.1h20.1c3.6,0,6.5,2.9,6.5,6.5v60c0,3.6-2.9,6.5-6.5,6.5h-20.1c-3.6,0-6.5-2.9-6.5-6.5v-60
			C1342.2,209,1345.2,206.1,1348.8,206.1z"/>
	</g>
	<g class="st5">
		<path class="st14" d="M1299,147.9h20.1c3.6,0,6.5,2.9,6.5,6.5v150.1c0,3.6-2.9,6.5-6.5,6.5H1299c-3.6,0-6.5-2.9-6.5-6.5V154.4
			C1292.5,150.8,1295.4,147.9,1299,147.9z"/>
	</g>
	<g class="st5">
		<path class="st14" d="M1248.7,192.9h20.1c3.6,0,6.5,2.9,6.5,6.5v150.1c0,3.6-2.9,6.5-6.5,6.5h-20.1c-3.6,0-6.5-2.9-6.5-6.5V199.4
			C1242.2,195.9,1245.1,192.9,1248.7,192.9z"/>
	</g>
</g>
<g class="st15">
	<path class="st16" d="M1534.1,102l-318.6-0.4c-4.9,0-8.8-3.7-8.8-8.2l0,0c0-4.5,3.9-8.2,8.8-8.2l318.6,0.4c4.9,0,8.8,3.7,8.8,8.2
		l0,0C1542.9,98.3,1539,102,1534.1,102z"/>
	<path class="st16" d="M1479.3,73.8L1287,73.5c-0.1,0-0.2-0.1-0.2-0.2l0,0c0-7.3,6.5-13.3,14.4-13.3l163.8,0.4c8,0,14.4,6,14.4,13.3
		l0,0C1479.5,73.8,1479.4,73.8,1479.3,73.8L1479.3,73.8z"/>
	<path class="st16" d="M1516.6,86l-276-0.4c-0.1,0-0.2-0.1-0.2-0.2l0,0c0-7.3,6.6-13.3,14.7-13.3l247.1,0.4c8.1,0,14.7,6,14.7,13.3
		l0,0C1516.8,85.9,1516.7,86,1516.6,86L1516.6,86z"/>
</g>
<g class="st17">
	<g class="st5">
		<path class="st16" d="M1133.6,71.7c6.7,4,11.9,9.2,15.2,14.4c6.2,0.4,13.2,2.7,19.9,6.7c4.1,2.4,7.6,5.3,10.4,8.3
			c-2.5-4.6-6.7-9-12.3-12.4c-5.5-3.3-11.4-5-16.6-5c-2.5-4.6-6.7-9-12.2-12.3c-5.5-3.3-11.4-5-16.7-5
			C1125.4,67.5,1129.6,69.3,1133.6,71.7L1133.6,71.7L1133.6,71.7z"/>
	</g>
	<g class="st5">
		<path class="st16" d="M1093.4,19.5c7.3,2.9,13.3,7.1,17.4,11.7c6.2-0.6,13.5,0.4,20.7,3.3c4.4,1.7,8.3,3.9,11.7,6.5
			c-3.2-4.1-8.1-7.8-14.2-10.2c-6-2.4-12.1-3-17.2-2.2c-3.2-4.1-8.1-7.8-14.1-10.1s-12.1-3-17.3-2.2
			C1084.6,16.7,1089,17.8,1093.4,19.5z"/>
	</g>
	<g class="st5">
		<path class="st16" d="M973.2,22c7.5,2,14,5.5,18.6,9.7c6.1-1.3,13.4-1.1,21,1c4.6,1.2,8.7,3,12.3,5.1c-3.7-3.8-9-6.9-15.2-8.5
			c-6.2-1.7-12.3-1.7-17.3-0.3c-3.7-3.7-8.9-6.8-15.1-8.5c-6.2-1.7-12.4-1.7-17.4-0.3C964.2,20.2,968.7,20.7,973.2,22L973.2,22
			L973.2,22z"/>
	</g>
</g>
<g class="st15">
	<path class="st16" d="M730.3,157.8l-318.6-0.4c-4.9,0-8.8-3.6-8.8-8.2l0,0c0-4.5,3.9-8.2,8.8-8.2l318.6,0.4c4.9,0,8.8,3.6,8.8,8.2
		l0,0C739.1,154.2,735.2,157.8,730.3,157.8z"/>
	<path class="st16" d="M675.5,129.7l-192.3-0.4c-0.1,0-0.2-0.1-0.2-0.2l0,0c0-7.3,6.5-13.3,14.5-13.3l163.8,0.4
		c8,0,14.5,6,14.5,13.3l0,0C675.7,129.6,675.6,129.7,675.5,129.7L675.5,129.7z"/>
	<path class="st16" d="M712.8,141.8l-276-0.4c-0.1,0-0.2-0.1-0.2-0.2l0,0c0-7.4,6.6-13.3,14.7-13.3l247.1,0.4
		c8.1,0,14.7,6,14.7,13.3l0,0C713,141.7,712.9,141.8,712.8,141.8L712.8,141.8z"/>
</g>
<g id="grass_">
	<rect x="-31" y="311" class="st18" width="1987" height="421"/>
</g>
<path class="st19" d="M799.6,383.3c0.1,3.8,1.3,11.3,2.4,17.7c0.5,2.7-1.8,5.1-4.5,4.9c-1.5-0.1-3.1-0.2-4.7-0.2
	c-3.5,0-6.9,0.3-9.8,0.9c-2,0.4-4.1-0.6-5.1-2.4c-2-3.6-3.8-7.5-4.9-11.5c-3.3-13-0.2-23.6-0.2-23.6s7.2,13.7,12.1,21.4
	c0.7-6.3,2-13.4,4.3-19.6c6-15.6,15.3-24.2,15.3-24.2S799.5,375.9,799.6,383.3L799.6,383.3z"/>
<g>
	<path class="st20" d="M1221.9,477c-5.9-1.5-10.4-3.6-13.5-6.2c-3.1-2.6-4.8-5.7-5.3-9.3c-0.6-4.5,0.7-8,3.9-10.6
		c3.2-2.6,8-3.9,14.4-3.9h30.9l2,11.7h-31.3c-1.7,0-2.9,0.3-3.5,0.8c-0.6,0.5-0.9,1.2-0.8,1.8c0.1,0.9,0.6,1.6,1.3,2.1
		c0.8,0.5,1.9,1,3.5,1.4l15.5,3.8c6.6,1.6,11.7,3.7,15.2,6.1c3.6,2.4,5.8,5.8,6.5,10.2c0.4,2.3,0.3,4.4-0.3,6.5s-1.8,3.8-3.5,5.3
		s-4,2.7-6.9,3.6s-6.4,1.4-10.4,1.4h-29.6l-1.6-12.4h31.8c2.1,0,3.5-0.4,4.2-1.1s1-1.6,0.8-2.6c-0.2-1.2-0.8-2.1-2-2.7
		c-1.1-0.6-3.1-1.3-6-2L1221.9,477L1221.9,477z"/>
	<path class="st20" d="M1282.9,483.5l0.1,0.3c0.5,2.8,1.6,4.7,3.1,5.6c1.6,1,4,1.4,7.4,1.4h25.2l2.3,10.9h-24.5
		c-4.9,0-9.1-0.5-12.7-1.5c-3.6-1-6.5-2.4-8.8-4.2c-2.3-1.8-4.2-3.9-5.5-6.4c-1.3-2.5-2.3-5.2-2.8-8.2l-1-5.6
		c-1-5.8,0.1-10.4,3.2-13.8c3.1-3.4,8.9-5.1,17.4-5.1h3.2c4.5,0,8.4,0.5,11.6,1.4s5.9,2.3,8,4c2.1,1.8,3.8,3.9,5,6.3
		c1.2,2.5,2.2,5.2,2.8,8.2l1.4,6.4L1282.9,483.5L1282.9,483.5z M1286.8,466.7c-2.6,0-4.3,0.5-5.2,1.5c-0.8,1-1,2.7-0.6,5.1l0.2,1
		h20.4l-0.2-1c-0.5-2.4-1.3-4.1-2.6-5.1c-1.3-1-3.1-1.5-5.6-1.5H1286.8L1286.8,466.7z"/>
	<path class="st20" d="M1320.7,457.6h34.5c6,0,11.1,1.8,15.4,5.3c4.3,3.5,7.3,8.3,8.8,14.2l1.2,4.4c1.6,6,1.1,10.9-1.4,14.6
		c-2.6,3.7-6.9,5.6-13.1,5.6h-19.7l2.7,11.5h-16L1320.7,457.6L1320.7,457.6z M1338.6,468.2l5.2,22.4h14.2c3.4,0,5.5-0.7,6.4-2.1
		c0.9-1.4,1-3.5,0.3-6.5l-1.4-5.8c-0.7-2.9-1.8-4.9-3.4-6.2c-1.6-1.2-4-1.9-7.3-1.9H1338.6L1338.6,468.2z"/>
	<path class="st20" d="M1379,457.6h7.8l-2.3-8.6h14.1l2.4,8.6h16.6l3,10.4h-16.7l5,17.8c0.5,1.9,1.3,3.2,2.4,3.9
		c1.1,0.7,2.6,1.1,4.6,1.1h11.4l3.2,10.9h-13.3c-6.9,0-12.2-1.3-15.9-4c-3.7-2.6-6.2-6.6-7.7-12l-4.8-17.8h-7.1L1379,457.6
		L1379,457.6z"/>
	<path class="st20" d="M1434.6,486h17.4l4.9,15.8h-17.6L1434.6,486z"/>
	<path class="st20" d="M1274.8,599.6h-55.5l-1.4-10.6c-0.3-2.8-0.4-5.2-0.1-7.4s1.1-4.2,2.3-6c1.2-1.8,2.9-3.6,5.1-5.3
		c2.2-1.7,5-3.5,8.4-5.3l12.9-6.9c1.4-0.7,2.4-1.4,2.9-2.1c0.5-0.7,0.7-1.5,0.6-2.6c-0.2-1.5-0.9-2.6-2.1-3.1
		c-1.2-0.5-2.7-0.8-4.5-0.8h-29.2l-1.6-12.7h30.4c7.7,0,13.5,1.3,17.4,3.9c4,2.6,6.4,6.2,7.1,10.7c0.4,2.6,0.4,4.8-0.1,6.7
		s-1.4,3.5-2.8,5s-3.1,2.9-5.2,4.3c-2.1,1.4-4.6,2.8-7.4,4.4l-11.8,6.7c-1.9,1-3,2-3.4,2.8s-0.6,1.8-0.4,2.9l0.2,1.7h35.9
		L1274.8,599.6L1274.8,599.6z"/>
	<path class="st20" d="M1279.4,539.7c3.9-2.4,10.5-3.6,19.6-3.6h2c9.1,0,16.1,1.2,21,3.6c4.9,2.4,7.9,6.2,9,11.5l0.7,3.3
		c0.6,2.6,0.3,5.1-0.6,7.5c-1,2.4-3.6,4.2-7.9,5.3c5.3,1.2,9.2,3,11.5,5.4s3.8,5,4.4,7.8l0.8,3.6c1.2,5.5-0.3,9.7-4.3,12.4
		c-4.1,2.7-11.2,4-21.2,4h-3.8c-10,0-17.6-1.3-22.8-4c-5.1-2.7-8.1-6.8-9.1-12.4l-0.6-3.6c-0.5-2.8,0-5.4,1.4-7.8
		c1.4-2.4,4.6-4.2,9.4-5.4c-4.8-1.2-8.1-2.9-10-5.3c-1.9-2.4-3.1-4.9-3.5-7.5l-0.6-3.3C1273.9,545.9,1275.5,542,1279.4,539.7
		L1279.4,539.7z M1319,574.6c-1.6-0.8-4.3-1.3-8.1-1.3h-7.3c-3.9,0-6.4,0.4-7.6,1.3c-1.2,0.8-1.7,2.2-1.3,4.1l0.5,3
		c0.3,1.9,1.3,3.4,2.9,4.4s4.5,1.5,8.6,1.5h6.5c4.2,0,6.8-0.5,8.1-1.5s1.6-2.5,1.2-4.4l-0.6-3C1321.5,576.8,1320.5,575.4,1319,574.6
		L1319,574.6z M1312.1,549.2c-1.5-0.8-4.2-1.1-8-1.1h-3.5c-3.8,0-6.3,0.4-7.5,1.1s-1.7,2.1-1.3,3.9l0.5,2.9c0.3,1.9,1.3,3.2,2.8,4
		c1.5,0.8,4.3,1.2,8.4,1.2h2.7c4.1,0,6.7-0.4,8-1.2c1.2-0.8,1.7-2.1,1.3-4l-0.6-2.9C1314.6,551.2,1313.6,549.9,1312.1,549.2z"/>
	<path class="st20" d="M1336.8,549h8.4l-2.2-9.9h15l2.3,9.9h28.1l3,11.9h-28.3l4.8,20.4c0.5,2.2,1.3,3.7,2.5,4.5
		c1.1,0.8,2.8,1.2,4.9,1.2h8.6l3.1,12.5h-10.7c-7.4,0-13.1-1.5-16.9-4.6c-3.9-3-6.5-7.6-7.8-13.7l-4.5-20.4h-7.6L1336.8,549
		L1336.8,549z"/>
	<path class="st20" d="M1381.3,536.9h16.3l3.2,12.1h15.7c7.6,0,13.5,1.8,18,5.4c4.4,3.6,7.6,8.5,9.4,14.8l8.7,30.3h-17l-8.5-30.8
		c-0.7-2.6-1.7-4.4-2.9-5.5s-3.1-1.6-5.6-1.6h-14.5l9.9,37.8h-17L1381.3,536.9L1381.3,536.9z"/>
	<path class="st20" d="M1474.5,566.7h21.6l4.7,14.6H1479L1474.5,566.7L1474.5,566.7z"/>
	<path class="st20" d="M1591.7,599.6h-55.5l-3.7-10.6c-0.9-2.8-1.5-5.2-1.7-7.4s0.2-4.2,1-6c0.8-1.8,2.2-3.6,4-5.3
		c1.8-1.7,4.2-3.5,7.3-5.3l11.4-6.9c1.2-0.7,2.1-1.4,2.4-2.1c0.4-0.7,0.4-1.5,0-2.6c-0.6-1.5-1.5-2.6-2.8-3.1
		c-1.3-0.5-2.9-0.8-4.7-0.8h-29.2l-4.4-12.7h30.4c7.7,0,13.8,1.3,18.3,3.9c4.6,2.6,7.7,6.2,9.4,10.7c1,2.6,1.4,4.8,1.3,6.7
		c-0.1,1.9-0.7,3.5-1.7,5c-1,1.5-2.5,2.9-4.3,4.3c-1.8,1.4-4,2.8-6.4,4.4l-10.3,6.7c-1.6,1-2.6,2-2.8,2.8s-0.2,1.8,0.2,2.9l0.6,1.7
		h35.9L1591.7,599.6L1591.7,599.6z"/>
	<path class="st20" d="M1594.3,570.7c-5.4-3-9.1-7.2-11.3-12.8l-1.1-2.8c-2.4-6.1-2.1-10.7,0.7-13.9c2.8-3.2,8.7-4.7,17.7-4.7h3.3
		c10,0,18.1,2,24.4,6c6.3,4,11.4,10.4,15.2,19.2l4.7,10.9c1.7,4,2.7,7.7,2.9,11.1c0.2,3.3-0.5,6.2-2.1,8.5c-1.6,2.3-4.2,4.2-7.7,5.5
		c-3.5,1.3-8.1,2-13.7,2h-25.3l-5.1-13.2h25.8c5.2,0,8.3-0.8,9.3-2.4c1.1-1.6,0.8-4.3-0.7-8l-0.3-0.8h-15.3
		C1606.8,575.2,1599.7,573.7,1594.3,570.7L1594.3,570.7z M1625.8,562.7l-2.1-5.1c-1.6-3.8-3.4-6.4-5.5-7.7s-5.2-1.9-9.3-1.9h-2.2
		c-4,0-6.5,0.5-7.5,1.7c-0.9,1.1-1,2.7-0.2,4.8l0.7,1.8c1,2.4,2.3,4.1,4.1,5c1.7,0.9,4.4,1.4,8,1.4L1625.8,562.7L1625.8,562.7z"/>
	<path class="st20" d="M1643.9,549h8.4l-4.3-9.9h15l4.4,9.9h28.1l5.6,11.9h-28.3l9.2,20.4c1,2.2,2.1,3.7,3.4,4.5
		c1.3,0.8,3.1,1.2,5.2,1.2h8.6l5.8,12.5h-10.7c-7.4,0-13.4-1.5-17.9-4.6c-4.5-3-8.1-7.6-10.8-13.7l-8.9-20.4h-7.6L1643.9,549
		L1643.9,549z"/>
	<path class="st20" d="M1685.8,536.9h16.3l5.8,12.1h15.7c7.6,0,13.9,1.8,19.1,5.4c5.2,3.6,9.4,8.5,12.6,14.8l15.3,30.3h-17
		l-15.2-30.8c-1.3-2.6-2.6-4.4-4.1-5.5c-1.4-1.1-3.4-1.6-6-1.6H1714l18.1,37.8h-17L1685.8,536.9L1685.8,536.9z"/>
</g>
<g>
	<polygon class="st20" points="785.6,398.8 835,398.8 913.2,595.4 854.2,595.4 	"/>
	<polygon class="st20" points="365.2,398.8 512,398.8 518,519.1 640.5,398.8 693.9,398.8 612.3,480.4 669.8,480.4 748,398.8 
		798.1,398.8 630.3,584 572.4,584 641,512.1 582.1,512.1 473.2,622.4 466.8,429.3 364.4,429.3 	"/>
	<polygon class="st20" points="866.5,595.4 924.3,595.4 1045.3,422.4 994.3,422.4 	"/>
	<polygon class="st20" points="1023.8,381.9 1073.6,381.7 1053,410.8 1002.6,410.6 	"/>
	<path class="st20" d="M1092.6,355c0,0-33.7,0-44.1,0h-59.8c-31.2,0-39.9-0.9-58.1,17.5c-20.5,20.7-79,88.3-124.4,138.3
		c-9,9.9-26.1,28.9-37.7,39c-24.3,21-27.9,30.2-59.8,31.1c-40.6,1.2-194.5-0.1-194.5-0.1l-41.1,41.6c0,0,191.5,1.5,247.1,0
		c52-1.4,95.6-62.9,118.3-87.6C884.4,484.9,939,413.3,957,394.3c8.8-9.3,21.5-12,34.8-12c21.3,0,81.4,0,81.4,0L1092.6,355
		L1092.6,355z"/>
	<polygon class="st20" points="307.5,482.1 259.1,482.1 280.6,441.1 327.4,441.1 	"/>
	<polygon class="st20" points="336,525.7 286.2,525.7 307.5,482.1 355.8,482.1 	"/>
	<polygon class="st20" points="404.1,482.1 355.8,482.1 374.3,441.1 421.2,441.1 	"/>
	<polygon class="st20" points="435.8,525.7 385.9,525.7 404.1,482.1 452.4,482.1 	"/>
	<polygon class="st20" points="366.5,572.2 315,572.2 336,525.7 385.9,525.7 	"/>
	<polygon class="st20" points="263.5,572.2 212,572.2 236.3,525.7 286.2,525.7 	"/>
	<polygon class="st20" points="455.7,525.7 436.8,525.7 419.1,572.2 456.2,572.2 	"/>
</g>
<path class="st21" d="M222.4,389.5c2.4,0.2,4.4-2,3.9-4.5c-0.4-2.3-0.7-5.5-0.6-10.1c0.2-11.3,2.9-19.4,2.9-19.4s-5.8,2.9-11.1,8.4
	l0,0c-4.8-11-6.4-22.2-6.4-22.2s-4.6,15.6-5.2,30.5c-0.3,6.7,0.4,11.3,1.1,14.3c0.7,2.7,3.4,4.2,6.1,3.6c1.6-0.4,3.5-0.7,5.6-0.7
	C219.9,389.3,221.2,389.4,222.4,389.5L222.4,389.5z"/>
<g class="st22">
	<path class="st23" d="M408.5,806.2c0,0-12.8-8.1-19.9-18.8c-2.9-4.4-5.5-10.5-7.2-15c-0.8-2.1-3.8-2-4.5,0.1
		c-1.6,4.8-3.3,11.8-2.8,18.8c0.5,7.4,3.9,15.5,6.2,20.4c1.2,2.6,4.2,3.9,6.9,3.1c2.8-0.8,6.5-1.8,10.4-2.1
		c3.2-0.3,7.9,0.2,11.4,0.8c2.4,0.4,4.6-1.3,5-3.6c0.6-4.3,2-10.9,4.9-16.3c1.7-3.2,4.4-6.8,6.7-9.5c1.5-1.7-0.1-4.3-2.3-3.8
		c-3.7,0.8-8.4,2.2-12.4,4.8c-7.6,5-14,15.3-14,15.3"/>
	<path class="st23" d="M385.6,810.1c0,0-1-18.9,3.4-32c2.6-7.7,7.2-14.3,10.7-18.7c1.5-1.8,4.4-0.6,4.2,1.7
		c-0.5,5.9-0.9,14.3-0.2,20.9c1.7,15.5,8.9,30.6,8.9,30.6"/>
</g>
<g class="st22">
	<path class="st24" d="M72.7,666.4c0,0,19.4-12.3,30.2-28.5c4.4-6.7,8.4-16,10.9-22.8c1.2-3.2,5.7-3.1,6.8,0.1
		c2.4,7.3,5.1,17.9,4.3,28.5c-0.8,11.2-5.8,23.5-9.4,31c-1.9,3.9-6.3,6-10.5,4.7s-9.8-2.7-15.8-3.2c-4.8-0.5-12,0.4-17.3,1.2
		c-3.6,0.6-7-1.9-7.5-5.5c-1-6.5-3-16.5-7.4-24.8c-2.5-4.9-6.7-10.3-10.1-14.5c-2.2-2.6,0.2-6.5,3.5-5.8c5.7,1.2,12.8,3.4,18.9,7.3
		c11.6,7.5,21.2,23.3,21.2,23.3"/>
	<path class="st24" d="M107.2,672.2c0,0,1.5-28.7-5.1-48.4c-3.9-11.7-10.9-21.8-16.2-28.3c-2.2-2.7-6.7-0.9-6.4,2.6
		c0.7,8.9,1.4,21.6,0.3,31.7c-2.6,23.5-13.4,46.4-13.4,46.4"/>
</g>
<g class="st22">
	<path class="st25" d="M1149.9,407.3c0,0-1.1-18.8,4.6-31.9c3.6-8.3,10.2-15.4,14.8-19.7c1.6-1.5,4.7-0.5,4.4,1.4
		c-0.7,5.9-3.1,13.5-2.4,22c1.4,15.5,9,22.7,9,22.7"/>
	<path class="st25" d="M1161.7,393.9c0,0,8-10.8,16.5-16.3c5.1-3.3,11.1-4.9,15.5-5.7c2-0.4,3.3,1.9,2,3.5
		c-2.7,3.2-6.3,7.7-8.4,11.8c-3.4,6.5-4.9,14.4-5.6,19.1c-0.3,2.3-2.4,3.9-4.7,3.7c-3.9-0.4-9.9-0.7-14.4-0.4
		c-2.9,0.2-5.9,0.8-8.5,1.3c-4.6,1-9.2-1.4-11.1-5.7c-2.5-5.6-5.3-13.4-5.9-20.5c-0.6-8.3,1.7-16.7,3.5-22.1c0.7-2,3.5-2,4.3,0
		c1.9,5.1,4.9,12.6,8.4,17.8c8,11.9,22.3,21,22.3,21"/>
</g>
<path class="st26" d="M1098.4,775.2c3.8,0.8,7.4-2.1,7.5-5.9c0.1-3.1,0.7-7.3,2.4-12.7c4.6-14.7,13-23.6,13-23.6s-13.2,0.5-26.1,4.5
	l0,0c-6.1-17.2-5.2-32.6-5.2-32.6s-15.2,17.7-21.9,36.8c-3.5,10-3,19-1.7,25.4c1,5.2,5.9,8.6,11.1,7.8c3-0.5,6.6-0.9,10.2-0.9
	S1095,774.5,1098.4,775.2L1098.4,775.2z"/>
<path class="st27" d="M1879.7,400.8c2.9,0.1,5.1-1.9,4.6-4.1c-0.5-2.1-0.8-5.1-0.7-9.3c0.3-10.5,3.4-17.9,3.4-17.9
	s-6.9,2.7-13.1,7.7l0,0c-5.7-10.2-7.5-20.5-7.5-20.5s-5.4,14.4-6.2,28.2c-0.3,6.2,0.4,10.4,1.3,13.2c0.8,2.5,4,3.9,7.2,3.3
	c1.8-0.4,4.1-0.7,6.6-0.7C1876.7,400.6,1878.2,400.7,1879.7,400.8L1879.7,400.8z"/>
<path class="st21" d="M1642.6,479.8c-1.5,4.6-2.3,11.1-2.6,16.5c-0.1,2.8-2.5,4.9-5.2,4.7c-1.7-0.1-3.5,0-4.9,0.2
	c-0.8,0.1-1.6,0.3-2.3,0.5c-3.6,1.1-7.4-1.1-8.1-4.8s-0.7-8.5,0-13.9c1.5-11,6.4-18.4,6.4-18.4s1.8,12.6,3.5,20
	c2.3-4.7,5.2-9.9,8.8-14c8.9-10.5,17.1-12.2,17.1-12.2S1644.4,473.9,1642.6,479.8L1642.6,479.8z"/>
<path class="st27" d="M741.8,530.5c-2.9,0.6-5.6-1.6-5.7-4.5c-0.1-2.4-0.5-5.5-1.8-9.7c-3.5-11.1-9.9-17.9-9.9-17.9s10,0.4,19.8,3.5
	l0,0c4.6-13.1,4-24.8,4-24.8s11.5,13.4,16.6,28c2.6,7.6,2.3,14.4,1.3,19.3c-0.8,3.9-4.5,6.6-8.4,5.9c-2.3-0.4-5-0.7-7.7-0.7
	S744.4,530,741.8,530.5L741.8,530.5z"/>
<path class="st28" d="M1148.3,788.6c3.6,0.2,6.4-3,5.8-6.6c-0.6-3.3-1-8.1-0.9-14.9c0.3-16.7,4.3-28.6,4.3-28.6s-8.6,4.3-16.4,12.3
	l0,0c-7.1-16.3-9.4-32.7-9.4-32.7s-6.8,23-7.7,45c-0.4,9.9,0.5,16.7,1.7,21.1c1,3.9,5,6.3,9,5.3c2.3-0.6,5.1-1.1,8.2-1.1
	C1144.6,788.4,1146.5,788.5,1148.3,788.6L1148.3,788.6z"/>
<path class="st21" d="M320.1,404.8c1.8,5.6,2.8,13.4,3.2,20c0.2,3.3,3,5.9,6.3,5.7c2.1-0.1,4.2,0,5.9,0.3c1,0.2,1.9,0.4,2.8,0.6
	c4.4,1.3,9-1.4,9.9-5.9c0.9-4.7,0.9-10.2,0-16.9c-1.8-13.3-7.8-22.3-7.8-22.3s-2.2,15.3-4.2,24.2c-2.8-5.7-6.4-12-10.6-17
	c-10.8-12.7-20.8-14.8-20.8-14.8S317.9,397.7,320.1,404.8L320.1,404.8z"/>
<g>
	<path class="st25" d="M1785.9,610.6c0,0,1.4-21.2-4.6-35.8c-3.6-8.7-9.9-16.1-14.8-20.9c-2-2-6.1-0.7-5.8,1.9
		c0.7,6.6,1.3,16,0.3,23.4c-2.3,17.4-10.9,32.8-10.9,32.8"/>
	<path class="st25" d="M1770.7,599.6c0,0-8.7-11.7-19.2-17.2c-5.5-2.9-12-4.5-17.1-5.4c-3-0.5-5.2,2.3-3.2,4.3
		c3.2,3.1,6.9,7.1,9.2,10.7c3.4,5.3,5.3,11.7,6.3,16.3c0.8,3.8,4.3,6.3,8.1,5.8c3.9-0.5,9.2-1,15.2-1s11.6,1.3,15.3,2.5
		c3.1,1,6.4-0.2,8.1-3c3.2-5.5,8-14.8,8.7-23.2c0.7-7.8-1.7-15.7-3.9-21c-1-2.4-5.1-2.4-6.2-0.1c-2.3,5-5.9,11.9-9.9,16.9
		c-9.8,12-27.5,21-27.5,21"/>
</g>
<path class="st21" d="M49,442.3c-2.7,0.2-4.9-2.3-4.4-5c0.5-2.5,0.8-6.2,0.7-11.3C45,413.3,42,404.3,42,404.3s6.5,3.3,12.4,9.4l0,0
	c5.4-12.4,7.2-24.9,7.2-24.9s5.2,17.5,5.9,34.2c0.3,7.5-0.4,12.6-1.3,16c-0.8,3-3.8,4.8-6.8,4c-1.8-0.5-3.9-0.8-6.2-0.8
	C51.8,442.2,50.3,442.2,49,442.3L49,442.3z"/>
<g class="st22">
	<path class="st25" d="M583.9,399.9c0,0,1.1-18.8-4.6-31.9c-3.6-8.3-10.2-15.4-14.8-19.7c-1.6-1.5-4.7-0.5-4.4,1.4
		c0.7,5.9,3.1,13.5,2.4,22c-1.4,15.5-9,22.7-9,22.7"/>
	<path class="st25" d="M572.2,386.5c0,0-8-10.8-16.5-16.3c-5.1-3.3-11.1-4.9-15.5-5.7c-2-0.4-3.3,1.9-2,3.5
		c2.7,3.2,6.3,7.7,8.4,11.8c3.4,6.5,4.9,14.4,5.5,19.1c0.3,2.3,2.4,3.9,4.7,3.7c3.9-0.4,9.9-0.7,14.5-0.4c2.9,0.2,5.9,0.8,8.5,1.3
		c4.6,1,9.2-1.4,11.1-5.7c2.5-5.6,5.3-13.4,5.9-20.5c0.6-8.3-1.7-16.7-3.5-22.1c-0.7-2-3.5-2-4.3,0c-1.9,5.1-4.9,12.6-8.5,17.8
		c-8,11.9-22.3,21-22.3,21"/>
</g>
<g class="st22">
	<path class="st29" d="M542.6,791c0,0-1.8-27.9,6.1-47.2c4.7-11.4,13-21.2,19.5-27.5c2.7-2.7,8-0.9,7.6,2.5
		c-0.9,8.7-1.7,21.1-0.3,30.8c3.1,22.9,14.4,43.3,14.4,43.3"/>
	<path class="st29" d="M562.8,778.5c0,0,9.2-12,21.1-17.1c6.2-2.7,13.7-3.9,19.6-4.5c3.5-0.3,6.3,3,4.1,5c-3.4,3.1-7.5,7.1-9.9,10.9
		c-3.4,5.3-5.1,11.8-5.9,16.7c-0.7,4.4-5,7.1-10,6.2c-5.7-1-12.8-2-17.9-2c-4.2,0-8.8,0.5-12.7,1.1c-6.2,0.9-12.9-2.3-16.3-7.8
		c-3.9-6.2-6.9-14.4-8.2-21.9c-1.5-8.5-0.7-17,1.4-22.7c0.9-2.5,5.7-2.2,7.2,0.4c3.2,5.7,7.9,13.5,13,19.2
		c12.5,13.8,33.9,25.2,33.9,25.2"/>
</g>
<path class="st28" d="M158,777.1c0.1,5,1.7,14.9,3.2,23.3c0.6,3.6-2.3,6.8-5.9,6.5c-2-0.2-4.1-0.2-6.2-0.2c-4.7,0-9.1,0.4-12.9,1.2
	c-2.7,0.5-5.4-0.8-6.7-3.1c-2.7-4.7-5.1-10-6.4-15.2c-4.3-17.2-0.2-31.1-0.2-31.1s9.5,18,15.9,28.1c0.9-8.3,2.6-17.7,5.7-25.8
	c7.8-20.6,20.2-31.9,20.2-31.9S157.8,767.4,158,777.1L158,777.1z"/>
<path class="st27" d="M1895.4,667c-3.3,0.6-6.6-2.3-6.8-6.1c-0.2-3.1-0.8-7.2-2.5-12.6c-4.4-14.5-12.2-23.6-12.2-23.6
	s11.6,0.9,23,5.3l0,0c4.8-16.7,3.6-31.8,3.6-31.8s13.9,17.8,20.4,36.8c3.4,9.9,3.2,18.7,2.3,25c-0.7,5-4.9,8.3-9.5,7.3
	c-2.6-0.6-5.8-1.1-8.9-1.2C1901.6,666.1,1898.3,666.5,1895.4,667L1895.4,667z"/>
<g class="st22">
	<path class="st30" d="M1836.2,498.6c0,0,15.5-6.4,24.1-14.9c3.6-3.5,6.7-8.3,8.7-11.9c0.9-1.6,4.6-1.6,5.4,0
		c1.9,3.8,4,9.4,3.4,14.9c-0.6,5.8-4.7,12.2-7.5,16.2c-1.5,2-5.1,3.1-8.4,2.5c-3.3-0.6-7.8-1.4-12.6-1.7c-3.8-0.2-9.6,0.2-13.8,0.6
		c-2.9,0.3-5.6-1-6-2.9c-0.8-3.4-2.4-8.6-5.9-12.9c-2-2.5-5.3-5.4-8.1-7.5c-1.8-1.4,0.2-3.4,2.8-3c4.5,0.6,10.2,1.8,15,3.8
		c9.2,3.9,16.9,12.1,16.9,12.1"/>
	<path class="st30" d="M1863.8,501.7c0,0,1.2-15-4.1-25.3c-3.1-6.1-8.7-11.3-13-14.8c-1.8-1.4-5.3-0.5-5.1,1.4
		c0.6,4.6,1.1,11.3,0.2,16.5c-2,12.3-10.7,24.2-10.7,24.2"/>
</g>
<g class="st22">
	<path class="st29" d="M656.3,825.6c0,0,25.6-16.2,39.8-37.5c5.9-8.8,11-21,14.4-30c1.6-4.2,7.5-4.1,8.9,0.1
		c3.2,9.6,6.7,23.6,5.7,37.5c-1.1,14.7-7.7,30.9-12.4,40.8c-2.5,5.2-8.3,7.8-13.8,6.2c-5.5-1.7-13-3.5-20.8-4.3
		c-6.3-0.6-15.9,0.5-22.8,1.6c-4.8,0.7-9.2-2.5-9.9-7.3c-1.3-8.5-4-21.7-9.7-32.6c-3.4-6.5-8.8-13.5-13.3-19
		c-2.9-3.5,0.3-8.6,4.7-7.7c7.4,1.6,16.8,4.5,24.8,9.7c15.3,9.9,27.9,30.7,27.9,30.7"/>
	<path class="st29" d="M701.9,833.3c0,0,2-37.8-6.7-63.8c-5.2-15.5-14.3-28.6-21.4-37.2c-2.9-3.6-8.8-1.2-8.4,3.4
		c1,11.7,1.8,28.5,0.4,41.7c-3.4,31-17.7,61.2-17.7,61.2"/>
</g>
<g class="st22">
	<path class="st25" d="M105.3,536.7c0,0-1.4-21.2,4.6-35.8c3.6-8.7,9.9-16.1,14.8-20.9c2-2,6.1-0.7,5.8,1.9
		c-0.7,6.6-1.3,16-0.3,23.4c2.3,17.4,10.9,32.9,10.9,32.9"/>
	<path class="st25" d="M120.6,525.7c0,0,8.7-11.7,19.2-17.2c5.5-2.9,12-4.5,17.1-5.4c3-0.5,5.2,2.4,3.2,4.3
		c-3.2,3.1-6.9,7.1-9.2,10.7c-3.4,5.3-5.3,11.7-6.3,16.3c-0.8,3.8-4.3,6.3-8.1,5.8c-3.9-0.5-9.2-1-15.2-1s-11.6,1.3-15.3,2.5
		c-3.1,1-6.4-0.2-8.1-3c-3.2-5.5-8-14.8-8.7-23.2c-0.7-7.8,1.7-15.7,3.9-21c1-2.4,5.1-2.4,6.2-0.1c2.3,5,5.9,11.9,9.9,16.9
		c9.8,12,27.5,21,27.5,21"/>
</g>
<path class="st27" d="M1328.6,407.9c2.9,0.5,5.8-2.2,6-5.6c0.2-2.8,0.8-6.6,2.3-11.5c4.1-13.4,10.9-21.8,10.9-21.8s-10.1,1-20.1,5.1
	l0,0c-3.9-15.2-2.7-29.1-2.7-29.1s-12.3,16.5-18.2,34c-3.1,9.1-3.1,17.2-2.3,22.9c0.6,4.6,4.2,7.5,8.2,6.6c2.3-0.5,5-1,7.8-1.2
	C1323.1,407.1,1326,407.4,1328.6,407.9L1328.6,407.9z"/>
<path class="st21" d="M1081.1,553c-0.1,2.6-1.4,7.7-2.6,12c-0.5,1.8,1.9,3.5,4.8,3.3c1.6-0.1,3.3-0.1,5-0.1c3.8,0,7.3,0.2,10.4,0.6
	c2.2,0.3,4.3-0.4,5.4-1.6c2.2-2.4,4.1-5.1,5.2-7.8c3.5-8.9,0.2-16.1,0.2-16.1s-7.7,9.3-12.9,14.5c-0.8-4.3-2.1-9.1-4.6-13.3
	c-6.3-10.6-16.3-16.5-16.3-16.5S1081.3,548,1081.1,553L1081.1,553z"/>
<g>
	<path class="st31" d="M1506.3,466.2c0,0-0.6-17.9-6.8-29.6c-3.7-7-9.6-12.6-14.1-16.3c-1.9-1.5-5.1-0.1-4.7,2.1
		c1.1,5.5,2.4,13.3,2.2,19.6c-0.5,14.8-6.4,28.4-6.4,28.4"/>
	<path class="st31" d="M1492.7,458.2c0,0-8.3-9-17.6-12.8c-4.9-2-10.4-2.8-14.8-3.1c-2.6-0.2-4.2,2.4-2.3,3.9
		c2.9,2.3,6.3,5.4,8.6,8.2c3.3,4.2,5.4,9.3,6.6,13.2c1,3.1,4.1,4.9,7.3,4.2s7.7-1.6,12.6-2s9.9,0.1,13.1,0.8
		c2.7,0.6,5.4-0.7,6.5-3.2c2.3-4.9,5.4-13,5.4-20.1c-0.1-6.6-2.7-13-5-17.3c-1-1.9-4.5-1.6-5.2,0.5c-1.5,4.4-3.9,10.5-6.9,14.9
		c-7.2,10.8-21.3,19.9-21.3,19.9"/>
</g>
<g>
	<path class="st31" d="M1721.6,425.5c0,0-13.3-13.8-19.9-30.5c-2.7-6.9-4.9-16.2-6.2-23.1c-0.6-3.2-3.9-3.6-5-0.6
		c-2.4,6.7-5.1,16.7-5.4,26.9c-0.3,10.8,2.4,23.2,4.4,30.8c1.1,4,4.2,6.4,7.3,5.6c3.2-0.8,7.4-1.5,11.8-1.5c3.6,0,8.8,1.6,12.6,3
		c2.6,0.9,5.3-1.1,6-4.5c1.2-6.1,3.5-15.5,7.4-23.1c2.3-4.4,5.7-9.2,8.6-12.9c1.8-2.3,0.4-6.3-2.2-6c-4.2,0.6-9.7,1.9-14.4,5.1
		c-9.1,6-17.4,20.2-17.4,20.2"/>
	<path class="st31" d="M1695.8,427.6c0,0,1.1-27.7,7.6-46c3.8-10.9,9.7-19.8,14.2-25.5c1.9-2.4,5-0.2,4.5,3.1
		c-1.2,8.5-2.7,20.7-2.7,30.4c0,22.9,6.2,46,6.2,46"/>
</g>
<path class="st25" d="M740,635.8c-0.1,5-1.7,14.9-3.2,23.3c-0.6,3.6,2.3,6.8,5.9,6.5c2-0.2,4.1-0.2,6.2-0.2c4.7,0,9.1,0.4,12.9,1.2
	c2.7,0.5,5.4-0.8,6.7-3.1c2.7-4.7,5.1-10,6.4-15.2c4.3-17.2,0.2-31.1,0.2-31.1s-9.5,18-15.9,28.1c-0.9-8.3-2.6-17.7-5.7-25.8
	c-7.8-20.6-20.2-31.9-20.2-31.9S740.3,626.1,740,635.8L740,635.8z"/>
<g>
	<path class="st25" d="M1259.6,676.3c0,0,1.3-22.8-5.6-38.6c-4.4-10.1-12.3-18.6-17.9-23.8c-2-1.8-5.7-0.6-5.4,1.7
		c0.9,7.1,3.8,16.4,2.9,26.7c-1.7,18.8-11,27.5-11,27.5"/>
	<path class="st25" d="M1245.4,660c0,0-9.6-13-20-19.7c-6.2-4-13.5-6-18.8-6.9c-2.4-0.4-4,2.3-2.4,4.2c3.3,3.9,7.7,9.4,10.2,14.3
		c4.1,7.8,5.9,17.4,6.7,23.1c0.4,2.8,2.9,4.8,5.7,4.5c4.8-0.4,11.9-0.9,17.5-0.4c3.5,0.3,7.1,0.9,10.3,1.6
		c5.5,1.2,11.1-1.7,13.4-6.8c3-6.7,6.5-16.2,7.1-24.9c0.7-10.1-2-20.2-4.3-26.7c-0.8-2.4-4.3-2.5-5.2,0c-2.3,6.2-6,15.2-10.2,21.6
		c-9.6,14.5-27,25.5-27,25.5"/>
</g>
<g>
	<path class="st25" d="M466.7,640.9c0,0-1.3-22.8,5.6-38.6c4.4-10.1,12.3-18.6,17.9-23.8c2-1.8,5.6-0.6,5.4,1.7
		c-0.9,7.1-3.8,16.4-2.9,26.7c1.7,18.8,11,27.5,11,27.5"/>
	<path class="st25" d="M480.9,624.6c0,0,9.6-13,20-19.7c6.1-4,13.5-6,18.8-6.9c2.4-0.4,4,2.3,2.4,4.2c-3.3,3.9-7.7,9.4-10.2,14.3
		c-4.1,7.8-5.9,17.4-6.7,23.1c-0.4,2.8-2.9,4.8-5.7,4.5c-4.8-0.4-11.9-0.9-17.5-0.4c-3.5,0.3-7.1,0.9-10.3,1.6
		c-5.5,1.2-11.1-1.7-13.4-6.8c-3-6.7-6.5-16.2-7.1-24.9c-0.7-10.1,2-20.2,4.3-26.7c0.9-2.4,4.3-2.5,5.2,0c2.3,6.2,6,15.2,10.2,21.6
		c9.6,14.5,27,25.5,27,25.5"/>
</g>
<path class="st32" d="M282.1,562.9c0.1,3.3,1.9,9.7,3.5,15.2c0.7,2.3-2.6,4.4-6.6,4.2c-2.2-0.1-4.5-0.2-6.9-0.2
	c-5.2,0-10,0.3-14.3,0.8c-3,0.3-6-0.5-7.5-2c-3-3.1-5.6-6.5-7.1-9.9c-4.8-11.2-0.2-20.3-0.2-20.3s10.5,11.8,17.6,18.3
	c1-5.4,2.9-11.5,6.3-16.8c8.7-13.4,22.4-20.8,22.4-20.8S281.8,556.6,282.1,562.9L282.1,562.9z"/>
<g>
	<path class="st33" d="M925.4,608.8c0,0,1.1-18.8-4.6-31.9c-3.6-8.3-10.2-15.4-14.8-19.7c-1.6-1.5-4.7-0.5-4.4,1.4
		c0.7,5.8,3.1,13.5,2.4,22c-1.4,15.5-9,22.7-9,22.7"/>
	<path class="st33" d="M913.7,595.4c0,0-8-10.8-16.5-16.3c-5.1-3.3-11.1-4.9-15.5-5.7c-2-0.4-3.3,1.9-2,3.5
		c2.7,3.2,6.3,7.7,8.4,11.8c3.4,6.5,4.9,14.3,5.5,19.1c0.3,2.3,2.4,3.9,4.7,3.7c3.9-0.4,9.9-0.7,14.5-0.4c2.9,0.2,5.9,0.8,8.5,1.3
		c4.6,1,9.2-1.4,11.1-5.7c2.5-5.6,5.3-13.4,5.9-20.5c0.6-8.3-1.7-16.7-3.5-22.1c-0.7-2-3.5-2-4.3,0c-1.9,5.1-4.9,12.6-8.5,17.8
		c-8,11.9-22.3,21-22.3,21"/>
</g>
<path class="st27" d="M1560.1,387.8c3.9,0.1,6.9-1.6,6.2-3.4c-0.6-1.8-1.1-4.2-0.9-7.8c0.3-8.7,4.6-14.9,4.6-14.9s-9.2,2.3-17.6,6.4
	l0,0c-7.7-8.5-10.2-17.1-10.2-17.1s-7.3,12-8.3,23.5c-0.4,5.2,0.6,8.7,1.8,11c1.1,2,5.4,3.3,9.7,2.7c2.5-0.3,5.5-0.6,8.8-0.6
	C1556.1,387.6,1558.2,387.7,1560.1,387.8L1560.1,387.8z"/>
<ellipse class="st34" cx="973" cy="1062" rx="1183" ry="67"/>
<ellipse class="st20" cx="973" cy="1016.5" rx="1183" ry="55.5"/>
<rect x="-36" y="828" class="st35" width="1982" height="91"/>
<rect x="-34" y="913" class="st35" width="1982" height="85"/>
<rect x="-28" y="736" class="st36" width="1982" height="93"/>
<rect x="-19" y="659" class="st36" width="1982" height="85"/>
<path class="st37" d="M2107.5,269.6c0,0-523-20.1-1073-20c-624,0.1-1080,17.4-1080,17.4l-73.4,67c0,0,456-17.2,1080-17.4
	c550-0.1,1073,20,1073,20L2107.5,269.6z"/>
<path class="st38" d="M2034.1,336.6c0,0-523-20.1-1073-20c-624,0.1-1080,17.4-1080,17.4"/>
<path class="st39" d="M2042.4,344.1c0,0-10.8-0.4-30.8-1.1l-4.1-7c20,0.7,30.8,1.1,30.8,1.1L2042.4,344.1z M1965.6,341.5
	c-9.4-0.3-19.7-0.6-30.6-1l-4.2-7c11,0.4,21.2,0.7,30.7,1L1965.6,341.5z M-90.3,340.7l-4.6-7c7.8-0.3,17.6-0.6,29.4-1l4.6,7
	C-72.6,340.1-82.5,340.5-90.3,340.7z M1889.1,339.1c-9.8-0.3-20-0.6-30.6-0.9l-4.2-7c10.6,0.3,20.8,0.6,30.6,0.9L1889.1,339.1z
	 M-16.7,338.3l-4.6-7c9.2-0.3,19-0.6,29.5-0.9l4.6,7C2.3,337.8-7.6,338-16.7,338.3L-16.7,338.3z M1812.7,336.9
	c-9.9-0.3-20.1-0.5-30.5-0.8l-4.2-7c10.4,0.3,20.6,0.6,30.5,0.8L1812.7,336.9z M56.9,336.2l-4.6-7c9.5-0.3,19.3-0.5,29.5-0.8l4.6,7
	C76.2,335.6,66.4,335.9,56.9,336.2L56.9,336.2z M1736.3,334.8c-10-0.2-20.1-0.5-30.5-0.8l-4.2-7c10.3,0.3,20.5,0.5,30.5,0.8
	L1736.3,334.8z M130.7,334.2l-4.5-7c9.6-0.2,19.5-0.5,29.6-0.7l4.5,7C150.2,333.8,140.4,334,130.7,334.2L130.7,334.2z M1660.1,333
	c-10-0.2-20.2-0.5-30.4-0.7l-4.2-7c10.3,0.2,20.4,0.5,30.4,0.7L1660.1,333z M204.7,332.5l-4.5-7c9.7-0.2,19.6-0.4,29.6-0.6l4.5,7
	C224.2,332.1,214.3,332.3,204.7,332.5L204.7,332.5z M1584.1,331.3c-10-0.2-20.2-0.4-30.4-0.6l-4.2-7c10.2,0.2,20.4,0.4,30.4,0.6
	L1584.1,331.3z M278.7,330.9l-4.5-7c9.7-0.2,19.6-0.4,29.6-0.6l4.5,7C298.3,330.6,288.4,330.7,278.7,330.9L278.7,330.9z
	 M1508.1,329.7c-10-0.2-20.2-0.4-30.4-0.6l-4.2-7c10.2,0.2,20.3,0.4,30.4,0.6L1508.1,329.7L1508.1,329.7z M352.8,329.5l-4.5-7
	c9.8-0.2,19.7-0.3,29.7-0.5l4.5,7C372.5,329.2,362.6,329.4,352.8,329.5z M1432.2,328.4c-10-0.2-20.2-0.3-30.3-0.5l-4.3-7
	c10.2,0.2,20.3,0.3,30.3,0.5L1432.2,328.4z M427.1,328.3l-4.5-7c9.8-0.1,19.7-0.3,29.7-0.5l4.5,7C446.8,328,436.9,328.1,427.1,328.3
	L427.1,328.3z M501.4,327.2l-4.5-7c9.8-0.1,19.8-0.3,29.8-0.4l4.5,7C521.2,327,511.2,327.1,501.4,327.2L501.4,327.2z M1356.4,327.2
	c-10-0.1-20.1-0.3-30.3-0.4l-4.3-7c10.2,0.1,20.2,0.3,30.3,0.4L1356.4,327.2z M575.8,326.3l-4.5-7c9.9-0.1,19.8-0.2,29.8-0.3l4.5,7
	C595.6,326.1,585.7,326.2,575.8,326.3L575.8,326.3z M1280.8,326.1c-10-0.1-20.1-0.2-30.2-0.4l-4.3-7c10.1,0.1,20.2,0.2,30.2,0.4
	L1280.8,326.1L1280.8,326.1z M650.4,325.6l-4.4-7c9.9-0.1,19.8-0.2,29.8-0.3l4.4,7C670.2,325.4,660.2,325.5,650.4,325.6L650.4,325.6
	z M1205.2,325.3c-10-0.1-20.1-0.2-30.2-0.3l-4.3-7c10.1,0.1,20.2,0.2,30.2,0.3L1205.2,325.3z M725,325l-4.4-7
	c9.9-0.1,19.9-0.1,29.9-0.2l4.4,7C744.9,324.8,734.9,324.9,725,325L725,325z M1129.8,324.7c-10-0.1-20.1-0.1-30.1-0.2l-4.3-7
	c10.1,0.1,20.1,0.1,30.1,0.2L1129.8,324.7L1129.8,324.7z M799.8,324.5l-4.4-7c9.9,0,19.9-0.1,29.9-0.1l4.4,7
	C819.6,324.4,809.7,324.5,799.8,324.5L799.8,324.5z M1054.5,324.3c-10,0-20-0.1-30-0.1l-4.4-7c10,0,20,0.1,30,0.1L1054.5,324.3z
	 M874.6,324.2l-4.4-7c9.9,0,19.9,0,30-0.1l4.4,7C894.5,324.2,884.5,324.2,874.6,324.2L874.6,324.2z M979.5,324.1
	c-5.8,0-11.6,0-17.4,0h-12.6l-4.4-7h12.6c5.8,0,11.6,0,17.4,0L979.5,324.1z"/>
<path class="st40" d="M2107.5,267c0,0-523-20.1-1073-20c-624,0.1-1080,17.4-1080,17.4"/>
<path class="st41" d="M2107.5,263c0,0-523-20.1-1073-20c-624,0.1-1080,17.4-1080,17.4"/>
<path class="st42" d="M1924,998h-62.3l21-31h62.3L1924,998z M1799.4,998h-62.3l21-31h62.3L1799.4,998z M1674.8,998h-62.3l21-31h62.3
	L1674.8,998z M1550.3,998H1488l21-31h62.3L1550.3,998z M1425.7,998h-62.3l21-31h62.3L1425.7,998z M1301.1,998h-62.3l21-31h62.3
	L1301.1,998z M1176.5,998h-62.3l21-31h62.3L1176.5,998z M1051.9,998h-62.3l21-31h62.3L1051.9,998z M927.4,998h-62.3l21-31h62.3
	L927.4,998z M802.8,998h-62.3l21-31h62.3L802.8,998z M678.2,998h-62.3l21-31h62.3L678.2,998z M553.6,998h-62.3l21-31h62.3L553.6,998
	z M429,998h-62.3l21-31H450L429,998z M304.5,998h-62.3l21-31h62.3L304.5,998z M179.9,998h-62.3l21-31h62.3L179.9,998L179.9,998z
	 M55.3,998H-7l21-31h62.3L55.3,998L55.3,998z"/>
<path class="st42" d="M19.1,690l-21-31h62.3l21,31H19.1z M143.7,690l-21-31H185l21,31H143.7z M268.2,690l-21-31h62.3l21,31H268.2z
	 M392.8,690l-21-31h62.3l21,31H392.8z M517.4,690l-21-31h62.3l21,31H517.4z M642,690l-21-31h62.3l21,31H642z M766.6,690l-21-31h62.3
	l21,31H766.6z M891.1,690l-21-31h62.3l21,31H891.1z M1015.7,690l-21-31h62.3l21,31H1015.7L1015.7,690z M1140.3,690l-21-31h62.3
	l21,31H1140.3z M1264.9,690l-21-31h62.3l21,31H1264.9z M1389.5,690l-21-31h62.3l21,31H1389.5z M1514,690l-21-31h62.3l21,31H1514z
	 M1638.6,690l-21-31h62.3l21,31H1638.6z M1763.2,690l-21-31h62.3l21,31H1763.2z M1887.8,690l-21-31h62.3l21,31H1887.8z"/>
<path class="st43" d="M1197.9,975.9c-2.7,8.4-4.3,20.1-4.7,30c-0.2,5-4.5,8.8-9.5,8.6c-3.1-0.2-6.3,0-8.9,0.4
	c-1.5,0.2-2.9,0.6-4.2,1c-6.6,1.9-13.6-2-14.8-8.8c-1.3-7-1.3-15.4,0-25.4c2.7-20,11.7-33.5,11.7-33.5s3.3,23,6.4,36.3
	c4.2-8.6,9.6-18,16-25.5c16.3-19.1,31.2-22.2,31.2-22.2S1201.3,965.4,1197.9,975.9L1197.9,975.9z"/>
<g>
	<path class="st44" d="M1666.1,1019c0,0,28.2-13,43.8-30c6.4-7,12.1-16.8,15.8-24c1.7-3.3,8.3-3.3,9.8,0.1c3.5,7.7,7.3,18.9,6.2,30
		c-1.2,11.8-8.4,24.7-13.6,32.6c-2.7,4.2-9.2,6.3-15.2,4.9c-6.1-1.3-14.3-2.8-22.8-3.4c-6.9-0.5-17.4,0.4-25.1,1.3
		c-5.2,0.6-10.1-2-10.9-5.8c-1.4-6.8-4.4-17.4-10.7-26.1c-3.7-5.2-9.6-10.8-14.7-15.2c-3.2-2.8,0.3-6.9,5.2-6.1
		c8.2,1.3,18.5,3.6,27.3,7.7c16.8,7.9,30.7,24.5,30.7,24.5"/>
	<path class="st44" d="M1716.2,1025.2c0,0,2.2-30.2-7.3-51c-5.7-12.4-15.8-22.9-23.5-29.8c-3.2-2.9-9.6-1-9.2,2.7
		c1.1,9.4,2,22.8,0.4,33.4c-3.7,24.8-19.4,48.9-19.4,48.9"/>
</g>
<path class="st45" d="M573.2,991.9c0.2,5,3,14.8,5.6,23.1c1.1,3.6-4,6.7-10.3,6.4c-3.5-0.2-7.1-0.2-10.8-0.2
	c-8.1,0-15.8,0.4-22.5,1.1c-4.7,0.5-9.4-0.8-11.7-3.1c-4.7-4.7-8.8-9.8-11.2-15c-7.6-17-0.4-30.8-0.4-30.8s16.5,17.8,27.7,27.9
	c1.6-8.3,4.5-17.5,9.9-25.5c13.7-20.4,35.2-31.6,35.2-31.6S572.8,982.3,573.2,991.9L573.2,991.9z"/>
<path class="st46" d="M152.7,1030.1c-4.7-0.1-9.7-1.1-9-8c0.4-4.2,1.6-9.9,1.4-18.2c-0.5-20.4-6.6-35-6.6-35s13.4,5.3,25.5,15.1l0,0
	c11.1-19.9,14.7-40,14.7-40s10.6,28.1,12,55c0.6,12.1-0.8,20.4-2.6,25.8c-1.6,4.8-7.8,7.7-13.9,6.4c-3.6-0.7-8-1.3-12.8-1.3
	C158.4,1029.9,155.5,1030.2,152.7,1030.1z"/>
</svg>
