<?xml version="1.0" encoding="UTF-8"?>
<svg xmlns="http://www.w3.org/2000/svg" viewBox="0 0 1920 1164">
  <defs>
    <style>
      .cls-1 {
        stroke: #4a5663;
        stroke-width: 15px;
      }

      .cls-1, .cls-2, .cls-3 {
        fill: none;
        stroke-miterlimit: 10;
      }

      .cls-2 {
        stroke: #586274;
        stroke-width: 10px;
      }

      .cls-4 {
        opacity: .2;
      }

      .cls-5, .cls-6, .cls-7, .cls-8, .cls-9 {
        opacity: .6;
      }

      .cls-10 {
        opacity: .8;
      }

      .cls-6, .cls-7, .cls-8, .cls-9, .cls-11, .cls-12, .cls-13, .cls-14, .cls-15, .cls-16, .cls-17, .cls-18, .cls-19, .cls-20, .cls-21, .cls-22, .cls-23, .cls-24, .cls-25, .cls-26, .cls-27, .cls-28, .cls-29, .cls-30, .cls-31, .cls-32, .cls-33, .cls-34, .cls-35, .cls-36, .cls-37, .cls-38, .cls-39, .cls-40, .cls-41, .cls-42, .cls-43, .cls-44, .cls-45, .cls-46, .cls-47 {
        stroke-width: 0px;
      }

      .cls-6, .cls-37 {
        fill: #408532;
      }

      .cls-7, .cls-34 {
        fill: #35942e;
      }

      .cls-8, .cls-23 {
        fill: #2b8f2f;
      }

      .cls-9 {
        fill: #207d1f;
      }

      .cls-11 {
        fill: #f9d950;
      }

      .cls-12 {
        fill: #f9dd64;
      }

      .cls-13 {
        fill: #4aa630;
      }

      .cls-14 {
        fill: #60b99d;
      }

      .cls-15 {
        fill: #48992c;
      }

      .cls-16 {
        fill: #4b535e;
      }

      .cls-17 {
        fill: #5db783;
      }

      .cls-18 {
        fill: #70a8b7;
      }

      .cls-19 {
        fill: #4fb477;
      }

      .cls-20 {
        fill: #76bcad;
      }

      .cls-21 {
        fill: #2b9e1e;
      }

      .cls-22 {
        fill: #484e59;
      }

      .cls-24 {
        fill: #555a65;
      }

      .cls-25 {
        fill: #5aaab4;
      }

      .cls-26 {
        fill: #459932;
      }

      .cls-27 {
        fill: #6ebca5;
      }

      .cls-28 {
        fill: #36941f;
      }

      .cls-29 {
        fill: #378937;
      }

      .cls-30 {
        fill: #3a7a2b;
      }

      .cls-31 {
        fill: #438b27;
      }

      .cls-32 {
        fill: #36891f;
      }

      .cls-33 {
        fill: #367e24;
      }

      .cls-35 {
        fill: #407c32;
      }

      .cls-36 {
        fill: #409c36;
      }

      .cls-38 {
        fill: #24872b;
      }

      .cls-39 {
        fill: #8baeba;
      }

      .cls-40 {
        fill: #fff27d;
      }

      .cls-41 {
        fill: #fff;
      }

      .cls-42 {
        fill: #ffa05a;
      }

      .cls-43 {
        fill: #ffe67b;
      }

      .cls-44 {
        fill: #ffb358;
      }

      .cls-45 {
        fill: #ffce78;
      }

      .cls-46 {
        fill: #ffde76;
      }

      .cls-47 {
        fill: #68adb7;
      }

      .cls-3 {
        stroke: #fff0b3;
        stroke-dasharray: 0 0 25 38;
        stroke-width: 2px;
      }
    </style>
  </defs>
  <g id="bg">
    <rect class="cls-40" x="-11" y="0" width="1931" height="355"/>
  </g>
  <g id="sky">
    <path class="cls-46" d="m1684.98,341c0-.36.02-.72.02-1.08,0-314.58-324.72-569.59-725.28-569.59S234.44,25.34,234.44,339.92c0,.36.02.72.02,1.08h1450.53Z"/>
    <path class="cls-45" d="m1490.99,339c0-.26.01-.53.01-.79,0-229.35-236.74-415.27-528.78-415.27S433.44,108.86,433.44,338.21c0,.26.01.53.01.79h1057.54Z"/>
    <g>
      <path class="cls-44" d="m1179.17,242c0-.12,0-.25,0-.37,0-106.94-98.44-193.63-219.87-193.63s-219.87,86.69-219.87,193.63c0,.12,0,.25,0,.37h439.73Z"/>
      <path class="cls-42" d="m1131.85,242c0-.1,0-.19,0-.29,0-83.92-77.25-151.95-172.54-151.95s-172.54,68.03-172.54,151.95c0,.1,0,.19,0,.29h345.08Z"/>
    </g>
  </g>
  <g id="buildings">
    <g class="cls-10">
      <rect class="cls-18" x="1789" y="182.5" width="33.14" height="84.5" rx="7.8" ry="7.8"/>
    </g>
    <g class="cls-10">
      <rect class="cls-25" x="1835.08" y="199.96" width="33.14" height="101.95" rx="6.5" ry="6.5"/>
    </g>
    <g class="cls-10">
      <rect class="cls-47" x="1880.86" y="169.84" width="33.14" height="95.16" rx="6.5" ry="6.5"/>
    </g>
    <g class="cls-10">
      <rect class="cls-25" x="1694.56" y="179" width="33.14" height="77.69" rx="6.5" ry="6.5"/>
    </g>
    <g class="cls-10">
      <rect class="cls-47" x="1742.34" y="137" width="33.14" height="156.77" rx="6.5" ry="6.5"/>
    </g>
    <g class="cls-10">
      <rect class="cls-20" x="1505.48" y="190.27" width="33.14" height="58.62" rx="6.5" ry="6.5"/>
    </g>
    <g class="cls-10">
      <rect class="cls-27" x="1551.56" y="148.73" width="33.14" height="101.95" rx="6.5" ry="6.5"/>
    </g>
    <g class="cls-10">
      <rect class="cls-14" x="1601.34" y="219.61" width="33.14" height="95.16" rx="6.5" ry="6.5"/>
    </g>
    <rect class="cls-39" x="103.98" y="225" width="33.14" height="47.44" rx="6.5" ry="6.5"/>
    <g class="cls-10">
      <rect class="cls-18" x="57.9" y="184" width="33.14" height="95.24" rx="6.5" ry="6.5"/>
    </g>
    <g class="cls-10">
      <rect class="cls-47" x="12.12" y="210" width="33.14" height="108.32" rx="6.5" ry="6.5"/>
    </g>
    <g class="cls-10">
      <rect class="cls-25" x="198.42" y="189" width="33.14" height="73.01" rx="6.5" ry="6.5"/>
    </g>
    <g class="cls-10">
      <rect class="cls-47" x="150.64" y="136" width="33.14" height="163.1" rx="6.5" ry="6.5"/>
    </g>
    <g class="cls-10">
      <rect class="cls-14" x="387.51" y="164" width="33.14" height="90.22" rx="6.5" ry="6.5"/>
    </g>
    <g class="cls-10">
      <rect class="cls-20" x="341.42" y="186" width="33.14" height="70.01" rx="6.5" ry="6.5"/>
    </g>
    <g class="cls-10">
      <rect class="cls-14" x="291.64" y="152" width="33.14" height="120.1" rx="6.5" ry="6.5"/>
    </g>
    <g class="cls-10">
      <rect class="cls-19" x="623.25" y="201.07" width="33.14" height="73.01" rx="6.5" ry="6.5"/>
    </g>
    <g class="cls-10">
      <rect class="cls-17" x="575.47" y="160.07" width="33.14" height="163.1" rx="6.5" ry="6.5"/>
    </g>
    <g class="cls-10">
      <rect class="cls-19" x="1342.25" y="206.07" width="33.14" height="73.01" rx="6.5" ry="6.5"/>
    </g>
    <g class="cls-10">
      <rect class="cls-17" x="1295.47" y="161.07" width="33.14" height="163.1" rx="6.5" ry="6.5"/>
    </g>
    <g class="cls-10">
      <rect class="cls-17" x="1242.15" y="181.99" width="33.14" height="163.1" rx="6.5" ry="6.5"/>
    </g>
  </g>
  <g id="clouds">
    <g class="cls-4">
      <path class="cls-41" d="m1534.12,101.98l-318.63-.36c-4.86,0-8.79-3.65-8.79-8.16h0c0-4.51,3.94-8.16,8.79-8.16l318.63.36c4.86,0,8.79,3.65,8.79,8.16h0c0,4.51-3.94,8.16-8.79,8.16Z"/>
      <path class="cls-41" d="m1479.31,73.85l-192.27-.36c-.11,0-.2-.08-.2-.19h0c0-7.35,6.47-13.3,14.45-13.3l163.79.36c7.98,0,14.45,5.96,14.45,13.3h0c0,.1-.09.19-.2.19Z"/>
      <path class="cls-41" d="m1516.62,85.98l-276.05-.36c-.11,0-.21-.08-.21-.19h0c0-7.35,6.58-13.3,14.69-13.3l247.08.36c8.11,0,14.69,5.96,14.69,13.3h0c0,.1-.09.19-.21.19Z"/>
    </g>
    <g class="cls-10">
      <g class="cls-10">
        <path class="cls-18" d="m219.05,109.1c7.7,4.63,13.74,10.56,17.52,16.64,7.15.5,15.21,3.05,22.91,7.68,4.66,2.8,8.7,6.08,12.01,9.57-2.88-5.31-7.74-10.41-14.12-14.25-6.35-3.82-13.1-5.73-19.11-5.79-2.88-5.28-7.73-10.35-14.08-14.16s-13.17-5.75-19.21-5.79c4.64,1.29,9.43,3.33,14.08,6.13v-.02Z"/>
      </g>
      <g class="cls-10">
        <path class="cls-18" d="m145.22,25.34c8.37,3.29,15.3,8.13,20.05,13.5,7.13-.69,15.5.48,23.87,3.77,5.06,1.99,9.58,4.54,13.43,7.44-3.72-4.76-9.37-8.99-16.3-11.71-6.89-2.71-13.87-3.47-19.81-2.54-3.72-4.73-9.34-8.92-16.24-11.63-6.9-2.71-13.95-3.48-19.91-2.53,4.79.5,9.85,1.71,14.91,3.7Z"/>
      </g>
      <g class="cls-10">
        <path class="cls-18" d="m42.33,73.41c8.68,2.34,16.11,6.38,21.42,11.19,7.01-1.49,15.47-1.24,24.14,1.1,5.25,1.42,10.03,3.46,14.17,5.9-4.22-4.32-10.31-7.89-17.5-9.83-7.16-1.93-14.16-1.91-19.97-.32-4.22-4.29-10.28-7.83-17.42-9.76-7.15-1.93-14.24-1.91-20.07-.3,4.82-.04,9.97.61,15.22,2.03h0Z"/>
      </g>
    </g>
    <g class="cls-4">
      <path class="cls-41" d="m730.32,157.82l-318.63-.36c-4.86,0-8.79-3.65-8.79-8.16h0c0-4.51,3.94-8.16,8.79-8.16l318.63.36c4.86,0,8.79,3.65,8.79,8.16h0c0,4.51-3.94,8.16-8.79,8.16Z"/>
      <path class="cls-41" d="m675.51,129.69l-192.27-.36c-.11,0-.2-.08-.2-.19h0c0-7.35,6.47-13.3,14.45-13.3l163.79.36c7.98,0,14.45,5.96,14.45,13.3h0c0,.1-.09.19-.2.19Z"/>
      <path class="cls-41" d="m712.82,141.82l-276.05-.36c-.11,0-.21-.08-.21-.19h0c0-7.35,6.58-13.3,14.69-13.3l247.08.36c8.11,0,14.69,5.96,14.69,13.3h0c0,.1-.09.19-.21.19Z"/>
    </g>
  </g>
  <g id="grass_" data-name="grass?">
    <rect class="cls-13" x="-31" y="311" width="1987" height="421"/>
  </g>
  <g id="grass.">
    <path class="cls-21" d="m819.62,383.31c.09,3.81,1.29,11.31,2.43,17.69.49,2.72-1.75,5.12-4.51,4.89-1.52-.12-3.1-.19-4.72-.19-3.54,0-6.88.32-9.81.87-2.04.39-4.09-.57-5.11-2.38-2.04-3.59-3.85-7.55-4.86-11.52-3.3-13.03-.15-23.64-.15-23.64,0,0,7.19,13.67,12.09,21.35.7-6.33,1.98-13.42,4.33-19.58,5.95-15.62,15.32-24.25,15.32-24.25,0,0-5.18,29.37-5.01,36.74Z"/>
    <g>
      <g>
        <path class="cls-28" d="m1165.94,477c-5.9-1.51-10.39-3.58-13.47-6.2-3.07-2.61-4.83-5.71-5.29-9.31-.58-4.47.74-8,3.94-10.59,3.19-2.58,7.99-3.87,14.41-3.87h30.91l1.97,11.67h-31.26c-1.73,0-2.9.27-3.53.82-.63.55-.89,1.16-.8,1.82.12.86.56,1.57,1.32,2.12.76.55,1.92,1.02,3.5,1.4l15.49,3.83c6.57,1.64,11.66,3.67,15.25,6.07,3.6,2.42,5.78,5.81,6.53,10.2.39,2.28.27,4.44-.35,6.49s-1.79,3.83-3.51,5.34c-1.72,1.51-4.03,2.72-6.92,3.63-2.89.91-6.37,1.37-10.44,1.37h-29.6l-1.63-12.43h31.82c2.1,0,3.5-.37,4.22-1.12s.99-1.61.83-2.6c-.19-1.19-.84-2.09-1.96-2.71-1.11-.62-3.13-1.29-6.04-2.03l-15.38-3.9Z"/>
        <path class="cls-28" d="m1226.92,483.48l.06.3c.53,2.82,1.57,4.71,3.13,5.65,1.56.95,4.03,1.42,7.4,1.42h25.22l2.32,10.94h-24.5c-4.91,0-9.14-.49-12.69-1.48-3.55-.99-6.5-2.37-8.85-4.16-2.34-1.78-4.19-3.92-5.54-6.42-1.35-2.49-2.28-5.21-2.8-8.17l-.98-5.59c-1.01-5.78.06-10.37,3.19-13.8,3.11-3.41,8.9-5.11,17.36-5.11h3.23c4.53,0,8.4.47,11.61,1.42s5.89,2.3,8.01,4.04c2.13,1.75,3.81,3.85,5.03,6.31,1.23,2.47,2.17,5.21,2.81,8.23l1.36,6.41h-35.39Zm3.87-16.81c-2.61,0-4.33.51-5.17,1.52-.84,1.01-1.04,2.71-.6,5.08l.18.95h20.4l-.19-.95c-.48-2.38-1.35-4.07-2.62-5.08-1.26-1.01-3.14-1.52-5.64-1.52h-6.35Z"/>
        <path class="cls-28" d="m1264.74,457.63h34.47c5.99,0,11.13,1.76,15.43,5.29,4.33,3.55,7.27,8.28,8.81,14.22l1.15,4.41c1.56,6.03,1.09,10.91-1.45,14.62-2.55,3.73-6.93,5.6-13.12,5.6h-19.73l2.65,11.5h-16.02l-12.19-55.66Zm17.82,10.62l5.16,22.37h14.18c3.37,0,5.52-.7,6.45-2.09.93-1.39,1.03-3.55.31-6.46l-1.44-5.81c-.71-2.87-1.85-4.93-3.4-6.16-1.56-1.23-3.99-1.85-7.31-1.85h-13.95Z"/>
        <path class="cls-28" d="m1323,457.63h7.85l-2.32-8.63h14.07l2.41,8.63h16.59l3.04,10.41h-16.72l4.98,17.81c.53,1.88,1.33,3.19,2.42,3.91,1.09.72,2.63,1.08,4.62,1.08h11.36l3.2,10.94h-13.29c-6.91,0-12.22-1.33-15.92-3.98-3.69-2.64-6.24-6.63-7.67-11.95l-4.78-17.81h-7.09l-2.74-10.41Z"/>
        <path class="cls-28" d="m1378.56,486h17.36l4.91,15.79h-17.56l-4.71-15.79Z"/>
        <path class="cls-28" d="m1218.76,599.57h-55.46l-1.36-10.57c-.35-2.75-.37-5.2-.06-7.36s1.08-4.15,2.31-5.98c1.23-1.83,2.94-3.6,5.14-5.3,2.19-1.7,5-3.47,8.42-5.31l12.87-6.88c1.4-.71,2.37-1.41,2.9-2.1.53-.68.72-1.55.56-2.58-.24-1.53-.94-2.56-2.12-3.11-1.18-.54-2.69-.82-4.54-.82h-29.16l-1.64-12.67h30.36c7.66,0,13.47,1.29,17.44,3.89,3.99,2.61,6.36,6.18,7.12,10.74.43,2.56.39,4.78-.11,6.65-.5,1.87-1.43,3.55-2.79,5.05-1.36,1.5-3.1,2.93-5.21,4.29-2.12,1.37-4.58,2.83-7.39,4.4l-11.78,6.67c-1.86,1.02-3,1.95-3.44,2.8-.44.85-.58,1.82-.43,2.9l.24,1.71h35.86l2.26,13.58Z"/>
        <path class="cls-28" d="m1223.45,539.65c3.95-2.38,10.5-3.56,19.64-3.56h1.97c9.14,0,16.14,1.19,21.01,3.56,4.88,2.39,7.89,6.2,9,11.46l.69,3.27c.56,2.63.35,5.13-.64,7.5-.99,2.38-3.63,4.15-7.95,5.32,5.32,1.17,9.17,2.97,11.52,5.4s3.85,5.05,4.44,7.82l.76,3.58c1.18,5.55-.26,9.68-4.34,12.37-4.09,2.7-11.17,4.05-21.21,4.05h-3.85c-10.04,0-17.63-1.35-22.76-4.05-5.11-2.69-8.14-6.82-9.09-12.37l-.61-3.58c-.47-2.77,0-5.38,1.43-7.82,1.42-2.44,4.57-4.24,9.45-5.4-4.76-1.17-8.09-2.94-9.99-5.32-1.89-2.37-3.06-4.87-3.52-7.5l-.56-3.27c-.91-5.26.63-9.07,4.6-11.46Zm39.55,34.94c-1.55-.84-4.26-1.26-8.13-1.26h-7.3c-3.87,0-6.42.42-7.64,1.26-1.23.84-1.66,2.22-1.31,4.14l.54,2.98c.35,1.93,1.33,3.4,2.93,4.4s4.48,1.5,8.63,1.5h6.49c4.15,0,6.83-.5,8.05-1.5s1.63-2.47,1.24-4.4l-.6-2.98c-.39-1.92-1.36-3.3-2.91-4.14Zm-6.9-25.44c-1.51-.76-4.16-1.14-7.96-1.14h-3.54c-3.8,0-6.31.38-7.53,1.14-1.22.76-1.65,2.06-1.31,3.92l.53,2.87c.34,1.86,1.28,3.18,2.82,3.96,1.54.77,4.34,1.16,8.41,1.16h2.7c4.07,0,6.73-.39,7.97-1.16,1.24-.77,1.67-2.09,1.3-3.96l-.57-2.87c-.37-1.85-1.31-3.16-2.82-3.92Z"/>
        <path class="cls-28" d="m1280.76,548.99h8.39l-2.19-9.86h15.03l2.29,9.86h28.11l3.01,11.9h-28.35l4.75,20.4c.5,2.16,1.32,3.66,2.46,4.48,1.14.83,2.78,1.24,4.91,1.24h8.62l3.05,12.55h-10.66c-7.41,0-13.05-1.53-16.93-4.57-3.86-3.03-6.46-7.61-7.81-13.71l-4.52-20.4h-7.59l-2.57-11.9Z"/>
        <path class="cls-28" d="m1325.31,536.89h16.29l3.16,12.1h15.74c7.56,0,13.54,1.79,17.97,5.39,4.45,3.62,7.58,8.55,9.39,14.83l8.73,30.35h-17.02l-8.49-30.77c-.71-2.56-1.66-4.38-2.86-5.46-1.2-1.08-3.08-1.62-5.64-1.62h-14.49l9.89,37.85h-17.02l-15.65-62.68Z"/>
        <path class="cls-28" d="m1418.5,566.71h21.55l4.73,14.58h-21.76l-4.51-14.58Z"/>
        <path class="cls-28" d="m1535.74,599.57h-55.46l-3.65-10.57c-.95-2.75-1.5-5.2-1.65-7.36s.19-4.15,1.02-5.98c.83-1.83,2.16-3.6,4-5.3,1.83-1.7,4.25-3.47,7.28-5.31l11.38-6.88c1.25-.71,2.06-1.41,2.44-2.1.38-.68.38-1.55,0-2.58-.57-1.53-1.5-2.56-2.8-3.11-1.3-.54-2.87-.82-4.71-.82h-29.16l-4.38-12.67h30.36c7.66,0,13.75,1.29,18.29,3.89,4.55,2.61,7.7,6.18,9.45,10.74.98,2.56,1.43,4.78,1.33,6.65-.1,1.87-.66,3.55-1.7,5.05-1.04,1.5-2.46,2.93-4.29,4.29-1.83,1.37-3.97,2.83-6.43,4.4l-10.34,6.67c-1.64,1.02-2.58,1.95-2.84,2.8-.26.85-.19,1.82.2,2.9l.61,1.71h35.86l5.2,13.58Z"/>
        <path class="cls-28" d="m1538.32,570.73c-5.37-2.96-9.13-7.23-11.29-12.81l-1.08-2.8c-2.37-6.1-2.12-10.73.72-13.9,2.82-3.16,8.72-4.73,17.69-4.73h3.34c10,0,18.14,1.99,24.44,5.98,6.34,4.02,11.38,10.38,15.15,19.17l4.69,10.94c1.74,4.05,2.71,7.74,2.93,11.06.21,3.34-.48,6.17-2.07,8.51-1.6,2.34-4.15,4.16-7.66,5.46-3.51,1.31-8.08,1.96-13.7,1.96h-25.35l-5.12-13.15h25.75c5.15,0,8.27-.8,9.35-2.4,1.08-1.59.84-4.26-.71-7.99l-.35-.84h-15.33c-8.87,0-16.01-1.49-21.4-4.46Zm31.53-8.01l-2.13-5.13c-1.6-3.83-3.42-6.38-5.48-7.66s-5.16-1.91-9.31-1.91h-2.16c-4.03,0-6.52.55-7.46,1.67-.94,1.11-.99,2.71-.16,4.78l.72,1.81c.97,2.42,2.32,4.1,4.06,5.03,1.74.94,4.42,1.41,8.03,1.41h13.89Z"/>
        <path class="cls-28" d="m1587.92,548.99h8.39l-4.33-9.86h15.03l4.43,9.86h28.11l5.59,11.9h-28.35l9.17,20.4c.97,2.16,2.12,3.66,3.44,4.48,1.32.83,3.05,1.24,5.18,1.24h8.62l5.77,12.55h-10.66c-7.41,0-13.39-1.53-17.92-4.57-4.52-3.03-8.11-7.61-10.79-13.71l-8.94-20.4h-7.59l-5.15-11.9Z"/>
        <path class="cls-28" d="m1629.85,536.89h16.29l5.79,12.1h15.74c7.56,0,13.93,1.79,19.14,5.39,5.24,3.62,9.44,8.55,12.61,14.83l15.32,30.35h-17.02l-15.17-30.77c-1.26-2.56-2.61-4.38-4.05-5.46-1.43-1.08-3.43-1.62-5.99-1.62h-14.49l18.1,37.85h-17.02l-29.25-62.68Z"/>
      </g>
      <g>
        <polygon class="cls-28" points="805.62 398.78 854.97 398.78 933.17 595.42 874.15 595.42 805.62 398.78"/>
        <polygon class="cls-28" points="385.17 398.78 531.97 398.78 538.05 519.08 660.53 398.78 713.91 398.78 632.28 480.36 689.85 480.36 768.03 398.78 818.13 398.78 650.34 584.03 592.37 584.03 661.01 512.07 602.1 512.07 493.21 622.36 486.82 429.32 384.35 429.32 385.17 398.78"/>
        <polygon class="cls-28" points="886.53 595.42 944.27 595.42 1065.29 422.44 1014.31 422.44 886.53 595.42"/>
        <polygon class="cls-28" points="1043.78 381.93 1093.64 381.66 1073 410.75 1022.58 410.61 1043.78 381.93"/>
        <path class="cls-28" d="m1112.64,354.95s-33.69,0-44.09,0h-59.82c-31.21,0-39.89-.88-58.13,17.53-20.55,20.74-78.95,88.3-124.41,138.33-8.99,9.89-26.07,28.92-37.67,38.97-24.28,21.03-27.86,30.23-59.79,31.13-40.64,1.15-194.46-.13-194.46-.13l-41.06,41.59s191.46,1.53,247.13,0c52.04-1.43,95.56-62.86,118.28-87.61,45.73-49.82,100.42-121.49,118.35-140.43,8.83-9.32,21.5-11.96,34.79-11.96,21.27,0,81.41-.03,81.41-.03l19.48-27.38Z"/>
        <polygon class="cls-28" points="327.45 482.08 279.13 482.08 300.57 441.1 347.44 441.1 327.45 482.08"/>
        <polygon class="cls-28" points="356.05 525.68 306.19 525.68 327.45 482.08 375.77 482.08 356.05 525.68"/>
        <polygon class="cls-28" points="424.09 482.08 375.77 482.08 394.3 441.1 441.17 441.1 424.09 482.08"/>
        <polygon class="cls-28" points="455.78 525.68 405.92 525.68 424.09 482.08 472.41 482.08 455.78 525.68"/>
        <polygon class="cls-28" points="386.53 572.19 335.02 572.19 356.04 525.71 405.9 525.71 386.53 572.19"/>
        <polygon class="cls-28" points="283.51 572.19 232 572.19 256.31 525.71 306.18 525.71 283.51 572.19"/>
        <polygon class="cls-28" points="475.7 525.71 456.82 525.71 439.12 572.19 476.18 572.19 475.7 525.71"/>
      </g>
    </g>
    <path class="cls-6" d="m222.44,389.5c2.45.16,4.35-2.04,3.92-4.45-.4-2.27-.69-5.51-.6-10.09.22-11.31,2.89-19.36,2.89-19.36,0,0-5.82,2.94-11.08,8.35h0c-4.83-11.04-6.38-22.17-6.38-22.17,0,0-4.61,15.56-5.24,30.48-.28,6.72.35,11.28,1.14,14.26.7,2.66,3.4,4.24,6.07,3.56,1.56-.4,3.48-.73,5.56-.73,1.21,0,2.5.06,3.72.14Z"/>
    <g class="cls-5">
      <path class="cls-38" d="m408.45,806.24s-12.82-8.11-19.94-18.78c-2.93-4.4-5.52-10.54-7.22-15.04-.79-2.09-3.77-2.05-4.47.07-1.6,4.8-3.34,11.83-2.84,18.78.53,7.36,3.85,15.48,6.2,20.43,1.23,2.6,4.18,3.92,6.93,3.1,2.76-.83,6.49-1.75,10.4-2.14,3.16-.32,7.94.25,11.44.8,2.38.37,4.61-1.26,4.96-3.64.63-4.27,2-10.86,4.86-16.35,1.68-3.23,4.39-6.78,6.68-9.54,1.45-1.74-.13-4.3-2.34-3.83-3.72.79-8.42,2.23-12.44,4.83-7.65,4.95-13.98,15.35-13.98,15.35"/>
      <path class="cls-38" d="m385.65,810.12s-1.01-18.92,3.35-31.95c2.59-7.74,7.18-14.35,10.72-18.66,1.47-1.8,4.39-.61,4.2,1.71-.48,5.86-.91,14.27-.2,20.88,1.69,15.51,8.85,30.63,8.85,30.63"/>
    </g>
    <g class="cls-5">
      <path class="cls-34" d="m72.66,666.36s19.44-12.29,30.23-28.47c4.45-6.67,8.37-15.97,10.94-22.8,1.19-3.17,5.71-3.11,6.78.1,2.43,7.27,5.06,17.93,4.3,28.47-.81,11.16-5.83,23.47-9.39,30.98-1.87,3.94-6.33,5.95-10.51,4.7-4.18-1.25-9.84-2.65-15.76-3.24-4.79-.48-12.04.39-17.34,1.21-3.61.56-6.99-1.9-7.52-5.51-.96-6.47-3.04-16.47-7.37-24.78-2.55-4.9-6.65-10.28-10.13-14.46-2.19-2.63.2-6.52,3.55-5.81,5.65,1.2,12.77,3.39,18.86,7.32,11.59,7.5,21.19,23.27,21.19,23.27"/>
      <path class="cls-34" d="m107.22,672.24s1.53-28.67-5.07-48.44c-3.92-11.74-10.88-21.75-16.25-28.29-2.23-2.72-6.65-.92-6.37,2.59.73,8.89,1.39,21.64.3,31.66-2.56,23.51-13.42,46.43-13.42,46.43"/>
    </g>
    <g class="cls-5">
      <path class="cls-36" d="m1149.92,407.28s-1.07-18.84,4.6-31.89c3.62-8.34,10.17-15.39,14.8-19.67,1.61-1.49,4.67-.52,4.43,1.42-.72,5.85-3.13,13.54-2.37,22.01,1.4,15.5,9.04,22.67,9.04,22.67"/>
      <path class="cls-36" d="m1161.65,393.85s7.96-10.76,16.51-16.29c5.08-3.29,11.14-4.92,15.49-5.72,1.97-.36,3.3,1.94,2,3.46-2.74,3.2-6.31,7.73-8.43,11.8-3.37,6.48-4.89,14.35-5.55,19.07-.32,2.29-2.39,3.92-4.69,3.71-3.94-.36-9.86-.74-14.45-.37-2.89.24-5.88.76-8.47,1.31-4.56.97-9.17-1.39-11.06-5.66-2.47-5.56-5.34-13.36-5.86-20.53-.6-8.31,1.65-16.71,3.53-22.06.7-2.01,3.53-2.02,4.27-.02,1.88,5.1,4.94,12.57,8.45,17.83,7.96,11.93,22.3,21,22.3,21"/>
    </g>
    <path class="cls-9" d="m1098.36,775.18c3.79.76,7.41-2.08,7.51-5.94.08-3.12.7-7.27,2.4-12.73,4.55-14.65,13.01-23.63,13.01-23.63,0,0-13.16.49-26.06,4.54h0c-6.05-17.2-5.25-32.63-5.25-32.63,0,0-15.21,17.68-21.9,36.81-3.48,9.95-3,19.01-1.73,25.42,1.02,5.16,5.91,8.64,11.11,7.81,3-.48,6.55-.87,10.16-.87s7.42.55,10.77,1.22Z"/>
    <path class="cls-7" d="m1879.68,400.77c2.88.15,5.12-1.89,4.62-4.12-.47-2.1-.81-5.1-.7-9.34.26-10.47,3.41-17.92,3.41-17.92,0,0-6.86,2.72-13.06,7.73h0c-5.69-10.22-7.52-20.52-7.52-20.52,0,0-5.43,14.41-6.17,28.22-.33,6.22.42,10.44,1.34,13.2.82,2.46,4.01,3.93,7.15,3.3,1.84-.37,4.09-.67,6.55-.67,1.42,0,2.94.05,4.39.13Z"/>
    <path class="cls-6" d="m1606.55,479.75c-1.49,4.61-2.34,11.08-2.61,16.51-.13,2.75-2.46,4.86-5.22,4.72-1.71-.09-3.48.01-4.87.24-.8.13-1.58.32-2.31.53-3.63,1.06-7.45-1.12-8.14-4.84s-.73-8.45,0-13.94c1.48-11,6.42-18.43,6.42-18.43,0,0,1.82,12.62,3.5,19.95,2.29-4.73,5.25-9.89,8.78-14.03,8.95-10.51,17.13-12.2,17.13-12.2,0,0-10.83,15.68-12.69,21.48Z"/>
    <path class="cls-7" d="m761.85,530.5c-2.88.58-5.63-1.58-5.7-4.51-.06-2.37-.53-5.52-1.82-9.66-3.45-11.13-9.87-17.94-9.87-17.94,0,0,9.99.37,19.78,3.45h0c4.59-13.06,3.99-24.78,3.99-24.78,0,0,11.55,13.42,16.63,27.95,2.64,7.56,2.27,14.44,1.31,19.3-.77,3.92-4.49,6.56-8.43,5.93-2.27-.36-4.97-.66-7.72-.66s-5.63.41-8.17.92Z"/>
    <path class="cls-8" d="m1148.32,788.6c3.61.24,6.43-3.01,5.79-6.58-.59-3.35-1.02-8.14-.88-14.91.33-16.71,4.27-28.59,4.27-28.59,0,0-8.6,4.34-16.37,12.34h0c-7.13-16.31-9.43-32.74-9.43-32.74,0,0-6.81,22.99-7.73,45.03-.41,9.92.52,16.66,1.68,21.07,1.03,3.93,5.03,6.26,8.97,5.26,2.3-.59,5.13-1.07,8.21-1.07,1.78,0,3.69.09,5.5.21Z"/>
    <path class="cls-6" d="m340.14,404.77c1.8,5.59,2.84,13.42,3.16,20.01.16,3.33,2.99,5.89,6.32,5.72,2.08-.1,4.21.02,5.9.29.97.16,1.91.38,2.79.64,4.4,1.29,9.02-1.36,9.86-5.87.87-4.67.89-10.24,0-16.89-1.79-13.33-7.77-22.32-7.77-22.32,0,0-2.2,15.29-4.24,24.17-2.78-5.73-6.36-11.98-10.64-17-10.84-12.73-20.75-14.78-20.75-14.78,0,0,13.12,19,15.38,26.02Z"/>
    <g>
      <path class="cls-36" d="m1729.81,610.59s1.39-21.2-4.61-35.82c-3.57-8.68-9.89-16.08-14.77-20.92-2.03-2.01-6.05-.68-5.78,1.91.67,6.57,1.26,16,.27,23.41-2.32,17.39-10.9,32.85-10.9,32.85"/>
      <path class="cls-36" d="m1714.6,599.56s-8.72-11.66-19.25-17.21c-5.53-2.91-12-4.53-17.13-5.42-3.04-.53-5.22,2.35-3.23,4.3,3.16,3.09,6.89,7.07,9.2,10.69,3.42,5.35,5.3,11.65,6.3,16.34.8,3.75,4.3,6.29,8.11,5.81,3.94-.5,9.25-.96,15.15-.95s11.64,1.33,15.34,2.53c3.08.99,6.44-.23,8.08-3.02,3.25-5.52,7.96-14.8,8.7-23.19.69-7.8-1.7-15.67-3.91-21.05-.98-2.38-5.08-2.42-6.17-.07-2.34,5.05-5.9,11.93-9.94,16.86-9.8,11.96-27.47,21.05-27.47,21.05"/>
    </g>
    <path class="cls-6" d="m52.19,464.02c-2.74.19-4.88-2.29-4.4-4.99.45-2.54.77-6.18.67-11.32-.25-12.69-3.24-21.71-3.24-21.71,0,0,6.53,3.29,12.43,9.37h0c5.41-12.38,7.16-24.86,7.16-24.86,0,0,5.17,17.45,5.87,34.19.31,7.53-.4,12.65-1.28,15.99-.78,2.99-3.82,4.76-6.81,3.99-1.75-.45-3.9-.81-6.23-.81-1.35,0-2.8.07-4.17.16Z"/>
    <g class="cls-5">
      <path class="cls-36" d="m603.88,399.9s1.07-18.84-4.6-31.89c-3.62-8.34-10.17-15.39-14.8-19.67-1.61-1.49-4.67-.52-4.43,1.42.72,5.85,3.13,13.54,2.37,22.01-1.4,15.5-9.04,22.67-9.04,22.67"/>
      <path class="cls-36" d="m592.15,386.47s-7.96-10.76-16.51-16.29c-5.08-3.29-11.14-4.92-15.49-5.72-1.97-.36-3.3,1.94-2,3.46,2.74,3.2,6.31,7.73,8.43,11.8,3.37,6.48,4.89,14.35,5.55,19.07.32,2.29,2.39,3.92,4.69,3.71,3.94-.36,9.86-.74,14.45-.37,2.89.24,5.88.76,8.47,1.31,4.56.97,9.17-1.39,11.06-5.66,2.47-5.56,5.34-13.36,5.86-20.53.6-8.31-1.65-16.71-3.53-22.06-.7-2.01-3.53-2.02-4.27-.02-1.88,5.1-4.94,12.57-8.45,17.83-7.96,11.93-22.3,21-22.3,21"/>
    </g>
    <g class="cls-5">
      <path class="cls-23" d="m542.64,791.02s-1.84-27.93,6.07-47.18c4.7-11.43,13.03-21.18,19.45-27.55,2.67-2.65,7.96-.9,7.62,2.52-.88,8.65-1.66,21.07-.35,30.83,3.06,22.9,14.36,43.26,14.36,43.26"/>
      <path class="cls-23" d="m562.85,778.53s9.22-11.96,21.07-17.12c6.22-2.71,13.65-3.92,19.57-4.46,3.51-.32,6.3,3,4.14,4.95-3.44,3.1-7.46,7.12-9.87,10.87-3.42,5.33-5.09,11.75-5.91,16.71-.72,4.41-5.01,7.1-9.96,6.25-5.65-.98-12.76-2-17.88-2.02-4.15-.02-8.77.48-12.74,1.06-6.19.91-12.86-2.32-16.31-7.85-3.88-6.23-6.87-14.44-8.15-21.9-1.46-8.54-.71-17.02,1.42-22.69.94-2.5,5.74-2.21,7.2.44,3.16,5.7,7.9,13.48,13.03,19.19,12.46,13.84,33.88,25.22,33.88,25.22"/>
    </g>
    <path class="cls-8" d="m158,777.13c.12,5.01,1.7,14.9,3.2,23.31.64,3.59-2.31,6.75-5.94,6.45-2-.16-4.08-.25-6.22-.25-4.67,0-9.06.42-12.92,1.15-2.69.51-5.38-.75-6.73-3.13-2.68-4.73-5.07-9.95-6.4-15.18-4.35-17.17-.2-31.13-.2-31.13,0,0,9.47,18,15.92,28.12.92-8.34,2.61-17.67,5.7-25.78,7.84-20.58,20.18-31.94,20.18-31.94,0,0-6.83,38.69-6.59,48.4Z"/>
    <path class="cls-7" d="m1895.36,667.05c-3.3.63-6.57-2.27-6.77-6.06-.16-3.06-.84-7.15-2.5-12.56-4.44-14.52-12.15-23.58-12.15-23.58,0,0,11.57.88,23.01,5.26h0c4.77-16.69,3.6-31.85,3.6-31.85,0,0,13.9,17.81,20.36,36.79,3.36,9.87,3.22,18.74,2.31,24.99-.74,5.03-4.92,8.29-9.51,7.32-2.64-.56-5.77-1.06-8.95-1.17-3.16-.11-6.5.31-9.41.86Z"/>
    <g class="cls-5">
      <path class="cls-37" d="m1793.21,503.64s15.51-6.41,24.12-14.85c3.55-3.48,6.68-8.33,8.73-11.89.95-1.65,4.55-1.62,5.41.05,1.94,3.79,4.04,9.35,3.43,14.85-.64,5.82-4.65,12.24-7.49,16.16-1.49,2.05-5.05,3.1-8.38,2.45-3.34-.65-7.85-1.38-12.57-1.69-3.82-.25-9.6.2-13.83.63-2.88.29-5.57-.99-6-2.88-.77-3.37-2.42-8.59-5.88-12.92-2.03-2.55-5.31-5.36-8.08-7.54-1.75-1.37.16-3.4,2.83-3.03,4.5.63,10.19,1.77,15.04,3.82,9.25,3.91,16.91,12.14,16.91,12.14"/>
      <path class="cls-37" d="m1820.78,506.71s1.22-14.96-4.05-25.26c-3.13-6.12-8.68-11.34-12.97-14.75-1.78-1.42-5.31-.48-5.08,1.35.59,4.63,1.11,11.29.24,16.51-2.04,12.26-10.7,24.22-10.7,24.22"/>
    </g>
    <g class="cls-5">
      <path class="cls-23" d="m656.35,825.56s25.61-16.19,39.81-37.5c5.86-8.79,11.02-21.03,14.41-30.04,1.57-4.17,7.52-4.1,8.93.13,3.2,9.58,6.67,23.61,5.66,37.5-1.06,14.7-7.68,30.91-12.37,40.8-2.46,5.18-8.34,7.83-13.84,6.19-5.51-1.65-12.97-3.49-20.75-4.27-6.3-.63-15.86.51-22.83,1.59-4.75.74-9.2-2.51-9.91-7.26-1.26-8.52-4-21.69-9.7-32.63-3.36-6.45-8.76-13.54-13.35-19.05-2.89-3.46.27-8.59,4.68-7.65,7.44,1.58,16.82,4.46,24.83,9.65,15.26,9.88,27.91,30.65,27.91,30.65"/>
      <path class="cls-23" d="m701.87,833.3s2.02-37.77-6.68-63.8c-5.17-15.46-14.34-28.64-21.4-37.25-2.94-3.59-8.77-1.21-8.38,3.41.97,11.7,1.83,28.5.39,41.69-3.37,30.97-17.67,61.16-17.67,61.16"/>
    </g>
    <g class="cls-5">
      <path class="cls-36" d="m150.5,533.14s-1.39-21.2,4.61-35.82c3.57-8.68,9.89-16.08,14.77-20.92,2.03-2.01,6.05-.68,5.78,1.91-.67,6.57-1.26,16-.27,23.41,2.32,17.39,10.9,32.85,10.9,32.85"/>
      <path class="cls-36" d="m165.7,522.12s8.72-11.66,19.25-17.21c5.53-2.91,12-4.53,17.13-5.42,3.04-.53,5.22,2.35,3.23,4.3-3.16,3.09-6.89,7.07-9.2,10.69-3.42,5.35-5.3,11.65-6.3,16.34-.8,3.75-4.3,6.29-8.11,5.81-3.94-.5-9.25-.96-15.15-.95s-11.64,1.33-15.34,2.53c-3.08.99-6.44-.23-8.08-3.02-3.25-5.52-7.96-14.8-8.7-23.19-.69-7.8,1.7-15.67,3.91-21.05.98-2.38,5.08-2.42,6.17-.07,2.34,5.05,5.9,11.93,9.94,16.86,9.8,11.96,27.47,21.05,27.47,21.05"/>
    </g>
    <path class="cls-7" d="m1328.55,396.9c2.87.53,5.75-2.16,5.98-5.64.18-2.8.83-6.56,2.34-11.53,4.07-13.35,10.89-21.75,10.89-21.75,0,0-10.08.97-20.1,5.13h0c-3.93-15.21-2.71-29.11-2.71-29.11,0,0-12.34,16.5-18.22,33.96-3.06,9.08-3.05,17.21-2.34,22.91.57,4.6,4.18,7.53,8.18,6.57,2.31-.55,5.04-1.04,7.8-1.19,2.75-.14,5.65.19,8.18.66Z"/>
    <path class="cls-6" d="m1081.07,552.97c-.1,2.59-1.38,7.69-2.59,12.02-.52,1.85,1.87,3.48,4.81,3.33,1.62-.08,3.3-.13,5.03-.13,3.77,0,7.32.21,10.45.59,2.17.26,4.35-.39,5.45-1.61,2.17-2.44,4.1-5.13,5.18-7.83,3.52-8.86.16-16.06.16-16.06,0,0-7.66,9.29-12.88,14.51-.75-4.3-2.11-9.12-4.61-13.3-6.34-10.62-16.32-16.48-16.32-16.48,0,0,5.52,19.96,5.33,24.97Z"/>
    <g>
      <path class="cls-26" d="m1470.29,466.16s-.59-17.87-6.83-29.61c-3.7-6.97-9.61-12.65-14.1-16.29-1.87-1.52-5.12-.07-4.68,2.08,1.1,5.45,2.38,13.29,2.16,19.58-.51,14.75-6.41,28.41-6.41,28.41"/>
      <path class="cls-26" d="m1456.65,458.19s-8.27-9.04-17.55-12.81c-4.87-1.98-10.42-2.8-14.79-3.12-2.59-.19-4.18,2.4-2.35,3.87,2.91,2.33,6.35,5.35,8.59,8.19,3.31,4.2,5.4,9.31,6.63,13.16.98,3.08,4.12,4.91,7.27,4.2s7.67-1.57,12.6-2.05,9.86.15,13.06.84c2.66.58,5.37-.73,6.52-3.2,2.26-4.89,5.44-13.05,5.37-20.14-.07-6.59-2.72-12.99-5.01-17.3-1.01-1.91-4.46-1.6-5.17.45-1.54,4.43-3.95,10.48-6.93,14.94-7.22,10.83-21.26,19.9-21.26,19.9"/>
    </g>
    <g>
      <path class="cls-26" d="m1721.59,425.5s-13.3-13.83-19.94-30.51c-2.74-6.87-4.88-16.22-6.23-23.06-.62-3.17-3.95-3.58-4.99-.61-2.36,6.74-5.14,16.71-5.41,26.93-.29,10.81,2.42,23.17,4.45,30.76,1.06,3.98,4.18,6.37,7.34,5.6,3.17-.77,7.44-1.53,11.83-1.49,3.55.04,8.81,1.62,12.63,2.96,2.6.91,5.28-1.11,5.96-4.52,1.22-6.12,3.53-15.52,7.37-23.06,2.26-4.44,5.7-9.2,8.58-12.86,1.82-2.3.37-6.29-2.15-5.95-4.24.57-9.65,1.93-14.42,5.09-9.1,6.01-17.4,20.18-17.4,20.18"/>
      <path class="cls-26" d="m1695.75,427.57s1.14-27.73,7.56-46.05c3.81-10.88,9.71-19.78,14.17-25.51,1.86-2.39,4.96-.2,4.47,3.15-1.24,8.47-2.73,20.66-2.72,30.41.02,22.87,6.18,46.04,6.18,46.04"/>
    </g>
    <path class="cls-36" d="m740.03,635.77c-.12,5.01-1.7,14.9-3.2,23.31-.64,3.59,2.31,6.75,5.94,6.45,2-.16,4.08-.25,6.22-.25,4.67,0,9.06.42,12.92,1.15,2.69.51,5.38-.75,6.73-3.13,2.68-4.73,5.07-9.95,6.4-15.18,4.35-17.17.2-31.13.2-31.13,0,0-9.47,18-15.92,28.12-.92-8.34-2.61-17.67-5.7-25.78-7.84-20.58-20.18-31.94-20.18-31.94,0,0,6.83,38.69,6.59,48.4Z"/>
    <g>
      <path class="cls-36" d="m1259.57,676.33s1.29-22.83-5.57-38.63c-4.39-10.1-12.32-18.64-17.92-23.83-1.96-1.81-5.65-.63-5.36,1.72.88,7.09,3.8,16.41,2.87,26.67-1.69,18.77-10.96,27.46-10.96,27.46"/>
      <path class="cls-36" d="m1245.36,660.05s-9.64-13.04-20-19.74c-6.15-3.98-13.49-5.96-18.76-6.93-2.38-.44-4,2.35-2.42,4.19,3.32,3.88,7.65,9.36,10.22,14.3,4.09,7.85,5.93,17.39,6.72,23.1.38,2.78,2.89,4.75,5.69,4.49,4.77-.43,11.94-.9,17.51-.44,3.5.29,7.12.92,10.26,1.59,5.53,1.18,11.11-1.69,13.4-6.85,2.99-6.73,6.47-16.19,7.1-24.87.73-10.06-2-20.24-4.28-26.73-.85-2.43-4.28-2.45-5.17-.03-2.28,6.18-5.98,15.23-10.23,21.6-9.64,14.46-27.02,25.45-27.02,25.45"/>
    </g>
    <g>
      <path class="cls-36" d="m486.73,640.88s-1.29-22.83,5.57-38.63c4.39-10.1,12.32-18.64,17.92-23.83,1.96-1.81,5.65-.63,5.36,1.72-.88,7.09-3.8,16.41-2.87,26.67,1.69,18.77,10.96,27.46,10.96,27.46"/>
      <path class="cls-36" d="m500.94,624.6s9.64-13.04,20-19.74c6.15-3.98,13.49-5.96,18.76-6.93,2.38-.44,4,2.35,2.42,4.19-3.32,3.88-7.65,9.36-10.22,14.3-4.09,7.85-5.93,17.39-6.72,23.1-.38,2.78-2.89,4.75-5.69,4.49-4.77-.43-11.94-.9-17.51-.44-3.5.29-7.12.92-10.26,1.59-5.53,1.18-11.11-1.69-13.4-6.85-2.99-6.73-6.47-16.19-7.1-24.87-.73-10.06,2-20.24,4.28-26.73.85-2.43,4.28-2.45,5.17-.03,2.28,6.18,5.98,15.23,10.23,21.6,9.64,14.46,27.02,25.45,27.02,25.45"/>
    </g>
    <path class="cls-15" d="m302.08,562.93c.13,3.27,1.89,9.72,3.55,15.21.71,2.34-2.56,4.4-6.59,4.21-2.22-.11-4.53-.16-6.9-.16-5.17,0-10.04.27-14.32.75-2.98.33-5.97-.49-7.47-2.04-2.97-3.09-5.62-6.49-7.09-9.9-4.82-11.2-.22-20.32-.22-20.32,0,0,10.5,11.75,17.65,18.35,1.02-5.44,2.9-11.53,6.32-16.83,8.69-13.43,22.38-20.84,22.38-20.84,0,0-7.57,25.25-7.31,31.58Z"/>
    <g>
      <path class="cls-29" d="m945.38,608.84s1.07-18.84-4.6-31.89c-3.62-8.34-10.17-15.39-14.8-19.67-1.61-1.49-4.67-.52-4.43,1.42.72,5.85,3.13,13.54,2.37,22.01-1.4,15.5-9.04,22.67-9.04,22.67"/>
      <path class="cls-29" d="m933.65,595.4s-7.96-10.76-16.51-16.29c-5.08-3.29-11.14-4.92-15.49-5.72-1.97-.36-3.3,1.94-2,3.46,2.74,3.2,6.31,7.73,8.43,11.8,3.37,6.48,4.89,14.35,5.55,19.07.32,2.29,2.39,3.92,4.69,3.71,3.94-.36,9.86-.74,14.45-.37,2.89.24,5.88.76,8.47,1.31,4.56.97,9.17-1.39,11.06-5.66,2.47-5.56,5.34-13.36,5.86-20.53.6-8.31-1.65-16.71-3.53-22.06-.7-2.01-3.53-2.02-4.27-.02-1.88,5.1-4.94,12.57-8.45,17.83-7.96,11.93-22.3,21-22.3,21"/>
    </g>
    <path class="cls-7" d="m1560.12,387.75c3.89.13,6.92-1.57,6.23-3.43-.64-1.75-1.09-4.24-.95-7.77.35-8.71,4.6-14.91,4.6-14.91,0,0-9.25,2.26-17.62,6.43h0c-7.68-8.5-10.15-17.07-10.15-17.07,0,0-7.33,11.99-8.32,23.47-.45,5.17.56,8.68,1.81,10.98,1.11,2.05,5.41,3.27,9.65,2.74,2.48-.31,5.52-.56,8.83-.56,1.92,0,3.97.04,5.92.11Z"/>
  </g>
  <g id="Layer_7" data-name="Layer 7">
    <ellipse class="cls-32" cx="973" cy="1062" rx="1183" ry="67"/>
    <ellipse class="cls-28" cx="973" cy="1016.5" rx="1183" ry="55.5"/>
    <rect class="cls-22" x="-36" y="828" width="1982" height="91"/>
    <rect class="cls-22" x="-34" y="913" width="1982" height="85"/>
    <rect class="cls-16" x="-28" y="736" width="1982" height="93"/>
    <rect class="cls-16" x="-19" y="659" width="1982" height="85"/>
    <path class="cls-24" d="m2107.48,269.6s-523-20.11-1073-19.98c-624,.14-1080,17.39-1080,17.39l-73.37,67s456-17.25,1080-17.39c550-.12,1073,19.98,1073,19.98l73.37-67Z"/>
    <path class="cls-1" d="m2034.11,336.6s-523-20.11-1073-19.98c-624,.14-1080,17.39-1080,17.39"/>
    <path class="cls-43" d="m2042.41,344.1s-10.76-.4-30.79-1.1l-4.12-7c20.04.69,30.81,1.1,30.81,1.1l4.1,7Zm-76.79-2.64c-9.44-.31-19.66-.64-30.64-.98l-4.15-7c10.98.35,21.21.67,30.65.98l4.14,7Zm-2055.88-.74l-4.61-7c7.79-.27,17.62-.61,29.4-1l4.6,7c-11.77.39-21.6.73-29.39,1Zm1979.33-1.65c-9.8-.29-20-.6-30.58-.9l-4.17-7c10.59.31,20.79.61,30.59.9l4.16,7Zm-1905.81-.75l-4.58-7c9.2-.28,19.03-.58,29.46-.88l4.57,7c-10.43.31-20.26.6-29.46.88Zm1829.39-1.45c-9.92-.28-20.1-.55-30.53-.83l-4.18-7c10.43.28,20.62.56,30.54.83l4.17,7Zm-1755.71-.69l-4.56-7c9.48-.26,19.32-.53,29.51-.8l4.55,7c-10.19.27-20.03.53-29.51.8Zm1679.4-1.35c-9.98-.25-20.14-.51-30.49-.77l-4.2-7c10.35.26,20.52.51,30.5.77l4.19,7Zm-1605.6-.58l-4.54-7c9.6-.24,19.46-.48,29.56-.72l4.54,7c-10.1.24-19.95.48-29.55.72Zm1529.4-1.28c-10.01-.23-20.16-.47-30.45-.7l-4.21-7c10.29.23,20.44.47,30.45.7l4.21,7Zm-1455.48-.46l-4.53-7c9.68-.22,19.55-.43,29.6-.65l4.52,7c-10.05.22-19.92.43-29.6.65Zm1379.39-1.25c-10.03-.21-20.16-.43-30.4-.63l-4.23-7c10.24.21,20.38.42,30.41.63l4.22,7Zm-1305.36-.32l-4.51-7c9.73-.19,19.61-.39,29.65-.58l4.51,7c-10.03.19-19.91.38-29.64.58Zm1229.37-1.22c-10.03-.19-20.16-.38-30.36-.57l-4.24-7c10.21.19,20.33.38,30.37.57l4.24,7Zm-1155.23-.18l-4.5-7c9.77-.17,19.67-.34,29.69-.51l4.49,7c-10.02.17-19.91.34-29.68.51Zm1079.35-1.19c-10.04-.17-20.15-.34-30.32-.5l-4.26-7c10.18.16,20.29.33,30.33.5l4.25,7Zm-1005.12-.05l-4.48-7c9.8-.15,19.71-.3,29.73-.45l4.48,7c-10.01.15-19.92.3-29.72.45Zm74.34-1.07l-4.47-7c9.83-.13,19.75-.26,29.77-.39l4.46,7c-10.01.12-19.93.25-29.76.38Zm855.01-.07c-10.04-.15-20.13-.29-30.27-.43l-4.28-7c10.15.14,20.24.28,30.28.43l4.27,7Zm-780.57-.85l-4.45-7c9.86-.11,19.79-.22,29.81-.32l4.45,7c-10.01.1-19.95.21-29.8.32Zm704.91-.16c-10.03-.12-20.11-.24-30.23-.35l-4.3-7c10.12.11,20.2.23,30.23.35l4.29,7Zm-630.38-.59l-4.44-7c9.88-.09,19.83-.18,29.85-.26l4.43,7c-10.02.08-19.97.17-29.84.26Zm554.84-.23c-10.03-.1-20.09-.19-30.18-.27l-4.31-7c10.09.09,20.16.18,30.18.27l4.31,7Zm-480.2-.37l-4.42-7c9.9-.07,19.86-.13,29.89-.19l4.42,7c-10.02.06-19.98.13-29.88.19Zm404.79-.25c-10.02-.07-20.06-.13-30.13-.19l-4.34-7c10.07.06,20.11.12,30.13.19l4.33,7Zm-330.05-.19l-4.41-7c9.92-.05,19.9-.09,29.93-.13l4.4,7c-10.03.04-20,.08-29.92.13Zm254.77-.21c-9.98-.04-19.97-.07-29.98-.1l-4.36-7c10.01.03,20.01.06,29.99.1l4.35,7Zm-179.93-.06l-4.39-7c9.94-.03,19.93-.05,29.97-.07l4.39,7c-10.04.02-20.03.04-29.96.07Zm104.93-.11c-5.81,0-11.62,0-17.43,0h-12.57s-4.38-7-4.38-7h12.57c5.82,0,11.63,0,17.44,0l4.37,7Z"/>
    <path class="cls-2" d="m2107.48,266.98s-523-20.11-1073-19.98c-624,.14-1080,17.39-1080,17.39"/>
    <path class="cls-3" d="m2107.48,262.98s-523-20.11-1073-19.98c-624,.14-1080,17.39-1080,17.39"/>
    <path class="cls-11" d="m1924.01,998h-62.29l20.97-31h62.29l-20.97,31Zm-124.58,0h-62.29l20.97-31h62.29l-20.97,31Zm-124.58,0h-62.29l20.97-31h62.29l-20.97,31Zm-124.58,0h-62.29l20.97-31h62.29l-20.97,31Zm-124.58,0h-62.29l20.97-31h62.29l-20.97,31Zm-124.58,0h-62.29l20.97-31h62.29l-20.97,31Zm-124.58,0h-62.29l20.97-31h62.29l-20.97,31Zm-124.58,0h-62.29l20.97-31h62.29l-20.97,31Zm-124.58,0h-62.29l20.97-31h62.29l-20.97,31Zm-124.58,0h-62.29l20.97-31h62.29l-20.97,31Zm-124.58,0h-62.29l20.97-31h62.29l-20.97,31Zm-124.58,0h-62.29l20.97-31h62.29l-20.97,31Zm-124.58,0h-62.29l20.97-31h62.29l-20.97,31Zm-124.58,0h-62.29l20.97-31h62.29l-20.97,31Zm-124.58,0h-62.29l20.97-31h62.29l-20.97,31Zm-124.58,0H-7l20.97-31h62.29l-20.97,31Z"/>
    <path class="cls-12" d="m19.08,690l-20.97-31h62.29s20.97,31,20.97,31H19.08Zm124.58,0l-20.97-31h62.29s20.97,31,20.97,31h-62.29Zm124.58,0l-20.97-31h62.29s20.97,31,20.97,31h-62.29Zm124.58,0l-20.97-31h62.29s20.97,31,20.97,31h-62.29Zm124.58,0l-20.97-31h62.29s20.97,31,20.97,31h-62.29Zm124.58,0l-20.97-31h62.29s20.97,31,20.97,31h-62.29Zm124.58,0l-20.97-31h62.29s20.97,31,20.97,31h-62.29Zm124.58,0l-20.97-31h62.29s20.97,31,20.97,31h-62.29Zm124.58,0l-20.97-31h62.29s20.97,31,20.97,31h-62.29Zm124.58,0l-20.97-31h62.29s20.97,31,20.97,31h-62.29Zm124.58,0l-20.97-31h62.29s20.97,31,20.97,31h-62.29Zm124.58,0l-20.97-31h62.29s20.97,31,20.97,31h-62.29Zm124.58,0l-20.97-31h62.29s20.97,31,20.97,31h-62.29Zm124.58,0l-20.97-31h62.29s20.97,31,20.97,31h-62.29Zm124.58,0l-20.97-31h62.29s20.97,31,20.97,31h-62.29Zm124.58,0l-20.97-31h62.29s20.97,31,20.97,31h-62.29Z"/>
    <path class="cls-33" d="m1197.95,975.93c-2.7,8.39-4.26,20.14-4.74,30.03-.24,5-4.48,8.84-9.49,8.59-3.12-.16-6.33.02-8.86.44-1.46.24-2.87.58-4.19.96-6.61,1.93-13.55-2.04-14.81-8.81-1.3-7-1.33-15.38,0-25.36,2.69-20,11.67-33.51,11.67-33.51,0,0,3.3,22.95,6.37,36.28,4.17-8.6,9.55-17.98,15.97-25.51,16.27-19.11,31.16-22.18,31.16-22.18,0,0-19.69,28.53-23.08,39.06Z"/>
    <g>
      <path class="cls-30" d="m1666.11,1019.05s28.16-12.96,43.79-30c6.44-7.03,12.12-16.83,15.85-24.03,1.73-3.34,8.27-3.28,9.83.1,3.52,7.66,7.33,18.89,6.23,30.01-1.17,11.76-8.45,24.73-13.61,32.65-2.71,4.15-9.17,6.27-15.22,4.95-6.06-1.32-14.26-2.8-22.83-3.42-6.93-.5-17.44.41-25.11,1.27-5.23.59-10.12-2.01-10.9-5.81-1.39-6.81-4.4-17.36-10.67-26.11-3.69-5.16-9.63-10.84-14.68-15.24-3.17-2.77.29-6.87,5.15-6.12,8.18,1.27,18.5,3.57,27.31,7.72,16.79,7.9,30.7,24.52,30.7,24.52"/>
      <path class="cls-30" d="m1716.18,1025.25s2.22-30.22-7.35-51.05c-5.68-12.37-15.77-22.92-23.54-29.81-3.24-2.87-9.64-.97-9.22,2.73,1.06,9.36,2.01,22.8.43,33.36-3.7,24.78-19.43,48.94-19.43,48.94"/>
    </g>
    <path class="cls-35" d="m578.34,988.05c.24,5.6,3.43,16.64,6.46,26.03,1.29,4.01-4.66,7.53-11.98,7.2-4.03-.18-8.23-.28-12.55-.28-9.41,0-18.26.46-26.05,1.28-5.42.57-10.86-.84-13.58-3.5-5.41-5.28-10.23-11.11-12.9-16.95-8.77-19.17-.4-34.77-.4-34.77,0,0,19.1,20.1,32.1,31.41,1.86-9.31,5.27-19.74,11.5-28.8,15.81-22.98,40.69-35.67,40.69-35.67,0,0-13.76,43.2-13.29,54.05Z"/>
    <path class="cls-31" d="m152.66,1030.14c-4.66-.14-9.66-1.14-9.01-8.04.4-4.18,1.58-9.94,1.37-18.22-.51-20.43-6.64-34.95-6.64-34.95,0,0,13.37,5.3,25.46,15.08h0c11.09-19.93,14.66-40.02,14.66-40.02,0,0,10.59,28.1,12.03,55.03.65,12.12-.81,20.36-2.61,25.75-1.61,4.81-7.82,7.66-13.95,6.43-3.58-.72-7.98-1.31-12.76-1.31-2.77,0-5.73.34-8.55.25Z"/>
  </g>
</svg>