<?xml version="1.0" encoding="UTF-8"?>
<svg xmlns="http://www.w3.org/2000/svg" viewBox="0 0 793.5 294">
  <defs>
    <style>
      .cls-1 {
        fill: #558e2f;
      }

      .cls-1, .cls-2 {
        isolation: isolate;
      }

      .cls-1, .cls-3, .cls-4, .cls-5, .cls-6, .cls-7, .cls-8, .cls-9, .cls-10 {
        stroke-width: 0px;
      }

      .cls-3 {
        fill: #4aa630;
      }

      .cls-4 {
        fill: #48992c;
      }

      .cls-5 {
        fill: #489139;
      }

      .cls-6 {
        fill: #4ca040;
      }

      .cls-7 {
        fill: #61af2f;
      }

      .cls-8 {
        fill: #62ba2a;
      }

      .cls-9 {
        fill: #53a31f;
      }

      .cls-10 {
        fill: #409c36;
      }
    </style>
  </defs>
  <g id="Layer_4" data-name="Layer 4">
    <g>
      <path class="cls-3" d="m381.08,221.8c27.65.04,53.41-.05,66.24-.41,27.83-.78,30.95-8.8,52.12-27.13,10.11-8.76,25-25.35,32.83-33.97,3.78-4.16,7.67-8.47,11.62-12.86l-26.52-76.1-136.29,150.47Z"/>
      <path class="cls-3" d="m-6-6v306h805V-6H-6ZM59.24,213.79H14.34l21.19-40.51h43.47l-19.76,40.51Zm89.8,0h-44.9l18.32-40.51h43.46l-16.88,40.51Zm-9.38-78.54l-17.19,38h-43.46l18.53-38h-42.12l18.69-35.72h40.85l-17.42,35.72h42.12l16.15-35.72h40.85l-14.89,35.72h42.12l-14.5,38h-43.46l15.84-38h-42.12Zm55.22,78.54l15.43-40.51h16.46l.42,40.51h-32.3Zm47.15,43.73l-5.57-168.26h-89.32l.71-26.62h127.96l5.3,104.86,106.76-104.86h46.53l-71.15,71.11h50.18l68.15-71.11h75.78l19.17,48.2c27.21-30.66,52.6-59.43,64.19-71.12,15.9-16.05,23.46-15.28,50.67-15.28h90.58s-16.98,23.87-16.98,23.87h-.01l-17.57,24.76-43.95-.12,18.2-24.62c-10.88,0-21.26,0-27.63,0-11.58,0-22.63,2.3-30.32,10.42-11.79,12.45-41.79,51.04-72.93,87.88l20.53,51.62,84.95-115h44.44l-105.49,150.78h-61.12l-17.05-48.94c-20.58,23.5-56.77,71.25-99.58,72.43-48.52,1.33-215.41,0-215.41,0m35.79-36.25s23.29.19,53.01.35l57.46-60.24h-51.35"/>
    </g>
  </g>
  <g id="Layer_3" data-name="Layer 3">
    <g>
      <path class="cls-7" d="m381.08,221.8c27.65.04,53.41-.05,66.24-.41,27.83-.78,30.95-8.8,52.12-27.13,10.11-8.76,25-25.35,32.83-33.97,3.78-4.16,7.67-8.47,11.62-12.86l-26.52-76.1-136.29,150.47Z"/>
      <path class="cls-7" d="m788.36,16.27h0c-2.25-2.26-5.3-3.52-8.48-3.52h-94.11c-25.35-.04-36.94-.05-55.65,18.83-9.96,10.05-29.15,31.61-51.71,57.03l-11.97-30.1c-1.82-4.57-6.23-7.57-11.15-7.57h-169.48c-3.15,0-6.17,1.23-8.41,3.44l-87.71,86.15-3.95-78.2c-.32-6.38-5.59-11.39-11.98-11.39h-127.96c-6.5,0-11.82,5.18-12,11.68l.07,16.91c.02,4.58-3.69,8.3-8.27,8.3h-53.55c-4.47,0-8.56,2.48-10.63,6.44l-18.69,35.72-19.89,38.03L1.63,208.54c-2.39,4.57-1.63,10.26,2.17,14.07,2.3,2.3,5.49,3.49,8.74,3.49h44.62s135.64,0,135.64,0h27.51c3.78,0,6.87,3.01,6.97,6.79l.67,25.34c0,.09.01.18.02.27.01.19.02.38.04.58.01.1.03.19.04.29.03.2.05.39.09.59.02.09.04.18.06.27.04.2.08.4.13.6.02.08.05.16.07.24.06.2.11.41.18.61.02.06.04.11.06.17.07.2.14.39.22.58,1.84,4.46,6.17,7.38,10.99,7.42,1.11,0,74.72.59,138.15.59,32.05,0,61.51-.15,77.68-.59,39.64-1.09,71.91-34.47,94.77-60.81l10.2,29.27c1.68,4.82,6.23,8.05,11.33,8.05h61.12c3.92,0,7.59-1.91,9.83-5.12l105.49-150.78c.16-.23.28-.47.43-.71l8.38-12.41.92-1.29,14.44-20.35s.06-.07.09-.12l16.98-23.87c3.4-4.77,2.85-11.3-1.29-15.44ZM59.24,213.79H14.34l21.19-40.51h43.47l-19.76,40.51Zm89.8,0h-44.9l18.32-40.51h43.46l-16.88,40.51Zm16.9-40.54l15.84-38h-42.12l-17.19,38h-43.46l18.53-38h-42.12l18.69-35.72h40.85l-17.42,35.72h42.12l16.15-35.72h40.85l-14.89,35.72h42.12l-14.5,38h-43.46Zm28.94,40.54l15.43-40.51h16.46l.42,40.51h-32.3Zm29.85-52.2l.02-.06v.06s-.01,0-.02,0Zm17.29,95.93l-5.57-168.26h-89.32l.71-26.62h127.96l5.3,104.86,106.76-104.86h46.53l-71.15,71.11h50.18l68.15-71.11h75.78l19.17,48.2c27.21-30.66,52.6-59.43,64.19-71.12,15.9-16.05,23.46-15.28,50.67-15.28h90.58s-16.98,23.87-16.98,23.87h-.01l-17.57,24.76-43.95-.12,18.2-24.62c-10.88,0-21.26,0-27.63,0-11.58,0-22.63,2.3-30.32,10.42-11.79,12.45-41.79,51.04-72.93,87.88l20.53,51.62,84.95-115h44.44l-105.49,150.78h-61.12l-17.05-48.94c-20.58,23.5-56.77,71.25-99.58,72.43-48.52,1.33-215.41,0-215.41,0m35.79-36.25s23.29.19,53.01.35l57.46-60.24h-51.35"/>
    </g>
  </g>
  <g id="Layer_2" data-name="Layer 2">
    <path class="cls-6" d="m529,41.83c.09,3.81,1.29,11.31,2.43,17.69.49,2.72-1.75,5.12-4.51,4.89-1.52-.12-3.1-.19-4.72-.19-3.54,0-6.88.32-9.81.87-2.04.39-4.09-.57-5.11-2.38-2.04-3.59-3.85-7.55-4.86-11.52-3.3-13.03-.15-23.64-.15-23.64,0,0,7.19,13.67,12.09,21.35.7-6.33,1.98-13.42,4.33-19.58,5.95-15.62,15.32-24.25,15.32-24.25,0,0-5.18,29.37-5.01,36.74v.02Z"/>
    <path class="cls-1" d="m125.39,69.89c2.08,4.81,3.58,11.64,4.31,17.43.37,2.93,3.24,4.99,6.42,4.61,1.99-.23,4.03-.27,5.67-.15.94.07,1.85.2,2.71.37,4.3.83,8.55-1.83,9.07-5.86.54-4.18.2-9.09-1.08-14.9-2.57-11.63-8.87-19.15-8.87-19.15,0,0-1.13,13.64-2.52,21.61-3.03-4.86-6.86-10.12-11.28-14.25-11.2-10.47-20.82-11.6-20.82-11.6,0,0,13.78,15.85,16.4,21.88h0Z"/>
    <g>
      <path class="cls-10" d="m367.99,62.42s1.07-18.84-4.6-31.89c-3.62-8.34-10.17-15.39-14.8-19.67-1.61-1.49-4.67-.52-4.43,1.42.72,5.85,3.13,13.54,2.37,22.01-1.4,15.5-9.04,22.67-9.04,22.67"/>
      <path class="cls-10" d="m356.26,48.99s-7.96-10.76-16.51-16.29c-5.08-3.29-11.14-4.92-15.49-5.72-1.97-.36-3.3,1.94-2,3.46,2.74,3.2,6.31,7.73,8.43,11.8,3.37,6.48,4.89,14.35,5.55,19.07.32,2.29,2.39,3.92,4.69,3.71,3.94-.36,9.86-.74,14.45-.37,2.89.24,5.88.76,8.47,1.31,4.56.97,9.17-1.39,11.06-5.66,2.47-5.56,5.34-13.36,5.86-20.53.6-8.31-1.65-16.71-3.53-22.06-.7-2.01-3.53-2.02-4.27-.02-1.88,5.1-4.94,12.57-8.45,17.83-7.96,11.93-22.3,21-22.3,21"/>
    </g>
    <path class="cls-10" d="m242,263.31c-.24-9.71,6.59-48.4,6.59-48.4,0,0-12.34,11.36-20.18,31.94-3.09,8.11-4.78,17.44-5.7,25.78-6.45-10.12-15.92-28.12-15.92-28.12,0,0-4.15,13.96.2,31.13,1.33,5.23,3.72,10.45,6.4,15.18,1.35,2.38,4.04,3.64,6.73,3.13,3.86-.73,8.25-1.15,12.92-1.15,2.14,0,4.22.09,6.22.25,3.63.3,6.58-2.86,5.94-6.45-1.5-8.41-3.08-18.3-3.2-23.31v.02Z"/>
    <path class="cls-4" d="m94.19,227.45c.13,3.27,1.89,9.72,3.55,15.21.71,2.34-2.56,4.4-6.59,4.21-2.22-.11-4.53-.16-6.9-.16-5.17,0-10.04.27-14.32.75-2.98.33-5.97-.49-7.47-2.04-2.97-3.09-5.62-6.49-7.09-9.9-4.82-11.2-.22-20.32-.22-20.32,0,0,10.5,11.75,17.65,18.35,1.02-5.44,2.9-11.53,6.32-16.83,8.69-13.43,22.38-20.84,22.38-20.84,0,0-7.57,25.25-7.31,31.58h0Z"/>
    <g class="cls-2">
      <path class="cls-5" d="m651.62,248.9s-7.64-7.17-9.04-22.67c-.76-8.47,1.65-16.16,2.37-22.01.24-1.94-2.82-2.91-4.43-1.42-4.63,4.28-11.18,11.33-14.8,19.67-5.67,13.05-4.6,31.89-4.6,31.89"/>
      <path class="cls-5" d="m646.89,248.45s-14.34-9.07-22.3-21c-3.51-5.26-6.57-12.73-8.45-17.83-.74-2-3.57-1.99-4.27.02-1.88,5.35-4.13,13.75-3.53,22.06.52,7.17,3.39,14.97,5.86,20.53,1.89,4.27,6.5,6.63,11.06,5.66,2.59-.55,5.58-1.07,8.47-1.31,4.59-.37,10.51.01,14.45.37,2.3.21,4.37-1.42,4.69-3.71.66-4.72,2.18-12.59,5.55-19.07,2.12-4.07,5.69-8.6,8.43-11.8,1.3-1.52-.03-3.82-2-3.46-4.35.8-10.41,2.43-15.49,5.72-8.55,5.53-16.51,16.29-16.51,16.29"/>
    </g>
    <path class="cls-8" d="m480.06,157.01c.12-4.41-3.37-22.01-3.37-22.01,0,0,6.32,5.17,10.33,14.53,1.58,3.69,2.45,7.94,2.92,11.73,3.3-4.6,8.15-12.79,8.15-12.79,0,0,2.12,6.36-.1,14.16-.68,2.38-1.9,4.75-3.27,6.9-.69,1.08-2.07,1.65-3.45,1.42-1.98-.33-4.22-.52-6.61-.52-1.09,0-2.16.03-3.19.11-1.86.13-3.37-1.3-3.04-2.93.77-3.83,1.58-8.32,1.64-10.6h0Z"/>
    <path class="cls-9" d="m656,109.26c.07,2.51.98,7.47,1.84,11.69.37,1.8-1.33,3.38-3.41,3.23-1.15-.08-2.34-.13-3.57-.13-2.68,0-5.2.21-7.41.58-1.54.26-3.09-.38-3.86-1.57-1.54-2.37-2.91-4.99-3.67-7.61-2.5-8.61-.11-15.61-.11-15.61,0,0,5.43,9.02,9.13,14.1.53-4.18,1.5-8.86,3.27-12.93,4.5-10.32,11.58-16.01,11.58-16.01,0,0-3.92,19.4-3.78,24.27h0Z"/>
  </g>
</svg>