<?xml version="1.0" encoding="UTF-8"?>
<svg id="Layer_1" data-name="Layer 1" xmlns="http://www.w3.org/2000/svg" viewBox="0 0 791.61 293.99">
  <defs>
    <style>
      .cls-1 {
        opacity: .9;
      }

      .cls-2 {
        fill: #fc3f3f;
      }

      .cls-2, .cls-3 {
        stroke-width: 0px;
      }

      .cls-3 {
        fill: #333232;
      }
    </style>
  </defs>
  <g class="cls-1">
    <polygon class="cls-3" points="514.07 62.57 557.08 62.57 625.25 233.97 573.8 233.97 514.07 62.57"/>
    <polygon class="cls-2" points="147.59 62.57 275.54 62.57 280.84 167.43 387.6 62.57 434.13 62.57 362.98 133.68 413.16 133.68 481.3 62.57 524.97 62.57 378.72 224.04 328.19 224.04 388.02 161.32 336.67 161.32 241.76 257.45 236.19 89.19 146.87 89.19 147.59 62.57"/>
    <polygon class="cls-2" points="584.59 233.97 634.92 233.97 740.41 83.19 695.97 83.19 584.59 233.97"/>
    <polygon class="cls-2" points="721.66 47.88 765.12 47.65 747.13 73 703.18 72.88 721.66 47.88"/>
    <path class="cls-3" d="m781.68,24.36h-90.57c-27.2,0-34.77-.77-50.67,15.28-17.91,18.08-68.82,76.97-108.44,120.57-7.84,8.62-22.72,25.21-32.83,33.97-21.16,18.33-24.28,26.35-52.12,27.13-35.42,1-169.5-.11-169.5-.11l-35.79,36.25s166.88,1.33,215.41,0c45.36-1.25,83.29-54.79,103.1-76.36,39.86-43.43,87.53-105.9,103.16-122.4,7.7-8.12,18.74-10.42,30.32-10.42,18.54,0,70.96-.03,70.96-.03l16.98-23.87h0Z"/>
    <polygon class="cls-3" points="97.27 135.18 55.16 135.18 73.84 99.46 114.7 99.46 97.27 135.18"/>
    <polygon class="cls-3" points="122.2 173.18 78.74 173.18 97.27 135.18 139.39 135.18 122.2 173.18"/>
    <polygon class="cls-3" points="181.51 135.18 139.39 135.18 155.54 99.46 196.4 99.46 181.51 135.18"/>
    <polygon class="cls-3" points="209.13 173.18 165.67 173.18 181.51 135.18 223.63 135.18 209.13 173.18"/>
    <polygon class="cls-3" points="148.77 213.72 103.87 213.72 122.19 173.21 165.65 173.21 148.77 213.72"/>
    <polygon class="cls-3" points="58.97 213.72 14.08 213.72 35.27 173.21 78.73 173.21 58.97 213.72"/>
    <polygon class="cls-3" points="226.5 173.21 210.04 173.21 194.61 213.72 226.91 213.72 226.5 173.21"/>
  </g>
</svg>