<?xml version="1.0" encoding="utf-8"?>
<!-- Generator: Adobe Illustrator 27.9.4, SVG Export Plug-In . SVG Version: 9.03 Build 54784)  -->
<svg version="1.1" id="Layer_1" xmlns="http://www.w3.org/2000/svg" xmlns:xlink="http://www.w3.org/1999/xlink" x="0px" y="0px"
	 viewBox="0 0 40 218.4" style="enable-background:new 0 0 40 218.4;" xml:space="preserve">
<style type="text/css">
	.st0{fill:#383838;}
	.st1{fill:#2D2D2D;}
</style>
<rect y="-1.1" class="st0" width="40" height="340.3"/>
<g>
	<rect y="299.2" class="st1" width="20" height="20"/>
	<rect y="259.2" class="st1" width="20" height="20"/>
	<rect y="219.2" class="st1" width="20" height="20"/>
	<rect y="179.2" class="st1" width="20" height="20"/>
	<rect y="139.2" class="st1" width="20" height="20"/>
	<rect y="99.2" class="st1" width="20" height="20"/>
	<rect y="59.2" class="st1" width="20" height="20"/>
	<rect y="19.2" class="st1" width="20" height="20"/>
	<rect x="20" y="278.9" class="st1" width="20" height="20"/>
	<rect x="20" y="238.9" class="st1" width="20" height="20"/>
	<rect x="20" y="198.9" class="st1" width="20" height="20"/>
	<rect x="20" y="158.9" class="st1" width="20" height="20"/>
	<rect x="20" y="118.9" class="st1" width="20" height="20"/>
	<rect x="20" y="78.9" class="st1" width="20" height="20"/>
	<rect x="20" y="38.9" class="st1" width="20" height="20"/>
	<rect x="20" y="-1.1" class="st1" width="20" height="20"/>
	<rect x="20" y="318.9" class="st1" width="20" height="20.3"/>
</g>
</svg>
