<?xml version="1.0" encoding="utf-8"?>
<!-- Generator: Adobe Illustrator 27.9.4, SVG Export Plug-In . SVG Version: 9.03 Build 54784)  -->
<svg version="1.1" id="Layer_1" xmlns="http://www.w3.org/2000/svg" xmlns:xlink="http://www.w3.org/1999/xlink" x="0px" y="0px"
	 viewBox="0 0 1920 396.76" style="enable-background:new 0 0 1920 396.76;" xml:space="preserve">
<style type="text/css">
	.st0{fill:#C7FFF6;}
	.st1{fill:#3BB241;}
	.st2{fill:#0CA84B;}
	.st3{fill:#0A9E46;}
	.st4{fill:#078E2A;}
	.st5{fill:#0A9154;}
	.st6{fill:none;stroke:#474747;stroke-width:142;stroke-miterlimit:10;}
	.st7{fill:none;stroke:#585858;stroke-width:109;stroke-miterlimit:10;}
	.st8{fill:none;stroke:#F6E1B1;stroke-width:8;stroke-linecap:round;stroke-miterlimit:10;stroke-dasharray:0,0,30,45;}
	.st9{fill:#169148;}
</style>
<rect x="-5.77" y="215.05" class="st0" width="1928.66" height="192.3"/>
<g>
	<path class="st1" d="M-7.71,383.33c59.49-53.84,362.64-96.85,526.93-94.62c221.08,2.99,431.05,32.27,647.6,35.78
		c207.71,3.37,326.57-27.22,495.94-14.5c81.26,3.5,229.02,33.05,260.11,53.5V255H-7.71V383.33z"/>
	<path class="st2" d="M-5.64,353.5c23.17-25.82,367.28-85.42,531.3-89.91c115.98-3.17,331.62,19.09,439.49,21.7
		c237.7,5.77,562.81-16.51,751.49,0c132.84,11.62,184.31,33.77,207.71,51.4l-1.47-112.55L-3.09,205.92L-5.64,353.5z"/>
	<path class="st3" d="M-5.98,268.83c134.54-19.72,355.7-40.56,622.58-37.97c243.63,2.36,271.63,13.2,527.74,23.2
		c240.01,9.37,337.51-12.32,508.13-2.99c134.56,7.36,202.83,24.08,270.42,42.29l1.47-92.08l-1931.3,4.64L-5.98,268.83z"/>
</g>
<g>
	<path class="st1" d="M-7.71,382.46c59.36-53.72,402.95-113.9,566.87-111.68c220.58,2.98,369.19,25.26,585.25,28.76
		c207.24,3.36,383.35-19.8,552.34-7.1c81.08,3.49,190.76,25.85,221.78,46.26V230.46H-7.71V382.46z"/>
	<path class="st2" d="M-5.64,328.73c23.12-25.77,366.45-85.22,530.1-89.71c115.72-3.17,330.87,19.05,438.5,21.66
		c237.17,5.76,561.54-16.47,749.8,0c132.54,11.59,183.9,33.69,207.24,51.29l-1.46-112.29L-3.1,181.49L-5.64,328.73z"/>
	<path class="st3" d="M-5.99,244.26c134.23-19.67,354.9-40.47,621.18-37.89c243.08,2.36,271.02,13.17,526.55,23.15
		c239.47,9.35,336.75-12.3,506.98-2.98c134.25,7.35,202.38,24.02,269.82,42.19l1.46-91.87L-6.95,181.49L-5.99,244.26z"/>
</g>
<g id="garage">
	<rect class="st3" width="1920" height="84.78"/>
</g>
<g id="schedule_details">
	<path class="st4" d="M527.49,83.47c4.26,0.29,7.58-3.55,6.83-7.75c-0.7-3.95-1.2-9.59-1.04-17.58c0.38-19.71,5.03-33.71,5.03-33.71
		s-10.14,5.11-19.3,14.55l0,0c-8.41-19.23-11.12-38.61-11.12-38.61s-8.03,27.11-9.12,53.09c-0.49,11.7,0.62,19.64,1.98,24.84
		c1.22,4.64,5.93,7.39,10.57,6.2c2.71-0.69,6.05-1.27,9.68-1.27c2.1,0,4.35,0.1,6.48,0.25L527.49,83.47z"/>
	<g>
		<path class="st5" d="M1360.08,96.66c0,0-1.98-30.09,6.54-50.83c5.06-12.31,14.03-22.82,20.95-29.68c2.88-2.86,8.58-0.97,8.21,2.72
			c-0.95,9.32-1.79,22.7-0.38,33.22c3.3,24.67,15.47,46.61,15.47,46.61"/>
		<path class="st5" d="M1381.85,83.21c0,0,9.94-12.89,22.7-18.44c6.7-2.91,14.71-4.22,21.09-4.8c3.79-0.34,6.79,3.23,4.46,5.33
			c-3.71,3.34-8.04,7.67-10.63,11.71c-3.69,5.75-5.49,12.66-6.37,18c-0.78,4.75-5.4,7.65-10.73,6.73
			c-6.08-1.05-13.74-2.16-19.27-2.18c-4.47-0.02-9.45,0.52-13.72,1.14c-6.67,0.98-13.86-2.5-17.57-8.46
			c-4.18-6.71-7.4-15.56-8.78-23.59c-1.58-9.21-0.77-18.34,1.53-24.44c1.01-2.7,6.18-2.38,7.76,0.47
			c3.4,6.14,8.51,14.52,14.04,20.67c13.43,14.91,36.5,27.17,36.5,27.17"/>
	</g>
	<path class="st6" d="M-24.9,135.83c17.96-1.64,253.24-24.69,483.9-24.13c240,0.58,563.58,32.61,829.29,32.61
		s634.03-29.63,656.74-31.31"/>
	<path class="st7" d="M-24.9,135.83c17.96-1.64,253.24-24.69,483.9-24.13c240,0.58,563.58,32.61,829.29,32.61
		s634.03-29.63,656.74-31.31"/>
	<path class="st8" d="M-11.9,136.83c17.96-1.64,253.24-24.69,483.9-24.13c240,0.58,563.58,32.61,829.29,32.61
		s634.03-29.63,656.74-31.31"/>
</g>
<g id="hero_hills">
	<g>
		<path class="st5" d="M134.29,207.3c0,0,23.6-14.92,36.69-34.56c5.4-8.1,10.16-19.38,13.28-27.68c1.45-3.85,6.93-3.78,8.23,0.12
			c2.95,8.83,6.14,21.76,5.22,34.56c-0.98,13.54-7.08,28.49-11.4,37.6c-2.27,4.78-7.69,7.22-12.75,5.7
			c-5.08-1.52-11.95-3.22-19.13-3.94c-5.81-0.58-14.61,0.47-21.04,1.47c-4.38,0.68-8.48-2.31-9.13-6.69
			c-1.16-7.85-3.69-19.99-8.94-30.08c-3.1-5.94-8.07-12.48-12.3-17.55c-2.66-3.19,0.25-7.91,4.31-7.05
			c6.85,1.46,15.5,4.11,22.89,8.89c14.07,9.1,25.72,28.24,25.72,28.24"/>
		<path class="st5" d="M176.24,214.43c0,0,1.86-34.81-6.16-58.8c-4.76-14.24-13.21-26.4-19.73-34.33c-2.71-3.3-8.08-1.12-7.73,3.14
			c0.89,10.79,1.68,26.26,0.36,38.42c-3.1,28.54-16.28,56.36-16.28,56.36"/>
	</g>
	<path class="st9" d="M933.16,179.18c-0.13,5.4-1.83,16.05-3.45,25.11c-0.69,3.86,2.49,7.27,6.4,6.95c2.16-0.18,4.4-0.27,6.7-0.27
		c5.03,0,9.76,0.45,13.92,1.23c2.9,0.55,5.8-0.81,7.26-3.37c2.89-5.09,5.47-10.72,6.89-16.35c4.69-18.49,0.21-33.54,0.21-33.54
		s-10.21,19.4-17.15,30.3c-0.99-8.98-2.82-19.04-6.15-27.78c-8.45-22.17-21.75-34.41-21.75-34.41s7.35,41.68,7.1,52.14
		L933.16,179.18z"/>
	<path class="st4" d="M1726.47,216.09c-4.08,0.82-7.98-2.24-8.09-6.4c-0.08-3.36-0.76-7.83-2.58-13.71
		c-4.9-15.79-14.01-25.45-14.01-25.45s14.18,0.52,28.07,4.89l0,0c6.51-18.53,5.66-35.16,5.66-35.16s16.39,19.05,23.59,39.66
		c3.75,10.72,3.23,20.48,1.86,27.38c-1.1,5.56-6.37,9.31-11.97,8.42c-3.23-0.52-7.05-0.94-10.95-0.94c-3.87,0-7.99,0.59-11.6,1.31
		H1726.47z"/>
</g>
</svg>
