<?xml version="1.0" encoding="UTF-8"?>
<svg id="schedule_details" data-name="schedule details" xmlns="http://www.w3.org/2000/svg" xmlns:xlink="http://www.w3.org/1999/xlink" viewBox="0 0 1882 380.5">
  <defs>
    <style>
      .cls-1 {
        clip-path: url(#clippath);
      }

      .cls-2 {
        fill: none;
      }

      .cls-2, .cls-3, .cls-4, .cls-5, .cls-6, .cls-7 {
        stroke-width: 0px;
      }

      .cls-3 {
        fill: #fff;
        isolation: isolate;
        opacity: .07;
      }

      .cls-4 {
        fill: #616161;
      }

      .cls-5 {
        fill: #505050;
      }

      .cls-6 {
        fill: #1daa45;
      }

      .cls-7 {
        fill: #f1dcae;
      }
    </style>
    <clipPath id="clippath">
      <path class="cls-2" d="m-32.19,470.53l-21.1-236.16c110.1-41.14,338.75-92.95,643.4-92.76,409.7.25,744.7,74.48,891.7,136.54l-91,193.84-1423-1.47h0Z"/>
    </clipPath>
  </defs>
  <g>
    <path class="cls-6" d="m-32.19,470.53l-21.1-236.16c110.1-41.14,338.75-92.95,643.4-92.76,409.7.25,744.7,74.48,891.7,136.54l-91,193.84-1423-1.47h0Z"/>
    <g class="cls-1">
      <g>
        <path class="cls-5" d="m933.75,584.04c-11.7-7.2-114.96-75.59-135.71-257.04-19.62-171.54,52.03-266.04,60.27-276.25l120.32,97.04s.38-.43,1.03-1.32c-1.65,2.25-40.25,56.27-28.05,162.97,12.11,105.9,62.81,142.61,64.97,144.12-1.17-.82-1.84-1.18-1.84-1.18l-80.99,131.66h0Z"/>
        <path class="cls-4" d="m944.55,566.48c-5.04-3.1-31.58-20.51-59.49-58.99-35.44-48.87-58.45-112.09-66.54-182.83-7.72-67.53-1.33-132.87,18.51-188.95,15.42-43.62,33.8-67.65,37.33-72.03l88.24,71.16s.19-.22.54-.69c-1.86,2.46-45.27,61.5-31.99,177.62,13.36,116.78,71.3,157.1,73.76,158.76-.62-.42-.96-.61-.96-.61l-59.39,96.55h-.01Z"/>
        <path class="cls-7" d="m974.49,525.4c-2.23,0-6.28-2.11-17.78-12.46-2.12-1.91-2.28-5.16-.38-7.28,1.91-2.11,5.17-2.28,7.28-.38,8.02,7.22,13.28,10.5,13.33,10.53l-2.7,4.37v.02l2.11,4.71c-.55.24-1.1.49-1.85.49h-.01Zm-37.69-36.29c-1.52,0-3.03-.67-4.05-1.96-4.26-5.4-8.41-11.14-12.32-17.06-1.57-2.38-.91-5.57,1.46-7.14,2.38-1.57,5.57-.91,7.14,1.46,3.75,5.68,7.72,11.18,11.81,16.35,1.76,2.23,1.38,5.47-.85,7.24-.95.75-2.07,1.11-3.19,1.11h0Zm-29.1-46.51c-1.9,0-3.73-1.06-4.62-2.88-3.03-6.15-5.93-12.58-8.6-19.11-1.08-2.63.18-5.64,2.81-6.72,2.64-1.08,5.64.18,6.72,2.81,2.58,6.31,5.38,12.52,8.31,18.46,1.26,2.55.21,5.64-2.34,6.9-.73.36-1.51.53-2.27.53h0Zm-19.77-51.19c-2.23,0-4.28-1.46-4.94-3.71-1.93-6.57-3.71-13.37-5.3-20.21-.64-2.77,1.08-5.54,3.85-6.18,2.78-.65,5.54,1.08,6.18,3.85,1.54,6.65,3.28,13.26,5.15,19.64.8,2.73-.76,5.59-3.5,6.39-.48.14-.97.21-1.45.21h.01Zm-11.52-53.67c-2.52,0-4.72-1.85-5.09-4.42-.59-4.1-1.13-8.31-1.61-12.52-.31-2.76-.6-5.48-.86-8.18-.27-2.83,1.8-5.35,4.63-5.63,2.85-.24,5.35,1.8,5.63,4.63.25,2.64.54,5.31.84,8,.47,4.11,1,8.22,1.57,12.22.4,2.82-1.55,5.43-4.37,5.83-.25.04-.49.05-.74.05v.02Zm-4.4-54.74c-2.81,0-5.1-2.25-5.15-5.07-.04-2.33-.06-4.64-.06-6.92,0-4.67.08-9.37.24-13.95.1-2.84,2.41-5.05,5.33-4.97,2.84.1,5.07,2.48,4.97,5.33-.15,4.46-.23,9.03-.23,13.59,0,2.23.02,4.48.06,6.75.05,2.85-2.22,5.19-5.07,5.24h-.09,0Zm2.93-54.82c-.22,0-.44,0-.66-.04-2.82-.36-4.82-2.94-4.46-5.76.89-6.96,1.98-13.91,3.26-20.66.53-2.79,3.21-4.63,6.02-4.11,2.8.53,4.63,3.22,4.11,6.02-1.24,6.55-2.3,13.29-3.16,20.05-.33,2.6-2.55,4.5-5.1,4.5h-.01Zm11.35-53.71c-.49,0-1-.07-1.5-.22-2.72-.83-4.26-3.7-3.44-6.43,2.05-6.76,4.33-13.44,6.79-19.85,1.02-2.66,4-3.99,6.65-2.97,2.66,1.02,3.99,4,2.97,6.65-2.37,6.18-4.57,12.63-6.55,19.15-.67,2.23-2.72,3.66-4.93,3.66h.01Zm21.06-50.67c-.85,0-1.7-.21-2.5-.65-2.49-1.38-3.38-4.52-2-7.01,6.55-11.8,11.4-17.86,11.6-18.11,1.78-2.21,5.03-2.56,7.25-.77,2.21,1.78,2.56,5.03.78,7.24h0c-.05.06-4.55,5.71-10.62,16.65-.94,1.7-2.7,2.65-4.51,2.65Z"/>
      </g>
    </g>
  </g>
  <path class="cls-3" d="m1439.28,262.36c-5.06-1.98-10.13-3.94-15.21-5.87-166.98-56.42-471.18-114.65-833.96-114.87-304.03-.19-532.36,51.41-642.72,92.51l10.43,101.4,37.99-14.53c15.79-6.1,19.72-7.93,35.91-13.1,33.17-10.85,67-20.54,100.9-28.92,231.82-57.86,492.19-84.98,730.04-92.39,193.51-6.03,388.31,26.95,575.08,80.13,14.37,4.35,28.66,8.98,42.83,14.05l.15-.31c-13.63-6.39-27.48-12.38-41.44-18.1h0Z"/>
</svg>