<?xml version="1.0" encoding="UTF-8"?>
<svg id="schedule_hills" data-name="schedule hills" xmlns="http://www.w3.org/2000/svg" viewBox="0 0 1920 133.5">
  <defs>
    <style>
      .cls-1 {
        fill: #3bb241;
      }

      .cls-1, .cls-2, .cls-3 {
        stroke-width: 0px;
      }

      .cls-2 {
        fill: #0a9e46;
      }

      .cls-3 {
        fill: #0ca84b;
      }
    </style>
  </defs>
  <path class="cls-1" d="m-1.73,138.07c24.33-27.11,322.9-71.1,495.37-68.76,232.1,3.14,388.46,26.57,615.81,30.26,218.06,3.54,403.36-20.83,581.18-7.47,140.22,10.54,215.12,36.28,286.08,55.4l-25.27-120.63L-84.09,31.16-1.73,138.07Z"/>
  <path class="cls-3" d="m-1.44,105.06c24.33-27.11,286.38-64.44,458.58-69.16,121.76-3.33,348.15,20.04,461.39,22.79,249.55,6.06,590.85-17.33,788.94,0,139.46,12.2,198.57,36.67,269.53,55.8l-25.27-120.63L-83.8-1.84-1.44,105.06Z"/>
  <path class="cls-2" d="m-110,40.84C43.28,20.71,272.42-1.17,552.6,1.54c255.77,2.48,285.17,13.86,554.04,24.36,251.97,9.84,354.33-12.94,533.45-3.14,141.26,7.73,235.07,25.28,306.03,44.4l-20.59-96.66L-110-25.21V40.84Z"/>
</svg>