<?xml version="1.0" encoding="UTF-8"?>
<svg id="front_about_grass" data-name="front about grass" xmlns="http://www.w3.org/2000/svg" viewBox="0 0 1920 303">
  <defs>
    <style>
      .cls-1 {
        fill: #078e2a;
      }

      .cls-1, .cls-2, .cls-3 {
        stroke-width: 0px;
      }

      .cls-2 {
        fill: #0a9154;
      }

      .cls-3 {
        fill: #169148;
      }
    </style>
  </defs>
  <g>
    <path class="cls-2" d="m134.29,244.3s23.6-14.92,36.69-34.56c5.4-8.1,10.16-19.38,13.28-27.68,1.45-3.85,6.93-3.78,8.23.12,2.95,8.83,6.14,21.76,5.22,34.56-.98,13.54-7.08,28.49-11.4,37.6-2.27,4.78-7.69,7.22-12.75,5.7-5.08-1.52-11.95-3.22-19.13-3.94-5.81-.58-14.61.47-21.04,1.47-4.38.68-8.48-2.31-9.13-6.69-1.16-7.85-3.69-19.99-8.94-30.08-3.1-5.94-8.07-12.48-12.3-17.55-2.66-3.19.25-7.91,4.31-7.05,6.85,1.46,15.5,4.11,22.89,8.89,14.07,9.1,25.72,28.24,25.72,28.24"/>
    <path class="cls-2" d="m176.24,251.43s1.86-34.81-6.16-58.8c-4.76-14.24-13.21-26.4-19.73-34.33-2.71-3.3-8.08-1.12-7.73,3.14.89,10.79,1.68,26.26.36,38.42-3.1,28.54-16.28,56.36-16.28,56.36"/>
  </g>
  <path class="cls-3" d="m943.16,232.18c-.13,5.4-1.83,16.05-3.45,25.11-.69,3.86,2.49,7.27,6.4,6.95,2.16-.18,4.4-.27,6.7-.27,5.03,0,9.76.45,13.92,1.23,2.9.55,5.8-.81,7.26-3.37,2.89-5.09,5.47-10.72,6.89-16.35,4.69-18.49.21-33.54.21-33.54,0,0-10.21,19.4-17.15,30.3-.99-8.98-2.82-19.04-6.15-27.78-8.45-22.17-21.75-34.41-21.75-34.41,0,0,7.35,41.68,7.1,52.14Z"/>
  <path class="cls-1" d="m1725.47,267.09c-4.08.82-7.98-2.24-8.09-6.4-.08-3.36-.76-7.83-2.58-13.71-4.9-15.79-14.01-25.45-14.01-25.45,0,0,14.18.52,28.07,4.89h0c6.51-18.53,5.66-35.16,5.66-35.16,0,0,16.39,19.05,23.59,39.66,3.75,10.72,3.23,20.48,1.86,27.38-1.1,5.56-6.37,9.31-11.97,8.42-3.23-.52-7.05-.94-10.95-.94-3.87,0-7.99.59-11.6,1.31Z"/>
</svg>