<?xml version="1.0" encoding="UTF-8"?>
<svg id="schedule_details" data-name="schedule details" xmlns="http://www.w3.org/2000/svg" viewBox="0 0 2023 191.58">
  <defs>
    <style>
      .cls-1 {
        fill: #fff;
        isolation: isolate;
        opacity: .05;
      }

      .cls-1, .cls-2 {
        stroke-width: 0px;
      }

      .cls-2 {
        fill: #019e44;
      }
    </style>
  </defs>
  <path class="cls-2" d="m1496,.3c-429.98-6.87-586,104.64-1000,115C267.07,121.03,19.75,64.9.72,60.42.25,60.31,0,60.25,0,60.25,0,197.34,32,53.83,32,190.92l1991,.66c-14.33-120.87-9.67,13-24-107.86C1794.23,19.05,1621.78,2.31,1496,.3h0Z"/>
  <path class="cls-1" d="m496,115.3C267.07,121.03,19.75,64.9.72,60.42c-.47-.11-.71-.17-.72-.17,24.87,7.96,50.99,14.84,76.27,21.36,66.44,16.7,134.51,30.1,202.38,40.08,25.6,3.68,53.33,7.03,79.07,9.65,12.14,1.36,39.58,3.35,51.73,4.37,12.91.7,31.09,1.63,43.98,2.25,15.02.23,33.14.83,48.13.79,138.14.47,276.54-15.88,412.08-42.1,28.08-5.26,80.24-15.51,108.47-21.02,35.78-6.92,71.88-13.64,107.78-19.67,81.57-13.81,164.79-23.32,247.42-28,124.65-7.2,249.94-5.08,373.99,10.76,82.96,10.19,166.24,26.21,247.7,45C1794.23,19.05,1621.78,2.31,1496,.3c-429.98-6.87-586,104.64-1000,115h0Z"/>
</svg>