<?xml version="1.0" encoding="utf-8"?>
<!-- Generator: Adobe Illustrator 27.9.4, SVG Export Plug-In . SVG Version: 9.03 Build 54784)  -->
<svg version="1.1" id="schedule_details" xmlns="http://www.w3.org/2000/svg" xmlns:xlink="http://www.w3.org/1999/xlink" x="0px"
	 y="0px" viewBox="0 0 1998.37 640.18" style="enable-background:new 0 0 1998.37 640.18;" xml:space="preserve">
<style type="text/css">
	.st0{fill:#C7FFF6;}
	.st1{fill:#019E44;}
	.st2{opacity:0.05;fill:#FFFFFF;enable-background:new    ;}
	.st3{fill:#3BB241;}
	.st4{fill:#0CA84B;}
	.st5{fill:#0A9E46;}
	.st6{fill:#078E2A;}
	.st7{fill:#0A9154;}
	.st8{fill:none;stroke:#474747;stroke-width:142;stroke-miterlimit:10;}
	.st9{fill:none;stroke:#585858;stroke-width:109;stroke-miterlimit:10;}
	.st10{fill:none;stroke:#F6E1B1;stroke-width:8;stroke-linecap:round;stroke-miterlimit:10;stroke-dasharray:0,0,30,45;}
	.st11{fill:#169148;}
</style>
<rect x="-0.26" y="440.92" class="st0" width="1998.51" height="199.26"/>
<path class="st1" d="M1999,83.72l5.6,202.45L-1.11,244.46L0,60.25c0,0,0.25,0.06,0.72,0.17C19.75,64.9,267.07,121.03,496,115.3
	c414-10.36,570.02-121.87,1000-115C1621.78,2.31,1794.23,19.05,1999,83.72"/>
<path class="st2" d="M496,115.3C267.07,121.03,19.75,64.9,0.72,60.42C0.25,60.31,0.01,60.25,0,60.25
	c24.87,7.96,50.99,14.84,76.27,21.36c66.44,16.7,134.51,30.1,202.38,40.08c25.6,3.68,53.33,7.03,79.07,9.65
	c12.14,1.36,39.58,3.35,51.73,4.37c12.91,0.7,31.09,1.63,43.98,2.25c15.02,0.23,33.14,0.83,48.13,0.79
	c138.14,0.47,276.54-15.88,412.08-42.1c28.08-5.26,80.24-15.51,108.47-21.02c35.78-6.92,71.88-13.64,107.78-19.67
	c81.57-13.81,164.79-23.32,247.42-28c124.65-7.2,249.94-5.08,373.99,10.76c82.96,10.19,166.24,26.21,247.7,45
	C1794.23,19.05,1621.78,2.31,1496,0.3C1066.02-6.57,910,104.94,496,115.3L496,115.3z"/>
<g>
	<path class="st3" d="M-2.26,640.18c61.65-55.79,418.49-118.29,588.73-115.98c229.09,3.1,383.42,26.23,607.82,29.87
		c215.23,3.49,398.13-20.56,573.64-7.37c84.21,3.62,198.11,26.85,230.33,48.04V482.32H-2.26V640.18z"/>
	<path class="st4" d="M-0.12,584.39c24.01-26.76,380.58-88.51,550.54-93.17c120.18-3.29,343.63,19.78,455.41,22.49
		c246.31,5.98,583.19-17.11,778.71,0c137.65,12.04,190.99,34.99,215.23,53.26l-1.52-116.62L2.52,431.47L-0.12,584.39z"/>
	<path class="st5" d="M-0.48,496.66c139.41-20.43,368.58-42.03,645.13-39.35c252.45,2.45,281.47,13.68,546.85,24.04
		c248.7,9.71,349.73-12.77,526.53-3.1c139.43,7.63,210.18,24.95,280.22,43.82l1.52-95.41L-1.48,431.47L-0.48,496.66z"/>
</g>
<g id="garage">
	<rect x="-0.26" y="183" class="st5" width="2004.86" height="257.92"/>
</g>
<g id="schedule_details_00000024693416307250350130000017355435975093155995_">
	<path class="st6" d="M543.76,283.74c4.42,0.3,7.87-3.68,7.09-8.04c-0.73-4.1-1.25-9.95-1.08-18.25
		c0.39-20.46,5.22-34.99,5.22-34.99s-10.52,5.3-20.03,15.1l0,0c-8.73-19.96-11.54-40.08-11.54-40.08s-8.33,28.14-9.47,55.11
		c-0.51,12.14,0.64,20.39,2.06,25.78c1.27,4.82,6.16,7.67,10.97,6.44c2.81-0.72,6.28-1.32,10.05-1.32c2.18,0,4.52,0.1,6.73,0.26
		L543.76,283.74z"/>
	<g>
		<path class="st7" d="M1407.95,297.43c0,0-2.06-31.23,6.79-52.76c5.25-12.78,14.56-23.69,21.75-30.81
			c2.99-2.97,8.91-1.01,8.52,2.82c-0.99,9.67-1.86,23.56-0.39,34.48c3.43,25.61,16.06,48.38,16.06,48.38"/>
		<path class="st7" d="M1430.55,283.47c0,0,10.32-13.38,23.56-19.14c6.95-3.02,15.27-4.38,21.89-4.98c3.93-0.35,7.05,3.35,4.63,5.53
			c-3.85,3.47-8.35,7.96-11.03,12.15c-3.83,5.97-5.7,13.14-6.61,18.68c-0.81,4.93-5.6,7.94-11.14,6.99
			c-6.31-1.09-14.26-2.24-20-2.26c-4.64-0.02-9.81,0.54-14.24,1.18c-6.92,1.02-14.39-2.59-18.24-8.78
			c-4.34-6.96-7.68-16.15-9.11-24.49c-1.64-9.56-0.8-19.04,1.59-25.37c1.05-2.8,6.41-2.47,8.05,0.49
			c3.53,6.37,8.83,15.07,14.57,21.45c13.94,15.48,37.89,28.2,37.89,28.2"/>
	</g>
	<path class="st8" d="M-29.61,338.09c18.64-1.7,262.85-25.63,502.27-25.05c249.11,0.6,584.98,33.85,860.77,33.85
		s658.1-30.75,681.67-32.5"/>
	<path class="st9" d="M-29.61,338.09c18.64-1.7,262.85-25.63,502.27-25.05c249.11,0.6,584.98,33.85,860.77,33.85
		s658.1-30.75,681.67-32.5"/>
	<path class="st10" d="M-16.11,339.13c18.64-1.7,262.85-25.63,502.27-25.05c249.11,0.6,584.98,33.85,860.77,33.85
		s658.1-30.75,681.67-32.5"/>
</g>
<g id="hero_hills">
	<g>
		<path class="st7" d="M144.75,410.86c0,0,24.5-15.49,38.08-35.87c5.6-8.41,10.55-20.12,13.78-28.73c1.51-4,7.19-3.92,8.54,0.12
			c3.06,9.17,6.37,22.59,5.42,35.87c-1.02,14.05-7.35,29.57-11.83,39.03c-2.36,4.96-7.98,7.49-13.23,5.92
			c-5.27-1.58-12.4-3.34-19.86-4.09c-6.03-0.6-15.16,0.49-21.84,1.53c-4.55,0.71-8.8-2.4-9.48-6.94c-1.2-8.15-3.83-20.75-9.28-31.22
			c-3.22-6.17-8.38-12.95-12.77-18.22c-2.76-3.31,0.26-8.21,4.47-7.32c7.11,1.52,16.09,4.27,23.76,9.23
			c14.6,9.45,26.7,29.31,26.7,29.31"/>
		<path class="st7" d="M188.3,418.26c0,0,1.93-36.13-6.39-61.03c-4.94-14.78-13.71-27.4-20.48-35.63c-2.81-3.43-8.39-1.16-8.02,3.26
			c0.92,11.2,1.74,27.26,0.37,39.88c-3.22,29.62-16.9,58.5-16.9,58.5"/>
	</g>
	<path class="st11" d="M949.57,381.68c-0.13,5.61-1.9,16.66-3.58,26.06c-0.72,4.01,2.58,7.55,6.64,7.21
		c2.24-0.19,4.57-0.28,6.95-0.28c5.22,0,10.13,0.47,14.45,1.28c3.01,0.57,6.02-0.84,7.54-3.5c3-5.28,5.68-11.13,7.15-16.97
		c4.87-19.19,0.22-34.81,0.22-34.81s-10.6,20.14-17.8,31.45c-1.03-9.32-2.93-19.76-6.38-28.83c-8.77-23.01-22.58-35.72-22.58-35.72
		s7.63,43.26,7.37,54.12L949.57,381.68z"/>
	<path class="st6" d="M1797.38,419.99c-4.23,0.85-8.28-2.33-8.4-6.64c-0.08-3.49-0.79-8.13-2.68-14.23
		c-5.09-16.39-14.54-26.42-14.54-26.42s14.72,0.54,29.14,5.08l0,0c6.76-19.23,5.87-36.49,5.87-36.49s17.01,19.77,24.49,41.17
		c3.89,11.13,3.35,21.26,1.93,28.42c-1.14,5.77-6.61,9.66-12.42,8.74c-3.35-0.54-7.32-0.98-11.37-0.98c-4.02,0-8.29,0.61-12.04,1.36
		H1797.38z"/>
</g>
</svg>
