<?xml version="1.0" encoding="UTF-8"?>
<svg id="schedule_details" data-name="schedule details" xmlns="http://www.w3.org/2000/svg" xmlns:xlink="http://www.w3.org/1999/xlink" viewBox="0 0 1882 380.5">
  <defs>
    <style>
      .cls-1 {
        clip-path: url(#clippath);
      }

      .cls-2 {
        fill: none;
      }

      .cls-2, .cls-3, .cls-4, .cls-5, .cls-6, .cls-7 {
        stroke-width: 0px;
      }

      .cls-3 {
        fill: #fff;
        isolation: isolate;
        opacity: .07;
      }

      .cls-4 {
        fill: #797979;
      }

      .cls-5 {
        fill: #8a8a8a;
      }

      .cls-6 {
        fill: #ffe9b8;
      }

      .cls-7 {
        fill: #66c945;
      }
    </style>
    <clipPath id="clippath">
      <path class="cls-2" d="m-15.19,360.92L-3.56,73.94C113.97,47.33,355.06,1.34,677.54-.1c364.35-1.63,706.54,62.12,823.27,90.37l-37.48,278.73L-15.19,360.92Z"/>
    </clipPath>
  </defs>
  <g>
    <path class="cls-7" d="m-15.19,360.92L-3.56,73.94C113.97,47.33,355.06,1.34,677.54-.1c364.35-1.63,706.54,62.12,823.27,90.37l-37.48,278.73L-15.19,360.92Z"/>
    <g class="cls-1">
      <g>
        <path class="cls-4" d="m880.81,131c-5.93-4.92-35.49-32.66-35.39-96.01.04-23.61,5.4-45.97,15.53-64.66,8-14.77,16.63-22.93,19.08-25.09l47.16,62.93c.86-.76,1.23-1.15,1.24-1.15-.33.36-8.07,8.89-8.1,28.1-.04,24.03,12.16,39.5,12.49,39.87-.02-.02-.7,3.08-2,2l-50,54h-.01Z"/>
        <path class="cls-5" d="m886.88,122.43c-2.28-1.9-10.31-9.2-17.7-23.62-9.18-17.92-13.82-39.39-13.78-63.8.08-52.83,27.75-78.61,30.91-81.37L920.89-.21s.23-.18.62-.57c-.46.46-11.15,11.43-11.19,35.89-.04,29.55,10.46,40.54,10.93,41.02-.02-.02-.31-.31-.94-.83l-33.43,47.14h0Z"/>
        <path class="cls-6" d="m898.63,95.94c-.73,0-1.46-.35-1.95-1.01-2.07-2.8-4-5.95-5.75-9.38-.66-1.31-.23-2.95.98-3.67,1.21-.72,2.73-.24,3.39,1.06,1.61,3.16,3.38,6.06,5.27,8.61.86,1.16.69,2.86-.39,3.8-.46.4-1.01.59-1.56.59h.01Zm-11.81-25.62c-1.08,0-2.08-.77-2.4-1.95-.93-3.45-1.71-7.08-2.32-10.79-.24-1.47.66-2.87,2.02-3.13,1.36-.27,2.65.72,2.9,2.18.58,3.52,1.32,6.96,2.2,10.23.39,1.43-.37,2.93-1.7,3.35-.23.07-.47.11-.7.11Zm-3.91-28.4c-1.35,0-2.46-1.16-2.49-2.62-.03-1.31-.05-2.64-.05-4v-.23c0-2.29.07-4.58.21-6.81.09-1.49,1.27-2.6,2.65-2.52,1.38.1,2.42,1.38,2.33,2.87-.13,2.12-.19,4.3-.2,6.47v.23c0,1.31.02,2.59.05,3.85.04,1.49-1.05,2.73-2.43,2.77h-.07Zm2.79-28.53c-.21,0-.43-.03-.64-.09-1.33-.38-2.13-1.86-1.78-3.3.88-3.63,1.98-7.18,3.26-10.57.52-1.38,1.98-2.04,3.26-1.48,1.28.57,1.89,2.14,1.36,3.52-1.2,3.17-2.23,6.5-3.06,9.9-.3,1.21-1.31,2.01-2.41,2.01h.01Zm11.23-25.93c-.51,0-1.03-.17-1.48-.53-1.11-.88-1.35-2.57-.53-3.78,3.84-5.64,6.98-8.42,7.11-8.53,1.07-.94,2.64-.76,3.51.4s.7,2.86-.36,3.8c-.08.07-2.84,2.56-6.23,7.54-.49.72-1.25,1.1-2.01,1.1h-.01Z"/>
      </g>
    </g>
  </g>
  <path class="cls-3" d="m677.54-.1C355.06,1.34,110.34,48.39-7.19,75,.98,111.09-3.19,154-3.19,154c29.58-8.29,75.36-23.88,105.34-31.12,29.47-7.18,60.77-14.12,90.44-20.32C436.64,52.21,687.41,31.03,936.6,36.72c188.82,5.02,378,20.37,564.21,53.55C1384.08,62.02,1041.89-1.73,677.54-.1Z"/>
</svg>