<?xml version="1.0" encoding="utf-8"?>
<!-- Generator: Adobe Illustrator 27.9.4, SVG Export Plug-In . SVG Version: 9.03 Build 54784)  -->
<svg version="1.1" xmlns="http://www.w3.org/2000/svg" xmlns:xlink="http://www.w3.org/1999/xlink" x="0px" y="0px"
	 viewBox="0 0 1882 380.5" style="enable-background:new 0 0 1882 380.5;" xml:space="preserve">
<style type="text/css">
	.st0{fill:#66C945;}
	
		.st1{clip-path:url(#SVGID_00000032630942036272667610000006569320729775191450_);fill:none;stroke:#797979;stroke-width:77;stroke-miterlimit:10;}
	
		.st2{clip-path:url(#SVGID_00000032630942036272667610000006569320729775191450_);fill:none;stroke:#8A8A8A;stroke-width:60;stroke-miterlimit:10;}
	
		.st3{clip-path:url(#SVGID_00000032630942036272667610000006569320729775191450_);fill:none;stroke:#FFE9B8;stroke-width:5;stroke-linecap:round;stroke-miterlimit:10;stroke-dasharray:11,18;}
	.st4{opacity:0.07;fill:#FFFFFF;enable-background:new    ;}
</style>
<g id="schedule_details">
	<g>
		<path class="st0" d="M-15.19,360.92L-3.56,73.94C113.97,47.33,355.06,1.34,677.54-0.1c364.35-1.63,706.54,62.12,823.27,90.37
			L1463.33,369L-15.19,360.92z"/>
		<g>
			<defs>
				<path id="SVGID_1_" d="M-15.19,360.92L-3.56,73.94C113.97,47.33,355.06,1.34,677.54-0.1c364.35-1.63,706.54,62.12,823.27,90.37
					L1463.33,369L-15.19,360.92z"/>
			</defs>
			<clipPath id="SVGID_00000124873175944122684230000003675017910897845121_">
				<use xlink:href="#SVGID_1_"  style="overflow:visible;"/>
			</clipPath>
			
				<path style="clip-path:url(#SVGID_00000124873175944122684230000003675017910897845121_);fill:none;stroke:#797979;stroke-width:77;stroke-miterlimit:10;" d="
				M887.48,2.2c0,0-16.42,107.53,63.43,163.75c74.14,52.2,47.59,151.06,47.59,151.06"/>
			
				<path style="clip-path:url(#SVGID_00000124873175944122684230000003675017910897845121_);fill:none;stroke:#8A8A8A;stroke-width:60;stroke-miterlimit:10;" d="
				M887.48,2.2c0,0-16.42,107.53,63.43,163.75c74.14,52.2,47.59,151.06,47.59,151.06"/>
			
				<path style="clip-path:url(#SVGID_00000124873175944122684230000003675017910897845121_);fill:none;stroke:#FFE9B8;stroke-width:5;stroke-linecap:round;stroke-miterlimit:10;stroke-dasharray:11,18;" d="
				M887.48,2.2c0,0-16.42,107.53,63.43,163.75c74.14,52.2,47.59,151.06,47.59,151.06"/>
		</g>
	</g>
	<path class="st4" d="M677.54-0.1C355.06,1.34,110.34,48.39-7.19,75c8.17,36.09,4,79,4,79c29.58-8.29,75.36-23.88,105.34-31.12
		c29.47-7.18,60.77-14.12,90.44-20.32C436.64,52.21,687.41,31.03,936.6,36.72c188.82,5.02,378,20.37,564.21,53.55
		C1384.08,62.02,1041.89-1.73,677.54-0.1z"/>
</g>
<g id="Layer_2">
</g>
</svg>
