<?xml version="1.0" encoding="UTF-8"?>
<svg id="schedule_details" data-name="schedule details" xmlns="http://www.w3.org/2000/svg" xmlns:xlink="http://www.w3.org/1999/xlink" viewBox="0 0 1882 380.5">
  <defs>
    <style>
      .cls-1 {
        opacity: .07;
      }

      .cls-1, .cls-2 {
        fill: #fff;
      }

      .cls-1, .cls-2, .cls-3, .cls-4, .cls-5, .cls-6, .cls-7, .cls-8, .cls-9, .cls-10, .cls-11, .cls-12, .cls-13, .cls-14 {
        stroke-width: 0px;
      }

      .cls-15 {
        clip-path: url(#clippath);
      }

      .cls-16, .cls-14 {
        fill: #66c945;
      }

      .cls-17, .cls-9 {
        fill: #1daa45;
      }

      .cls-18, .cls-8 {
        fill: #35b73e;
      }

      .cls-19 {
        clip-path: url(#clippath-1);
      }

      .cls-20 {
        clip-path: url(#clippath-2);
      }

      .cls-2 {
        opacity: .05;
      }

      .cls-3 {
        fill: #616161;
      }

      .cls-4 {
        fill: #5e5e5e;
      }

      .cls-5 {
        fill: #797979;
      }

      .cls-6 {
        fill: #505050;
      }

      .cls-7 {
        fill: #6f6f6f;
      }

      .cls-10 {
        fill: #8a8a8a;
      }

      .cls-11 {
        fill: #ffe9b8;
      }

      .cls-12 {
        fill: #f1dcae;
      }

      .cls-13 {
        fill: #019e44;
      }
    </style>
    <clipPath id="clippath">
      <path class="cls-14" d="m-15.19,360.92L-3.56,73.94C113.97,47.33,355.06,1.34,677.54-.1c364.35-1.63,706.54,62.12,823.27,90.37l-37.48,278.73L-15.19,360.92Z"/>
    </clipPath>
    <clipPath id="clippath-1">
      <path class="cls-8" d="m1973.81,151.21c0-.15-247.75-89.81-626.58-97.16-456.31-8.85-799.84,84.55-884.42,109.14l30.56,236.81h1480.44v-248.79Z"/>
    </clipPath>
    <clipPath id="clippath-2">
      <path class="cls-9" d="m-32.19,470.53l-21.1-236.16c110.1-41.14,338.75-92.95,643.4-92.76,409.7.25,744.7,74.48,891.7,136.54l-91,193.84-1423-1.47Z"/>
    </clipPath>
  </defs>
  <g>
    <path class="cls-16" d="m-15.19,360.92L-3.56,73.94C113.97,47.33,355.06,1.34,677.54-.1c364.35-1.63,706.54,62.12,823.27,90.37l-37.48,278.73L-15.19,360.92Z"/>
    <g class="cls-15">
      <path class="cls-5" d="m880.81,131c-5.93-4.92-35.49-32.66-35.39-96.01.04-23.61,5.4-45.97,15.53-64.66,8-14.77,16.63-22.93,19.08-25.09l47.16,62.93c.86-.76,1.23-1.15,1.24-1.15-.33.36-8.07,8.89-8.1,28.1-.04,24.03,12.16,39.5,12.49,39.87-.02-.02-.7,3.08-2,2l-50,54Z"/>
      <path class="cls-10" d="m886.88,122.43c-2.28-1.9-10.31-9.2-17.7-23.62-9.18-17.92-13.82-39.39-13.78-63.8.08-52.83,27.75-78.61,30.91-81.37L920.89-.21s.23-.18.62-.57c-.46.46-11.15,11.43-11.19,35.89-.04,29.55,10.46,40.54,10.93,41.02-.02-.02-.31-.31-.94-.83l-33.43,47.14Z"/>
      <path class="cls-11" d="m898.63,95.94c-.73,0-1.46-.35-1.95-1.01-2.07-2.8-4-5.95-5.75-9.38-.66-1.31-.23-2.95.98-3.67,1.21-.72,2.73-.24,3.39,1.06,1.61,3.16,3.38,6.06,5.27,8.61.86,1.16.69,2.86-.39,3.8-.46.4-1.01.59-1.56.59Zm-11.81-25.62c-1.08,0-2.08-.77-2.4-1.95-.93-3.45-1.71-7.08-2.32-10.79-.24-1.47.66-2.87,2.02-3.13,1.36-.27,2.65.72,2.9,2.18.58,3.52,1.32,6.96,2.2,10.23.39,1.43-.37,2.93-1.7,3.35-.23.07-.47.11-.7.11Zm-3.91-28.4c-1.35,0-2.46-1.16-2.49-2.62-.03-1.31-.05-2.64-.05-4v-.23c0-2.29.07-4.58.21-6.81.09-1.49,1.27-2.6,2.65-2.52,1.38.1,2.42,1.38,2.33,2.87-.13,2.12-.19,4.3-.2,6.47v.23c0,1.31.02,2.59.05,3.85.04,1.49-1.05,2.73-2.43,2.77-.02,0-.05,0-.07,0Zm2.79-28.53c-.21,0-.43-.03-.64-.09-1.33-.38-2.13-1.86-1.78-3.3.88-3.63,1.98-7.18,3.26-10.57.52-1.38,1.98-2.04,3.26-1.48,1.28.57,1.89,2.14,1.36,3.52-1.2,3.17-2.23,6.5-3.06,9.9-.3,1.21-1.31,2.01-2.41,2.01Zm11.23-25.93c-.51,0-1.03-.17-1.48-.53-1.11-.88-1.35-2.57-.53-3.78,3.84-5.64,6.98-8.42,7.11-8.53,1.07-.94,2.64-.76,3.51.4.87,1.16.7,2.86-.36,3.8-.08.07-2.84,2.56-6.23,7.54-.49.72-1.25,1.1-2.01,1.1Z"/>
    </g>
  </g>
  <path class="cls-1" d="m677.54-.1C355.06,1.34,110.34,48.39-7.19,75,.98,111.09-3.19,154-3.19,154c29.58-8.29,75.36-23.88,105.34-31.12,29.47-7.18,60.77-14.12,90.44-20.32C436.64,52.21,687.41,31.03,936.6,36.72c188.82,5.02,378,20.37,564.21,53.55C1384.08,62.02,1041.89-1.73,677.54-.1Z"/>
  <g>
    <path class="cls-18" d="m1973.81,151.21c0-.15-247.75-89.81-626.58-97.16-456.31-8.85-799.84,84.55-884.42,109.14l30.56,236.81h1480.44v-248.79Z"/>
    <g class="cls-19">
      <path class="cls-4" d="m909.34,284l-27.17-99.72c-3.83,1.04-5.09,1.85-5.15,1.89,3.37-2.23,11.45-15.43,8.38-49.25-3.64-40.12-29.97-63.86-31.09-64.85.35.31.54.46.54.46L921.09-6.82c6.1,5.09,59.79,52.12,67.25,134.41,9.41,103.91-45.23,147.21-79.01,156.41Z"/>
      <path class="cls-7" d="m905.71,270.7l-19.92-73.13c-1.6.44-2.27.73-2.28.74,7.08-3.17,19.45-20.35,15.62-62.64-4.17-46.03-34.44-72.85-35.73-73.97l.28.24,48.58-58.18c2.48,2.07,15.56,13.44,29.35,33.72,18.66,27.46,30.08,59.05,33,91.35,4.22,46.63-4.34,83.95-25.46,110.92-17.66,22.55-37.72,29.4-43.45,30.96Z"/>
      <path class="cls-11" d="m874.29,235.73c-.78,0-1.37-.22-2.01-.7l2.08-2.75-.6-3.39s1.27-.23,3.46-.85c1.83-.52,3.73.55,4.25,2.38.51,1.83-.55,3.73-2.38,4.25-2.34.66-3.74,1.05-4.8,1.05Zm24.89-10.12c-1.17,0-2.3-.59-2.95-1.66-.99-1.63-.46-3.75,1.16-4.73,3.81-2.31,7.41-4.91,10.69-7.74,1.44-1.24,3.62-1.08,4.86.36,1.24,1.44,1.08,3.62-.36,4.86-3.57,3.08-7.48,5.91-11.62,8.42-.56.34-1.17.5-1.78.5Zm26.04-25.44c-.62,0-1.25-.17-1.82-.52-1.61-1.01-2.11-3.13-1.1-4.75,2.29-3.67,4.27-7.62,5.91-11.73.7-1.77,2.71-2.63,4.47-1.93,1.77.7,2.63,2.71,1.93,4.47-1.79,4.49-3.96,8.81-6.46,12.83-.65,1.05-1.78,1.62-2.93,1.62Zm11.74-34.47c-.14,0-.28,0-.42-.03-1.89-.23-3.23-1.95-3-3.84.51-4.21.77-8.63.77-13.15v-.16c0-1.9,1.54-3.45,3.44-3.45s3.45,1.54,3.45,3.45v.09c0,4.87-.28,9.57-.83,14.06-.21,1.75-1.7,3.03-3.41,3.03Zm-1.19-36.58c-1.64,0-3.09-1.18-3.39-2.85-.77-4.33-1.83-8.68-3.17-12.94-.57-1.81.44-3.75,2.26-4.32,1.82-.57,3.75.44,4.32,2.26,1.43,4.54,2.56,9.18,3.38,13.8.33,1.87-.92,3.66-2.79,3.99-.2.04-.41.05-.61.05Zm-12.29-34.45c-1.22,0-2.4-.65-3.03-1.79-2.1-3.84-4.47-7.68-7.05-11.43-1.08-1.57-.68-3.71.89-4.79,1.57-1.08,3.71-.68,4.79.89,2.71,3.94,5.2,7.99,7.42,12.03.91,1.67.3,3.76-1.37,4.68-.52.29-1.09.42-1.65.42Zm-21.64-29.61c-.92,0-1.84-.37-2.52-1.1-3.02-3.24-6.25-6.45-9.6-9.53-1.4-1.29-1.49-3.47-.2-4.87,1.29-1.4,3.47-1.49,4.87-.2,3.48,3.2,6.83,6.53,9.98,9.9,1.3,1.39,1.22,3.57-.17,4.87-.66.62-1.51.92-2.35.92Zm-27.63-24.22c-.69,0-1.4-.21-2-.64-6.68-4.79-11.2-7.32-11.25-7.35-1.66-.93-2.26-3.02-1.33-4.69.93-1.66,3.02-2.26,4.68-1.34.2.11,4.88,2.73,11.91,7.77,1.55,1.11,1.9,3.26.79,4.81-.67.94-1.73,1.44-2.8,1.44Z"/>
    </g>
  </g>
  <path class="cls-1" d="m1973.61,151.13c-7.87-2.96-253.69-89.86-626.38-97.09-456.31-8.85-799.84,84.55-884.42,109.14,10.33,35.53,20.66,71.06,20.66,71.06,28.94-10.01,58.43-19.35,88.18-28.18,240.86-70.55,491.12-109.67,741.97-120.06,189.76-7.69,380.97,4.46,567.33,42.55,31.11,6.53,62.37,13.61,92.86,22.66-.07-.03-.13-.05-.2-.08Z"/>
  <g>
    <path class="cls-17" d="m-32.19,470.53l-21.1-236.16c110.1-41.14,338.75-92.95,643.4-92.76,409.7.25,744.7,74.48,891.7,136.54l-91,193.84-1423-1.47Z"/>
    <g class="cls-20">
      <path class="cls-6" d="m933.75,584.04c-11.7-7.2-114.96-75.59-135.71-257.04-19.62-171.54,52.03-266.04,60.27-276.25l120.32,97.04s.38-.43,1.03-1.32c-1.65,2.25-40.25,56.27-28.05,162.97,12.11,105.9,62.81,142.61,64.97,144.12-1.17-.82-1.84-1.18-1.84-1.18l-80.99,131.66Z"/>
      <path class="cls-3" d="m944.55,566.48c-5.04-3.1-31.58-20.51-59.49-58.99-35.44-48.87-58.45-112.09-66.54-182.83-7.72-67.53-1.33-132.87,18.51-188.95,15.42-43.62,33.8-67.65,37.33-72.03l88.24,71.16s.19-.22.54-.69c-1.86,2.46-45.27,61.5-31.99,177.62,13.36,116.78,71.3,157.1,73.76,158.76-.62-.42-.96-.61-.96-.61l-59.39,96.55Z"/>
      <path class="cls-12" d="m974.49,525.4c-2.23,0-6.28-2.11-17.78-12.46-2.12-1.91-2.28-5.16-.38-7.28,1.91-2.11,5.17-2.28,7.28-.38,8.02,7.22,13.28,10.5,13.33,10.53l-2.7,4.37v.02s2.11,4.71,2.11,4.71c-.55.24-1.1.49-1.85.49Zm-37.69-36.29c-1.52,0-3.03-.67-4.05-1.96-4.26-5.4-8.41-11.14-12.32-17.06-1.57-2.38-.91-5.57,1.46-7.14,2.38-1.57,5.57-.91,7.14,1.46,3.75,5.68,7.72,11.18,11.81,16.35,1.76,2.23,1.38,5.47-.85,7.24-.95.75-2.07,1.11-3.19,1.11Zm-29.1-46.51c-1.9,0-3.73-1.06-4.62-2.88-3.03-6.15-5.93-12.58-8.6-19.11-1.08-2.63.18-5.64,2.81-6.72,2.64-1.08,5.64.18,6.72,2.81,2.58,6.31,5.38,12.52,8.31,18.46,1.26,2.55.21,5.64-2.34,6.9-.73.36-1.51.53-2.27.53Zm-19.77-51.19c-2.23,0-4.28-1.46-4.94-3.71-1.93-6.57-3.71-13.37-5.3-20.21-.64-2.77,1.08-5.54,3.85-6.18,2.78-.65,5.54,1.08,6.18,3.85,1.54,6.65,3.28,13.26,5.15,19.64.8,2.73-.76,5.59-3.5,6.39-.48.14-.97.21-1.45.21Zm-11.52-53.67c-2.52,0-4.72-1.85-5.09-4.42-.59-4.1-1.13-8.31-1.61-12.52-.31-2.76-.6-5.48-.86-8.18-.27-2.83,1.8-5.35,4.63-5.63,2.85-.24,5.35,1.8,5.63,4.63.25,2.64.54,5.31.84,8,.47,4.11,1,8.22,1.57,12.22.4,2.82-1.55,5.43-4.37,5.83-.25.04-.49.05-.74.05Zm-4.4-54.74c-2.81,0-5.1-2.25-5.15-5.07-.04-2.33-.06-4.64-.06-6.92,0-4.67.08-9.37.24-13.95.1-2.84,2.41-5.05,5.33-4.97,2.84.1,5.07,2.48,4.97,5.33-.15,4.46-.23,9.03-.23,13.59,0,2.23.02,4.48.06,6.75.05,2.85-2.22,5.19-5.07,5.24h-.09Zm2.93-54.82c-.22,0-.44-.01-.66-.04-2.82-.36-4.82-2.94-4.46-5.76.89-6.96,1.98-13.91,3.26-20.66.53-2.79,3.21-4.63,6.02-4.11,2.8.53,4.63,3.22,4.11,6.02-1.24,6.55-2.3,13.29-3.16,20.05-.33,2.6-2.55,4.5-5.1,4.5Zm11.35-53.71c-.49,0-1-.07-1.5-.22-2.72-.83-4.26-3.7-3.44-6.43,2.05-6.76,4.33-13.44,6.79-19.85,1.02-2.66,4-3.99,6.65-2.97,2.66,1.02,3.99,4,2.97,6.65-2.37,6.18-4.57,12.63-6.55,19.15-.67,2.23-2.72,3.66-4.93,3.66Zm21.06-50.67c-.85,0-1.7-.21-2.5-.65-2.49-1.38-3.38-4.52-2-7.01,6.55-11.8,11.4-17.86,11.6-18.11,1.78-2.21,5.03-2.56,7.25-.77,2.21,1.78,2.56,5.03.78,7.24h0c-.05.06-4.55,5.71-10.62,16.65-.94,1.7-2.7,2.65-4.51,2.65Z"/>
    </g>
  </g>
  <path class="cls-1" d="m1439.28,262.36c-5.06-1.98-10.13-3.94-15.21-5.87-166.98-56.42-471.18-114.65-833.96-114.87-304.03-.19-532.36,51.41-642.72,92.51l10.43,101.4s37.99-14.53,37.99-14.53c15.79-6.1,19.72-7.93,35.91-13.1,33.17-10.85,67-20.54,100.9-28.92,231.82-57.86,492.19-84.98,730.04-92.39,193.51-6.03,388.31,26.95,575.08,80.13,14.37,4.35,28.66,8.98,42.83,14.05l.15-.31c-13.63-6.39-27.48-12.38-41.44-18.1Z"/>
  <path class="cls-13" d="m1432.81,244.36c-429.98-6.87-586,104.64-1000,115-228.93,5.73-476.25-50.4-495.28-54.88-.47-.11-.72-.17-.72-.17,0,137.09,32-6.42,32,130.67l1991,.66c-14.33-120.87-9.67,13-24-107.86-204.77-64.67-377.22-81.41-503-83.42Z"/>
  <path class="cls-2" d="m432.81,359.36c-228.93,5.73-476.25-50.4-495.28-54.88-.47-.11-.71-.17-.72-.17,24.87,7.96,50.99,14.84,76.27,21.36,66.44,16.7,134.51,30.1,202.38,40.08,25.6,3.68,53.33,7.03,79.07,9.65,12.14,1.36,39.58,3.35,51.73,4.37,12.91.7,31.09,1.63,43.98,2.25,15.02.23,33.14.83,48.13.79,138.14.47,276.54-15.88,412.08-42.1,28.08-5.26,80.24-15.51,108.47-21.02,35.78-6.92,71.88-13.64,107.78-19.67,81.57-13.81,164.79-23.32,247.42-28,124.65-7.2,249.94-5.08,373.99,10.76,82.96,10.19,166.24,26.21,247.7,45-204.77-64.67-377.22-81.41-503-83.42-429.98-6.87-586,104.64-1000,115Z"/>
</svg>