<?xml version="1.0" encoding="utf-8"?>
<!-- Generator: Adobe Illustrator 27.9.4, SVG Export Plug-In . SVG Version: 9.03 Build 54784)  -->
<svg version="1.1" id="schedule_details" xmlns="http://www.w3.org/2000/svg" xmlns:xlink="http://www.w3.org/1999/xlink" x="0px"
	 y="0px" viewBox="0 0 2023 227.97" style="enable-background:new 0 0 2023 227.97;" xml:space="preserve">
<style type="text/css">
	.st0{fill:#019E44;}
	.st1{opacity:0.05;fill:#FFFFFF;enable-background:new    ;}
	.st2{fill:#3BB241;}
	.st3{fill:#0CA84B;}
	.st4{fill:#0A9E46;}
</style>
<path class="st0" d="M1999,83.72l5.6,202.45L1.89,244.46L0,60.25c0,0,0.25,0.06,0.72,0.17C19.75,64.9,267.07,121.03,496,115.3
	c414-10.36,570.02-121.87,1000-115C1621.78,2.31,1794.23,19.05,1999,83.72"/>
<path class="st1" d="M496,115.3C267.07,121.03,19.75,64.9,0.72,60.42C0.25,60.31,0.01,60.25,0,60.25
	c24.87,7.96,50.99,14.84,76.27,21.36c66.44,16.7,134.51,30.1,202.38,40.08c25.6,3.68,53.33,7.03,79.07,9.65
	c12.14,1.36,39.58,3.35,51.73,4.37c12.91,0.7,31.09,1.63,43.98,2.25c15.02,0.23,33.14,0.83,48.13,0.79
	c138.14,0.47,276.54-15.88,412.08-42.1c28.08-5.26,80.24-15.51,108.47-21.02c35.78-6.92,71.88-13.64,107.78-19.67
	c81.57-13.81,164.79-23.32,247.42-28c124.65-7.2,249.94-5.08,373.99,10.76c82.96,10.19,166.24,26.21,247.7,45
	C1794.23,19.05,1621.78,2.31,1496,0.3C1066.02-6.57,910,104.94,496,115.3L496,115.3z"/>
<path class="st2" d="M97.63,376.77c24.01-26.76,318.71-70.18,488.95-67.87c229.09,3.1,383.42,26.23,607.82,29.87
	c215.23,3.49,398.13-20.56,573.64-7.37c138.4,10.4,212.33,35.81,268.75,54.67L2011.84,267L16.33,271.24L97.63,376.77z"/>
<path class="st3" d="M56.56,369.09c24.01-26.76,324.02-88.51,493.98-93.17c120.18-3.29,343.63,19.78,455.41,22.49
	c246.31,5.98,583.19-17.11,778.71,0c137.65,12.04,195.99,36.19,245.45,55.76l-24.94-119.07L13.87,220.8L56.56,369.09z"/>
<path class="st4" d="M2.64,281.36c139.41-20.43,365.58-42.03,642.13-39.35c252.45,2.45,281.47,13.68,546.85,24.04
	c248.7,9.71,349.73-12.77,526.53-3.1c139.43,7.63,232.02,24.95,302.06,43.82l-20.32-95.41L2.64,216.17V281.36z"/>
</svg>
