<?xml version="1.0" encoding="UTF-8"?>
<svg id="schedule_details" data-name="schedule details" xmlns="http://www.w3.org/2000/svg" xmlns:xlink="http://www.w3.org/1999/xlink" viewBox="0 0 1511 406.82">
  <defs>
    <style>
      .cls-1 {
        clip-path: url(#clippath);
      }

      .cls-2 {
        fill: none;
      }

      .cls-2, .cls-3, .cls-4, .cls-5, .cls-6, .cls-7 {
        stroke-width: 0px;
      }

      .cls-3 {
        fill: #fff;
        isolation: isolate;
        opacity: .07;
      }

      .cls-4 {
        fill: #5e5e5e;
      }

      .cls-5 {
        fill: #6f6f6f;
      }

      .cls-6 {
        fill: #35b73e;
      }

      .cls-7 {
        fill: #ffe9b8;
      }
    </style>
    <clipPath id="clippath">
      <path class="cls-2" d="m1511,158.03c0-.15-247.75-89.81-626.58-97.16C428.11,52.02,84.58,145.42,0,170.01l30.56,236.81h1480.44v-248.79h0Z"/>
    </clipPath>
  </defs>
  <g>
    <path class="cls-6" d="m1511,158.03c0-.15-247.75-89.81-626.58-97.16C428.11,52.02,84.58,145.42,0,170.01l30.56,236.81h1480.44v-248.79h0Z"/>
    <g class="cls-1">
      <g>
        <path class="cls-4" d="m446.53,290.82l-27.17-99.72c-3.83,1.04-5.09,1.85-5.15,1.89,3.37-2.23,11.45-15.43,8.38-49.25-3.64-40.12-29.97-63.86-31.09-64.85.35.31.54.46.54.46L458.28,0c6.1,5.09,59.79,52.12,67.25,134.41,9.41,103.91-45.23,147.21-79.01,156.41h.01Z"/>
        <path class="cls-5" d="m442.9,277.52l-19.92-73.13c-1.6.44-2.27.73-2.28.74,7.08-3.17,19.45-20.35,15.62-62.64-4.17-46.03-34.44-72.85-35.73-73.97l.28.24,48.58-58.18c2.48,2.07,15.56,13.44,29.35,33.72,18.66,27.46,30.08,59.05,33,91.35,4.22,46.63-4.34,83.95-25.46,110.92-17.66,22.55-37.72,29.4-43.45,30.96h.01Z"/>
        <path class="cls-7" d="m411.48,242.55c-.78,0-1.37-.22-2.01-.7l2.08-2.75-.6-3.39s1.27-.23,3.46-.85c1.83-.52,3.73.55,4.25,2.38.51,1.83-.55,3.73-2.38,4.25-2.34.66-3.74,1.05-4.8,1.05h0Zm24.89-10.12c-1.17,0-2.3-.59-2.95-1.66-.99-1.63-.46-3.75,1.16-4.73,3.81-2.31,7.41-4.91,10.69-7.74,1.44-1.24,3.62-1.08,4.86.36s1.08,3.62-.36,4.86c-3.57,3.08-7.48,5.91-11.62,8.42-.56.34-1.17.5-1.78.5h0Zm26.04-25.44c-.62,0-1.25-.17-1.82-.52-1.61-1.01-2.11-3.13-1.1-4.75,2.29-3.67,4.27-7.62,5.91-11.73.7-1.77,2.71-2.63,4.47-1.93,1.77.7,2.63,2.71,1.93,4.47-1.79,4.49-3.96,8.81-6.46,12.83-.65,1.05-1.78,1.62-2.93,1.62h0Zm11.74-34.47c-.14,0-.28,0-.42-.03-1.89-.23-3.23-1.95-3-3.84.51-4.21.77-8.63.77-13.15v-.16c0-1.9,1.54-3.45,3.44-3.45s3.45,1.54,3.45,3.45v.09c0,4.87-.28,9.57-.83,14.06-.21,1.75-1.7,3.03-3.41,3.03h0Zm-1.19-36.58c-1.64,0-3.09-1.18-3.39-2.85-.77-4.33-1.83-8.68-3.17-12.94-.57-1.81.44-3.75,2.26-4.32s3.75.44,4.32,2.26c1.43,4.54,2.56,9.18,3.38,13.8.33,1.87-.92,3.66-2.79,3.99-.2.04-.41.05-.61.05h0Zm-12.29-34.45c-1.22,0-2.4-.65-3.03-1.79-2.1-3.84-4.47-7.68-7.05-11.43-1.08-1.57-.68-3.71.89-4.79s3.71-.68,4.79.89c2.71,3.94,5.2,7.99,7.42,12.03.91,1.67.3,3.76-1.37,4.68-.52.29-1.09.42-1.65.42h0Zm-21.64-29.61c-.92,0-1.84-.37-2.52-1.1-3.02-3.24-6.25-6.45-9.6-9.53-1.4-1.29-1.49-3.47-.2-4.87,1.29-1.4,3.47-1.49,4.87-.2,3.48,3.2,6.83,6.53,9.98,9.9,1.3,1.39,1.22,3.57-.17,4.87-.66.62-1.51.92-2.35.92h-.01Zm-27.63-24.22c-.69,0-1.4-.21-2-.64-6.68-4.79-11.2-7.32-11.25-7.35-1.66-.93-2.26-3.02-1.33-4.69.93-1.66,3.02-2.26,4.68-1.34.2.11,4.88,2.73,11.91,7.77,1.55,1.11,1.9,3.26.79,4.81-.67.94-1.73,1.44-2.8,1.44h0Z"/>
      </g>
    </g>
  </g>
  <path class="cls-3" d="m1510.8,157.95c-7.87-2.96-253.69-89.86-626.38-97.09C428.11,52.01,84.58,145.41,0,170c10.33,35.53,20.66,71.06,20.66,71.06,28.94-10.01,58.43-19.35,88.18-28.18,240.86-70.55,491.12-109.67,741.97-120.06,189.76-7.69,380.97,4.46,567.33,42.55,31.11,6.53,62.37,13.61,92.86,22.66-.07-.03-.13-.05-.2-.08Z"/>
</svg>