<?xml version="1.0" encoding="UTF-8"?>
<svg id="schedule_hills" data-name="schedule hills" xmlns="http://www.w3.org/2000/svg" viewBox="0 0 1920 192">
  <defs>
    <style>
      .cls-1 {
        fill: #3bb241;
      }

      .cls-1, .cls-2, .cls-3 {
        stroke-width: 0px;
      }

      .cls-2 {
        fill: #0a9e46;
      }

      .cls-3 {
        fill: #0ca84b;
      }
    </style>
  </defs>
  <path class="cls-1" d="m-1.73,181.25c24.33-30.92,322.9-81.09,495.37-78.42,232.1,3.58,388.46,30.3,615.81,34.51,218.06,4.03,403.36-23.75,581.18-8.51,140.22,12.02,215.12,41.38,286.08,63.19l-25.27-137.57L-84.09,59.32-1.73,181.25Z"/>
  <path class="cls-3" d="m-1.44,143.6c24.33-30.92,286.38-73.49,458.58-78.87,121.76-3.8,348.15,22.85,461.39,25.99,249.55,6.91,590.85-19.76,788.94,0,139.46,13.91,198.57,41.83,269.53,63.63l-25.27-137.57L-83.8,21.68-1.44,143.6Z"/>
  <path class="cls-2" d="m-110,69.21C43.28,46.27,272.42,21.31,552.6,24.4c255.77,2.83,285.17,15.81,554.04,27.78,251.97,11.23,354.33-14.76,533.45-3.58,141.26,8.81,235.07,28.83,306.03,50.64l-20.59-110.24L-110-6.1v75.32Z"/>
</svg>