<?xml version="1.0" encoding="UTF-8"?>
<svg xmlns="http://www.w3.org/2000/svg" viewBox="0 0 1920 226.5">
  <defs>
    <style>
      .cls-1 {
        stroke: #f6e1b1;
        stroke-dasharray: 0 0 30 45;
        stroke-linecap: round;
        stroke-width: 8px;
      }

      .cls-1, .cls-2, .cls-3 {
        fill: none;
        stroke-miterlimit: 10;
      }

      .cls-2 {
        stroke: #585858;
        stroke-width: 109px;
      }

      .cls-3 {
        stroke: #474747;
        stroke-width: 142px;
      }

      .cls-4 {
        fill: #0a9e46;
      }

      .cls-4, .cls-5, .cls-6, .cls-7 {
        stroke-width: 0px;
      }

      .cls-5 {
        fill: #078e2a;
      }

      .cls-6 {
        fill: #0a9154;
      }

      .cls-7 {
        fill: #169148;
      }
    </style>
  </defs>
  <g id="garage">
    <rect class="cls-4" y="-117" width="1920" height="434"/>
  </g>
  <g id="schedule_details" data-name="schedule details">
    <path class="cls-5" d="m527.49,83.47c4.26.29,7.58-3.55,6.83-7.75-.7-3.95-1.2-9.59-1.04-17.58.38-19.71,5.03-33.71,5.03-33.71,0,0-10.14,5.11-19.3,14.55h0c-8.41-19.23-11.12-38.61-11.12-38.61,0,0-8.03,27.11-9.12,53.09-.49,11.7.62,19.64,1.98,24.84,1.22,4.64,5.93,7.39,10.57,6.2,2.71-.69,6.05-1.27,9.68-1.27,2.1,0,4.35.1,6.48.25Z"/>
    <g>
      <path class="cls-6" d="m1360.08,96.66s-1.98-30.09,6.54-50.83c5.06-12.31,14.03-22.82,20.95-29.68,2.88-2.86,8.58-.97,8.21,2.72-.95,9.32-1.79,22.7-.38,33.22,3.3,24.67,15.47,46.61,15.47,46.61"/>
      <path class="cls-6" d="m1381.85,83.21s9.94-12.89,22.7-18.44c6.7-2.91,14.71-4.22,21.09-4.8,3.79-.34,6.79,3.23,4.46,5.33-3.71,3.34-8.04,7.67-10.63,11.71-3.69,5.75-5.49,12.66-6.37,18-.78,4.75-5.4,7.65-10.73,6.73-6.08-1.05-13.74-2.16-19.27-2.18-4.47-.02-9.45.52-13.72,1.14-6.67.98-13.86-2.5-17.57-8.46-4.18-6.71-7.4-15.56-8.78-23.59-1.58-9.21-.77-18.34,1.53-24.44,1.01-2.7,6.18-2.38,7.76.47,3.4,6.14,8.51,14.52,14.04,20.67,13.43,14.91,36.5,27.17,36.5,27.17"/>
    </g>
    <path class="cls-3" d="m-24.9,135.83c17.96-1.64,253.24-24.69,483.9-24.13,240,.58,563.58,32.61,829.29,32.61s634.03-29.63,656.74-31.31"/>
    <path class="cls-2" d="m-24.9,135.83c17.96-1.64,253.24-24.69,483.9-24.13,240,.58,563.58,32.61,829.29,32.61s634.03-29.63,656.74-31.31"/>
    <path class="cls-1" d="m-11.9,136.83c17.96-1.64,253.24-24.69,483.9-24.13,240,.58,563.58,32.61,829.29,32.61s634.03-29.63,656.74-31.31"/>
  </g>
  <g id="hero_hills" data-name="hero hills">
    <g>
      <path class="cls-6" d="m134.29,207.3s23.6-14.92,36.69-34.56c5.4-8.1,10.16-19.38,13.28-27.68,1.45-3.85,6.93-3.78,8.23.12,2.95,8.83,6.14,21.76,5.22,34.56-.98,13.54-7.08,28.49-11.4,37.6-2.27,4.78-7.69,7.22-12.75,5.7-5.08-1.52-11.95-3.22-19.13-3.94-5.81-.58-14.61.47-21.04,1.47-4.38.68-8.48-2.31-9.13-6.69-1.16-7.85-3.69-19.99-8.94-30.08-3.1-5.94-8.07-12.48-12.3-17.55-2.66-3.19.25-7.91,4.31-7.05,6.85,1.46,15.5,4.11,22.89,8.89,14.07,9.1,25.72,28.24,25.72,28.24"/>
      <path class="cls-6" d="m176.24,214.43s1.86-34.81-6.16-58.8c-4.76-14.24-13.21-26.4-19.73-34.33-2.71-3.3-8.08-1.12-7.73,3.14.89,10.79,1.68,26.26.36,38.42-3.1,28.54-16.28,56.36-16.28,56.36"/>
    </g>
    <path class="cls-7" d="m933.16,179.18c-.13,5.4-1.83,16.05-3.45,25.11-.69,3.86,2.49,7.27,6.4,6.95,2.16-.18,4.4-.27,6.7-.27,5.03,0,9.76.45,13.92,1.23,2.9.55,5.8-.81,7.26-3.37,2.89-5.09,5.47-10.72,6.89-16.35,4.69-18.49.21-33.54.21-33.54,0,0-10.21,19.4-17.15,30.3-.99-8.98-2.82-19.04-6.15-27.78-8.45-22.17-21.75-34.41-21.75-34.41,0,0,7.35,41.68,7.1,52.14Z"/>
    <path class="cls-5" d="m1726.47,216.09c-4.08.82-7.98-2.24-8.09-6.4-.08-3.36-.76-7.83-2.58-13.71-4.9-15.79-14.01-25.45-14.01-25.45,0,0,14.18.52,28.07,4.89h0c6.51-18.53,5.66-35.16,5.66-35.16,0,0,16.39,19.05,23.59,39.66,3.75,10.72,3.23,20.48,1.86,27.38-1.1,5.56-6.37,9.31-11.97,8.42-3.23-.52-7.05-.94-10.95-.94-3.87,0-7.99.59-11.6,1.31Z"/>
  </g>
</svg>