<?xml version="1.0" encoding="utf-8"?>
<!-- Generator: Adobe Illustrator 27.9.4, SVG Export Plug-In . SVG Version: 9.03 Build 54784)  -->
<svg version="1.1" id="layer" xmlns="http://www.w3.org/2000/svg" xmlns:xlink="http://www.w3.org/1999/xlink" x="0px" y="0px"
	 viewBox="0 0 652 142.1" style="enable-background:new 0 0 652 142.1;" xml:space="preserve">
<style type="text/css">
	.st0{fill:#FFFFFF;}
</style>
<path class="st0" d="M301.1,40.3h-21.5v54.2c0,14.4-7.4,24.8-21.5,24.8c-14.2,0-21.3-7.4-21.3-24.8V40.3h-21.5v58.8
	c0,26.2,13.4,40.3,37.6,40.3c13.6,0,22.3-6.5,27-12.3v11.2h21.5L301.1,40.3L301.1,40.3z M471.7,39.2c-27.8,0-50.1,22.6-50.1,50.1
	c0,27.8,22.6,50.1,50.1,50.1c27.8,0,50.1-22.6,50.1-50.1C522.1,61.5,499.5,39.2,471.7,39.2z M500.6,89.3c0,15.8-12.8,28.6-28.6,28.6
	c-15.8,0-28.6-12.8-28.6-28.6s12.8-28.6,28.6-28.6S500.6,73.5,500.6,89.3z M370.3,39.2c-7.9,0-19.6,1.6-28.6,11.4V40.2h-21.5v98.1
	h21.5V81.6c0-11.7,9.5-21,21-21c2.7,0,5.2,0.5,7.6,1.4V39.2z M192.7,129.9c-6.3,6.3-14.4,9.5-23.4,9.5c-8.7,0-17.2-3.5-23.4-9.5
	c-6.3-6.3-9.5-14.4-9.5-23.4h20.4c0,3.3,1.4,6.5,3.5,8.7c2.5,2.5,5.4,3.5,8.7,3.5s6.5-1.4,8.7-3.5c4.9-4.9,4.9-12.5,0.3-17.4
	c-3-2.5-5.2-2.7-9-3.5c-5.2-1.1-12-2.5-19.1-9.5c-10.4-10.4-10.4-27.5,0-37.9s27.5-10.4,37.9,0c1.1,1.1,1.9,2.2,3,3.5L177.2,64
	c-2.2-2.5-4.1-3.8-6.8-4.1c-2.2-0.5-4.4,0-5.7,1.6c-1.1,1.1-1.9,2.7-1.9,4.4s0.5,3.3,1.9,4.4c2.7,2.7,4.6,3.3,8.7,3.8
	c4.6,0.8,11.2,2.2,18.5,8.4l0.5,0.5C205.5,96.1,205.5,117.1,192.7,129.9z M100.8,138.4h21.5v-49c0-27.8-22.6-50.1-50.1-50.1
	S22.1,61.6,22.1,89.4s22.6,50.1,50.1,50.1c9.5,0,20.2-2.7,28.6-12.3C100.8,127.2,100.8,138.4,100.8,138.4z M72.2,117.9
	c-15.8,0-28.6-12.8-28.6-28.6s12.8-28.6,28.6-28.6s28.6,12.8,28.6,28.6C100.8,105.1,88,117.9,72.2,117.9z M579,60.7
	c-12,0-21.5,9.5-21.5,21.5v56.1H536V82.2c0-23.7,19.3-43.1,43.1-43.1c23.7,0,43.1,19.3,43.1,43.1v56.1h-21.5V82.2
	C600.6,70.2,591,60.7,579,60.7z M386.1,40.3h11.2h10.4v98.1h-21.5L386.1,40.3L386.1,40.3z M411.5,14.7c0,8.2-6.5,14.7-14.7,14.7
	s-14.7-6.5-14.7-14.7S388.6,0,396.8,0C404.9-0.1,411.5,6.5,411.5,14.7z"/>
</svg>
