<?xml version="1.0" encoding="utf-8"?>
<!-- Generator: Adobe Illustrator 19.2.1, SVG Export Plug-In . SVG Version: 6.00 Build 0)  -->
<svg version="1.1" id="layer" xmlns="http://www.w3.org/2000/svg" xmlns:xlink="http://www.w3.org/1999/xlink" x="0px" y="0px"
	 viewBox="0 0 652 652" style="enable-background:new 0 0 652 652;" xml:space="preserve">
<style type="text/css">
	.st0{fill:#BE2122;}
</style>
<path id="Grainger-fill" transform="translate(0.000000, 26.815642)" class="st0" d="M143.4,327l-5.9,36.1h456.6l5.9-36.1H143.4z
	 M58.1,327h-8.4l-6.1,36.1H52L58.1,327z M87,327H75l-6.1,36.1h11.9L87,327z M32.8,327h-4.9L22,363.2h4.9L32.8,327z M141.2,327h-19.1
	l-6.2,36.1H135L141.2,327z M112.3,327H96.8l-6.2,36.1h15.5L112.3,327z"/>
<path id="Grainger-Logo" d="M149.4,289c-3.9,3.6-10,2.2-15.3,2.4l2.9-17.8c6,0.1,14.3-1.7,16.5,5.2C154,282.7,152.6,286.4,149.4,289
	L149.4,289z M154.8,304.1c4-1,7.5-3.4,10.8-6.3c7.4-6.8,11.5-16.7,8.5-26.9c-2.8-9.6-12.9-14.9-22.1-15.6h-40.2l-2.7,17.2h6
	l-7.4,46.1h-6.1l-2.9,18.2h32.8l3-18.2h-4.6l1.7-10.9l16.1,29h20.2l3-18.2h-7.5L154.8,304.1z M269.8,255.3l-2.8,17.2h6l-7.4,46.1h-6
	l-2.9,18.2l34.9-0.1l2.9-18.1h-6l7.5-46.1h6l2.7-17.2H269.8z M57.7,291L55,307.6l21.2,0c-2.2,4.9-7.3,9-12.4,10
	c-6.6,1.1-13-1.5-16.7-7.3c-5.4-8.7-3.5-21.6,2.2-29.5c5.2-6.6,13.2-9.1,21.3-7.3c4.4,1,9,5.1,10,9.6h19l4.4-27.6H87.4l-0.7,4.5
	l-1.3-1.7c-1.5-1.3-3.2-2.1-4.9-2.8c-16.5-6.2-35.1-1.2-46.8,12.1c-10.1,12.1-14.5,29.2-9.7,45c4,12.4,16.9,21.9,29.1,24
	c9,0.3,18.7-0.7,25.8-6.6l-1.2,6.8h17.2l7.4-45.8H57.7z M214.4,294.8l8.2-19.2l1.7,19.2H214.4z M239.3,255.3h-38.7l-2.7,17.2h6
	l-23.4,46.1h-5.9l-3,18.2h33.9l3-18.2h-6.1l3-6.7h21l0.8,6.7h-6l-2.9,18.2h34.8l2.9-18.2h-6L239.3,255.3z M390.5,255.3h-33.7
	l-2.8,17.2h6l-3.8,23.3l-21-40.5h-27.1l-2.7,17.2h6l-7.5,46.1h-6l-2.9,18.2h33.9l2.9-18.2h-6l4.4-27.5l22.9,45.6h18.1l10.4-64.3h6
	L390.5,255.3z M613.3,335.9c-4.3,0-7.8-3.5-7.8-7.9c0-4.3,3.4-7.9,7.9-7.9c4.5,0,7.9,3.6,7.8,7.9
	C621.2,332.5,617.7,335.9,613.3,335.9 M613.3,319.4c-4.6,0-8.6,3.7-8.6,8.7c0,5.1,4.1,8.7,8.6,8.7c4.9,0,8.7-3.8,8.7-8.6
	C622,323.3,618.3,319.4,613.3,319.4 M578.5,289c-3.9,3.6-10,2.2-15.3,2.4l2.9-17.8c6,0.1,14.3-1.7,16.5,5.2
	C583.2,282.7,581.8,286.4,578.5,289 M603.2,270.9c-2.8-9.6-12.9-14.9-22.1-15.6h-40.2l-2.7,17.2h6l-7.4,46.1h-6.1l-2.9,18.2h32.8
	l3-18.2h-4.6l1.7-10.9l16.1,29h20.2l3-18.2h-7.5l-8.4-14.6c4-1,7.5-3.4,10.8-6.3C602,291,606.2,281.1,603.2,270.9 M613.3,327.1h-1.8
	v-3.3h1.5c1.3,0,1.8,0,2.3,0.4c0.3,0.3,0.5,0.7,0.5,1.2C615.7,327.1,613.9,327.1,613.3,327.1 M614.9,327.9c1.3-0.2,2.4-1.1,2.4-2.6
	c0-1-0.6-2-1.7-2.5c-0.7-0.2-1.3-0.2-2.5-0.2h-3.3v10.9h1.6v-5h0.8c1.5,0,2.4,0.2,2.7,1.8c0,0.3,0.2,1.5,0.3,1.7
	c0.1,0.5,0.2,1,0.4,1.5h1.8c-0.5-1-0.6-1.6-0.8-3.1C616.4,329,616.1,328.3,614.9,327.9 M419.1,291l-2.6,16.5l21.2,0
	c-2.2,4.9-7.3,9-12.5,10c-6.6,1.1-13-1.5-16.7-7.3c-5.4-8.7-3.5-21.6,2.2-29.5c5.2-6.6,13.2-9.1,21.3-7.3c4.4,1,9,5.1,10,9.6h19
	l4.4-27.6h-16.7l-0.7,4.5l-1.4-1.7c-1.5-1.3-3.2-2.1-4.8-2.8c-16.5-6.2-35.1-1.2-46.8,12.1c-10.1,12.1-14.5,29.2-9.7,45
	c4,12.4,16.9,21.9,29.1,24c9,0.3,18.7-0.7,25.9-6.6l-1.1,6.8h17.2l7.4-45.8H419.1z M295.9,272.5h6l2.7-17.2h-34.8l-2.8,17.2h6
	l-7.4,46.1h-6l-2.9,18.2l34.9-0.1l2.9-18.1h-6L295.9,272.5z M57.7,291L55,307.6l21.2,0c-2.2,4.9-7.3,9-12.4,10
	c-6.6,1.1-13-1.5-16.7-7.3c-5.4-8.7-3.5-21.6,2.2-29.5c5.2-6.6,13.2-9.1,21.3-7.3c4.4,1,9,5.1,10,9.6h19l4.4-27.6H87.4l-0.7,4.5
	l-1.3-1.7c-1.5-1.3-3.2-2.1-4.9-2.8c-16.5-6.2-35.1-1.2-46.8,12.1c-10.1,12.1-14.5,29.2-9.7,45c4,12.4,16.9,21.9,29.1,24
	c9,0.3,18.7-0.7,25.8-6.6l-1.2,6.8h17.2l7.4-45.8H57.7z M508,308.4l-1.6,10.3h-16l2.4-14.5h17.6l3.2-19.6h-17.6l1.9-12h15.1
	l-1.3,8.3h20.1l4.1-25.5h-62.5l-2.8,17.2h6l-7.5,46.1h-6.1l-2.9,18.2H524l4.6-28.5H508z M149.4,289c-3.9,3.6-10,2.2-15.3,2.4
	l2.9-17.8c6,0.1,14.3-1.7,16.5,5.2C154,282.7,152.6,286.4,149.4,289L149.4,289z M154.8,304.1c4-1,7.5-3.4,10.8-6.3
	c7.4-6.8,11.5-16.7,8.5-26.9c-2.8-9.6-12.9-14.9-22.1-15.6h-40.2l-2.7,17.2h6l-7.4,46.1h-6.1l-2.9,18.2h32.8l3-18.2h-4.6l1.7-10.9
	l16.1,29h20.2l3-18.2h-7.5L154.8,304.1z M214.4,294.8l8.2-19.2l1.7,19.2H214.4z M239.3,255.3h-38.7l-2.7,17.2h6l-23.4,46.1h-5.9
	l-3,18.2h33.9l3-18.2h-6.1l3-6.7h21l0.8,6.7h-6l-2.9,18.2h34.8l2.9-18.2h-6L239.3,255.3z M390.5,255.3h-33.7l-2.8,17.2h6l-3.8,23.3
	l-21-40.5h-27.1l-2.7,17.2h6l-7.5,46.1h-6l-2.9,18.2h33.9l2.9-18.2h-6l4.4-27.5l22.9,45.6h18.1l10.4-64.3h6L390.5,255.3z
	 M613.3,335.9c-4.3,0-7.8-3.5-7.8-7.9c0-4.3,3.4-7.9,7.9-7.9c4.5,0,7.9,3.6,7.8,7.9C621.2,332.5,617.7,335.9,613.3,335.9
	 M613.3,319.4c-4.6,0-8.6,3.7-8.6,8.7c0,5.1,4.1,8.7,8.6,8.7c4.9,0,8.7-3.8,8.7-8.6C622,323.3,618.3,319.4,613.3,319.4 M578.5,289
	c-3.9,3.6-10,2.2-15.3,2.4l2.9-17.8c6,0.1,14.3-1.7,16.5,5.2C583.2,282.7,581.8,286.4,578.5,289 M603.2,270.9
	c-2.8-9.6-12.9-14.9-22.1-15.6h-40.2l-2.7,17.2h6l-7.4,46.1h-6.1l-2.9,18.2h32.8l3-18.2h-4.6l1.7-10.9l16.1,29h20.2l3-18.2h-7.5
	l-8.4-14.6c4-1,7.5-3.4,10.8-6.3C602,291,606.2,281.1,603.2,270.9 M613.3,327.1h-1.8v-3.3h1.5c1.3,0,1.8,0,2.3,0.4
	c0.3,0.3,0.5,0.7,0.5,1.2C615.7,327.1,613.9,327.1,613.3,327.1 M614.9,327.9c1.3-0.2,2.4-1.1,2.4-2.6c0-1-0.6-2-1.7-2.5
	c-0.7-0.2-1.3-0.2-2.5-0.2h-3.3v10.9h1.6v-5h0.8c1.5,0,2.4,0.2,2.7,1.8c0,0.3,0.2,1.5,0.3,1.7c0.1,0.5,0.2,1,0.4,1.5h1.8
	c-0.5-1-0.6-1.6-0.8-3.1C616.4,329,616.1,328.3,614.9,327.9 M419.1,291l-2.6,16.5l21.2,0c-2.2,4.9-7.3,9-12.5,10
	c-6.6,1.1-13-1.5-16.7-7.3c-5.4-8.7-3.5-21.6,2.2-29.5c5.2-6.6,13.2-9.1,21.3-7.3c4.4,1,9,5.1,10,9.6h19l4.4-27.6h-16.7l-0.7,4.5
	l-1.4-1.7c-1.5-1.3-3.2-2.1-4.8-2.8c-16.5-6.2-35.1-1.2-46.8,12.1c-10.1,12.1-14.5,29.2-9.7,45c4,12.4,16.9,21.9,29.1,24
	c9,0.3,18.7-0.7,25.9-6.6l-1.1,6.8h17.2l7.4-45.8H419.1z M508,308.4l-1.6,10.3h-16l2.4-14.5h17.6l3.2-19.6h-17.6l1.9-12h15.1
	l-1.3,8.3h20.1l4.1-25.5h-62.5l-2.8,17.2h6l-7.5,46.1h-6.1l-2.9,18.2H524l4.6-28.5H508z"/>
</svg>
