<?xml version="1.0" encoding="UTF-8"?>
<svg xmlns="http://www.w3.org/2000/svg" version="1.1" viewBox="0 0 310.6 130.8">
  <defs>
    <style>
      .cls-1 {
        fill: #f8b92a;
      }

      .cls-2 {
        fill: #fff;
      }

      .cls-3 {
        fill: #e73427;
      }

      .cls-4 {
        fill: #1d539f;
      }
    </style>
  </defs>
  <!-- Generator: Adobe Illustrator 28.7.1, SVG Export Plug-In . SVG Version: 1.2.0 Build 142)  -->
  <g>
    <g id="Layer_1">
      <g id="Layer_2">
        <g id="Layer_1-2">
          <g id="mlh-logo-color-dark">
            <g id="Major_League_Hacking">
              <path class="cls-2" d="M15.6,114.5c1,.4,1.7,1.4,1.7,2.5v13.2c0,.2-.2.4-.5.4h-3.3c-.1,0-.2,0-.3-.1,0,0-.1-.2-.1-.3v-12h-2.6v12c0,.1,0,.2-.1.3,0,0-.2.1-.3.1h-3c-.2,0-.4-.2-.4-.4h0v-12h-2.6v12c0,.2-.1.4-.3.4H.4c-.2,0-.4-.1-.4-.3v-15.6c0-.2.1-.4.3-.4h14.2c.4,0,.7,0,1.1.2Z"/>
              <path class="cls-2" d="M32,114.3c1.1,0,2.1.7,2.5,1.7.2.3.2.7.2,1.1v13.2c0,.2-.2.4-.4.4,0,0,0,0,0,0h-3.3c-.2,0-.4-.2-.5-.4h0v-4.2c0-.1,0-.2-.1-.3,0,0-.2-.1-.3-.1h-4.6c-.2,0-.4.2-.5.4h0v4.2c0,.2-.1.4-.3.4,0,0,0,0,0,0h-3.3c-.2,0-.4,0-.4-.3,0,0,0,0,0,0v-13.3c0-.4,0-.7.2-1.1.1-.3.3-.7.6-.9.3-.3.6-.5.9-.6.3-.1.7-.2,1.1-.2h8.2ZM30.6,122.1v-4.1h-5.5v4.1h5.5Z"/>
              <path class="cls-2" d="M49.5,114.4c0,0,.1.2.1.3v13.2c0,.4,0,.7-.2,1.1-.1.3-.3.6-.6.9-.3.3-.6.5-.9.6-.3.1-.7.2-1.1.2h-7c-.4,0-.7,0-1.1-.2-1-.4-1.7-1.4-1.7-2.6v-5c0-.2.1-.4.3-.4h3.3c.2,0,.4.1.5.3v3.5c0,.1,0,.2.1.3,0,0,.2.1.3.1h3.4c.1,0,.2,0,.3-.1,0,0,.1-.2.1-.3v-11.6c0-.1,0-.2.1-.3,0,0,.2-.1.3-.1h3.3c.1,0,.2,0,.3.1Z"/>
              <path class="cls-2" d="M64.3,114.3c.4,0,.7,0,1.1.2.7.3,1.2.8,1.5,1.5.2.3.2.7.2,1.1v10.9c0,.4,0,.7-.2,1.1-.1.3-.3.6-.6.9-.3.3-.6.5-.9.6-.3.1-.7.2-1.1.2h-8.3c-.4,0-.7,0-1-.2-1-.4-1.7-1.4-1.7-2.5v-10.9c0-.4,0-.7.2-1.1.1-.3.3-.6.6-.9.3-.3.6-.5.9-.6.3-.1.7-.2,1.1-.2h8.3ZM62.9,118.3h-5.5v8.4h5.6v-8.4Z"/>
              <path class="cls-2" d="M85.1,130.4c0,0,0,.2,0,.3,0,0-.2.1-.2.1h-3.7c-.1,0-.3,0-.4-.1-.1,0-.2-.2-.3-.3l-2.4-4.5c0,0-.1,0-.2,0h-2.8c0,0-.1,0-.1,0,0,0,0,0,0,0h0v4.4c0,.2-.1.4-.3.4,0,0,0,0,0,0h-3.3c-.2,0-.4-.1-.4-.3,0,0,0,0,0-.1v-15.5c0-.2.1-.4.3-.4,0,0,0,0,0,0h10.7c.4,0,.7,0,1.1.2.7.3,1.2.8,1.5,1.5.1.3.2.7.2,1.1v6.2c0,.6-.2,1.1-.5,1.6-.3.5-.8.8-1.3,1h0c-.1,0-.1,0,0,.1h0l2.5,4.4ZM80.4,118.1h-5.7v4h5.7v-4Z"/>
              <path class="cls-2" d="M107.1,126.7c.1,0,.2,0,.3.1,0,0,.1.2.1.3v3.1c0,.1,0,.2-.1.3,0,0-.2.1-.3.1h-10.1c-.2,0-.4-.1-.4-.3v-15.6c0-.2.1-.4.3-.4h3.3c.2,0,.4.1.4.3,0,0,0,0,0,.1v11.6c0,.1,0,.2.1.3,0,0,.2.1.3.1h6Z"/>
              <path class="cls-2" d="M122.3,114.4c0,0,.1.2.1.3v2.9c0,.1,0,.2-.1.3,0,0-.2.1-.3.1h-7.9s0,0-.1,0c0,0,0,0,0,0h0v2.6c0,0,0,0,.1,0h6.7c.1,0,.2,0,.3.1,0,0,.1.2.1.3v2.3c0,.1,0,.2-.1.3,0,0-.2.1-.3.1h-6.7c0,0,0,0-.1,0h0v2.5s0,0,0,.1c0,0,0,0,0,0h7.9c.2,0,.4.2.4.4v3c0,.2-.2.4-.4.4,0,0,0,0,0,0h-11.7c-.2,0-.4-.1-.4-.3v-15.6c0-.2.2-.4.4-.4h11.7c.1,0,.2,0,.3.1Z"/>
              <path class="cls-2" d="M137.1,114.3c.4,0,.7,0,1.1.2.7.3,1.2.8,1.5,1.4.1.3.2.7.2,1.1v13.2c0,.2-.2.4-.4.4,0,0,0,0,0,0h-3.3c-.2,0-.4-.2-.4-.4h0v-4.2c0-.1,0-.2-.1-.3,0,0-.2-.1-.3-.1h-4.6c-.2,0-.4.2-.4.4h0v4.2c0,.2-.1.4-.3.4h-3.4c-.2,0-.4-.1-.4-.3,0,0,0,0,0,0,0,0,0,0,0-.1v-13.2c0-.4,0-.7.2-1.1.1-.3.3-.7.6-.9.3-.3.6-.5.9-.6.3-.1.7-.2,1.1-.2h8.2ZM135.8,122.1v-4.1h-5.5v4.1h5.5Z"/>
              <path class="cls-2" d="M157.2,121.9c0,0,.1.2.1.3v5.8c0,.4,0,.7-.2,1.1-.1.3-.3.6-.6.9-.3.3-.6.5-.9.6-.3.1-.7.2-1.1.2h-8.3c-1.5,0-2.7-1.2-2.7-2.7,0,0,0,0,0,0v-10.9c0-.4,0-.7.2-1.1.1-.3.3-.7.6-.9.3-.2.6-.4.9-.6.3-.1.7-.2,1.1-.2h9.7c.2,0,.4.2.4.4h0v3.1c0,.2-.2.4-.4.4h-7.9c-.1,0-.2,0-.3.1,0,0-.1.2-.1.3v7.6c0,.1,0,.2.1.3,0,0,.2.1.3.1h4.6c.2,0,.4-.2.4-.4,0,0,0,0,0,0v-4.1c0-.2.2-.4.4-.4,0,0,0,0,0,0h3.3c.1,0,.2,0,.3,0Z"/>
              <path class="cls-2" d="M174.5,114.4c0,0,.1.2.1.3v13.2c0,.4,0,.7-.2,1.1-.1.3-.3.6-.6.9-.3.3-.6.5-.9.6-.3.1-.7.2-1.1.2h-8.3c-.4,0-.7,0-1.1-.2-.7-.3-1.2-.8-1.5-1.5-.1-.3-.2-.7-.2-1.1v-13.3c0-.2.1-.4.3-.4h3.4c.2,0,.4.1.4.3,0,0,0,0,0,.1v11.6c0,.1,0,.2.1.3,0,0,.2.1.3.1h4.6c.1,0,.2,0,.3-.1,0,0,.1-.2.1-.3v-11.6c0-.2.2-.4.4-.4h3.3c.1,0,.3,0,.4.1Z"/>
              <path class="cls-2" d="M190.7,114.4c0,0,.1.2.1.3v2.9c0,.1,0,.2-.1.3,0,0-.2.1-.3.1h-7.9c0,0-.1,0-.1,0,0,0,0,0,0,0v2.6c0,0,0,0,.1,0h6.7c.1,0,.2,0,.3.1,0,0,.1.2.1.3v2.3c0,.1,0,.2-.1.3,0,0-.2.1-.3.1h-6.7c0,0-.1,0-.1,0v2.6c0,0,0,.1,0,.1,0,0,0,0,0,0h7.9c.2,0,.4.2.4.4v3c0,.2-.2.4-.4.4h-11.7c-.2,0-.4-.1-.4-.3,0,0,0,0,0,0,0,0,0,0,0-.1v-15.6c0-.2.2-.4.4-.4h11.6c.1,0,.2,0,.3.1Z"/>
              <path class="cls-2" d="M215.9,114.3c.2,0,.4.2.4.4,0,0,0,0,0,0v15.5c0,.2-.2.4-.4.4,0,0,0,0,0,0h-3.3c-.2,0-.4-.2-.4-.4h0v-5.4c0-.2-.2-.4-.4-.4,0,0,0,0,0,0h-4.7c-.1,0-.2,0-.3.1,0,0-.1.2-.1.3v5.5c0,.2-.1.4-.3.4,0,0,0,0-.1,0h-3.2c-.2,0-.4-.1-.4-.3,0,0,0,0,0-.1v-15.5c0-.2.1-.4.3-.4h3.4c.2,0,.4.1.4.3,0,0,0,0,0,.1v5.2c0,.2.1.4.3.4h4.8c.1,0,.2,0,.3-.1,0,0,.1-.2.1-.3v-5.2c0-.2.2-.4.4-.4h3.2,0Z"/>
              <path class="cls-2" d="M231.1,114.3c.4,0,.7,0,1.1.2.7.3,1.2.8,1.5,1.4.1.3.2.7.2,1.1v13.2c0,.2-.2.4-.4.4,0,0,0,0,0,0h-3.3c-.2,0-.4-.2-.4-.4h0v-4.2c0-.1,0-.2-.1-.3,0,0-.2-.1-.3-.1h-4.6c-.2,0-.4.2-.4.4h0v4.2c0,.2-.1.4-.3.4h-3.4c-.2,0-.4-.1-.4-.3,0,0,0,0,0,0v-13.3c0-.4,0-.7.2-1.1.1-.3.3-.7.6-.9.3-.3.6-.5.9-.6.3-.1.7-.2,1.1-.2h8.3ZM229.7,122.1v-4.1h-5.5v4.1h5.5Z"/>
              <path class="cls-2" d="M241.7,118.4c0,0-.1.2-.1.3v7.6c0,.1,0,.2.1.3,0,0,.2.1.3.1h7.5c.2,0,.4.2.4.4,0,0,0,0,0,0v3.1c0,.2-.2.4-.4.4,0,0,0,0,0,0h-9.4c-.4,0-.7,0-1.1-.2-.3-.1-.7-.3-.9-.6-.5-.5-.8-1.3-.8-2v-10.9c0-.4,0-.7.2-1.1.1-.3.3-.7.6-.9.3-.3.6-.5.9-.6.3-.1.7-.2,1.1-.2h9.4c.2,0,.4.2.4.4v3.1c0,.2-.2.4-.4.4h-7.6c-.1,0-.2,0-.3.1Z"/>
              <path class="cls-2" d="M263,121.2s0,.1,0,.2l5.4,9c0,0,0,.2,0,.3,0,0-.2.1-.2.1h-3.9c-.1,0-.3,0-.4-.1-.1,0-.2-.2-.3-.3l-3.5-6.4c0,0,0,0-.1,0l-1.9,2.1c0,0-.2.2-.2.3,0,.1,0,.3,0,.4v3.5c0,.2-.1.4-.3.4h-3.3c-.2,0-.4-.1-.4-.3,0,0,0,0,0-.1v-15.6c0-.2.1-.4.3-.4h3.3c.2,0,.4.1.4.3,0,0,0,0,0,.1v7l6-7.1c0-.1.2-.2.3-.3.1,0,.3,0,.4,0h3.9c.1,0,.2,0,.2,0s0,.2,0,.2l-5.6,6.6Z"/>
              <path class="cls-2" d="M275.6,130.3c0,.2-.1.4-.3.4,0,0,0,0,0,0h-3.3c-.2,0-.4-.1-.4-.3,0,0,0,0,0,0v-15.6c0-.2.1-.4.3-.4h3.4c.2,0,.4.1.4.3,0,0,0,0,0,.1v15.5Z"/>
              <path class="cls-2" d="M291.4,114.5c.7.3,1.2.8,1.5,1.4.1.3.2.7.2,1.1v13.2c0,.2-.2.4-.4.4,0,0,0,0,0,0h-3.2c-.1,0-.2,0-.3-.1,0,0-.1-.2-.1-.3v-11.5c0-.1,0-.2-.1-.3,0,0-.2-.1-.3-.1h-4.6c-.1,0-.2,0-.3.1,0,0-.1.2-.1.3v11.6c0,.2-.1.4-.3.4h-3.4c-.2,0-.4-.1-.4-.3,0,0,0,0,0-.1v-15.5c0-.2.1-.4.3-.4h10.7c.4,0,.7,0,1,.2Z"/>
              <path class="cls-2" d="M310.4,121.9c0,0,.1.2.1.3v5.8c0,.4,0,.7-.2,1.1-.1.3-.3.6-.6.9-.3.3-.6.5-.9.6-.3.1-.7.2-1.1.2h-8.3c-.4,0-.7,0-1.1-.2-1-.4-1.7-1.5-1.6-2.6v-10.9c0-.4,0-.8.2-1.1.1-.3.3-.6.6-.9.3-.3.6-.5.9-.6.3-.1.7-.2,1.1-.2h9.7c.2,0,.4.2.4.4h0v3.1c0,.2-.2.4-.4.4h-7.9c-.1,0-.2,0-.3.1,0,0-.1.2-.1.3v7.6c0,.1,0,.2.1.3,0,0,.2.1.3.1h4.6c.2,0,.4-.2.4-.4,0,0,0,0,0,0v-4.1c0-.2.2-.4.4-.4,0,0,0,0,0,0h3.3c.1,0,.2,0,.3.1Z"/>
            </g>
            <g id="M">
              <path class="cls-3" d="M98.8,1.4c4.1,1.8,7.4,5,9.2,9.2.9,2.1,1.4,4.4,1.4,6.7v86.1c0,1.5-1.2,2.8-2.8,2.8h-20.7c-.7,0-1.4-.3-1.9-.8-.5-.5-.8-1.3-.7-2V25.1h-16.6v78.2c0,.7-.2,1.5-.7,2-.5.5-1.2.8-1.9.8h-18.7c-1.5,0-2.8-1.2-2.8-2.7,0,0,0,0,0,0V25.1h-16.6v78.2c.2,1.4-.8,2.6-2.1,2.8-.2,0-.5,0-.7,0H2.8c-1.4.2-2.6-.7-2.8-2.1,0-.2,0-.5,0-.7V2.8C-.2,1.4.8.2,2.1,0c.2,0,.5,0,.7,0h89.3c2.3,0,4.6.5,6.7,1.4Z"/>
            </g>
            <g id="L">
              <path class="cls-4" d="M199.2,80.4c.8,0,1.5.3,2,.8.5.6.8,1.3.8,2.1v20c0,.7-.3,1.5-.8,2-.5.6-1.2.9-2,.8h-70.5c-2,0-3-1-3-2.9V2.9c0-1.9,1-2.9,3-2.9h21.6c2,0,3,1,3,2.9v74.8c0,.8.3,1.5.9,2,.6.5,1.3.8,2.1.8h42.8Z"/>
            </g>
            <g id="H">
              <path class="cls-1" d="M307.5,0c.8,0,1.6.3,2.1.8.6.5.9,1.3.9,2v100.7c0,.8-.3,1.5-.9,2.1-.6.6-1.3.9-2.1.8h-21.9c-.8,0-1.6-.3-2.1-.8-.6-.5-.9-1.3-.9-2.1v-35.1c0-.7-.3-1.5-.8-2-.6-.5-1.3-.8-2-.8h-30.7c-.8,0-1.5.2-2.1.8-.6.5-.9,1.2-.9,2v35.1c0,1.9-1,2.9-3,2.9h-21.8c-2,0-3-1-3-2.9V2.9c0-1.9,1-2.9,3-2.9h21.8c2,0,3,1,3,2.9v34.1c0,1.9,1,2.9,3,2.9h30.8c.8,0,1.5-.3,2.1-.8.5-.5.8-1.3.8-2V2.9c0-.8.3-1.5.9-2,.5-.5,1.3-.8,2.1-.8h21.9Z"/>
            </g>
          </g>
        </g>
      </g>
    </g>
  </g>
</svg>