<?xml version="1.0" encoding="utf-8"?>
<!-- Generator: Adobe Illustrator 27.9.5, SVG Export Plug-In . SVG Version: 9.03 Build 54986)  -->
<svg version="1.1" id="Layer_1" xmlns="http://www.w3.org/2000/svg" xmlns:xlink="http://www.w3.org/1999/xlink" x="0px" y="0px"
	 viewBox="0 0 161 36" style="enable-background:new 0 0 161 36;" xml:space="preserve">
<style type="text/css">
	.st0{fill:#FFFFFF;}
	.st1{fill:none;stroke:#20808D;stroke-miterlimit:10;}
	.st2{fill:#13343B;}
</style>
<path class="st0" d="M155.3,36H5.6C2.5,36,0,33.5,0,30.4V5.6C0,2.5,2.5,0,5.6,0h149.7c3.1,0,5.6,2.5,5.6,5.6v24.8
	C161,33.5,158.4,36,155.3,36z"/>
<path class="st1" d="M29.1,1.4l-9.5,9.5h9.5V1.4V4V1.4z M19.6,10.9l-9.5-9.5v9.5H19.6z M19.6,0v36 M29.1,20.4l-9.5-9.5v13.6l9.5,9.5
	V20.4z M10.1,20.4l9.5-9.5v13.6L10.1,34V20.4z M6.1,10.9v13.6h4.1v-4.1l9.5-9.5H6.1z M19.6,10.9l9.5,9.5v4.1h4.1V10.9H19.6z"/>
<path class="st2" d="M61,13c0.6-1.1,1.4-2,2.5-2.6c1.1-0.6,2.3-0.9,3.8-0.9c1.4,0,2.6,0.3,3.6,0.9c1,0.6,1.7,1.4,2.2,2.3
	c0.5,1,0.7,2,0.7,3.2v1.6H62.7c0.1,1.4,0.6,2.5,1.4,3.3c0.9,0.8,2,1.2,3.4,1.2c1.2,0,2.1-0.2,2.7-0.7c0.6-0.5,1.1-1.1,1.4-2h2.6
	c-0.3,1.3-1,2.4-2.1,3.4c-1,1-2.6,1.4-4.5,1.4c-1.5,0-2.8-0.3-3.9-0.9c-1.1-0.6-2-1.5-2.6-2.6c-0.6-1.1-0.9-2.4-0.9-3.9
	S60.4,14.1,61,13L61,13L61,13z M71.2,15.6c0-1.2-0.3-2.2-0.9-2.9c-0.6-0.7-1.6-1-3-1c-1.3,0-2.3,0.3-3.1,1c-0.8,0.7-1.3,1.6-1.5,2.9
	H71.2z M77.2,10v2.2c0,0.1,0.1,0.2,0.2,0.2c0.1,0,0.1,0,0.2-0.1s0.1-0.1,0.1-0.2c0.5-1.5,1.6-2.2,3.5-2.2h1.2v2.4h-1.5
	c-1.2,0-2.1,0.3-2.7,0.9s-0.9,1.5-0.9,2.8v7.9h-2.4V10L77.2,10L77.2,10z M96.6,21c-0.6,1.1-1.5,2-2.5,2.5s-2.1,0.8-3.3,0.8
	c-2.3,0-3.9-0.9-4.8-2.7c-0.1-0.1-0.2-0.2-0.3-0.2s-0.2,0.1-0.2,0.2V29h-2.4V10h2.4v2.4c0,0.1,0.1,0.2,0.2,0.2s0.2-0.1,0.3-0.2
	c0.9-1.8,2.5-2.7,4.8-2.7c1.2,0,2.3,0.3,3.3,0.8c1,0.6,1.8,1.4,2.5,2.5c0.6,1.1,1,2.5,1,4S97.2,19.9,96.6,21L96.6,21z M93.8,13.1
	c-0.9-0.9-2.1-1.4-3.5-1.4s-2.6,0.5-3.5,1.4c-0.9,0.9-1.2,2.2-1.2,3.9s0.3,2.9,1.2,3.9c0.9,0.9,2.1,1.4,3.5,1.4s2.6-0.5,3.5-1.4
	c0.9-0.9,1.3-2.2,1.3-3.9S94.7,14,93.8,13.1z M101,4.6v19.3h-2.4V4.6L101,4.6L101,4.6z M103,13c0.6-1.1,1.4-2,2.5-2.6
	c1.1-0.6,2.3-0.9,3.8-0.9s2.6,0.3,3.6,0.9c1,0.6,1.7,1.4,2.2,2.3c0.5,1,0.7,2,0.7,3.2v1.6h-11.2c0.1,1.4,0.6,2.5,1.4,3.3
	c0.9,0.8,2,1.2,3.4,1.2c1.2,0,2.1-0.2,2.7-0.7c0.6-0.5,1.1-1.1,1.4-2h2.6c-0.3,1.3-1,2.4-2.1,3.4c-1,1-2.6,1.4-4.5,1.4
	c-1.5,0-2.8-0.3-3.9-0.9c-1.1-0.6-2-1.5-2.6-2.6c-0.6-1.1-0.9-2.4-0.9-3.9S102.4,14.1,103,13L103,13L103,13z M113.2,15.6
	c0-1.2-0.3-2.2-0.9-2.9c-0.6-0.7-1.6-1-3-1c-1.3,0-2.3,0.3-3.1,1c-0.8,0.7-1.3,1.6-1.5,2.9C104.7,15.6,113.2,15.6,113.2,15.6z
	 M114.8,23.4l5.5-6.8l-4.5-6V10h2.7l3.8,5.2l4.1-5.2h2.7v0.6l-5.2,6.4l4.8,6.4v0.5h-2.6l-4.1-5.6l-4.4,5.6h-2.7L114.8,23.4
	L114.8,23.4z M132.6,5.4v3h-2.8v-3H132.6z M132.4,23.9H130V10h2.4V23.9z M133.2,10h2.6V6.2h2.4V10h2.8l0.7,2h-3.5v6.7
	c0,0.9,0,1.6-0.1,2c0,0.4-0.1,0.7-0.1,0.8c0,0.1,0,0.2,0.1,0.3c0.1,0.1,0.2,0.1,0.3,0.1c0.1,0,0.4,0,0.8-0.1c0.4,0,1.1-0.1,2-0.1
	h0.9v2.1h-1.9c-1.5,0-2.7-0.4-3.4-1.1c-0.8-0.8-1.1-1.9-1.1-3.4V12h-2.6L133.2,10L133.2,10L133.2,10z M141.8,10h2.5l4,11.7
	c0.1,0.1,0.1,0.3,0.4,0.3s0.4-0.2,0.4-0.3l4-11.7h2.3v0.5l-5,15.1c-0.4,1.3-1,2.2-1.8,2.7c-0.8,0.5-1.7,0.8-3.2,0.8h-2.6v-2.1h2
	c0.6,0,1.1,0,1.5,0.1c0.4,0,0.6,0.1,0.8,0.1c0.3,0,0.5-0.1,0.6-0.4l0.8-2c0.1-0.2,0.1-0.4,0-0.5c0-0.1-0.1-0.1-0.1-0.1
	c-0.1,0-0.1,0-0.2,0h-1.6L141.8,10L141.8,10L141.8,10z M58.6,21c-0.6,1.1-1.5,2-2.5,2.5s-2.1,0.8-3.3,0.8c-2.3,0-3.9-0.9-4.8-2.7
	c-0.1-0.1-0.2-0.2-0.3-0.2s-0.2,0.1-0.2,0.2V29h-2.4V10h2.4v2.4c0,0.1,0.1,0.2,0.2,0.2s0.2-0.1,0.3-0.2c0.9-1.8,2.5-2.7,4.8-2.7
	c1.2,0,2.3,0.3,3.3,0.8s1.8,1.4,2.5,2.5c0.6,1.1,1,2.5,1,4S59.2,19.9,58.6,21z M55.8,13.1c-0.9-0.9-2.1-1.4-3.5-1.4
	s-2.6,0.5-3.5,1.4c-0.9,0.9-1.2,2.2-1.2,3.9s0.3,2.9,1.2,3.9c0.9,0.9,2.1,1.4,3.5,1.4s2.6-0.5,3.5-1.4c0.9-0.9,1.3-2.2,1.3-3.9
	S56.7,14,55.8,13.1z"/>
</svg>
