<?xml version="1.0" encoding="UTF-8"?>
<svg xmlns="http://www.w3.org/2000/svg" version="1.1" viewBox="0 0 74 51.8">
  <defs>
    <style>
      .cls-1 {
        fill: #fff;
      }

      .cls-2 {
        fill: #00a1e0;
      }
    </style>
  </defs>
  <!-- Generator: Adobe Illustrator 28.7.1, SVG Export Plug-In . SVG Version: 1.2.0 Build 142)  -->
  <g>
    <g id="Layer_1">
      <path class="cls-2" d="M30.8,5.7c2.4-2.5,5.7-4,9.4-4s9.1,2.7,11.4,6.8c2-.9,4.2-1.4,6.5-1.4,8.8,0,15.9,7.2,15.9,16.1s-7.1,16.1-15.9,16.1-2.1-.1-3.1-.3c-2,3.6-5.8,6-10.2,6s-3.6-.4-5.1-1.2c-2,4.8-6.7,8.1-12.2,8.1s-10.6-3.6-12.5-8.7c-.8.2-1.7.3-2.5.3-6.8,0-12.4-5.6-12.4-12.5s2.5-8.7,6.2-10.8c-.8-1.7-1.2-3.7-1.2-5.7C5,6.4,11.4,0,19.3,0c4.5,0,8.7,2.1,11.4,5.7"/>
      <path class="cls-1" d="M10.7,26.9l.3-.8c0-.1.1,0,.2,0l.3.2c.9.6,1.7.6,2,.6.7,0,1.1-.3,1.1-.8h0c0-.5-.6-.7-1.4-1h-.2c-1-.3-2.1-.8-2.1-2h0c0-1.2,1-2.1,2.4-2.1h.1c.8,0,1.6.2,2.2.6,0,0,.1,0,0,.2l-.3.8c0,.1-.2,0-.2,0-.5-.3-1.3-.5-1.9-.5s-1,.3-1,.7h0c0,.5.7.7,1.4,1h.1c1,.3,2,.8,2,2h0c0,1.3-.9,2.1-2.4,2.1s-1.5-.1-2.2-.5c-.1,0-.3-.1-.4-.3,0,0,0,0,0-.2h0ZM32.9,26.9l.3-.8c0-.1.2,0,.2,0l.3.2c.9.6,1.7.6,2,.6.7,0,1.1-.3,1.1-.8h0c0-.5-.6-.7-1.4-1h-.2c-1-.3-2.1-.8-2.1-2h0c0-1.2,1-2.1,2.4-2.1h.1c.8,0,1.6.2,2.2.6,0,0,.1,0,0,.2l-.3.8c0,.1-.2,0-.2,0-.5-.3-1.3-.5-1.9-.5s-1,.3-1,.7h0c0,.5.7.7,1.4,1h.1c1,.3,2,.8,2,2h0c0,1.3-.9,2.1-2.4,2.1s-1.5-.1-2.2-.5c-.1,0-.3-.1-.4-.3,0,0,0,0,0-.2h0ZM49.4,23c.1.4.2.9.2,1.4s0,.9-.2,1.4c-.1.4-.3.8-.6,1.1-.3.3-.6.6-1,.7-.4.2-.9.3-1.4.3s-1,0-1.4-.3-.7-.4-1-.7-.5-.7-.6-1.1-.2-.9-.2-1.4,0-.9.2-1.4c.1-.4.3-.8.6-1.1.3-.3.6-.6,1-.7.4-.2.9-.3,1.4-.3.5,0,1,0,1.4.3.4.2.7.4,1,.7s.5.7.6,1.1ZM48.1,24.3c0-.7-.1-1.3-.4-1.7s-.7-.6-1.2-.6-1,.2-1.2.6-.4,1-.4,1.7.1,1.3.4,1.7c.3.4.7.6,1.2.6s1-.2,1.2-.6c.3-.4.4-1,.4-1.7ZM59.8,26.4l.3.9c0,.1,0,.1,0,.1-.5.2-1.1.3-1.8.3-1.1,0-1.9-.3-2.5-.9s-.9-1.5-.9-2.5,0-.9.2-1.4.3-.8.6-1.1c.3-.3.6-.6,1-.7.5-.2.9-.3,1.4-.3.3,0,.6,0,.9,0,.3,0,.7.1.9.2,0,0,.1,0,0,.1l-.3.9c0,.1-.1,0-.1,0-.4-.1-.8-.2-1.3-.2s-1.1.2-1.4.6c-.3.4-.5.9-.5,1.7s.2,1.4.5,1.7.8.5,1.4.5.5,0,.7,0,.4,0,.6-.2c0,0,0,0,.1.1h0ZM66.2,22.7c.3,1,.1,1.8.1,1.9,0,.1-.1.1-.1.1h-4.3c0,.7.2,1.1.5,1.4.3.3.8.5,1.5.5,1,0,1.4-.2,1.8-.3,0,0,.1,0,.2,0l.3.8c0,.1,0,.2,0,.2-.3.1-.9.4-2.2.4s-1.1,0-1.6-.3-.8-.4-1.1-.7-.5-.7-.6-1.1c-.1-.4-.2-.9-.2-1.4s0-.9.2-1.4c.1-.4.3-.8.6-1.1s.6-.6,1-.7c.4-.2.9-.3,1.4-.3s.9,0,1.2.3c.3.1.5.3.8.6.1.1.4.5.5.9h0ZM62,23.6h3c0-.4-.1-.7-.3-1-.3-.4-.6-.6-1.2-.6s-1,.2-1.2.6c-.2.3-.3.6-.3,1h0ZM31.9,22.7c.3,1,.1,1.8.1,1.9,0,.1-.1.1-.1.1h-4.3c0,.7.2,1.1.5,1.4.3.3.8.5,1.5.5,1,0,1.5-.2,1.8-.3,0,0,.1,0,.2,0l.3.8c0,.1,0,.2,0,.2-.3.1-.9.4-2.2.4s-1.1,0-1.6-.3-.8-.4-1.1-.7-.5-.7-.6-1.1c-.1-.4-.2-.9-.2-1.4s0-.9.2-1.4c.1-.4.3-.8.6-1.1s.6-.6,1-.7c.4-.2.9-.3,1.4-.3s.9,0,1.2.3c.3.1.5.3.8.6.1.1.4.5.5.9h0ZM27.6,23.6h3.1c0-.4-.1-.7-.3-1-.3-.4-.6-.6-1.2-.6s-1,.2-1.2.6c-.2.3-.3.6-.4,1ZM20.1,23.4h.7c0,0,0,0,0,0,0-.6-.1-.9-.3-1s-.6-.3-1.1-.3c0,0-1.1,0-1.9.4,0,0,0,0,0,0,0,0-.1,0-.1,0l-.3-.8c0-.1,0-.2,0-.2.4-.3,1.3-.5,1.3-.5.3,0,.8-.1,1.1-.1.9,0,1.5.2,2,.6s.7,1,.7,1.9v3.9s0,.1,0,.1c0,0-.2,0-.3,0l-1.1.2c-.4,0-.9.1-1.3.1s-.8,0-1.1-.1-.6-.2-.9-.4c-.2-.2-.4-.4-.6-.7-.1-.3-.2-.6-.2-1s0-.7.2-1,.4-.5.6-.7.6-.3.9-.4c.3,0,.7-.1,1.1-.1h.7s0,0,0,0ZM18.4,26.4s.4.3,1.3.3c.6,0,1.2-.1,1.2-.1v-2s-.5,0-1.2,0-1.3.3-1.3.3c-.3.2-.4.5-.4.8,0,.2,0,.4.1.6,0,0,0,.1.2.2ZM54.6,21.2c0,.1-.3.7-.3.9,0,0,0,.1-.2.1,0,0-.3,0-.5,0-.2,0-.4,0-.6,0-.2,0-.4.2-.5.3s-.3.4-.4.6-.1.7-.1,1.1v3.2c0,0,0,.1-.1.1h-1.1c0,0-.1,0-.1-.1v-6.4c0,0,0-.1.1-.1h1.1c0,0,.1,0,.1.1v.5c.2-.2.5-.4.7-.5s.6-.2,1.1-.2c.3,0,.7,0,.7.1.1,0,.2,0,.1.2h0ZM44.1,18.2s.1,0,0,.1l-.3.9c0,0,0,.1-.2,0,0,0,0,0-.2,0,0,0-.2,0-.3,0-.2,0-.3,0-.5,0s-.3.1-.4.2-.2.3-.3.5c-.2.5-.2.9-.2,1h1.4c.1,0,.1,0,.1.1l-.2.9c0,.1-.1.1-.1.1h-1.4l-.9,5.5c-.1.6-.2,1.1-.4,1.4s-.3.7-.6,1c-.2.3-.5.5-.8.5-.3.1-.7.2-1.1.2s-.4,0-.6,0c-.1,0-.3,0-.4-.1,0,0,0,0,0-.2l.3-.9c0-.1.1,0,.1,0h.2c.1.1.2.1.3.1.2,0,.4,0,.5,0,.2,0,.3-.2.4-.3s.2-.3.3-.6c.1-.3.2-.7.3-1.1l1-5.4h-.9c-.1,0-.1,0-.1-.1l.2-.9c0-.1.1-.1.1-.1h1v-.3c.2-.9.5-1.5.9-1.9s1.1-.7,1.8-.7.4,0,.6,0c.1,0,.3,0,.4,0h0ZM24.9,27.5c0,0,0,.1-.1.1h-1.1c0,0-.1,0-.1-.1v-9.1c0,0,0-.1.1-.1h1.1c0,0,.1,0,.1.1v9.1Z"/>
    </g>
  </g>
</svg>