<?xml version="1.0" encoding="UTF-8"?>
<svg xmlns="http://www.w3.org/2000/svg" xmlns:xlink="http://www.w3.org/1999/xlink" viewBox="0 0 1080 1080">
  <defs>
    <style>
      .cls-1 {
        stroke: #ffde80;
        stroke-dasharray: 0 0 18 25;
        stroke-width: 5px;
      }

      .cls-1, .cls-2, .cls-3, .cls-4, .cls-5, .cls-6, .cls-7, .cls-8, .cls-9, .cls-10, .cls-11, .cls-12, .cls-13 {
        fill: none;
      }

      .cls-1, .cls-3, .cls-4, .cls-5, .cls-6, .cls-7, .cls-8, .cls-9, .cls-10, .cls-11, .cls-12, .cls-13 {
        stroke-miterlimit: 10;
      }

      .cls-1, .cls-3, .cls-9, .cls-10 {
        opacity: .8;
        stroke-linecap: round;
      }

      .cls-14 {
        clip-path: url(#clippath);
      }

      .cls-2, .cls-15, .cls-16, .cls-17, .cls-18, .cls-19, .cls-20, .cls-21, .cls-22, .cls-23, .cls-24, .cls-25, .cls-26, .cls-27, .cls-28, .cls-29, .cls-30, .cls-31, .cls-32, .cls-33, .cls-34, .cls-35, .cls-36, .cls-37, .cls-38, .cls-39, .cls-40, .cls-41 {
        stroke-width: 0px;
      }

      .cls-3 {
        stroke: #ffeea4;
        stroke-dasharray: 0 0 8 14;
        stroke-width: 2px;
      }

      .cls-4 {
        stroke: #384e4b;
        stroke-width: 85px;
      }

      .cls-5 {
        stroke: #719d96;
        stroke-width: 24px;
      }

      .cls-42 {
        clip-path: url(#clippath-1);
      }

      .cls-43 {
        clip-path: url(#clippath-3);
      }

      .cls-44 {
        clip-path: url(#clippath-2);
      }

      .cls-6 {
        stroke: #547570;
        stroke-width: 57px;
      }

      .cls-15 {
        opacity: .1;
      }

      .cls-15, .cls-16 {
        fill: #d0fcf5;
      }

      .cls-7 {
        stroke: #486460;
        stroke-width: 73px;
      }

      .cls-8 {
        stroke: #648b85;
        stroke-width: 31px;
      }

      .cls-9 {
        stroke: #ffe8b0;
        stroke-dasharray: 0 0 10 16;
        stroke-width: 3px;
      }

      .cls-10 {
        stroke: #ffe299;
        stroke-dasharray: 0 0 15 22;
        stroke-width: 4px;
      }

      .cls-11 {
        stroke: #53736e;
        stroke-width: 47px;
      }

      .cls-12 {
        stroke: #445e5a;
        stroke-width: 68px;
      }

      .cls-16 {
        opacity: .08;
      }

      .cls-17 {
        fill: #76a0b7;
      }

      .cls-18 {
        fill: #5fc256;
      }

      .cls-19 {
        fill: #77dd5e;
      }

      .cls-20 {
        fill: #46b255;
      }

      .cls-21 {
        fill: #4dbc50;
      }

      .cls-22 {
        fill: #62c959;
      }

      .cls-23 {
        fill: #5a96bf;
      }

      .cls-24 {
        fill: #52ffc1;
      }

      .cls-25 {
        fill: #52c159;
      }

      .cls-26 {
        fill: #37e2a9;
      }

      .cls-27 {
        fill: #31f4a9;
      }

      .cls-28 {
        fill: #3fb252;
      }

      .cls-29 {
        fill: #b8fff5;
      }

      .cls-30 {
        fill: #fc8b8b;
      }

      .cls-31 {
        fill: #ff6464;
      }

      .cls-32 {
        fill: #ff7676;
      }

      .cls-33 {
        fill: #fdda28;
      }

      .cls-34 {
        fill: #fdde57;
      }

      .cls-35 {
        fill: #7ccc5a;
      }

      .cls-36 {
        fill: #69cc54;
      }

      .cls-37 {
        fill: #6aaed3;
      }

      .cls-38 {
        fill: #71bfe2;
      }

      .cls-39 {
        fill: #ffefab;
      }

      .cls-40 {
        fill: #ffe578;
      }

      .cls-41 {
        fill: #ff5050;
      }

      .cls-13 {
        stroke: #618781;
        stroke-width: 36px;
      }
    </style>
    <clipPath id="clippath">
      <path class="cls-2" d="m521.97,1087.35c138.69-27,132.61-261,304.82-261,142.78,0,164.78,216,276.78,254l-581.61,7h.01Z"/>
    </clipPath>
    <clipPath id="clippath-1">
      <path class="cls-2" d="m36.64,722.79c0-102.8-25.04-623.44,96.44-622.77,131.81.73,115.63,456.24,117.37,622.77H36.64h0Z"/>
    </clipPath>
    <clipPath id="clippath-2">
      <path class="cls-2" d="m522.07,1010.35c-69.36-351-58.77-691-206.2-726.23-162.64-38.87-146,338.62-218.15,352.13-62.08,11.63-79.53-32.27-79.37-85.74l.16,447.98,503.56,11.86Z"/>
    </clipPath>
    <clipPath id="clippath-3">
      <path class="cls-2" d="m893.58,1078.35c-105.06,2.43-139.64-505-313.97-505-196.31.35-143.03,505-363.03,507l677-2Z"/>
    </clipPath>
  </defs>
  <g id="Layer_3" data-name="Layer 3">
    <g id="garage">
      <rect class="cls-29" x="-289.42" y=".9" width="1922.92" height="1080"/>
    </g>
  </g>
  <g id="schedule">
    <g>
      <path class="cls-33" d="m893,792.3c-23.41-11.12-46.81,15.05-70.22,3.96v-60.44c23.41,13.74,46.81-9.8,70.22,3.96v52.53Z"/>
      <path class="cls-34" d="m881.87,735.76c-19.71-3.2-39.39,11.63-59.1.07v50.46c8.74-3.2,17.45-8.44,29.54-18.19,9.23-7.44,20.7-22.29,29.54-32.32l.02-.02Z"/>
      <rect class="cls-23" x="818.66" y="733.82" width="9.14" height="137.67" rx=".35" ry=".35"/>
      <path class="cls-37" d="m825.53,733.82h-4.62c-1.25,0-2.25.33-2.25.75v61.81c3.08-.59,6.21-1.36,9.14-2.4v-59.41c0-.42-1.01-.75-2.25-.75h-.02Z"/>
      <path class="cls-38" d="m827.8,734.44c0-.35-1.01-.64-2.25-.64h-4.62c-1.25,0-2.25.27-2.25.64v39.06c1.94-.44,3.86-.97,5.68-1.58,1.32-.44,2.45-.9,3.46-1.36v-36.13h-.02Z"/>
    </g>
    <g>
      <path class="cls-41" d="m203.33,67.07c-23.41-11.12-46.81,15.05-70.22,3.96V10.59c23.41,13.74,46.81-9.8,70.22,3.96v52.53Z"/>
      <path class="cls-31" d="m192.2,10.52c-19.71-3.2-39.39,11.63-59.1.07v50.46c8.74-3.2,17.45-8.44,29.54-18.19,9.23-7.44,20.7-22.29,29.54-32.32l.02-.02Z"/>
      <rect class="cls-33" x="128.99" y="8.59" width="9.14" height="137.67" rx=".35" ry=".35"/>
      <path class="cls-40" d="m135.86,8.59h-4.62c-1.25,0-2.25.33-2.25.75v61.81c3.08-.59,6.21-1.36,9.14-2.4V9.35c0-.42-1.01-.75-2.25-.75h-.02Z"/>
      <path class="cls-39" d="m138.13,9.22c0-.35-1.01-.64-2.25-.64h-4.62c-1.25,0-2.25.27-2.25.64v39.06c1.94-.44,3.86-.97,5.68-1.58,1.32-.44,2.45-.9,3.46-1.36V9.22h-.02Z"/>
    </g>
    <g>
      <path class="cls-23" d="m665.16,537.3c-23.41-11.12-46.81,15.05-70.22,3.96v-60.44c23.41,13.74,46.81-9.8,70.22,3.96v52.53h0Z"/>
      <path class="cls-37" d="m654.03,480.77c-19.71-3.2-39.39,11.63-59.1.07v50.46c8.74-3.2,17.45-8.44,29.54-18.19,9.23-7.44,20.7-22.29,29.54-32.32l.02-.02Z"/>
      <rect class="cls-31" x="590.83" y="478.83" width="9.14" height="137.67" rx=".35" ry=".35"/>
      <path class="cls-32" d="m597.71,478.83h-4.62c-1.25,0-2.25.33-2.25.75v61.81c3.08-.59,6.21-1.36,9.14-2.4v-59.41c0-.42-1.01-.75-2.25-.75h-.02Z"/>
      <path class="cls-30" d="m599.97,479.45c0-.35-1.01-.64-2.25-.64h-4.62c-1.25,0-2.25.27-2.25.64v39.06c1.94-.44,3.86-.97,5.68-1.58,1.32-.44,2.45-.9,3.46-1.36v-36.13h-.02Z"/>
    </g>
    <path class="cls-20" d="m521.97,1087.35c138.69-27,132.61-261,304.82-261,142.78,0,164.78,216,276.78,254l-581.61,7h.01Z"/>
    <g class="cls-14">
      <path class="cls-4" d="m1008.63,952.69s-72.49,46.04-198.1,38.41c-119.14-7.24-183.8-84.59-183.8-84.59"/>
      <path class="cls-12" d="m1008.63,952.69s-72.49,46.04-198.1,38.41c-119.14-7.24-183.8-84.59-183.8-84.59"/>
      <path class="cls-1" d="m1008.63,952.69s-72.49,46.04-198.1,38.41c-119.14-7.24-183.8-84.59-183.8-84.59"/>
    </g>
    <path class="cls-15" d="m826.79,826.35c-46.37,0-79.81,16.97-106.64,42.3,27.11-6.16,86.89-13.67,135.91,10.66,49.89,24.76,104.63,143.8,158.93,176.64s71.58,16.96,88.58,24.4h0c-112-38-134-254-276.78-254Z"/>
    <path class="cls-25" d="m320.58,712.35c46.33-29.12,68.62-256.05,163-234,107,25,92.1,165.36,162,216l-325,18Z"/>
    <path class="cls-15" d="m402.16,546.97s42.11-39.01,92.74-20.95c44.55,15.89,103.72,100.92,103.72,100.92-25.52-59.61-41.44-131.39-115.04-148.58-36.06-8.43-61.6,19.5-81.97,58.85l.55,9.77Z"/>
    <g>
      <path class="cls-33" d="m370.57,248c-23.41-11.12-46.81,15.05-70.22,3.96v-60.44c23.41,13.74,46.81-9.8,70.22,3.96v52.53Z"/>
      <path class="cls-34" d="m359.43,191.46c-19.71-3.2-39.39,11.63-59.1.07v50.46c8.74-3.2,17.45-8.44,29.54-18.19,9.23-7.44,20.7-22.29,29.54-32.32l.02-.02Z"/>
      <rect class="cls-23" x="296.23" y="189.52" width="9.14" height="137.67" rx=".35" ry=".35"/>
      <path class="cls-37" d="m303.1,189.52h-4.62c-1.25,0-2.25.33-2.25.75v61.81c3.08-.59,6.21-1.36,9.14-2.4v-59.41c0-.42-1.01-.75-2.25-.75h-.02Z"/>
      <path class="cls-38" d="m305.37,190.14c0-.35-1.01-.64-2.25-.64h-4.62c-1.25,0-2.25.27-2.25.64v39.06c1.94-.44,3.86-.97,5.68-1.58,1.32-.44,2.45-.9,3.46-1.36v-36.13h-.02Z"/>
    </g>
    <path class="cls-19" d="m36.64,722.79c0-102.8-25.04-623.44,96.44-622.77,131.81.73,115.63,456.24,117.37,622.77H36.64h0Z"/>
    <g class="cls-42">
      <path class="cls-8" d="m231.83,206.74s-37.1,61.56-86.49,83.06c-66.78,29.07-122.67,19.4-122.67,19.4"/>
      <path class="cls-5" d="m231.83,206.74s-37.1,61.56-86.49,83.06c-66.78,29.07-122.67,19.4-122.67,19.4"/>
      <path class="cls-3" d="m231.83,206.74s-37.1,61.56-86.49,83.06c-66.78,29.07-122.67,19.4-122.67,19.4"/>
    </g>
    <g>
      <path class="cls-24" d="m156.58,627.35h-28c0-80-3-94,0-174,1.06-28.14,4-118,4-146,1.9-52.29,2-103.68-3.16-155.88-.43-4.35,3-8.12,7.37-8.12h14c3.27,0,6.01,2.5,6.29,5.76,6.49,76.13.5,152.96.5,230.24,0,47-1,248-1,248Z"/>
      <path class="cls-35" d="m156.84,146.33s-4.63-9.48-15.26-8.98-12.55,10.28-12.55,10.28l.42,4.22,27.77-1.14-.37-4.37h-.01Z"/>
      <path class="cls-27" d="m139.58,148.35c-3.68,0-7.22-.25-10.56-.72.41,3.96.79,7.92,1.14,11.87,3.59.55,7.43.85,11.42.85,5.86,0,11.38-.65,16.27-1.78-.32-4.08-.67-8.16-1.02-12.23-5.12,1.28-11,2.02-17.25,2.02h0Z"/>
    </g>
    <path class="cls-22" d="m522.07,1010.35c-69.36-351-58.77-691-206.2-726.23-162.64-38.87-146,338.62-218.15,352.13-62.08,11.63-79.53-32.27-79.37-85.74l.16,447.98,503.56,11.86Z"/>
    <path class="cls-17" d="m779.22,164.08c9.37,5.63,16.71,12.84,21.31,20.24,8.69.61,18.5,3.71,27.87,9.34,5.67,3.4,10.58,7.39,14.61,11.64-3.5-6.46-9.42-12.67-17.18-17.33-7.73-4.64-15.93-6.96-23.24-7.05-3.5-6.42-9.4-12.58-17.12-17.23-7.71-4.64-16.02-6.99-23.37-7.05,5.64,1.57,11.46,4.05,17.13,7.45v-.02Z"/>
    <path class="cls-17" d="m725.19,85.28c10.18,4,18.61,9.89,24.38,16.42,8.67-.85,18.86.58,29.03,4.58,6.15,2.42,11.65,5.52,16.33,9.05-4.52-5.79-11.39-10.93-19.82-14.24-8.38-3.3-16.87-4.23-24.09-3.1-4.52-5.75-11.36-10.84-19.75-14.14s-16.96-4.24-24.21-3.07c5.82.61,11.98,2.08,18.13,4.5Z"/>
    <path class="cls-17" d="m615.71,158.5c10.56,2.85,19.59,7.76,26.05,13.61,8.52-1.81,18.81-1.51,29.36,1.33,6.38,1.73,12.2,4.2,17.24,7.18-5.13-5.25-12.54-9.59-21.28-11.95-8.7-2.35-17.23-2.32-24.28-.39-5.13-5.21-12.5-9.52-21.19-11.87s-17.32-2.32-24.4-.37c5.86-.05,12.13.74,18.51,2.46h.01Z"/>
    <g class="cls-44">
      <path class="cls-11" d="m511.22,540.37s-132.8,2.99-225.85-47.3c-83.83-45.31-113.72-151.8-113.72-151.8"/>
      <path class="cls-13" d="m511.22,540.37s-132.8,2.99-225.85-47.3c-83.83-45.31-113.72-151.8-113.72-151.8"/>
      <path class="cls-9" d="m511.22,540.37s-132.8,2.99-225.85-47.3c-83.83-45.31-113.72-151.8-113.72-151.8"/>
      <path class="cls-11" d="m432.11,793.85s-138.77-16.02-224.21-84.45c-76.99-61.65-84.13-182.29-84.13-182.29"/>
      <path class="cls-13" d="m432.11,793.85s-138.77-16.02-224.21-84.45c-76.99-61.65-84.13-182.29-84.13-182.29"/>
      <path class="cls-9" d="m432.11,793.85s-138.77-16.02-224.21-84.45c-76.99-61.65-84.13-182.29-84.13-182.29"/>
    </g>
    <path class="cls-2" d="m893.58,1078.35c-105.06,2.43-139.64-505-313.97-505-196.31.35-143.03,505-363.03,507l677-2Z"/>
    <path class="cls-18" d="m893.58,1078.35c-105.06,2.43-139.64-505-313.97-505-196.31.35-143.03,505-363.03,507l677-2Z"/>
    <g class="cls-43">
      <path class="cls-7" d="m818.28,964.16s-50.47,17.09-116.36,14.11c-199.06-9.01-205.56-175.66-353.38-185.83"/>
      <path class="cls-6" d="m818.28,964.16s-50.47,17.09-116.36,14.11c-199.06-9.01-205.56-175.66-353.38-185.83"/>
      <path class="cls-10" d="m818.28,964.16s-50.47,17.09-116.36,14.11c-199.06-9.01-205.56-175.66-353.38-185.83"/>
    </g>
    <g>
      <path class="cls-28" d="m656.88,685.19s-32.16-23.32-82.3-21.84c-34,1-54.64,31.11-54.64,31.11l22.64,9.89,104-8,10.3-11.16Z"/>
      <path class="cls-27" d="m563.58,1216.35l93.66-50.02c.94,1.5,44.34-15.98,59.34-7.98,0,0-34.92-96.54-39-148-5-63,9.39-124.84,7-180-2.32-53.65-13.12-103.91-27.7-145.16-13.71,2.34-38.02,5.87-69.92,7.95-26.09,1.7-50.67,1.67-67.03,1.32,12.29,29.5,26.47,91.68,28.64,141.89,1.53,35.28-11,99-13,168-2.62,90.23,28,212,28,212h.01Z"/>
      <path class="cls-26" d="m656.88,685.19c-13.71,2.34-38.02,5.87-69.92,7.95-26.09,1.7-50.67,1.67-67.03,1.32,2.05,4.92,4.49,11.04,7.14,18.04,16.32.31,39.91.27,64.89-1.36,32.77-2.14,57.5-5.8,70.99-8.14-2.06-6.25-4.1-12.22-6.08-17.81h.01Z"/>
    </g>
    <path class="cls-15" d="m451.04,694.79c32.05-31.51,63.54-34.12,137.37-31.5,135.34,4.8,190.12,210.6,190.12,210.6-.02-.05-.04-.11-.05-.16-.62-1.83-1.23-3.67-1.85-5.5-.01-.04-.03-.09-.04-.13-.59-1.76-1.18-3.51-1.77-5.27-.11-.31-.21-.63-.32-.94-.58-1.72-1.16-3.44-1.74-5.17-.09-.26-.18-.52-.26-.78-.6-1.78-1.2-3.57-1.81-5.35-.04-.12-.08-.24-.12-.36-.6-1.78-1.2-3.55-1.8-5.33-.05-.15-.1-.3-.15-.45-.6-1.77-1.2-3.55-1.81-5.32-.09-.26-.18-.52-.27-.79-.59-1.72-1.18-3.45-1.77-5.17-.11-.32-.22-.64-.33-.96-.59-1.73-1.19-3.46-1.78-5.19-.07-.22-.15-.43-.22-.65-.62-1.81-1.25-3.62-1.87-5.43-.01-.04-.02-.07-.04-.11-.62-1.8-1.25-3.6-1.88-5.39-.09-.26-.18-.51-.27-.77-.6-1.72-1.21-3.45-1.81-5.17-.11-.31-.22-.62-.33-.94-.6-1.71-1.21-3.43-1.81-5.14-.1-.28-.2-.55-.29-.83-.63-1.77-1.26-3.53-1.89-5.3-.05-.14-.1-.28-.15-.42-.62-1.74-1.25-3.48-1.88-5.22-.06-.17-.12-.34-.18-.51-.63-1.74-1.26-3.48-1.9-5.21-.11-.29-.21-.58-.32-.87-.62-1.69-1.24-3.38-1.87-5.07-.11-.31-.23-.61-.34-.92-.63-1.71-1.27-3.42-1.91-5.12-.08-.22-.17-.45-.25-.67-.66-1.77-1.33-3.54-2-5.3,0-.03-.02-.05-.03-.08-.67-1.76-1.34-3.51-2.01-5.27-.1-.25-.19-.5-.29-.75-.64-1.67-1.29-3.33-1.94-4.99-.12-.31-.24-.62-.36-.93-.65-1.65-1.29-3.29-1.94-4.94-.11-.28-.22-.56-.33-.84-.67-1.69-1.35-3.38-2.02-5.06-.06-.14-.11-.28-.17-.41-.67-1.66-1.34-3.31-2.02-4.96-.07-.17-.14-.35-.21-.52-.68-1.65-1.36-3.3-2.04-4.94-.12-.28-.24-.57-.35-.85-.67-1.6-1.34-3.2-2.02-4.8-.12-.29-.24-.58-.37-.86-.68-1.61-1.37-3.21-2.06-4.81-.09-.22-.19-.44-.28-.65-.72-1.66-1.44-3.32-2.17-4.96,0-.02-.02-.04-.03-.06-.73-1.65-1.46-3.29-2.2-4.92-.1-.23-.21-.46-.31-.69-.7-1.56-1.41-3.1-2.12-4.64-.13-.28-.26-.56-.39-.84-.71-1.53-1.42-3.06-2.13-4.57-.12-.25-.23-.49-.35-.74-.74-1.56-1.48-3.12-2.22-4.66-.06-.12-.12-.25-.18-.37-.74-1.53-1.48-3.05-2.23-4.57-.07-.14-.14-.29-.21-.43-.75-1.51-1.5-3.01-2.25-4.51-.12-.25-.25-.49-.37-.74-.74-1.45-1.47-2.89-2.22-4.33-.14-.26-.27-.53-.41-.79-.75-1.44-1.51-2.88-2.27-4.31-.1-.19-.2-.38-.31-.57-.8-1.49-1.59-2.97-2.4-4.44,0-.01-.02-.03-.02-.04-.8-1.47-1.62-2.92-2.43-4.37-.11-.19-.22-.39-.33-.59-.78-1.37-1.56-2.74-2.34-4.09-.14-.24-.28-.49-.42-.73-.78-1.34-1.56-2.67-2.35-3.98-.13-.22-.26-.44-.39-.65-.81-1.35-1.63-2.7-2.45-4.03-.06-.1-.13-.2-.19-.31-.82-1.32-1.64-2.63-2.47-3.93-.08-.12-.15-.24-.23-.36-.83-1.29-1.66-2.57-2.49-3.84-.14-.21-.28-.42-.42-.63-.82-1.23-1.64-2.45-2.46-3.66-.15-.22-.29-.43-.44-.64-.83-1.21-1.67-2.42-2.52-3.61-.11-.16-.23-.32-.34-.48-.88-1.24-1.77-2.46-2.66-3.67,0-.01-.02-.02-.02-.03-.89-1.21-1.79-2.4-2.69-3.57-.12-.16-.25-.32-.37-.48-.86-1.12-1.73-2.22-2.6-3.31-.16-.2-.31-.39-.47-.59-.87-1.08-1.74-2.14-2.61-3.19-.15-.18-.29-.35-.44-.52-.9-1.08-1.81-2.14-2.72-3.18-.07-.09-.15-.17-.22-.25-.91-1.04-1.83-2.06-2.75-3.07-.08-.09-.17-.18-.25-.27-.92-1-1.85-1.99-2.78-2.96-.15-.16-.31-.32-.46-.48-.91-.94-1.82-1.86-2.74-2.77-.17-.16-.33-.33-.5-.49-.93-.91-1.86-1.81-2.81-2.69-.13-.12-.26-.24-.38-.35-.99-.92-1.98-1.82-2.98-2.7,0,0,0,0-.01-.01-1-.88-2-1.74-3.01-2.58-.14-.11-.27-.23-.41-.34-.96-.8-1.93-1.57-2.9-2.33-.18-.14-.35-.27-.53-.41-.97-.75-1.94-1.48-2.92-2.19-.16-.12-.33-.24-.49-.35-1.01-.73-2.02-1.44-3.04-2.13-.08-.06-.17-.11-.25-.17-1.02-.68-2.04-1.35-3.07-2-.09-.06-.18-.12-.27-.17-1.03-.64-2.07-1.26-3.11-1.87-.17-.1-.34-.2-.51-.3-1.02-.58-2.04-1.14-3.07-1.69-.19-.1-.37-.19-.56-.29-1.04-.54-2.08-1.07-3.14-1.57-.14-.07-.29-.13-.43-.2-1.11-.52-2.22-1.03-3.34-1.5,0,0,0,0,0,0-1.12-.48-2.24-.92-3.38-1.36-.15-.06-.3-.12-.45-.17-1.08-.4-2.16-.78-3.25-1.15-.2-.06-.39-.13-.59-.19-1.08-.35-2.17-.68-3.27-.99-.18-.05-.37-.1-.55-.15-1.13-.31-2.26-.61-3.4-.87-.1-.02-.2-.04-.29-.07-1.14-.26-2.28-.5-3.43-.72-.1-.02-.2-.04-.3-.06-1.16-.21-2.32-.4-3.49-.56-.19-.03-.38-.06-.57-.08-1.14-.15-2.28-.29-3.44-.4-.21-.02-.41-.04-.62-.06-1.16-.1-2.33-.19-3.51-.24-.16,0-.33-.01-.49-.02-1.24-.05-2.48-.09-3.74-.09-62.57.11-99.78,51.46-128.57,121.44Z"/>
    <path class="cls-15" d="m296.72,362.87c82.21,2.27,142.88,122.59,142.88,122.59l9.83,49.89c-24.53-136.74-58.65-233.33-133.56-251.23-77.01-18.4-113.82,56.53-138.9,141.98,0,0,64.07-64.76,119.74-63.23Z"/>
    <path class="cls-15" d="m141.91,197.62c39.03,10.83,83.7,105.99,97.13,136.49-13.38-128.08-42.54-233.73-105.96-234.08-35.81-.2-58.88,44.9-73.62,111.23,9.78-6.16,43.36-24.48,82.45-13.64Z"/>
    <path class="cls-36" d="m-176.42,1083.35C-70.16,988.35-73.86,386.35,63.41,421.57c134.53,34.52,25.33,536.78,257.35,656.78l-497.18,5h0Z"/>
    <path class="cls-22" d="m169.58,1078.87c-110.66-27.52-132.25-374.52-297.35-374.52-174.14,0-184.56,325-343.81,376l641.16-1.48Z"/>
    <path class="cls-15" d="m61.54,512.31c60.08,22.37,87.98,156.32,87.98,156.32h0c-14.77-124.85-26.57-231.78-86.11-247.06-44.88-11.52-74.69,45.09-98.2,129.81h0s47.73-57.17,96.33-39.08Z"/>
    <path class="cls-15" d="m-133.51,764.08c95.52.9,170.03,106.45,170.03,106.45l-6.06-13.24c-37.63-80.97-83.05-152.93-158.23-152.93-55.45,0-94.29,32.95-126.63,79.51l-8.49,12.74s69.49-33.08,129.37-32.52Z"/>
    <path class="cls-21" d="m-4.5,1078.35c78.63-46,72.45-465,196.57-465,133.7,0,99.32,390,217.94,470l-414.51-5h0Z"/>
    <path class="cls-16" d="m188.82,687.09c79.29,17.86,125.13,171.22,125.13,171.22l-1.48-12.69c-24.84-117.69-47.93-232.27-120.39-232.27-41.58,0-68.54,47.04-88.96,111.32.07-.04,42.9-47.23,85.71-37.58Z"/>
  </g>
</svg>