<?xml version="1.0" encoding="UTF-8"?>
<svg id="Layer_2" data-name="Layer 2" xmlns="http://www.w3.org/2000/svg" viewBox="0 0 699 1083">
  <defs>
    <style>
      .cls-1 {
        opacity: .8;
      }

      .cls-1, .cls-2 {
        fill: #fff;
        stroke-width: 0px;
      }
    </style>
  </defs>
  <path class="cls-2" d="m379.03,558.89c13.66,8.21,24.36,18.72,31.06,29.5,12.67.88,26.97,5.41,40.62,13.62,8.26,4.96,15.43,10.78,21.29,16.97-5.1-9.42-13.73-18.46-25.04-25.26-11.26-6.77-23.22-10.15-33.87-10.27-5.1-9.35-13.71-18.34-24.95-25.11-11.24-6.77-23.36-10.19-34.06-10.27,8.22,2.29,16.71,5.9,24.97,10.86l-.02-.03Z"/>
  <path class="cls-2" d="m261.56,667.24c12.89,5.07,23.57,12.53,30.88,20.8,10.98-1.07,23.89.74,36.78,5.81,7.8,3.06,14.76,7,20.69,11.46-5.73-7.33-14.43-13.84-25.11-18.04-10.62-4.18-21.37-5.35-30.52-3.92-5.73-7.28-14.39-13.74-25.02-17.91-10.63-4.18-21.49-5.37-30.67-3.89,7.37.77,15.17,2.64,22.97,5.7Z"/>
  <path class="cls-2" d="m122.87,760c13.38,3.6,24.82,9.83,32.99,17.24,10.8-2.29,23.83-1.92,37.19,1.69,8.08,2.19,15.46,5.32,21.84,9.09-6.5-6.65-15.88-12.15-26.96-15.14-11.02-2.97-21.82-2.94-30.76-.5-6.5-6.6-15.83-12.06-26.84-15.03s-21.94-2.94-30.91-.47c7.42-.06,15.37.93,23.45,3.12h.02Z"/>
  <path class="cls-1" d="m44.56,338.24h79.95c3.74-17.56,18.62-30.69,36.43-30.69h6.45c3.06-18.49,18.35-32.55,36.78-32.55h185.03c17.64,0,32.09,14.33,33.46,32.55h57.08c17.8,0,32.68,13.13,36.43,30.69h58.71c10.31,0,18.67,8.81,18.67,19.67v.65c0,10.86-8.36,19.67-18.67,19.67H44.56c-10.31,0-18.67-8.81-18.67-19.67v-.65c0-10.86,8.36-19.67,18.67-19.67Z"/>
  <path class="cls-1" d="m-43.08,980.69H97.21c4.7-22.52,24.66-39.45,48.58-39.45h24.7c5.15-19.23,18.96-33,35.2-33h318.88c16.24,0,30.05,13.77,35.2,33h9.76c23.92,0,43.88,16.92,48.58,39.45h43.67c13.71,0,24.82,11.11,24.82,24.82v.82c0,13.71-11.11,24.82-24.82,24.82H-43.08c-13.71,0-24.82-11.11-24.82-24.82v-.82c0-13.71,11.11-24.82,24.82-24.82Z"/>
  <path class="cls-1" d="m-107.7,378.25H-27.74c3.74-16.67,18.62-29.13,36.43-29.13h6.45c3.06-17.55,18.35-30.9,36.78-30.9h185.03c17.64,0,32.09,13.61,33.46,30.9h57.08c17.8,0,32.68,12.46,36.43,29.13h58.71c10.31,0,18.67,8.36,18.67,18.67v.62c0,10.31-8.36,18.67-18.67,18.67H-107.7c-10.31,0-18.67-8.36-18.67-18.67v-.62c0-10.31,8.36-18.67,18.67-18.67Z"/>
</svg>