<?xml version="1.0" encoding="UTF-8"?>
<svg id="Layer_2" data-name="Layer 2" xmlns="http://www.w3.org/2000/svg" viewBox="0 0 728 1080">
  <defs>
    <style>
      .cls-1 {
        opacity: .8;
      }

      .cls-1, .cls-2 {
        fill: #fff;
        stroke-width: 0px;
      }
    </style>
  </defs>
  <path class="cls-1" d="m881.42,886.03h-79.95c-3.74-16.67-18.62-29.13-36.43-29.13h-6.45c-3.06-17.55-18.35-30.9-36.78-30.9h-185.03c-17.64,0-32.09,13.61-33.46,30.9h-57.08c-17.8,0-32.68,12.46-36.43,29.13h-58.71c-10.31,0-18.67,8.36-18.67,18.67v.62c0,10.31,8.36,18.67,18.67,18.67h530.32c10.31,0,18.67-8.36,18.67-18.67v-.62c0-10.31-8.36-18.67-18.67-18.67Z"/>
  <path class="cls-2" d="m276.62,291.22c8.26-4.96,16.74-8.57,24.97-10.86-10.71.09-22.82,3.51-34.06,10.27-11.24,6.77-19.85,15.76-24.95,25.11-10.65.12-22.61,3.51-33.87,10.27-11.31,6.8-19.94,15.84-25.04,25.26,5.86-6.19,13.03-12.01,21.29-16.97,13.66-8.21,27.95-12.74,40.62-13.62,6.7-10.78,17.4-21.29,31.06-29.5l-.02.03Z"/>
  <path class="cls-2" d="m417.07,393.84c-9.18-1.48-20.04-.29-30.67,3.89-10.63,4.18-19.29,10.63-25.02,17.91-9.15-1.43-19.91-.26-30.52,3.92-10.68,4.19-19.38,10.71-25.11,18.04,5.93-4.46,12.89-8.4,20.69-11.46,12.89-5.07,25.8-6.88,36.78-5.81,7.31-8.26,17.99-15.73,30.88-20.8,7.8-3.06,15.59-4.93,22.97-5.7Z"/>
  <path class="cls-2" d="m114.8,404c8.08-2.19,16.03-3.18,23.45-3.12-8.97-2.47-19.91-2.5-30.91.47s-20.34,8.43-26.84,15.03c-8.94-2.44-19.74-2.47-30.76.5-11.08,2.99-20.46,8.49-26.96,15.14,6.38-3.77,13.75-6.91,21.84-9.09,13.36-3.6,26.39-3.98,37.19-1.69,8.17-7.4,19.62-13.63,32.99-17.24h.02Z"/>
  <path class="cls-1" d="m1094.06,179.45h-140.3c-4.7-22.52-24.66-39.45-48.58-39.45h-24.7c-5.15-19.23-12.96-35-29.2-35h-280.88c-16.24,0-36.05,15.77-41.2,35h-47.76c-23.92,0-43.88,16.92-48.58,39.45h-43.67c-13.71,0-24.82,11.11-24.82,24.82v.82c0,13.71,11.11,24.82,24.82,24.82h704.87c13.71,0,24.82-11.11,24.82-24.82v-.82c0-13.71-11.11-24.82-24.82-24.82Z"/>
  <path class="cls-1" d="m642.68,848.01h-79.95c-3.74-16.67-18.62-29.13-36.43-29.13h-6.45c-3.06-17.55-18.35-30.9-36.78-30.9h-185.03c-17.64,0-32.09,13.61-33.46,30.9h-57.08c-17.8,0-32.68,12.46-36.43,29.13h-58.71c-10.31,0-18.67,8.36-18.67,18.67v.62c0,10.31,8.36,18.67,18.67,18.67h530.32c10.31,0,18.67-8.36,18.67-18.67v-.62c0-10.31-8.36-18.67-18.67-18.67Z"/>
  <path class="cls-1" d="m611.58,558.24h-44.01c-.53-21.98-18.5-39.63-40.6-39.63h-34.27c-1.69-20.5-18.85-36.61-39.78-36.61h-152.31c-19.97,0-36.17,16.19-36.17,36.17v.44h-71.97c-22.1,0-40.07,17.66-40.6,39.63H43.32c-11.31,0-20.47,9.17-20.47,20.47v1.58c0,11.31,9.17,20.47,20.47,20.47h568.26c11.31,0,20.47-9.17,20.47-20.47v-1.58c0-11.31-9.17-20.47-20.47-20.47Z"/>
  <path class="cls-2" d="m115.52,995.32c15.9-1.05,30.69,1.48,42.34,6.51,10.91-6.5,25.24-10.94,41.13-11.98,9.61-.64,18.82.05,27.17,1.79-9.56-4.83-21.81-7.33-34.98-6.47-13.11.87-24.86,4.91-33.68,10.89-9.53-4.77-21.72-7.24-34.82-6.39s-24.99,4.96-33.84,10.99c8.06-2.81,17.09-4.69,26.7-5.32l-.03-.02Z"/>
</svg>