<?xml version="1.0" encoding="UTF-8"?>
<svg id="Layer_1" data-name="Layer 1" xmlns="http://www.w3.org/2000/svg" xmlns:xlink="http://www.w3.org/1999/xlink" viewBox="0 0 1080 1080">
  <defs>
    <style>
      .cls-1 {
        clip-path: url(#clippath);
      }

      .cls-2, .cls-3, .cls-4 {
        fill: none;
      }

      .cls-2, .cls-5, .cls-6 {
        stroke-width: 0px;
      }

      .cls-3 {
        stroke: #474747;
        stroke-width: 17px;
      }

      .cls-3, .cls-4 {
        stroke-linecap: round;
        stroke-miterlimit: 10;
      }

      .cls-7 {
        clip-path: url(#clippath-1);
      }

      .cls-4 {
        stroke: #969696;
        stroke-width: 24px;
      }

      .cls-5 {
        fill: #565656;
      }

      .cls-6 {
        fill: #7f7f7f;
      }
    </style>
    <clipPath id="clippath">
      <path class="cls-2" d="m655.77,1055.89c-99.04,0-192.14-38.57-262.18-108.59-70.03-70.04-108.59-163.15-108.59-262.18s38.57-192.15,108.61-262.18c70.03-70.03,163.14-108.59,262.17-108.59s192.14,38.57,262.18,108.59c70.03,70.03,108.59,163.14,108.59,262.18s-38.57,192.14-108.59,262.18c-70.03,70.03-163.14,108.59-262.18,108.59h0Zm0-608.08c-130.85,0-237.31,106.46-237.31,237.31s106.46,237.31,237.31,237.31,237.31-106.46,237.31-237.31-106.46-237.31-237.31-237.31Z"/>
    </clipPath>
    <clipPath id="clippath-1">
      <path class="cls-2" d="m418.28,767.28c-99.04,0-192.14-38.57-262.18-108.59-70.03-70.04-108.59-163.15-108.59-262.18s38.57-192.15,108.61-262.18C226.14,64.31,319.26,25.74,418.28,25.74s192.14,38.57,262.18,108.59c70.03,70.03,108.59,163.14,108.59,262.18s-38.57,192.14-108.59,262.18c-70.03,70.03-163.14,108.59-262.18,108.59h0Zm0-608.08c-130.85,0-237.31,106.46-237.31,237.31s106.46,237.31,237.31,237.31,237.31-106.46,237.31-237.31-106.46-237.31-237.31-237.31Z"/>
    </clipPath>
  </defs>
  <g>
    <g>
      <path class="cls-5" d="m655.77,1055.89c-99.04,0-192.14-38.57-262.18-108.59-70.03-70.04-108.59-163.15-108.59-262.18s38.57-192.15,108.61-262.18c70.03-70.03,163.14-108.59,262.17-108.59s192.14,38.57,262.18,108.59c70.03,70.03,108.59,163.14,108.59,262.18s-38.57,192.14-108.59,262.18c-70.03,70.03-163.14,108.59-262.18,108.59h0Zm0-608.08c-130.85,0-237.31,106.46-237.31,237.31s106.46,237.31,237.31,237.31,237.31-106.46,237.31-237.31-106.46-237.31-237.31-237.31Z"/>
      <g class="cls-1">
        <g>
          <g id="_Radial_Repeat_" data-name=" Radial Repeat ">
            <path class="cls-3" d="m593.78,1063.93c2.94.15,23.09.89,44.98-13.36,22.7-14.78,28.71-33.58,29.46-36.07"/>
          </g>
          <g id="_Radial_Repeat_-2" data-name=" Radial Repeat -2">
            <path class="cls-3" d="m505.12,1038.1c2.83.85,22.22,6.39,46.87-2.21,25.58-8.92,35.91-25.73,37.23-27.98"/>
          </g>
          <g id="_Radial_Repeat_-3" data-name=" Radial Repeat -3">
            <path class="cls-3" d="m425.23,991.8c2.54,1.51,20.04,11.51,46.04,9.07,26.97-2.53,41.02-16.39,42.85-18.25"/>
          </g>
          <g id="_Radial_Repeat_-4" data-name=" Radial Repeat -4">
            <path class="cls-3" d="m358.73,927.72c2.11,2.07,16.7,15.98,42.53,19.82,26.79,3.99,43.76-6.1,45.98-7.47"/>
          </g>
          <g id="_Radial_Repeat_-5" data-name=" Radial Repeat -5">
            <path class="cls-3" d="m309.5,849.59c1.55,2.51,12.4,19.51,36.55,29.42,25.06,10.29,43.94,4.55,46.43,3.75"/>
          </g>
          <g id="_Radial_Repeat_-6" data-name=" Radial Repeat -6">
            <path class="cls-3" d="m280.4,761.95c.9,2.81,7.37,21.9,28.44,37.32,21.87,15.99,41.59,14.94,44.18,14.76"/>
          </g>
          <g id="_Radial_Repeat_-7" data-name=" Radial Repeat -7">
            <path class="cls-3" d="m273.11,669.9c.2,2.94,1.91,23.03,18.69,43.03,17.4,20.76,36.8,24.45,39.37,24.9"/>
          </g>
          <g id="_Radial_Repeat_-8" data-name=" Radial Repeat -8">
            <path class="cls-3" d="m288.08,578.77c-.51,2.91-3.65,22.81,7.85,46.26,11.94,24.32,29.87,32.56,32.26,33.59"/>
          </g>
          <g id="_Radial_Repeat_-9" data-name=" Radial Repeat -9">
            <path class="cls-3" d="m324.42,493.88c-1.18,2.71-9.01,21.28-3.46,46.79,5.76,26.47,21.22,38.75,23.29,40.34"/>
          </g>
          <g id="_Radial_Repeat_-10" data-name=" Radial Repeat -10">
            <path class="cls-3" d="m380.01,420.13c-1.8,2.34-13.85,18.51-14.56,44.6-.74,27.08,11.33,42.71,12.96,44.74"/>
          </g>
          <g id="_Radial_Repeat_-11" data-name=" Radial Repeat -11">
            <path class="cls-3" d="m451.63,361.85c-2.31,1.85-17.87,14.66-24.81,39.83-7.2,26.12.77,44.18,1.87,46.54"/>
          </g>
          <g id="_Radial_Repeat_-12" data-name=" Radial Repeat -12">
            <path class="cls-3" d="m535.13,322.39c-2.68,1.23-20.86,9.95-33.62,32.73-13.23,23.64-9.82,43.08-9.32,45.63"/>
          </g>
          <g id="_Radial_Repeat_-13" data-name=" Radial Repeat -13">
            <path class="cls-3" d="m625.64,304.07c-2.89.56-22.64,4.68-40.48,23.74-18.51,19.78-19.85,39.48-19.97,42.07"/>
          </g>
          <g id="_Radial_Repeat_-14" data-name=" Radial Repeat -14">
            <path class="cls-3" d="m717.9,307.94c-2.94-.15-23.09-.89-44.98,13.36-22.7,14.78-28.71,33.58-29.46,36.07"/>
          </g>
          <g id="_Radial_Repeat_-15" data-name=" Radial Repeat -15">
            <path class="cls-3" d="m806.55,333.78c-2.83-.85-22.22-6.39-46.87,2.21-25.58,8.92-35.91,25.73-37.23,27.98"/>
          </g>
          <g id="_Radial_Repeat_-16" data-name=" Radial Repeat -16">
            <path class="cls-3" d="m886.45,380.08c-2.54-1.51-20.04-11.51-46.04-9.07-26.97,2.53-41.02,16.39-42.85,18.25"/>
          </g>
          <g id="_Radial_Repeat_-17" data-name=" Radial Repeat -17">
            <path class="cls-3" d="m952.95,444.16c-2.11-2.07-16.7-15.98-42.53-19.82-26.79-3.99-43.76,6.1-45.98,7.47"/>
          </g>
          <g id="_Radial_Repeat_-18" data-name=" Radial Repeat -18">
            <path class="cls-3" d="m1002.18,522.29c-1.55-2.51-12.4-19.51-36.55-29.42-25.06-10.29-43.94-4.55-46.43-3.75"/>
          </g>
          <g id="_Radial_Repeat_-19" data-name=" Radial Repeat -19">
            <path class="cls-3" d="m1031.28,609.93c-.9-2.81-7.37-21.9-28.44-37.32-21.87-15.99-41.59-14.94-44.18-14.76"/>
          </g>
          <g id="_Radial_Repeat_-20" data-name=" Radial Repeat -20">
            <path class="cls-3" d="m1038.55,701.98c-.2-2.94-1.91-23.03-18.69-43.03-17.4-20.76-36.8-24.45-39.37-24.9"/>
          </g>
          <g id="_Radial_Repeat_-21" data-name=" Radial Repeat -21">
            <path class="cls-3" d="m1023.6,793.11c.51-2.91,3.65-22.81-7.85-46.26-11.94-24.32-29.87-32.56-32.26-33.59"/>
          </g>
          <g id="_Radial_Repeat_-22" data-name=" Radial Repeat -22">
            <path class="cls-3" d="m987.26,878.01c1.18-2.71,9.01-21.28,3.46-46.79-5.76-26.47-21.22-38.75-23.29-40.34"/>
          </g>
          <g id="_Radial_Repeat_-23" data-name=" Radial Repeat -23">
            <path class="cls-3" d="m931.67,951.74c1.8-2.34,13.85-18.51,14.56-44.6.74-27.08-11.33-42.71-12.96-44.74"/>
          </g>
          <g id="_Radial_Repeat_-24" data-name=" Radial Repeat -24">
            <path class="cls-3" d="m860.05,1010.02c2.31-1.85,17.87-14.66,24.81-39.83,7.2-26.12-.77-44.18-1.87-46.54"/>
          </g>
          <g id="_Radial_Repeat_-25" data-name=" Radial Repeat -25">
            <path class="cls-3" d="m776.55,1049.48c2.68-1.23,20.86-9.95,33.62-32.73,13.23-23.64,9.82-43.08,9.32-45.63"/>
          </g>
          <g id="_Radial_Repeat_-26" data-name=" Radial Repeat -26">
            <path class="cls-3" d="m686.04,1067.8c2.89-.56,22.64-4.68,40.48-23.74,18.51-19.78,19.85-39.48,19.97-42.07"/>
          </g>
        </g>
      </g>
    </g>
    <circle class="cls-4" cx="655.36" cy="686.33" r="229.51"/>
  </g>
  <g>
    <circle class="cls-6" cx="419.5" cy="396.5" r="254.5"/>
    <g>
      <path class="cls-5" d="m418.28,767.28c-99.04,0-192.14-38.57-262.18-108.59-70.03-70.04-108.59-163.15-108.59-262.18s38.57-192.15,108.61-262.18C226.14,64.31,319.26,25.74,418.28,25.74s192.14,38.57,262.18,108.59c70.03,70.03,108.59,163.14,108.59,262.18s-38.57,192.14-108.59,262.18c-70.03,70.03-163.14,108.59-262.18,108.59h0Zm0-608.08c-130.85,0-237.31,106.46-237.31,237.31s106.46,237.31,237.31,237.31,237.31-106.46,237.31-237.31-106.46-237.31-237.31-237.31Z"/>
      <g class="cls-7">
        <g>
          <g id="_Radial_Repeat_-2" data-name=" Radial Repeat ">
            <path class="cls-3" d="m356.29,775.32c2.94.15,23.09.89,44.98-13.36,22.7-14.78,28.71-33.58,29.46-36.07"/>
          </g>
          <g id="_Radial_Repeat_-2-2" data-name=" Radial Repeat -2">
            <path class="cls-3" d="m267.63,749.49c2.83.85,22.22,6.39,46.87-2.21,25.58-8.92,35.91-25.73,37.23-27.98"/>
          </g>
          <g id="_Radial_Repeat_-3-2" data-name=" Radial Repeat -3">
            <path class="cls-3" d="m187.74,703.19c2.54,1.51,20.04,11.51,46.04,9.07,26.97-2.53,41.02-16.39,42.85-18.25"/>
          </g>
          <g id="_Radial_Repeat_-4-2" data-name=" Radial Repeat -4">
            <path class="cls-3" d="m121.24,639.12c2.11,2.07,16.7,15.98,42.53,19.82,26.79,3.99,43.76-6.1,45.98-7.47"/>
          </g>
          <g id="_Radial_Repeat_-5-2" data-name=" Radial Repeat -5">
            <path class="cls-3" d="m72.01,560.98c1.55,2.51,12.4,19.51,36.55,29.42,25.06,10.29,43.94,4.55,46.43,3.75"/>
          </g>
          <g id="_Radial_Repeat_-6-2" data-name=" Radial Repeat -6">
            <path class="cls-3" d="m42.91,473.34c.9,2.81,7.37,21.9,28.44,37.32,21.87,15.99,41.59,14.94,44.18,14.76"/>
          </g>
          <g id="_Radial_Repeat_-7-2" data-name=" Radial Repeat -7">
            <path class="cls-3" d="m35.63,381.29c.2,2.94,1.91,23.03,18.69,43.03,17.4,20.76,36.8,24.45,39.37,24.9"/>
          </g>
          <g id="_Radial_Repeat_-8-2" data-name=" Radial Repeat -8">
            <path class="cls-3" d="m50.59,290.16c-.51,2.91-3.65,22.81,7.85,46.26,11.94,24.32,29.87,32.56,32.26,33.59"/>
          </g>
          <g id="_Radial_Repeat_-9-2" data-name=" Radial Repeat -9">
            <path class="cls-3" d="m86.93,205.27c-1.18,2.71-9.01,21.28-3.46,46.79,5.76,26.47,21.22,38.75,23.29,40.34"/>
          </g>
          <g id="_Radial_Repeat_-10-2" data-name=" Radial Repeat -10">
            <path class="cls-3" d="m142.52,131.52c-1.8,2.34-13.85,18.51-14.56,44.6-.74,27.08,11.33,42.71,12.96,44.74"/>
          </g>
          <g id="_Radial_Repeat_-11-2" data-name=" Radial Repeat -11">
            <path class="cls-3" d="m214.14,73.24c-2.31,1.85-17.87,14.66-24.81,39.83-7.2,26.12.77,44.18,1.87,46.54"/>
          </g>
          <g id="_Radial_Repeat_-12-2" data-name=" Radial Repeat -12">
            <path class="cls-3" d="m297.64,33.78c-2.68,1.23-20.86,9.95-33.62,32.73-13.23,23.64-9.82,43.08-9.32,45.63"/>
          </g>
          <g id="_Radial_Repeat_-13-2" data-name=" Radial Repeat -13">
            <path class="cls-3" d="m388.15,15.46c-2.89.56-22.64,4.68-40.48,23.74-18.51,19.78-19.85,39.48-19.97,42.07"/>
          </g>
          <g id="_Radial_Repeat_-14-2" data-name=" Radial Repeat -14">
            <path class="cls-3" d="m480.41,19.33c-2.94-.15-23.09-.89-44.98,13.36-22.7,14.78-28.71,33.58-29.46,36.07"/>
          </g>
          <g id="_Radial_Repeat_-15-2" data-name=" Radial Repeat -15">
            <path class="cls-3" d="m569.06,45.17c-2.83-.85-22.22-6.39-46.87,2.21-25.58,8.92-35.91,25.73-37.23,27.98"/>
          </g>
          <g id="_Radial_Repeat_-16-2" data-name=" Radial Repeat -16">
            <path class="cls-3" d="m648.97,91.47c-2.54-1.51-20.04-11.51-46.04-9.07-26.97,2.53-41.02,16.39-42.85,18.25"/>
          </g>
          <g id="_Radial_Repeat_-17-2" data-name=" Radial Repeat -17">
            <path class="cls-3" d="m715.46,155.55c-2.11-2.07-16.7-15.98-42.53-19.82-26.79-3.99-43.76,6.1-45.98,7.47"/>
          </g>
          <g id="_Radial_Repeat_-18-2" data-name=" Radial Repeat -18">
            <path class="cls-3" d="m764.69,233.68c-1.55-2.51-12.4-19.51-36.55-29.42-25.06-10.29-43.94-4.55-46.43-3.75"/>
          </g>
          <g id="_Radial_Repeat_-19-2" data-name=" Radial Repeat -19">
            <path class="cls-3" d="m793.79,321.32c-.9-2.81-7.37-21.9-28.44-37.32-21.87-15.99-41.59-14.94-44.18-14.76"/>
          </g>
          <g id="_Radial_Repeat_-20-2" data-name=" Radial Repeat -20">
            <path class="cls-3" d="m801.07,413.37c-.2-2.94-1.91-23.03-18.69-43.03-17.4-20.76-36.8-24.45-39.37-24.9"/>
          </g>
          <g id="_Radial_Repeat_-21-2" data-name=" Radial Repeat -21">
            <path class="cls-3" d="m786.11,504.5c.51-2.91,3.65-22.81-7.85-46.26-11.94-24.32-29.87-32.56-32.26-33.59"/>
          </g>
          <g id="_Radial_Repeat_-22-2" data-name=" Radial Repeat -22">
            <path class="cls-3" d="m749.78,589.4c1.18-2.71,9.01-21.28,3.46-46.79-5.76-26.47-21.22-38.75-23.29-40.34"/>
          </g>
          <g id="_Radial_Repeat_-23-2" data-name=" Radial Repeat -23">
            <path class="cls-3" d="m694.18,663.13c1.8-2.34,13.85-18.51,14.56-44.6.74-27.08-11.33-42.71-12.96-44.74"/>
          </g>
          <g id="_Radial_Repeat_-24-2" data-name=" Radial Repeat -24">
            <path class="cls-3" d="m622.56,721.41c2.31-1.85,17.87-14.66,24.81-39.83,7.2-26.12-.77-44.18-1.87-46.54"/>
          </g>
          <g id="_Radial_Repeat_-25-2" data-name=" Radial Repeat -25">
            <path class="cls-3" d="m539.06,760.87c2.68-1.23,20.86-9.95,33.62-32.73,13.23-23.64,9.82-43.08,9.32-45.63"/>
          </g>
          <g id="_Radial_Repeat_-26-2" data-name=" Radial Repeat -26">
            <path class="cls-3" d="m448.56,779.19c2.89-.56,22.64-4.68,40.48-23.74,18.51-19.78,19.85-39.48,19.97-42.07"/>
          </g>
        </g>
      </g>
    </g>
    <circle class="cls-4" cx="417.87" cy="397.72" r="229.51"/>
    <circle class="cls-5" cx="417.49" cy="398.38" r="92.38"/>
  </g>
</svg>