<?xml version="1.0" encoding="UTF-8"?>
<svg id="Layer_1" data-name="Layer 1" xmlns="http://www.w3.org/2000/svg" viewBox="0 0 1080 1080">
  <defs>
    <style>
      .cls-1 {
        fill: #333;
        opacity: .4;
      }

      .cls-1, .cls-2, .cls-3 {
        stroke-width: 0px;
      }

      .cls-2 {
        fill: #e54545;
      }

      .cls-3 {
        fill: #ff5050;
      }
    </style>
  </defs>
  <path class="cls-1" d="m862.05,402.21c-20.82-17.27-49.78-20.75-74.23-9.17-117.01,55.4-484.28,234.05-490.3,257.87-7.13,28.21,81.47,224.31,206.74,244.46,125.27,20.15,379.64-45.58,526.03-114.77,123.71-58.47-72.44-298.94-168.23-378.39Z"/>
  <path class="cls-3" d="m504.25,895.37c-72.25-11.62-132.75-92.29-171.02-158.49-27.19-47.04-10.37-107.06,37.83-132.13,112.95-58.74,312.61-161.99,402.57-204.96-120.06-115.96-440.02-120.46-598.12-9.29C-6.31,518.36-15.33,723.73,42.98,887.09c42.32,118.56,139.32,180.87,344.95,191.14,403.36,20.14,529.18-106.46,574.21-151.64,15.73-15.79,53.2-69.37,35.15-131.28-149.14,63.41-376.7,118.78-493.03,100.07Z"/>
  <g>
    <polygon class="cls-2" points="181.37 700.73 296.33 787.69 252.69 919 397.28 864.06 439.19 895.77 336.9 932.98 379.4 965.13 481.69 927.92 521.03 957.68 306.89 1037.5 267.12 1007.41 343.99 979.27 301.49 947.12 187.33 989.65 248.69 796.22 170.09 736.76 181.37 700.73"/>
    <rect class="cls-2" x="148.55" y="761.33" width="46" height="46" transform="translate(-557.45 447.94) rotate(-52.89)"/>
    <rect class="cls-2" x="157.48" y="825.76" width="46" height="46" transform="translate(-605.3 480.62) rotate(-52.89)"/>
    <rect class="cls-2" x="93.03" y="834.72" width="46" height="46" transform="translate(-638 432.78) rotate(-52.89)"/>
    <polygon class="cls-2" points="199.59 892.09 185.7 881.58 157.95 918.26 184.34 938.23 199.59 892.09"/>
  </g>
</svg>