<?xml version="1.0" encoding="UTF-8"?>
<svg id="Layer_1" data-name="Layer 1" xmlns="http://www.w3.org/2000/svg" viewBox="0 0 1080 1080">
  <defs>
    <style>
      .cls-1 {
        fill: #56b9ef;
      }

      .cls-1, .cls-2, .cls-3, .cls-4, .cls-5 {
        stroke-width: 0px;
      }

      .cls-2 {
        fill: #69c5ed;
      }

      .cls-3 {
        fill: #fc8b8b;
      }

      .cls-4 {
        fill: #ff6464;
      }

      .cls-5 {
        fill: #ff7676;
      }
    </style>
  </defs>
  <path class="cls-1" d="m919,551.24c-233.15-92.22-466.3,124.88-699.44,32.82V82.71C452.7,196.65,685.85,1.43,919,115.53v435.72Z"/>
  <path class="cls-2" d="m808.08,82.1c-196.3-26.59-392.41,96.47-588.71.61v418.55c87.02-26.59,173.86-70.04,294.26-150.86,91.95-61.68,206.15-184.89,294.26-268.15l.18-.15Z"/>
  <path class="cls-4" d="m188.23,66.15h70.04c1.59,0,2.89,1.29,2.89,2.89v1136.24c0,1.59-1.29,2.89-2.89,2.89h-70.04c-1.59,0-2.89-1.29-2.89-2.89V69.04c0-1.59,1.29-2.89,2.89-2.89Z"/>
  <path class="cls-5" d="m242.31,66.15h-38.29c-10.33,0-18.69,2.73-18.69,6.23v512.74c25.52-4.86,51.5-11.24,75.81-19.9V72.38c0-3.49-8.36-6.23-18.69-6.23h-.15Z"/>
  <path class="cls-3" d="m261.15,71.32c0-2.89-8.36-5.32-18.69-5.32h-38.29c-10.33,0-18.69,2.28-18.69,5.32v324.05c16.1-3.65,32.06-8.05,47.1-13.07,10.94-3.65,20.36-7.44,28.71-11.24V71.32h-.15Z"/>
</svg>