<?xml version="1.0" encoding="utf-8"?>
<!-- Generator: Adobe Illustrator 27.9.5, SVG Export Plug-In . SVG Version: 9.03 Build 54986)  -->
<svg version="1.1" id="Layer_2_00000101793801061399506770000013225967777630000260_"
	 xmlns="http://www.w3.org/2000/svg" xmlns:xlink="http://www.w3.org/1999/xlink" x="0px" y="0px" viewBox="0 0 981 461"
	 style="enable-background:new 0 0 981 461;" xml:space="preserve">
<style type="text/css">
	.st0{fill:#C6F4EF;}
	.st1{fill:#E1FFFA;}
</style>
<path class="st0" d="M1800.71,92.96l-79.43,0.1c-5.45-24.48-27.28-42.78-53.4-42.78l-47.02,0.07C1617.04,24.6,1597.75,5,1574.52,5
	l-744.3,1.6c-22.16,0-40.33,19.82-42.14,45.05l-140.5,0.22c-26.03,0-47.8,18.18-53.34,42.54l-123.76,0.15
	c-15.11,0-27.36,12.25-27.36,27.36v0.9c0,15.11,12.25,27.36,27.36,27.36l1330.23-1.6c15.11,0,27.36-12.25,27.36-27.36v-0.9
	C1828.07,105.21,1815.82,92.96,1800.71,92.96L1800.71,92.96z"/>
<path class="st1" d="M1407.06,220.84l-119.42,0.14c-5.43-24.5-27.27-42.83-53.41-42.83l-83.02,0.13c-3.8-25.78-23.1-45.4-46.35-45.4
	l-744.3,1.6c-22.18,0-40.35,19.85-42.14,45.11l-104.5,0.16c-26.05,0-47.83,18.21-53.35,42.58l-83.75,0.1
	c-15.11,0-27.36,12.25-27.36,27.36v0.9c0,15.11,12.25,27.36,27.36,27.36l1330.23-1.6c15.11,0,27.36-12.25,27.36-27.36v-0.9
	c0-15.11-12.25-27.36-27.36-27.36L1407.06,220.84z"/>
</svg>
