<?xml version="1.0" encoding="utf-8"?>
<!-- Generator: Adobe Illustrator 27.9.5, SVG Export Plug-In . SVG Version: 9.03 Build 54986)  -->
<svg version="1.1" id="Layer_2_00000174597582890186077360000015776872739451824261_"
	 xmlns="http://www.w3.org/2000/svg" xmlns:xlink="http://www.w3.org/1999/xlink" x="0px" y="0px" viewBox="0 0 961 460.27"
	 style="enable-background:new 0 0 961 460.27;" xml:space="preserve">
<style type="text/css">
	.st0{fill:#E1FFFA;}
	.st1{fill:#C6F4EF;}
</style>
<path class="st0" d="M377.2,101.61l-123.76-0.15c-5.54-24.35-27.31-42.54-53.34-42.54L59.6,58.7
	c-1.81-25.23-19.98-45.05-42.14-45.05l-744.3-1.6c-23.23,0-42.52,19.59-46.34,45.35l-47.02-0.07c-26.12,0-47.95,18.3-53.4,42.78
	l-79.43-0.1c-15.11,0-27.36,12.25-27.36,27.36v0.9c0,15.11,12.25,27.36,27.36,27.36l1330.23,1.6c15.11,0,27.36-12.25,27.36-27.36
	v-0.9C404.56,113.86,392.31,101.61,377.2,101.61L377.2,101.61z"/>
<path class="st1" d="M877.98,214.23l-123.76-0.15c-5.54-24.35-27.31-42.54-53.34-42.54l-140.5-0.22
	c-1.81-25.23-19.98-45.05-42.14-45.05l-744.3-1.6c-23.23,0-42.52,19.59-46.34,45.35l-47.02-0.07c-26.12,0-47.95,18.3-53.4,42.78
	l-79.43-0.1c-15.11,0-27.36,12.25-27.36,27.36v0.9c0,15.11,12.25,27.36,27.36,27.36l1330.23,1.6c15.11,0,27.36-12.25,27.36-27.36
	v-0.9C905.34,226.48,893.09,214.23,877.98,214.23L877.98,214.23z"/>
</svg>
