<?xml version="1.0" encoding="UTF-8"?>
<svg xmlns="http://www.w3.org/2000/svg" viewBox="0 0 1920 1080">
  <defs>
    <style>
      .cls-1 {
        fill: #606060;
      }

      .cls-1, .cls-2, .cls-3, .cls-4, .cls-5, .cls-6, .cls-7, .cls-8, .cls-9, .cls-10, .cls-11, .cls-12, .cls-13, .cls-14, .cls-15, .cls-16, .cls-17, .cls-18, .cls-19, .cls-20, .cls-21, .cls-22, .cls-23, .cls-24, .cls-25, .cls-26, .cls-27, .cls-28, .cls-29, .cls-30, .cls-31, .cls-32, .cls-33, .cls-34 {
        stroke-width: 0px;
      }

      .cls-2 {
        fill: #76a0b7;
      }

      .cls-3 {
        fill: #77dd5e;
      }

      .cls-4 {
        fill: #46b255;
      }

      .cls-5 {
        fill: #50efae;
      }

      .cls-6 {
        fill: #74d161;
      }

      .cls-7 {
        fill: #62c959;
      }

      .cls-8 {
        fill: #595959;
      }

      .cls-9 {
        fill: #58b74e;
      }

      .cls-10 {
        fill: #5a96bf;
      }

      .cls-11 {
        fill: gray;
      }

      .cls-12 {
        fill: #545454;
      }

      .cls-13 {
        fill: #52ffc1;
      }

      .cls-14 {
        fill: #52c159;
      }

      .cls-15 {
        fill: #6f6f6f;
      }

      .cls-16 {
        fill: #717171;
      }

      .cls-17 {
        fill: #37bf51;
      }

      .cls-18 {
        fill: #37e2a9;
      }

      .cls-19 {
        fill: #38bf52;
      }

      .cls-20 {
        fill: #31f4a9;
      }

      .cls-21 {
        fill: #3fb252;
      }

      .cls-22 {
        fill: #d0fcf5;
      }

      .cls-23 {
        fill: #64f9b2;
      }

      .cls-24 {
        fill: #fc8b8b;
      }

      .cls-25 {
        fill: #ff6464;
      }

      .cls-26 {
        fill: #ff7676;
      }

      .cls-27 {
        fill: #fdda28;
      }

      .cls-28 {
        fill: #fdde57;
      }

      .cls-29 {
        fill: #7ccc5a;
      }

      .cls-30 {
        fill: #6aaed3;
      }

      .cls-31 {
        fill: #71bfe2;
      }

      .cls-32 {
        fill: #ffefab;
      }

      .cls-33 {
        fill: #ffe578;
      }

      .cls-34 {
        fill: #ff5050;
      }
    </style>
  </defs>
  <g id="garage">
    <rect class="cls-22" x="-.27" y="0" width="1920" height="1080"/>
  </g>
  <g id="schedule_hills" data-name="schedule hills">
    <path class="cls-34" d="m1892.73,264.67c-12.78-6.07-25.56,8.22-38.34,2.16v-33c12.78,7.5,25.56-5.35,38.34,2.16v28.68Z"/>
    <path class="cls-25" d="m1886.65,233.79c-10.76-1.75-21.51,6.35-32.27.04v27.55c4.77-1.75,9.53-4.61,16.13-9.93,5.04-4.06,11.3-12.17,16.13-17.65Z"/>
    <rect class="cls-27" x="1852.14" y="232.74" width="4.99" height="75.17" rx=".19" ry=".19"/>
    <path class="cls-33" d="m1855.89,232.74h-2.52c-.68,0-1.23.18-1.23.41v33.75c1.68-.32,3.39-.74,4.99-1.31v-32.44c0-.23-.55-.41-1.23-.41Z"/>
    <path class="cls-32" d="m1857.13,233.08c0-.19-.55-.35-1.23-.35h-2.52c-.68,0-1.23.15-1.23.35v21.33c1.06-.24,2.11-.53,3.1-.86.72-.24,1.34-.49,1.89-.74v-19.73Z"/>
    <path class="cls-4" d="m974.12,1092c138.69-27,132.61-261,304.82-261,142.78,0,164.78,216,276.78,254l-581.61,7Z"/>
    <path class="cls-8" d="m1408.9,959.67c-70.81,22.02-153.29,14.79-245.16-21.5l-10.12,25.62c123.23,48.68,208.7,39.21,263.46,22.18,11.1-3.45,21.35-7.35,30.96-11.58-4.91-7.85-9.8-15.77-14.74-23.65-7.67,3.25-15.76,6.24-24.4,8.93Z"/>
    <path class="cls-12" d="m1425.26,1012.27c13.68-4.26,26.16-9.12,37.75-14.41-5.05-7.68-10.02-15.54-14.97-23.47-9.62,4.24-19.86,8.13-30.96,11.58-54.75,17.03-140.23,26.5-263.46-22.18l-10.12,25.62c103.85,41.02,198.65,48.71,281.76,22.86Z"/>
    <path class="cls-27" d="m623.77,51.29c-12.78-6.07-25.56,8.22-38.34,2.16V20.45c12.78,7.5,25.56-5.35,38.34,2.16v28.68Z"/>
    <path class="cls-28" d="m617.69,20.42c-10.76-1.75-21.51,6.35-32.27.04v27.55c4.77-1.75,9.53-4.61,16.13-9.93,5.04-4.06,11.3-12.17,16.13-17.65Z"/>
    <rect class="cls-10" x="583.18" y="19.36" width="4.99" height="75.17" rx=".19" ry=".19"/>
    <path class="cls-30" d="m586.93,19.36h-2.52c-.68,0-1.23.18-1.23.41v33.75c1.68-.32,3.39-.74,4.99-1.31V19.77c0-.23-.55-.41-1.23-.41Z"/>
    <path class="cls-31" d="m588.17,19.7c0-.19-.55-.35-1.23-.35h-2.52c-.68,0-1.23.15-1.23.35v21.33c1.06-.24,2.11-.53,3.1-.86.72-.24,1.34-.49,1.89-.74v-19.73Z"/>
    <path class="cls-3" d="m488.79,699.44c0-102.8-25.04-623.44,96.44-622.77,131.81.73,115.63,456.24,117.37,622.77h-213.81Z"/>
    <path class="cls-16" d="m611.21,260.87c27.56-16.47,49.16-40.37,61.85-62.77-1.82-7.6-3.76-14.94-5.81-22-2.59,6.94-6.94,15.76-14.29,26.21-12.87,18.29-30.38,34.59-49.31,45.91-45.91,27.43-78.07,28.32-105.54,23.82-.55,4.85-1.08,9.74-1.58,14.67,32.35,5.08,67.73,2.22,114.69-25.83Z"/>
    <path class="cls-11" d="m546.72,301.48c23.34-3.79,46.91-12.93,72.06-27.95,24.75-14.79,44.78-34.72,58.81-54.96-1.42-7-2.93-13.83-4.52-20.47-12.7,22.4-34.29,46.31-61.85,62.77-46.95,28.06-82.34,30.91-114.69,25.83-.5,4.86-.97,9.76-1.42,14.7,18.28,2.78,34.87,2.79,51.62.08Z"/>
    <path class="cls-13" d="m608.73,604h-28c0-80-3-94,0-174,1.06-28.14,4-118,4-146,1.9-52.29,2-103.68-3.16-155.88-.43-4.35,3-8.12,7.37-8.12h14c3.27,0,6.01,2.5,6.29,5.76,6.49,76.13.5,152.96.5,230.24,0,47-1,248-1,248Z"/>
    <path class="cls-14" d="m772.73,717c46.33-29.12,68.62-256.05,163-234,107,25,92.1,165.36,162,216l-325,18Z"/>
    <path class="cls-7" d="m974.22,1015c-69.36-351-58.77-691-206.2-726.23-162.64-38.87-146,338.62-218.15,352.13-62.08,11.63-79.53-32.27-79.37-85.74l.16,447.98,503.56,11.86Z"/>
    <path class="cls-17" d="m1345.73,1083c-105.06,2.43-139.64-505-313.97-505-196.31.35-143.03,505-363.03,507l677-2Z"/>
    <path class="cls-15" d="m736.41,571.16c59.57,17.66,125.94,15.98,171.12,3.86-1.07-6.63-2.16-13.18-3.27-19.65-11.85,3.39-27.98,6.59-49.16,8.08-36.9,2.59-75.5-1.4-108.67-11.23-72.83-21.59-107.7-50.46-128.59-79.89-2.26,8.91-4.45,17.78-6.6,26.54,24.27,28.21,61.03,53.29,125.17,72.3Z"/>
    <path class="cls-1" d="m726.39,590.11c60.51,17.93,125.89,17.54,175.17,6.67,3.09-.68,6.1-1.41,9.06-2.17-1.02-6.6-2.05-13.13-3.09-19.59-45.18,12.12-111.54,13.8-171.12-3.86-64.14-19.01-100.9-44.09-125.17-72.3-2.24,9.14-4.43,18.15-6.6,26.93,5.03,4.78,10.34,9.33,15.97,13.69,27.13,21.01,61.73,37.56,105.78,50.62Z"/>
    <path class="cls-7" d="m1713.32,1192c0-102.8,39.71-895,145.39-896.7,105.68-1.7,69.37,744.18,71.13,910.7l-216.52-14Z"/>
    <path class="cls-19" d="m1581.73,1182.51c73.73-95,79.15-598,177.24-559.29,92.96,36.69,77.53,408.67,156.25,558.78l-333.49.51Z"/>
    <path class="cls-15" d="m839.27,901.49c33.78,7.73,67.04,11.59,99.55,11.59s63.71-3.8,94.24-11.39c61.18-15.22,100.06-40.71,137.71-65.4,12.2-8,23.73-15.55,35.96-22.7l1.48-.87c-3.9-11.06-7.87-22.08-11.94-32.96l-2.65,1.51c-14.61,8.31-28.46,17.39-41.85,26.17-35.19,23.07-71.57,46.93-127.06,60.73-55.33,13.76-114.32,13.83-175.35.2l-1.78-.4c-3.54,11.1-7.15,22.11-10.88,32.94l2.56.58Z"/>
    <path class="cls-1" d="m847.84,868.19c30.87,6.9,61.25,10.34,90.92,10.34,30.01,0,59.3-3.53,87.65-10.58,56.64-14.09,93.53-38.28,129.21-61.67,13.15-8.62,26.75-17.53,40.99-25.66-4.11-11.01-8.31-21.89-12.62-32.54l-.38.21c-16.76,9.33-32.1,19.38-46.93,29.11-34.79,22.81-67.65,44.36-118.59,57.03-50.3,12.51-104.19,12.7-160.2.57-3.4,11.08-6.83,22.14-10.32,33.12l.3.07Z"/>
    <path class="cls-21" d="m1109.03,689.84s-32.16-23.32-82.3-21.84c-34,1-54.64,31.11-54.64,31.11l22.64,9.89,104-8,10.3-11.16Z"/>
    <path class="cls-20" d="m1015.73,1221l93.66-50.02c.94,1.5,44.34-15.98,59.34-7.98,0,0-34.92-96.54-39-148-5-63,9.39-124.84,7-180-2.32-53.65-13.12-103.91-27.7-145.16-13.71,2.34-38.02,5.87-69.92,7.95-26.09,1.7-50.67,1.67-67.03,1.32,12.29,29.5,26.47,91.68,28.64,141.89,1.53,35.28-11,99-13,168-2.62,90.23,28,212,28,212Z"/>
    <path class="cls-18" d="m1109.03,689.84c-13.71,2.34-38.02,5.87-69.92,7.95-26.09,1.7-50.67,1.67-67.03,1.32,2.05,4.92,4.49,11.04,7.14,18.04,16.32.31,39.91.27,64.89-1.36,32.77-2.14,57.5-5.8,70.99-8.14-2.06-6.25-4.1-12.22-6.08-17.81Z"/>
    <path class="cls-6" d="m275.73,1088c106.26-95,102.56-697,239.83-661.78,134.53,34.52,25.33,536.78,257.35,656.78l-497.18,5Z"/>
    <path class="cls-29" d="m608.99,122.98s-4.63-9.48-15.26-8.98-12.55,10.28-12.55,10.28l.42,4.22,27.77-1.14-.37-4.37Z"/>
    <path class="cls-20" d="m591.73,125c-3.68,0-7.22-.25-10.56-.72.41,3.96.79,7.92,1.14,11.87,3.59.55,7.43.85,11.42.85,5.86,0,11.38-.65,16.27-1.78-.32-4.08-.67-8.16-1.02-12.23-5.12,1.28-11,2.02-17.25,2.02Z"/>
    <path class="cls-2" d="m219.25,177.65c7.87,4.73,14.04,10.79,17.9,17,7.3.51,15.54,3.12,23.41,7.85,4.76,2.86,8.89,6.21,12.27,9.78-2.94-5.43-7.91-10.64-14.43-14.56-6.49-3.9-13.38-5.85-19.52-5.92-2.94-5.39-7.9-10.57-14.38-14.47s-13.46-5.87-19.63-5.92c4.74,1.32,9.63,3.4,14.39,6.26Z"/>
    <path class="cls-2" d="m173.86,111.45c8.55,3.36,15.63,8.31,20.48,13.79,7.28-.71,15.84.49,24.39,3.85,5.17,2.03,9.79,4.64,13.72,7.6-3.8-4.86-9.57-9.18-16.65-11.96-7.04-2.77-14.17-3.55-20.24-2.6-3.8-4.83-9.54-9.11-16.59-11.88s-14.25-3.56-20.34-2.58c4.89.51,10.06,1.75,15.23,3.78Z"/>
    <path class="cls-2" d="m81.89,172.96c8.87,2.39,16.46,6.52,21.88,11.43,7.16-1.52,15.8-1.27,24.66,1.12,5.36,1.45,10.25,3.53,14.48,6.03-4.31-4.41-10.53-8.06-17.88-10.04-7.31-1.97-14.47-1.95-20.4-.33-4.31-4.38-10.5-8-17.8-9.97s-14.55-1.95-20.5-.31c4.92-.04,10.19.62,15.55,2.07Z"/>
    <path class="cls-10" d="m372.32,686.08c-12.78-6.07-25.56,8.22-38.34,2.16v-33c12.78,7.5,25.56-5.35,38.34,2.16v28.68Z"/>
    <path class="cls-30" d="m366.24,655.21c-10.76-1.75-21.51,6.35-32.27.04v27.55c4.77-1.75,9.53-4.61,16.13-9.93,5.04-4.06,11.3-12.17,16.13-17.65Z"/>
    <rect class="cls-25" x="331.73" y="654.15" width="4.99" height="75.17" rx=".19" ry=".19"/>
    <path class="cls-26" d="m335.49,654.15h-2.52c-.68,0-1.23.18-1.23.41v33.75c1.68-.32,3.39-.74,4.99-1.31v-32.44c0-.23-.55-.41-1.23-.41Z"/>
    <path class="cls-24" d="m336.72,654.49c0-.19-.55-.35-1.23-.35h-2.52c-.68,0-1.23.15-1.23.35v21.33c1.06-.24,2.11-.53,3.1-.86.72-.24,1.34-.49,1.89-.74v-19.73Z"/>
    <path class="cls-7" d="m632.73,1083.52c-110.66-27.52-132.25-374.52-297.35-374.52-174.14,0-184.56,325-343.81,376l641.16-1.48Z"/>
    <path class="cls-14" d="m476.28,1083c73.2-46,67.45-465,182.99-465,124.46,0,92.46,390,202.89,470l-385.88-5Z"/>
    <g>
      <path class="cls-9" d="m285.63,816.11s10.38-14.78,44.1-12.96c22.87,1.24,48,24.42,48,24.42l-15.23,12.24-69.94-9.9-6.93-13.81Z"/>
      <path class="cls-23" d="m366.73,1261.04h-62c-.63,1.86-29-7.44-29-7.43,0,0,.48,63.39-.66-.46-1.35-75.49-9.68-189.14-8.07-257.41,1.56-66.4,8.83-128.59,18.63-179.63,9.22,2.9,25.57,7.26,47.02,9.84,17.55,2.11,34.07,2.06,45.08,1.63-8.26,36.51-17.8,113.46-19.26,175.59-1.03,43.66,7.4,122.52,8.74,207.91,1.76,111.67-.48,49.96-.48,49.96Z"/>
      <path class="cls-5" d="m285.63,816.11c9.22,2.9,25.57,7.26,47.02,9.84,17.55,2.11,34.07,2.06,45.08,1.63-1.38,6.09-3.02,13.66-4.8,22.33-10.98.38-26.84.34-43.64-1.68-22.04-2.65-38.67-7.18-47.75-10.07,1.38-7.73,2.76-15.12,4.09-22.05Z"/>
    </g>
  </g>
</svg>