<?xml version="1.0" encoding="utf-8"?>
<!-- Generator: Adobe Illustrator 27.9.4, SVG Export Plug-In . SVG Version: 9.03 Build 54784)  -->
<svg version="1.1" xmlns="http://www.w3.org/2000/svg" xmlns:xlink="http://www.w3.org/1999/xlink" x="0px" y="0px"
	 viewBox="0 0 1920 1080" style="enable-background:new 0 0 1920 1080;" xml:space="preserve">
<style type="text/css">
	.st0{display:none;}
	.st1{display:inline;}
	.st2{fill:#BBFFF2;}
	.st3{fill:#46B255;}
	
		.st4{clip-path:url(#XMLID_00000173841400133637471490000000709072412127889047_);fill:none;stroke:#384E4B;stroke-width:85;stroke-miterlimit:10;}
	
		.st5{clip-path:url(#XMLID_00000173841400133637471490000000709072412127889047_);fill:none;stroke:#445E5A;stroke-width:68;stroke-miterlimit:10;}
	
		.st6{opacity:0.8;clip-path:url(#XMLID_00000173841400133637471490000000709072412127889047_);fill:none;stroke:#FFDE80;stroke-width:5;stroke-linecap:round;stroke-miterlimit:10;stroke-dasharray:18,25;}
	.st7{opacity:0.1;fill:#D0FCF5;}
	.st8{fill:none;stroke:#6B6B6B;stroke-width:68;stroke-miterlimit:10;}
	.st9{fill:#52C159;}
	.st10{fill:#FDDA28;}
	.st11{fill:#FDDE57;}
	.st12{fill:#5A96BF;}
	.st13{fill:#6AAED3;}
	.st14{fill:#71BFE2;}
	.st15{fill:#77DD5E;}
	
		.st16{clip-path:url(#XMLID_00000181785696145878709550000004733290977571631254_);fill:none;stroke:#648B85;stroke-width:31;stroke-miterlimit:10;}
	
		.st17{clip-path:url(#XMLID_00000181785696145878709550000004733290977571631254_);fill:none;stroke:#719D96;stroke-width:24;stroke-miterlimit:10;}
	
		.st18{opacity:0.8;clip-path:url(#XMLID_00000181785696145878709550000004733290977571631254_);fill:none;stroke:#FFEEA4;stroke-width:2;stroke-linecap:round;stroke-miterlimit:10;stroke-dasharray:8,14;}
	.st19{fill:#52FFC1;}
	.st20{fill:#7CCC5A;}
	.st21{fill:#31F4A9;}
	.st22{fill:#FF5050;}
	.st23{fill:#FF6464;}
	.st24{fill:#FFE578;}
	.st25{fill:#FFEFAB;}
	.st26{fill:#62C959;}
	.st27{fill:#38BF52;}
	.st28{fill:#76A0B7;}
	
		.st29{clip-path:url(#XMLID_00000023979842502484621970000002939846108001722506_);fill:none;stroke:#53736E;stroke-width:47;stroke-miterlimit:10;}
	
		.st30{clip-path:url(#XMLID_00000023979842502484621970000002939846108001722506_);fill:none;stroke:#618781;stroke-width:36;stroke-miterlimit:10;}
	
		.st31{opacity:0.8;clip-path:url(#XMLID_00000023979842502484621970000002939846108001722506_);fill:none;stroke:#FFE8B0;stroke-width:3;stroke-linecap:round;stroke-miterlimit:10;stroke-dasharray:10,16;}
	.st32{clip-path:url(#XMLID_00000023979842502484621970000002939846108001722506_);fill:#C92E21;}
	.st33{fill:none;}
	.st34{fill:#5FC256;}
	
		.st35{clip-path:url(#XMLID_00000139273617203864956720000000055519288947590534_);fill:none;stroke:#486460;stroke-width:73;stroke-miterlimit:10;}
	
		.st36{clip-path:url(#XMLID_00000139273617203864956720000000055519288947590534_);fill:none;stroke:#547570;stroke-width:57;stroke-miterlimit:10;}
	
		.st37{opacity:0.8;clip-path:url(#XMLID_00000139273617203864956720000000055519288947590534_);fill:none;stroke:#FFE299;stroke-width:4;stroke-linecap:round;stroke-miterlimit:10;stroke-dasharray:15,22;}
	.st38{fill:#3FB252;}
	.st39{fill:#37E2A9;}
	.st40{fill:#69CC54;}
	.st41{fill:#FF7676;}
	.st42{fill:#FC8B8B;}
	.st43{fill:#58B74E;}
	.st44{fill:#64F9B2;}
	.st45{fill:#50EFAE;}
	.st46{fill:#4DBC50;}
	.st47{opacity:8.000000e-02;fill:#D0FCF5;}
</style>
<g id="Layer_2" class="st0">
	<g id="garage" class="st1">
		<rect x="-0.3" class="st2" width="1920" height="1080"/>
	</g>
</g>
<g id="main_stuff">
	<path class="st3" d="M974.1,1092c138.7-27,132.6-261,304.8-261c142.8,0,164.8,216,276.8,254L974.1,1092L974.1,1092z"/>
	<g>
		<defs>
			<path id="XMLID_00000106127869636782786220000001285806480040346801_" d="M974.1,1092c138.7-27,132.6-261,304.8-261
				c142.8,0,164.8,216,276.8,254L974.1,1092L974.1,1092z"/>
		</defs>
		<clipPath id="XMLID_00000049914427367204970310000001799797331661031573_">
			<use xlink:href="#XMLID_00000106127869636782786220000001285806480040346801_"  style="overflow:visible;"/>
		</clipPath>
		
			<path style="clip-path:url(#XMLID_00000049914427367204970310000001799797331661031573_);fill:none;stroke:#384E4B;stroke-width:85;stroke-miterlimit:10;" d="
			M1460.8,957.3c0,0-72.5,46-198.1,38.4c-119.1-7.2-183.8-84.6-183.8-84.6"/>
		
			<path style="clip-path:url(#XMLID_00000049914427367204970310000001799797331661031573_);fill:none;stroke:#445E5A;stroke-width:68;stroke-miterlimit:10;" d="
			M1460.8,957.3c0,0-72.5,46-198.1,38.4c-119.1-7.2-183.8-84.6-183.8-84.6"/>
		
			<path style="opacity:0.8;clip-path:url(#XMLID_00000049914427367204970310000001799797331661031573_);fill:none;stroke:#FFDE80;stroke-width:5;stroke-linecap:round;stroke-miterlimit:10;stroke-dasharray:18,25;" d="
			M1460.8,957.3c0,0-72.5,46-198.1,38.4c-119.1-7.2-183.8-84.6-183.8-84.6"/>
	</g>
	<path class="st7" d="M1278.9,831c-46.4,0-79.8,17-106.6,42.3c27.1-6.2,86.9-13.7,135.9,10.7c49.9,24.8,104.6,143.8,158.9,176.6
		c51.9,31.4,71.6,17,88.6,24.4l0,0C1443.7,1047,1421.7,831,1278.9,831z"/>
	<path class="st8" d="M1463,969"/>
	<path class="st9" d="M772.7,717c46.3-29.1,68.6-256,163-234c107,25,92.1,165.4,162,216L772.7,717z"/>
	<path class="st7" d="M854.3,551.6c0,0,42.1-39,92.7-21c44.6,15.9,103.7,100.9,103.7,100.9c-25.5-59.6-41.4-131.4-115-148.6
		c-36.1-8.4-61.6,19.5-82,58.9L854.3,551.6z"/>
	<path class="st10" d="M623.8,51.3c-12.8-6.1-25.6,8.2-38.3,2.2v-33c12.8,7.5,25.6-5.4,38.3,2.2V51.3z"/>
	<path class="st11" d="M617.7,20.4c-10.8-1.8-21.5,6.4-32.3,0V48c4.8-1.8,9.5-4.6,16.1-9.9C606.6,34,612.8,25.9,617.7,20.4
		L617.7,20.4z"/>
	<path class="st12" d="M583.4,19.4h4.6c0.1,0,0.2,0.1,0.2,0.2v74.8c0,0.1-0.1,0.2-0.2,0.2h-4.6c-0.1,0-0.2-0.1-0.2-0.2V19.6
		C583.2,19.4,583.3,19.4,583.4,19.4z"/>
	<path class="st13" d="M586.9,19.4h-2.5c-0.7,0-1.2,0.2-1.2,0.4v33.8c1.7-0.3,3.4-0.7,5-1.3V19.8C588.2,19.5,587.6,19.4,586.9,19.4
		L586.9,19.4z"/>
	<path class="st14" d="M588.2,19.7c0-0.2-0.5-0.4-1.2-0.4h-2.5c-0.7,0-1.2,0.1-1.2,0.4V41c1.1-0.2,2.1-0.5,3.1-0.9
		c0.7-0.2,1.3-0.5,1.9-0.7L588.2,19.7L588.2,19.7z"/>
	<path class="st15" d="M488.8,699.4c0-102.8-25-623.4,96.4-622.8C717,77.4,700.9,532.9,702.6,699.4H488.8L488.8,699.4z"/>
	<g>
		<defs>
			<path id="XMLID_00000147179636121979380750000002341210055628421273_" d="M488.8,699.4c0-102.8-25-623.4,96.4-622.8
				C717,77.4,700.9,532.9,702.6,699.4H488.8L488.8,699.4z"/>
		</defs>
		<clipPath id="XMLID_00000093863117311493063050000006766563496751894199_">
			<use xlink:href="#XMLID_00000147179636121979380750000002341210055628421273_"  style="overflow:visible;"/>
		</clipPath>
		
			<path style="clip-path:url(#XMLID_00000093863117311493063050000006766563496751894199_);fill:none;stroke:#648B85;stroke-width:31;stroke-miterlimit:10;" d="
			M684,183.4c0,0-37.1,61.6-86.5,83.1c-66.8,29.1-122.7,19.4-122.7,19.4"/>
		
			<path style="clip-path:url(#XMLID_00000093863117311493063050000006766563496751894199_);fill:none;stroke:#719D96;stroke-width:24;stroke-miterlimit:10;" d="
			M684,183.4c0,0-37.1,61.6-86.5,83.1c-66.8,29.1-122.7,19.4-122.7,19.4"/>
		
			<path style="opacity:0.8;clip-path:url(#XMLID_00000093863117311493063050000006766563496751894199_);fill:none;stroke:#FFEEA4;stroke-width:2;stroke-linecap:round;stroke-miterlimit:10;stroke-dasharray:8,14;" d="
			M684,183.4c0,0-37.1,61.6-86.5,83.1c-66.8,29.1-122.7,19.4-122.7,19.4"/>
	</g>
	<g>
		<path class="st19" d="M608.7,604h-28c0-80-3-94,0-174c1.1-28.1,4-118,4-146c1.9-52.3,2-103.7-3.2-155.9c-0.4-4.3,3-8.1,7.4-8.1h14
			c3.3,0,6,2.5,6.3,5.8c6.5,76.1,0.5,153,0.5,230.2C609.7,403,608.7,604,608.7,604z"/>
		<path class="st20" d="M609,123c0,0-4.6-9.5-15.3-9s-12.5,10.3-12.5,10.3l0.4,4.2l27.8-1.1L609,123L609,123z"/>
		<path class="st21" d="M591.7,125c-3.7,0-7.2-0.2-10.6-0.7c0.4,4,0.8,7.9,1.1,11.9c3.6,0.6,7.4,0.9,11.4,0.9
			c5.9,0,11.4-0.6,16.3-1.8c-0.3-4.1-0.7-8.2-1-12.2C603.9,124.3,598,125,591.7,125L591.7,125z"/>
	</g>
	<path class="st22" d="M1892.7,264.7c-12.8-6.1-25.6,8.2-38.3,2.2v-33c12.8,7.5,25.6-5.4,38.3,2.2V264.7z"/>
	<path class="st23" d="M1886.7,233.8c-10.8-1.8-21.5,6.4-32.3,0v27.5c4.8-1.8,9.5-4.6,16.1-9.9
		C1875.6,247.4,1881.8,239.3,1886.7,233.8L1886.7,233.8z"/>
	<path class="st10" d="M1852.3,232.7h4.6c0.1,0,0.2,0.1,0.2,0.2v74.8c0,0.1-0.1,0.2-0.2,0.2h-4.6c-0.1,0-0.2-0.1-0.2-0.2v-74.8
		C1852.1,232.8,1852.2,232.7,1852.3,232.7z"/>
	<path class="st24" d="M1855.9,232.7h-2.5c-0.7,0-1.2,0.2-1.2,0.4v33.8c1.7-0.3,3.4-0.7,5-1.3v-32.4
		C1857.1,232.9,1856.6,232.7,1855.9,232.7L1855.9,232.7z"/>
	<path class="st25" d="M1857.1,233.1c0-0.2-0.6-0.4-1.2-0.4h-2.5c-0.7,0-1.2,0.1-1.2,0.4v21.3c1.1-0.2,2.1-0.5,3.1-0.9
		c0.7-0.2,1.3-0.5,1.9-0.7L1857.1,233.1L1857.1,233.1z"/>
	<path class="st26" d="M974.2,1015C904.9,664,915.4,324,768,288.8c-162.6-38.9-146,338.6-218.1,352.1
		c-62.1,11.6-79.5-32.3-79.4-85.7l0.2,448L974.2,1015z"/>
	<path class="st26" d="M1713.3,1192c0-102.8,39.7-895,145.4-896.7s69.4,744.2,71.1,910.7L1713.3,1192z"/>
	<path class="st27" d="M1581.7,1182.5c73.7-95,79.2-598,177.2-559.3c93,36.7,77.5,408.7,156.2,558.8L1581.7,1182.5z"/>
	<path class="st28" d="M219.2,177.6c7.9,4.7,14,10.8,17.9,17c7.3,0.5,15.5,3.1,23.4,7.9c4.8,2.9,8.9,6.2,12.3,9.8
		c-2.9-5.4-7.9-10.6-14.4-14.6c-6.5-3.9-13.4-5.9-19.5-5.9c-2.9-5.4-7.9-10.6-14.4-14.5s-13.5-5.9-19.6-5.9
		C209.6,172.7,214.5,174.8,219.2,177.6L219.2,177.6z"/>
	<path class="st28" d="M173.9,111.4c8.6,3.4,15.6,8.3,20.5,13.8c7.3-0.7,15.8,0.5,24.4,3.8c5.2,2,9.8,4.6,13.7,7.6
		c-3.8-4.9-9.6-9.2-16.6-12c-7-2.8-14.2-3.6-20.2-2.6c-3.8-4.8-9.5-9.1-16.6-11.9s-14.2-3.6-20.3-2.6
		C163.5,108.2,168.7,109.4,173.9,111.4z"/>
	<path class="st28" d="M81.9,173c8.9,2.4,16.5,6.5,21.9,11.4c7.2-1.5,15.8-1.3,24.7,1.1c5.4,1.4,10.2,3.5,14.5,6
		c-4.3-4.4-10.5-8.1-17.9-10c-7.3-2-14.5-1.9-20.4-0.3c-4.3-4.4-10.5-8-17.8-10s-14.6-1.9-20.5-0.3C71.2,170.9,76.5,171.5,81.9,173
		L81.9,173z"/>
	<g>
		<defs>
			<path id="XMLID_00000159449950135112957550000000386296156978704313_" d="M974.2,1015C904.9,664,915.4,324,768,288.8
				c-162.6-38.9-146,338.6-218.1,352.1c-62.1,11.6-79.5-32.3-79.4-85.7l0.2,448L974.2,1015z"/>
		</defs>
		<clipPath id="XMLID_00000096776085709246333850000000355428797099926953_">
			<use xlink:href="#XMLID_00000159449950135112957550000000386296156978704313_"  style="overflow:visible;"/>
		</clipPath>
		
			<path style="clip-path:url(#XMLID_00000096776085709246333850000000355428797099926953_);fill:none;stroke:#53736E;stroke-width:47;stroke-miterlimit:10;" d="
			M960.2,528.2c0,0-132.1,14.4-229.1-27.7C643.7,462.6,604.8,359,604.8,359"/>
		
			<path style="clip-path:url(#XMLID_00000096776085709246333850000000355428797099926953_);fill:none;stroke:#618781;stroke-width:36;stroke-miterlimit:10;" d="
			M960.2,528.2c0,0-132.1,14.4-229.1-27.7C643.7,462.6,604.8,359,604.8,359"/>
		
			<path style="opacity:0.8;clip-path:url(#XMLID_00000096776085709246333850000000355428797099926953_);fill:none;stroke:#FFE8B0;stroke-width:3;stroke-linecap:round;stroke-miterlimit:10;stroke-dasharray:10,16;" d="
			M960.2,528.2c0,0-132.1,14.4-229.1-27.7C643.7,462.6,604.8,359,604.8,359"/>
		
			<path style="clip-path:url(#XMLID_00000096776085709246333850000000355428797099926953_);fill:none;stroke:#53736E;stroke-width:47;stroke-miterlimit:10;" d="
			M903.7,816.5c0,0-139.6-4-230.6-64.8c-82-54.8-99.5-174.4-99.5-174.4"/>
		
			<path style="clip-path:url(#XMLID_00000096776085709246333850000000355428797099926953_);fill:none;stroke:#618781;stroke-width:36;stroke-miterlimit:10;" d="
			M903.7,816.5c0,0-139.6-4-230.6-64.8c-82-54.8-99.5-174.4-99.5-174.4"/>
		
			<path style="opacity:0.8;clip-path:url(#XMLID_00000096776085709246333850000000355428797099926953_);fill:none;stroke:#FFE8B0;stroke-width:3;stroke-linecap:round;stroke-miterlimit:10;stroke-dasharray:10,16;" d="
			M903.7,816.5c0,0-139.6-4-230.6-64.8c-82-54.8-99.5-174.4-99.5-174.4"/>
		
			<rect x="554" y="564.6" style="clip-path:url(#XMLID_00000096776085709246333850000000355428797099926953_);fill:#C92E21;" width="83.9" height="180.3"/>
	</g>
	<path class="st33" d="M1345.7,1083c-105.1,2.4-139.6-505-314-505c-196.3,0.3-143,505-363,507L1345.7,1083z"/>
	<path id="XMLID_00000042012047647608707220000011934912178022785436_" class="st34" d="M1345.7,1083c-105.1,2.4-139.6-505-314-505
		c-196.3,0.3-143,505-363,507L1345.7,1083z"/>
	<g>
		<defs>
			<path id="XMLID_00000090286869254628846780000005643308123485421242_" d="M1345.7,1083c-105.1,2.4-139.6-505-314-505
				c-196.3,0.3-143,505-363,507L1345.7,1083z"/>
		</defs>
		<clipPath id="XMLID_00000094619467624479243920000010781538965526271150_">
			<use xlink:href="#XMLID_00000090286869254628846780000005643308123485421242_"  style="overflow:visible;"/>
		</clipPath>
		
			<path style="clip-path:url(#XMLID_00000094619467624479243920000010781538965526271150_);fill:none;stroke:#486460;stroke-width:73;stroke-miterlimit:10;" d="
			M1270.4,968.8c0,0-50.5,17.1-116.4,14.1c-199.1-9-205.6-175.7-353.4-185.8"/>
		
			<path style="clip-path:url(#XMLID_00000094619467624479243920000010781538965526271150_);fill:none;stroke:#547570;stroke-width:57;stroke-miterlimit:10;" d="
			M1270.4,968.8c0,0-50.5,17.1-116.4,14.1c-199.1-9-205.6-175.7-353.4-185.8"/>
		
			<path style="opacity:0.8;clip-path:url(#XMLID_00000094619467624479243920000010781538965526271150_);fill:none;stroke:#FFE299;stroke-width:4;stroke-linecap:round;stroke-miterlimit:10;stroke-dasharray:15,22;" d="
			M1270.4,968.8c0,0-50.5,17.1-116.4,14.1c-199.1-9-205.6-175.7-353.4-185.8"/>
	</g>
	<g>
		<path class="st38" d="M1109,689.8c0,0-32.2-23.3-82.3-21.8c-34,1-54.6,31.1-54.6,31.1l22.6,9.9l104-8L1109,689.8z"/>
		<path class="st21" d="M1015.7,1221l93.7-50c0.9,1.5,44.3-16,59.3-8c0,0-34.9-96.5-39-148c-5-63,9.4-124.8,7-180
			c-2.3-53.7-13.1-103.9-27.7-145.2c-13.7,2.3-38,5.9-69.9,8c-26.1,1.7-50.7,1.7-67,1.3c12.3,29.5,26.5,91.7,28.6,141.9
			c1.5,35.3-11,99-13,168C985.1,1099.2,1015.7,1221,1015.7,1221L1015.7,1221z"/>
		<path class="st39" d="M1109,689.8c-13.7,2.3-38,5.9-69.9,8c-26.1,1.7-50.7,1.7-67,1.3c2,4.9,4.5,11,7.1,18
			c16.3,0.3,39.9,0.3,64.9-1.4c32.8-2.1,57.5-5.8,71-8.1C1113,701.4,1111,695.4,1109,689.8L1109,689.8z"/>
	</g>
	<path class="st7" d="M903.2,699.4c32-31.5,63.5-34.1,137.4-31.5c135.3,4.8,190.1,210.6,190.1,210.6c0-0.1,0-0.1-0.1-0.2
		c-0.6-1.8-1.2-3.7-1.8-5.5c0,0,0-0.1,0-0.1c-0.6-1.8-1.2-3.5-1.8-5.3c-0.1-0.3-0.2-0.6-0.3-0.9c-0.6-1.7-1.2-3.4-1.7-5.2
		c-0.1-0.3-0.2-0.5-0.3-0.8c-0.6-1.8-1.2-3.6-1.8-5.4c0-0.1-0.1-0.2-0.1-0.4c-0.6-1.8-1.2-3.6-1.8-5.3c-0.1-0.2-0.1-0.3-0.2-0.5
		c-0.6-1.8-1.2-3.5-1.8-5.3c-0.1-0.3-0.2-0.5-0.3-0.8c-0.6-1.7-1.2-3.4-1.8-5.2c-0.1-0.3-0.2-0.6-0.3-1c-0.6-1.7-1.2-3.5-1.8-5.2
		c-0.1-0.2-0.1-0.4-0.2-0.6c-0.6-1.8-1.2-3.6-1.9-5.4c0,0,0-0.1,0-0.1c-0.6-1.8-1.2-3.6-1.9-5.4c-0.1-0.3-0.2-0.5-0.3-0.8
		c-0.6-1.7-1.2-3.4-1.8-5.2c-0.1-0.3-0.2-0.6-0.3-0.9c-0.6-1.7-1.2-3.4-1.8-5.1c-0.1-0.3-0.2-0.6-0.3-0.8c-0.6-1.8-1.3-3.5-1.9-5.3
		c-0.1-0.1-0.1-0.3-0.2-0.4c-0.6-1.7-1.3-3.5-1.9-5.2c-0.1-0.2-0.1-0.3-0.2-0.5c-0.6-1.7-1.3-3.5-1.9-5.2c-0.1-0.3-0.2-0.6-0.3-0.9
		c-0.6-1.7-1.2-3.4-1.9-5.1c-0.1-0.3-0.2-0.6-0.3-0.9c-0.6-1.7-1.3-3.4-1.9-5.1c-0.1-0.2-0.2-0.4-0.3-0.7c-0.7-1.8-1.3-3.5-2-5.3
		c0,0,0-0.1,0-0.1c-0.7-1.8-1.3-3.5-2-5.3c-0.1-0.3-0.2-0.5-0.3-0.8c-0.6-1.7-1.3-3.3-1.9-5c-0.1-0.3-0.2-0.6-0.4-0.9
		c-0.6-1.6-1.3-3.3-1.9-4.9c-0.1-0.3-0.2-0.6-0.3-0.8c-0.7-1.7-1.3-3.4-2-5.1c-0.1-0.1-0.1-0.3-0.2-0.4c-0.7-1.7-1.3-3.3-2-5
		c-0.1-0.2-0.1-0.3-0.2-0.5c-0.7-1.7-1.4-3.3-2-4.9c-0.1-0.3-0.2-0.6-0.4-0.8c-0.7-1.6-1.3-3.2-2-4.8c-0.1-0.3-0.2-0.6-0.4-0.9
		c-0.7-1.6-1.4-3.2-2.1-4.8c-0.1-0.2-0.2-0.4-0.3-0.7c-0.7-1.7-1.4-3.3-2.2-5c0,0,0,0,0-0.1c-0.7-1.6-1.5-3.3-2.2-4.9
		c-0.1-0.2-0.2-0.5-0.3-0.7c-0.7-1.6-1.4-3.1-2.1-4.6c-0.1-0.3-0.3-0.6-0.4-0.8c-0.7-1.5-1.4-3.1-2.1-4.6c-0.1-0.2-0.2-0.5-0.3-0.7
		c-0.7-1.6-1.5-3.1-2.2-4.7c-0.1-0.1-0.1-0.2-0.2-0.4c-0.7-1.5-1.5-3.1-2.2-4.6c-0.1-0.1-0.1-0.3-0.2-0.4c-0.7-1.5-1.5-3-2.3-4.5
		c-0.1-0.2-0.2-0.5-0.4-0.7c-0.7-1.5-1.5-2.9-2.2-4.3c-0.1-0.3-0.3-0.5-0.4-0.8c-0.8-1.4-1.5-2.9-2.3-4.3c-0.1-0.2-0.2-0.4-0.3-0.6
		c-0.8-1.5-1.6-3-2.4-4.4c0,0,0,0,0,0c-0.8-1.5-1.6-2.9-2.4-4.4c-0.1-0.2-0.2-0.4-0.3-0.6c-0.8-1.4-1.6-2.7-2.3-4.1
		c-0.1-0.2-0.3-0.5-0.4-0.7c-0.8-1.3-1.6-2.7-2.3-4c-0.1-0.2-0.3-0.4-0.4-0.7c-0.8-1.4-1.6-2.7-2.5-4c-0.1-0.1-0.1-0.2-0.2-0.3
		c-0.8-1.3-1.6-2.6-2.5-3.9c-0.1-0.1-0.2-0.2-0.2-0.4c-0.8-1.3-1.7-2.6-2.5-3.8c-0.1-0.2-0.3-0.4-0.4-0.6c-0.8-1.2-1.6-2.4-2.5-3.7
		c-0.1-0.2-0.3-0.4-0.4-0.6c-0.8-1.2-1.7-2.4-2.5-3.6c-0.1-0.2-0.2-0.3-0.3-0.5c-0.9-1.2-1.8-2.5-2.7-3.7c0,0,0,0,0,0
		c-0.9-1.2-1.8-2.4-2.7-3.6c-0.1-0.2-0.2-0.3-0.4-0.5c-0.9-1.1-1.7-2.2-2.6-3.3c-0.2-0.2-0.3-0.4-0.5-0.6c-0.9-1.1-1.7-2.1-2.6-3.2
		c-0.1-0.2-0.3-0.3-0.4-0.5c-0.9-1.1-1.8-2.1-2.7-3.2c-0.1-0.1-0.1-0.2-0.2-0.3c-0.9-1-1.8-2.1-2.7-3.1c-0.1-0.1-0.2-0.2-0.2-0.3
		c-0.9-1-1.8-2-2.8-3c-0.2-0.2-0.3-0.3-0.5-0.5c-0.9-0.9-1.8-1.9-2.7-2.8c-0.2-0.2-0.3-0.3-0.5-0.5c-0.9-0.9-1.9-1.8-2.8-2.7
		c-0.1-0.1-0.3-0.2-0.4-0.4c-1-0.9-2-1.8-3-2.7c0,0,0,0,0,0c-1-0.9-2-1.7-3-2.6c-0.1-0.1-0.3-0.2-0.4-0.3c-1-0.8-1.9-1.6-2.9-2.3
		c-0.2-0.1-0.4-0.3-0.5-0.4c-1-0.7-1.9-1.5-2.9-2.2c-0.2-0.1-0.3-0.2-0.5-0.4c-1-0.7-2-1.4-3-2.1c-0.1-0.1-0.2-0.1-0.3-0.2
		c-1-0.7-2-1.4-3.1-2c-0.1-0.1-0.2-0.1-0.3-0.2c-1-0.6-2.1-1.3-3.1-1.9c-0.2-0.1-0.3-0.2-0.5-0.3c-1-0.6-2-1.1-3.1-1.7
		c-0.2-0.1-0.4-0.2-0.6-0.3c-1-0.5-2.1-1.1-3.1-1.6c-0.1-0.1-0.3-0.1-0.4-0.2c-1.1-0.5-2.2-1-3.3-1.5c0,0,0,0,0,0
		c-1.1-0.5-2.2-0.9-3.4-1.4c-0.2-0.1-0.3-0.1-0.5-0.2c-1.1-0.4-2.2-0.8-3.3-1.1c-0.2-0.1-0.4-0.1-0.6-0.2c-1.1-0.4-2.2-0.7-3.3-1
		c-0.2-0.1-0.4-0.1-0.5-0.2c-1.1-0.3-2.3-0.6-3.4-0.9c-0.1,0-0.2,0-0.3-0.1c-1.1-0.3-2.3-0.5-3.4-0.7c-0.1,0-0.2,0-0.3-0.1
		c-1.2-0.2-2.3-0.4-3.5-0.6c-0.2,0-0.4-0.1-0.6-0.1c-1.1-0.2-2.3-0.3-3.4-0.4c-0.2,0-0.4,0-0.6-0.1c-1.2-0.1-2.3-0.2-3.5-0.2
		c-0.2,0-0.3,0-0.5,0c-1.2-0.1-2.5-0.1-3.7-0.1C969.2,578.1,932,629.5,903.2,699.4z"/>
</g>
<g id="roads">
	<path class="st8" d="M1081.1,922.8"/>
</g>
<g id="shadin">
	<path class="st7" d="M748.9,367.5c82.2,2.3,142.9,122.6,142.9,122.6l9.8,49.9C877,403.3,842.9,306.7,768,288.8
		c-77-18.4-113.8,56.5-138.9,142C629.1,430.7,693.2,366,748.9,367.5z"/>
	<path class="st7" d="M594.1,174.3c39,10.8,83.7,106,97.1,136.5C677.8,182.7,648.7,77,585.2,76.7c-35.8-0.2-58.9,44.9-73.6,111.2
		C521.4,181.7,555,163.4,594.1,174.3z"/>
	<path class="st7" d="M1656.8,878.5c0,0,24-127.9,91.6-161.5c31.2-15.5,64.3-8,64.3-8l0,0c-13-44.5-29.8-76.3-53.8-85.8
		C1706.8,602.6,1680.8,735.4,1656.8,878.5L1656.8,878.5z"/>
	<path class="st7" d="M1772.9,512.5c0,0,28.1-104,87.5-127.3c27.4-10.7,49.5,4,49.5,4l0,0c-11.4-58.2-27.8-94.3-51.2-93.9
		C1822.8,295.9,1794.6,387.6,1772.9,512.5L1772.9,512.5z"/>
	<path class="st40" d="M275.7,1088C382,993,378.3,391,515.6,426.2C650.1,460.7,540.9,963,772.9,1083L275.7,1088L275.7,1088z"/>
	<path class="st12" d="M372.3,686.1c-12.8-6.1-25.6,8.2-38.3,2.2v-33c12.8,7.5,25.6-5.3,38.3,2.2V686.1L372.3,686.1z"/>
	<path class="st13" d="M366.2,655.2c-10.8-1.8-21.5,6.3-32.3,0v27.5c4.8-1.8,9.5-4.6,16.1-9.9C355.1,668.8,361.4,660.7,366.2,655.2
		L366.2,655.2z"/>
	<path class="st23" d="M331.9,654.2h4.6c0.1,0,0.2,0.1,0.2,0.2v74.8c0,0.1-0.1,0.2-0.2,0.2h-4.6c-0.1,0-0.2-0.1-0.2-0.2v-74.8
		C331.7,654.2,331.8,654.2,331.9,654.2z"/>
	<path class="st41" d="M335.5,654.2H333c-0.7,0-1.2,0.2-1.2,0.4v33.8c1.7-0.3,3.4-0.7,5-1.3v-32.4
		C336.7,654.3,336.2,654.2,335.5,654.2L335.5,654.2z"/>
	<path class="st42" d="M336.7,654.5c0-0.2-0.5-0.3-1.2-0.3H333c-0.7,0-1.2,0.2-1.2,0.3v21.3c1.1-0.2,2.1-0.5,3.1-0.9
		c0.7-0.2,1.3-0.5,1.9-0.7L336.7,654.5L336.7,654.5z"/>
	<path class="st26" d="M632.7,1083.5C522.1,1056,500.5,709,335.4,709c-174.1,0-184.6,325-343.8,376L632.7,1083.5z"/>
	<g>
		<path class="st43" d="M285.6,816.1c0,0,10.4-14.8,44.1-13c22.9,1.2,48,24.4,48,24.4l-15.2,12.2l-69.9-9.9L285.6,816.1L285.6,816.1
			z"/>
		<path class="st44" d="M366.7,1261h-62c-0.6,1.9-29-7.4-29-7.4c0,0,0.5,63.4-0.7-0.5c-1.4-75.5-9.7-189.1-8.1-257.4
			c1.6-66.4,8.8-128.6,18.6-179.6c9.2,2.9,25.6,7.3,47,9.8c17.5,2.1,34.1,2.1,45.1,1.6c-8.3,36.5-17.8,113.5-19.3,175.6
			c-1,43.7,7.4,122.5,8.7,207.9C369,1322.8,366.7,1261,366.7,1261L366.7,1261z"/>
		<path class="st45" d="M285.6,816.1c9.2,2.9,25.6,7.3,47,9.8c17.5,2.1,34.1,2.1,45.1,1.6c-1.4,6.1-3,13.7-4.8,22.3
			c-11,0.4-26.8,0.3-43.6-1.7c-22-2.7-38.7-7.2-47.8-10.1C282.9,830.4,284.3,823,285.6,816.1L285.6,816.1z"/>
	</g>
	<path class="st7" d="M513.7,517c60.1,22.4,88,156.3,88,156.3v0c-14.8-124.9-26.6-231.8-86.1-247.1c-44.9-11.5-74.7,45.1-98.2,129.8
		l0,0C417.4,556,465.1,498.9,513.7,517z"/>
	<path class="st7" d="M329.6,768.7c95.5,0.9,170,106.4,170,106.4l-6.1-13.2C456,781,410.6,709,335.4,709c-55.4,0-94.3,33-126.6,79.5
		l-8.5,12.7C200.3,801.2,269.8,768.2,329.6,768.7z"/>
	<path class="st46" d="M476.3,1083c73.2-46,67.4-465,183-465c124.5,0,92.5,390,202.9,470L476.3,1083L476.3,1083z"/>
	<path class="st47" d="M656.2,691.7C730.1,709.6,772.7,863,772.7,863l-1.4-12.7C748.2,732.6,726.7,618,659.3,618
		c-38.7,0-63.8,47-82.8,111.3C576.5,729.3,616.4,682.1,656.2,691.7z"/>
</g>
</svg>
