<?xml version="1.0" encoding="utf-8"?>
<!-- Generator: Adobe Illustrator 27.9.4, SVG Export Plug-In . SVG Version: 9.03 Build 54784)  -->
<svg version="1.1" xmlns="http://www.w3.org/2000/svg" xmlns:xlink="http://www.w3.org/1999/xlink" x="0px" y="0px"
	 viewBox="0 0 1920 1330.4" style="enable-background:new 0 0 1920 1330.4;" xml:space="preserve">
<style type="text/css">
	.st0{display:none;}
	.st1{display:inline;}
	.st2{fill:#B8FFF5;}
	.st3{fill:#46B255;}
	
		.st4{clip-path:url(#XMLID_00000085935189418587099660000007277565351844758705_);fill:none;stroke:#384E4B;stroke-width:85;stroke-miterlimit:10;}
	
		.st5{clip-path:url(#XMLID_00000085935189418587099660000007277565351844758705_);fill:none;stroke:#445E5A;stroke-width:68;stroke-miterlimit:10;}
	
		.st6{opacity:0.8;clip-path:url(#XMLID_00000085935189418587099660000007277565351844758705_);fill:none;stroke:#FFDE80;stroke-width:5;stroke-linecap:round;stroke-miterlimit:10;stroke-dasharray:18,25;}
	.st7{opacity:0.1;fill:#D0FCF5;}
	.st8{fill:none;stroke:#6B6B6B;stroke-width:68;stroke-miterlimit:10;}
	.st9{fill:#52C159;}
	.st10{fill:#FDDA28;}
	.st11{fill:#FDDE57;}
	.st12{fill:#5A96BF;}
	.st13{fill:#6AAED3;}
	.st14{fill:#71BFE2;}
	.st15{fill:#77DD5E;}
	
		.st16{clip-path:url(#XMLID_00000075151728887250718180000008877852511132988546_);fill:none;stroke:#648B85;stroke-width:31;stroke-miterlimit:10;}
	
		.st17{clip-path:url(#XMLID_00000075151728887250718180000008877852511132988546_);fill:none;stroke:#719D96;stroke-width:24;stroke-miterlimit:10;}
	
		.st18{opacity:0.8;clip-path:url(#XMLID_00000075151728887250718180000008877852511132988546_);fill:none;stroke:#FFEEA4;stroke-width:2;stroke-linecap:round;stroke-miterlimit:10;stroke-dasharray:8,14;}
	.st19{fill:#52FFC1;}
	.st20{fill:#7CCC5A;}
	.st21{fill:#31F4A9;}
	.st22{fill:#FF5050;}
	.st23{fill:#FF6464;}
	.st24{fill:#FFE578;}
	.st25{fill:#FFEFAB;}
	.st26{fill:#62C959;}
	.st27{fill:#38BF52;}
	.st28{fill:#76A0B7;}
	
		.st29{clip-path:url(#XMLID_00000031918649497204803440000011449489103570999220_);fill:none;stroke:#53736E;stroke-width:47;stroke-miterlimit:10;}
	
		.st30{clip-path:url(#XMLID_00000031918649497204803440000011449489103570999220_);fill:none;stroke:#618781;stroke-width:36;stroke-miterlimit:10;}
	
		.st31{opacity:0.8;clip-path:url(#XMLID_00000031918649497204803440000011449489103570999220_);fill:none;stroke:#FFE8B0;stroke-width:3;stroke-linecap:round;stroke-miterlimit:10;stroke-dasharray:10,16;}
	.st32{fill:none;}
	.st33{fill:#5FC256;}
	
		.st34{clip-path:url(#XMLID_00000081616476299505098420000002085212311439839878_);fill:none;stroke:#486460;stroke-width:73;stroke-miterlimit:10;}
	
		.st35{clip-path:url(#XMLID_00000081616476299505098420000002085212311439839878_);fill:none;stroke:#547570;stroke-width:57;stroke-miterlimit:10;}
	
		.st36{opacity:0.8;clip-path:url(#XMLID_00000081616476299505098420000002085212311439839878_);fill:none;stroke:#FFE299;stroke-width:4;stroke-linecap:round;stroke-miterlimit:10;stroke-dasharray:15,22;}
	.st37{fill:#3FB252;}
	.st38{fill:#37E2A9;}
	.st39{fill:#69CC54;}
	.st40{fill:#FF7676;}
	.st41{fill:#FC8B8B;}
	.st42{fill:#4DBC50;}
	.st43{opacity:8.000000e-02;fill:#D0FCF5;}
	.st44{fill:#E9FFFB;}
	.st45{fill:#C6F4EF;}
	.st46{fill:#E1FFFA;}
	.st47{fill:#58B74E;}
	.st48{fill:#64F9B2;}
	.st49{fill:#50EFAE;}
	.st50{opacity:0.5;fill:#E1FFFA;}
	.st51{display:inline;opacity:0.8;fill:#FFFFFF;}
	.st52{display:inline;fill:#FFFFFF;}
	.st53{display:inline;opacity:0.8;}
	.st54{opacity:0.8;fill:#658CC4;}
</style>
<g id="Layer_2" class="st0">
	<g id="garage" class="st1">
		<rect x="-0.3" class="st2" width="1920" height="1208.4"/>
	</g>
</g>
<g id="main_stuff">
	<path class="st3" d="M974.1,1092c138.7-27,132.6-261,304.8-261c142.8,0,164.8,216,276.8,254L974.1,1092L974.1,1092z"/>
	<g>
		<defs>
			<path id="XMLID_00000106127869636782786220000001285806480040346801_" d="M974.1,1092c138.7-27,132.6-261,304.8-261
				c142.8,0,164.8,216,276.8,254L974.1,1092L974.1,1092z"/>
		</defs>
		<clipPath id="XMLID_00000160893746440516054340000012875691007901232040_">
			<use xlink:href="#XMLID_00000106127869636782786220000001285806480040346801_"  style="overflow:visible;"/>
		</clipPath>
		
			<path style="clip-path:url(#XMLID_00000160893746440516054340000012875691007901232040_);fill:none;stroke:#384E4B;stroke-width:85;stroke-miterlimit:10;" d="
			M1460.8,957.3c0,0-72.5,46-198.1,38.4c-119.1-7.2-183.8-84.6-183.8-84.6"/>
		
			<path style="clip-path:url(#XMLID_00000160893746440516054340000012875691007901232040_);fill:none;stroke:#445E5A;stroke-width:68;stroke-miterlimit:10;" d="
			M1460.8,957.3c0,0-72.5,46-198.1,38.4c-119.1-7.2-183.8-84.6-183.8-84.6"/>
		
			<path style="opacity:0.8;clip-path:url(#XMLID_00000160893746440516054340000012875691007901232040_);fill:none;stroke:#FFDE80;stroke-width:5;stroke-linecap:round;stroke-miterlimit:10;stroke-dasharray:18,25;" d="
			M1460.8,957.3c0,0-72.5,46-198.1,38.4c-119.1-7.2-183.8-84.6-183.8-84.6"/>
	</g>
	<path class="st7" d="M1278.9,831c-46.4,0-79.8,17-106.6,42.3c27.1-6.2,86.9-13.7,135.9,10.7c49.9,24.8,104.6,143.8,158.9,176.6
		c51.9,31.4,71.6,17,88.6,24.4l0,0C1443.7,1047,1421.7,831,1278.9,831z"/>
	<path class="st8" d="M1463,969"/>
	<path class="st9" d="M772.7,717c46.3-29.1,68.6-256,163-234c107,25,92.1,165.4,162,216L772.7,717z"/>
	<path class="st7" d="M854.3,551.6c0,0,42.1-39,92.7-21c44.6,15.9,103.7,100.9,103.7,100.9c-25.5-59.6-41.4-131.4-115-148.6
		c-36.1-8.4-61.6,19.5-82,58.9L854.3,551.6z"/>
	<path class="st10" d="M623.8,51.3c-12.8-6.1-25.6,8.2-38.3,2.2v-33c12.8,7.5,25.6-5.4,38.3,2.2V51.3z"/>
	<path class="st11" d="M617.7,20.4c-10.8-1.8-21.5,6.4-32.3,0V48c4.8-1.8,9.5-4.6,16.1-9.9C606.6,34,612.8,25.9,617.7,20.4
		L617.7,20.4z"/>
	<path class="st12" d="M583.4,19.4h4.6c0.1,0,0.2,0.1,0.2,0.2v74.8c0,0.1-0.1,0.2-0.2,0.2h-4.6c-0.1,0-0.2-0.1-0.2-0.2V19.6
		C583.2,19.4,583.3,19.4,583.4,19.4z"/>
	<path class="st13" d="M586.9,19.4h-2.5c-0.7,0-1.2,0.2-1.2,0.4v33.8c1.7-0.3,3.4-0.7,5-1.3V19.8C588.2,19.5,587.6,19.4,586.9,19.4
		L586.9,19.4z"/>
	<path class="st14" d="M588.2,19.7c0-0.2-0.5-0.4-1.2-0.4h-2.5c-0.7,0-1.2,0.1-1.2,0.4V41c1.1-0.2,2.1-0.5,3.1-0.9
		c0.7-0.2,1.3-0.5,1.9-0.7L588.2,19.7L588.2,19.7z"/>
	<path class="st15" d="M488.8,699.4c0-102.8-25-623.4,96.4-622.8C717,77.4,700.9,532.9,702.6,699.4H488.8L488.8,699.4z"/>
	<g>
		<defs>
			<path id="XMLID_00000147179636121979380750000002341210055628421273_" d="M488.8,699.4c0-102.8-25-623.4,96.4-622.8
				C717,77.4,700.9,532.9,702.6,699.4H488.8L488.8,699.4z"/>
		</defs>
		<clipPath id="XMLID_00000154414971263577185560000002504892966017077129_">
			<use xlink:href="#XMLID_00000147179636121979380750000002341210055628421273_"  style="overflow:visible;"/>
		</clipPath>
		
			<path style="clip-path:url(#XMLID_00000154414971263577185560000002504892966017077129_);fill:none;stroke:#648B85;stroke-width:31;stroke-miterlimit:10;" d="
			M684,183.4c0,0-37.1,61.6-86.5,83.1c-66.8,29.1-122.7,19.4-122.7,19.4"/>
		
			<path style="clip-path:url(#XMLID_00000154414971263577185560000002504892966017077129_);fill:none;stroke:#719D96;stroke-width:24;stroke-miterlimit:10;" d="
			M684,183.4c0,0-37.1,61.6-86.5,83.1c-66.8,29.1-122.7,19.4-122.7,19.4"/>
		
			<path style="opacity:0.8;clip-path:url(#XMLID_00000154414971263577185560000002504892966017077129_);fill:none;stroke:#FFEEA4;stroke-width:2;stroke-linecap:round;stroke-miterlimit:10;stroke-dasharray:8,14;" d="
			M684,183.4c0,0-37.1,61.6-86.5,83.1c-66.8,29.1-122.7,19.4-122.7,19.4"/>
	</g>
	<g>
		<path class="st19" d="M608.7,604h-28c0-80-3-94,0-174c1.1-28.1,4-118,4-146c1.9-52.3,2-103.7-3.2-155.9c-0.4-4.3,3-8.1,7.4-8.1h14
			c3.3,0,6,2.5,6.3,5.8c6.5,76.1,0.5,153,0.5,230.2C609.7,403,608.7,604,608.7,604z"/>
		<path class="st20" d="M609,123c0,0-4.6-9.5-15.3-9s-12.5,10.3-12.5,10.3l0.4,4.2l27.8-1.1L609,123L609,123z"/>
		<path class="st21" d="M591.7,125c-3.7,0-7.2-0.2-10.6-0.7c0.4,4,0.8,7.9,1.1,11.9c3.6,0.6,7.4,0.9,11.4,0.9
			c5.9,0,11.4-0.6,16.3-1.8c-0.3-4.1-0.7-8.2-1-12.2C603.9,124.3,598,125,591.7,125L591.7,125z"/>
	</g>
	<path class="st22" d="M1892.7,264.7c-12.8-6.1-25.6,8.2-38.3,2.2v-33c12.8,7.5,25.6-5.4,38.3,2.2V264.7z"/>
	<path class="st23" d="M1886.7,233.8c-10.8-1.8-21.5,6.4-32.3,0v27.5c4.8-1.8,9.5-4.6,16.1-9.9
		C1875.6,247.4,1881.8,239.3,1886.7,233.8L1886.7,233.8z"/>
	<path class="st10" d="M1852.3,232.7h4.6c0.1,0,0.2,0.1,0.2,0.2v74.8c0,0.1-0.1,0.2-0.2,0.2h-4.6c-0.1,0-0.2-0.1-0.2-0.2v-74.8
		C1852.1,232.8,1852.2,232.7,1852.3,232.7z"/>
	<path class="st24" d="M1855.9,232.7h-2.5c-0.7,0-1.2,0.2-1.2,0.4v33.8c1.7-0.3,3.4-0.7,5-1.3v-32.4
		C1857.1,232.9,1856.6,232.7,1855.9,232.7L1855.9,232.7z"/>
	<path class="st25" d="M1857.1,233.1c0-0.2-0.6-0.4-1.2-0.4h-2.5c-0.7,0-1.2,0.1-1.2,0.4v21.3c1.1-0.2,2.1-0.5,3.1-0.9
		c0.7-0.2,1.3-0.5,1.9-0.7L1857.1,233.1L1857.1,233.1z"/>
	<path class="st26" d="M974.2,1015C904.9,664,915.4,324,768,288.8c-162.6-38.9-146,338.6-218.1,352.1
		c-62.1,11.6-79.5-32.3-79.4-85.7l0.2,448L974.2,1015z"/>
	<path class="st26" d="M1713.3,1192c0-102.8,39.7-895,145.4-896.7s69.4,744.2,71.1,910.7L1713.3,1192z"/>
	<path class="st27" d="M1581.7,1182.5c73.7-95,79.2-598,177.2-559.3c93,36.7,77.5,408.7,156.2,558.8L1581.7,1182.5z"/>
	<path class="st28" d="M248.4,191.1c9.4,5.6,16.7,12.8,21.3,20.2c8.7,0.6,18.5,3.7,27.9,9.3c5.7,3.4,10.6,7.4,14.6,11.6
		c-3.5-6.5-9.4-12.7-17.2-17.3c-7.7-4.6-15.9-7-23.2-7c-3.5-6.4-9.4-12.6-17.1-17.2c-7.7-4.6-16-7-23.4-7
		C236.9,185.2,242.7,187.7,248.4,191.1L248.4,191.1z"/>
	<path class="st28" d="M194.3,112.2c10.2,4,18.6,9.9,24.4,16.4c8.7-0.8,18.9,0.6,29,4.6c6.2,2.4,11.7,5.5,16.3,9
		c-4.5-5.8-11.4-10.9-19.8-14.2c-8.4-3.3-16.9-4.2-24.1-3.1c-4.5-5.7-11.4-10.8-19.7-14.1c-8.4-3.3-17-4.2-24.2-3.1
		C182,108.4,188.2,109.8,194.3,112.2z"/>
	<path class="st28" d="M84.9,185.5c10.6,2.8,19.6,7.8,26,13.6c8.5-1.8,18.8-1.5,29.4,1.3c6.4,1.7,12.2,4.2,17.2,7.2
		c-5.1-5.2-12.5-9.6-21.3-12c-8.7-2.3-17.2-2.3-24.3-0.4c-5.1-5.2-12.5-9.5-21.2-11.9s-17.3-2.3-24.4-0.4
		C72.2,183,78.5,183.7,84.9,185.5L84.9,185.5z"/>
	<g>
		<defs>
			<path id="XMLID_00000159449950135112957550000000386296156978704313_" d="M974.2,1015C904.9,664,915.4,324,768,288.8
				c-162.6-38.9-146,338.6-218.1,352.1c-62.1,11.6-79.5-32.3-79.4-85.7l0.2,448L974.2,1015z"/>
		</defs>
		<clipPath id="XMLID_00000016041266652207136740000006647700521887676563_">
			<use xlink:href="#XMLID_00000159449950135112957550000000386296156978704313_"  style="overflow:visible;"/>
		</clipPath>
		
			<path style="clip-path:url(#XMLID_00000016041266652207136740000006647700521887676563_);fill:none;stroke:#53736E;stroke-width:47;stroke-miterlimit:10;" d="
			M960.2,528.2c0,0-132.1,14.4-229.1-27.7C643.7,462.6,604.8,359,604.8,359"/>
		
			<path style="clip-path:url(#XMLID_00000016041266652207136740000006647700521887676563_);fill:none;stroke:#618781;stroke-width:36;stroke-miterlimit:10;" d="
			M960.2,528.2c0,0-132.1,14.4-229.1-27.7C643.7,462.6,604.8,359,604.8,359"/>
		
			<path style="opacity:0.8;clip-path:url(#XMLID_00000016041266652207136740000006647700521887676563_);fill:none;stroke:#FFE8B0;stroke-width:3;stroke-linecap:round;stroke-miterlimit:10;stroke-dasharray:10,16;" d="
			M960.2,528.2c0,0-132.1,14.4-229.1-27.7C643.7,462.6,604.8,359,604.8,359"/>
		
			<path style="clip-path:url(#XMLID_00000016041266652207136740000006647700521887676563_);fill:none;stroke:#53736E;stroke-width:47;stroke-miterlimit:10;" d="
			M903.2,787.5c0,0-139.6-4-230.6-64.8c-82-54.8-99.5-174.4-99.5-174.4"/>
		
			<path style="clip-path:url(#XMLID_00000016041266652207136740000006647700521887676563_);fill:none;stroke:#618781;stroke-width:36;stroke-miterlimit:10;" d="
			M903.2,787.5c0,0-139.6-4-230.6-64.8c-82-54.8-99.5-174.4-99.5-174.4"/>
		
			<path style="opacity:0.8;clip-path:url(#XMLID_00000016041266652207136740000006647700521887676563_);fill:none;stroke:#FFE8B0;stroke-width:3;stroke-linecap:round;stroke-miterlimit:10;stroke-dasharray:10,16;" d="
			M903.2,787.5c0,0-139.6-4-230.6-64.8c-82-54.8-99.5-174.4-99.5-174.4"/>
	</g>
	<path class="st32" d="M1345.7,1083c-105.1,2.4-139.6-505-314-505c-196.3,0.3-143,505-363,507L1345.7,1083z"/>
	<path id="XMLID_00000042012047647608707220000011934912178022785436_" class="st33" d="M1345.7,1083c-105.1,2.4-139.6-505-314-505
		c-196.3,0.3-143,505-363,507L1345.7,1083z"/>
	<g>
		<defs>
			<path id="XMLID_00000090286869254628846780000005643308123485421242_" d="M1345.7,1083c-105.1,2.4-139.6-505-314-505
				c-196.3,0.3-143,505-363,507L1345.7,1083z"/>
		</defs>
		<clipPath id="XMLID_00000015353177526289099240000010721344015156444589_">
			<use xlink:href="#XMLID_00000090286869254628846780000005643308123485421242_"  style="overflow:visible;"/>
		</clipPath>
		
			<path style="clip-path:url(#XMLID_00000015353177526289099240000010721344015156444589_);fill:none;stroke:#486460;stroke-width:73;stroke-miterlimit:10;" d="
			M1270.4,968.8c0,0-50.5,17.1-116.4,14.1c-199.1-9-205.6-175.7-353.4-185.8"/>
		
			<path style="clip-path:url(#XMLID_00000015353177526289099240000010721344015156444589_);fill:none;stroke:#547570;stroke-width:57;stroke-miterlimit:10;" d="
			M1270.4,968.8c0,0-50.5,17.1-116.4,14.1c-199.1-9-205.6-175.7-353.4-185.8"/>
		
			<path style="opacity:0.8;clip-path:url(#XMLID_00000015353177526289099240000010721344015156444589_);fill:none;stroke:#FFE299;stroke-width:4;stroke-linecap:round;stroke-miterlimit:10;stroke-dasharray:15,22;" d="
			M1270.4,968.8c0,0-50.5,17.1-116.4,14.1c-199.1-9-205.6-175.7-353.4-185.8"/>
	</g>
	<g>
		<path class="st37" d="M1109,689.8c0,0-32.2-23.3-82.3-21.8c-34,1-54.6,31.1-54.6,31.1l22.6,9.9l104-8L1109,689.8z"/>
		<path class="st21" d="M1013.3,1143.2l98.4-0.3c0.9,1.5,37.6-8.3,52.6-0.3c0,0-30.6-76.1-34.6-127.5c-5-63,9.4-124.8,7-180
			c-2.3-53.7-13.1-103.9-27.7-145.2c-13.7,2.3-38,5.9-69.9,8c-26.1,1.7-50.7,1.7-67,1.3c12.3,29.5,26.5,91.7,28.6,141.9
			c1.5,35.3-11,99-13,168c-2.6,90.2,25.9,144.3,25.9,144.3L1013.3,1143.2z"/>
		<path class="st38" d="M1109,689.8c-13.7,2.3-38,5.9-69.9,8c-26.1,1.7-50.7,1.7-67,1.3c2,4.9,4.5,11,7.1,18
			c16.3,0.3,39.9,0.3,64.9-1.4c32.8-2.1,57.5-5.8,71-8.1C1113,701.4,1111,695.4,1109,689.8L1109,689.8z"/>
	</g>
	<path class="st7" d="M903.2,699.4c32-31.5,63.5-34.1,137.4-31.5c135.3,4.8,190.1,210.6,190.1,210.6c0-0.1,0-0.1-0.1-0.2
		c-0.6-1.8-1.2-3.7-1.8-5.5c0,0,0-0.1,0-0.1c-0.6-1.8-1.2-3.5-1.8-5.3c-0.1-0.3-0.2-0.6-0.3-0.9c-0.6-1.7-1.2-3.4-1.7-5.2
		c-0.1-0.3-0.2-0.5-0.3-0.8c-0.6-1.8-1.2-3.6-1.8-5.4c0-0.1-0.1-0.2-0.1-0.4c-0.6-1.8-1.2-3.6-1.8-5.3c-0.1-0.2-0.1-0.3-0.2-0.5
		c-0.6-1.8-1.2-3.5-1.8-5.3c-0.1-0.3-0.2-0.5-0.3-0.8c-0.6-1.7-1.2-3.4-1.8-5.2c-0.1-0.3-0.2-0.6-0.3-1c-0.6-1.7-1.2-3.5-1.8-5.2
		c-0.1-0.2-0.1-0.4-0.2-0.6c-0.6-1.8-1.2-3.6-1.9-5.4c0,0,0-0.1,0-0.1c-0.6-1.8-1.2-3.6-1.9-5.4c-0.1-0.3-0.2-0.5-0.3-0.8
		c-0.6-1.7-1.2-3.4-1.8-5.2c-0.1-0.3-0.2-0.6-0.3-0.9c-0.6-1.7-1.2-3.4-1.8-5.1c-0.1-0.3-0.2-0.6-0.3-0.8c-0.6-1.8-1.3-3.5-1.9-5.3
		c-0.1-0.1-0.1-0.3-0.2-0.4c-0.6-1.7-1.3-3.5-1.9-5.2c-0.1-0.2-0.1-0.3-0.2-0.5c-0.6-1.7-1.3-3.5-1.9-5.2c-0.1-0.3-0.2-0.6-0.3-0.9
		c-0.6-1.7-1.2-3.4-1.9-5.1c-0.1-0.3-0.2-0.6-0.3-0.9c-0.6-1.7-1.3-3.4-1.9-5.1c-0.1-0.2-0.2-0.4-0.3-0.7c-0.7-1.8-1.3-3.5-2-5.3
		c0,0,0-0.1,0-0.1c-0.7-1.8-1.3-3.5-2-5.3c-0.1-0.3-0.2-0.5-0.3-0.8c-0.6-1.7-1.3-3.3-1.9-5c-0.1-0.3-0.2-0.6-0.4-0.9
		c-0.6-1.6-1.3-3.3-1.9-4.9c-0.1-0.3-0.2-0.6-0.3-0.8c-0.7-1.7-1.3-3.4-2-5.1c-0.1-0.1-0.1-0.3-0.2-0.4c-0.7-1.7-1.3-3.3-2-5
		c-0.1-0.2-0.1-0.3-0.2-0.5c-0.7-1.7-1.4-3.3-2-4.9c-0.1-0.3-0.2-0.6-0.4-0.8c-0.7-1.6-1.3-3.2-2-4.8c-0.1-0.3-0.2-0.6-0.4-0.9
		c-0.7-1.6-1.4-3.2-2.1-4.8c-0.1-0.2-0.2-0.4-0.3-0.7c-0.7-1.7-1.4-3.3-2.2-5c0,0,0,0,0-0.1c-0.7-1.6-1.5-3.3-2.2-4.9
		c-0.1-0.2-0.2-0.5-0.3-0.7c-0.7-1.6-1.4-3.1-2.1-4.6c-0.1-0.3-0.3-0.6-0.4-0.8c-0.7-1.5-1.4-3.1-2.1-4.6c-0.1-0.2-0.2-0.5-0.3-0.7
		c-0.7-1.6-1.5-3.1-2.2-4.7c-0.1-0.1-0.1-0.2-0.2-0.4c-0.7-1.5-1.5-3.1-2.2-4.6c-0.1-0.1-0.1-0.3-0.2-0.4c-0.7-1.5-1.5-3-2.3-4.5
		c-0.1-0.2-0.2-0.5-0.4-0.7c-0.7-1.5-1.5-2.9-2.2-4.3c-0.1-0.3-0.3-0.5-0.4-0.8c-0.8-1.4-1.5-2.9-2.3-4.3c-0.1-0.2-0.2-0.4-0.3-0.6
		c-0.8-1.5-1.6-3-2.4-4.4c0,0,0,0,0,0c-0.8-1.5-1.6-2.9-2.4-4.4c-0.1-0.2-0.2-0.4-0.3-0.6c-0.8-1.4-1.6-2.7-2.3-4.1
		c-0.1-0.2-0.3-0.5-0.4-0.7c-0.8-1.3-1.6-2.7-2.3-4c-0.1-0.2-0.3-0.4-0.4-0.7c-0.8-1.4-1.6-2.7-2.5-4c-0.1-0.1-0.1-0.2-0.2-0.3
		c-0.8-1.3-1.6-2.6-2.5-3.9c-0.1-0.1-0.2-0.2-0.2-0.4c-0.8-1.3-1.7-2.6-2.5-3.8c-0.1-0.2-0.3-0.4-0.4-0.6c-0.8-1.2-1.6-2.4-2.5-3.7
		c-0.1-0.2-0.3-0.4-0.4-0.6c-0.8-1.2-1.7-2.4-2.5-3.6c-0.1-0.2-0.2-0.3-0.3-0.5c-0.9-1.2-1.8-2.5-2.7-3.7c0,0,0,0,0,0
		c-0.9-1.2-1.8-2.4-2.7-3.6c-0.1-0.2-0.2-0.3-0.4-0.5c-0.9-1.1-1.7-2.2-2.6-3.3c-0.2-0.2-0.3-0.4-0.5-0.6c-0.9-1.1-1.7-2.1-2.6-3.2
		c-0.1-0.2-0.3-0.3-0.4-0.5c-0.9-1.1-1.8-2.1-2.7-3.2c-0.1-0.1-0.1-0.2-0.2-0.3c-0.9-1-1.8-2.1-2.7-3.1c-0.1-0.1-0.2-0.2-0.2-0.3
		c-0.9-1-1.8-2-2.8-3c-0.2-0.2-0.3-0.3-0.5-0.5c-0.9-0.9-1.8-1.9-2.7-2.8c-0.2-0.2-0.3-0.3-0.5-0.5c-0.9-0.9-1.9-1.8-2.8-2.7
		c-0.1-0.1-0.3-0.2-0.4-0.4c-1-0.9-2-1.8-3-2.7c0,0,0,0,0,0c-1-0.9-2-1.7-3-2.6c-0.1-0.1-0.3-0.2-0.4-0.3c-1-0.8-1.9-1.6-2.9-2.3
		c-0.2-0.1-0.4-0.3-0.5-0.4c-1-0.7-1.9-1.5-2.9-2.2c-0.2-0.1-0.3-0.2-0.5-0.4c-1-0.7-2-1.4-3-2.1c-0.1-0.1-0.2-0.1-0.3-0.2
		c-1-0.7-2-1.4-3.1-2c-0.1-0.1-0.2-0.1-0.3-0.2c-1-0.6-2.1-1.3-3.1-1.9c-0.2-0.1-0.3-0.2-0.5-0.3c-1-0.6-2-1.1-3.1-1.7
		c-0.2-0.1-0.4-0.2-0.6-0.3c-1-0.5-2.1-1.1-3.1-1.6c-0.1-0.1-0.3-0.1-0.4-0.2c-1.1-0.5-2.2-1-3.3-1.5c0,0,0,0,0,0
		c-1.1-0.5-2.2-0.9-3.4-1.4c-0.2-0.1-0.3-0.1-0.5-0.2c-1.1-0.4-2.2-0.8-3.3-1.1c-0.2-0.1-0.4-0.1-0.6-0.2c-1.1-0.4-2.2-0.7-3.3-1
		c-0.2-0.1-0.4-0.1-0.5-0.2c-1.1-0.3-2.3-0.6-3.4-0.9c-0.1,0-0.2,0-0.3-0.1c-1.1-0.3-2.3-0.5-3.4-0.7c-0.1,0-0.2,0-0.3-0.1
		c-1.2-0.2-2.3-0.4-3.5-0.6c-0.2,0-0.4-0.1-0.6-0.1c-1.1-0.2-2.3-0.3-3.4-0.4c-0.2,0-0.4,0-0.6-0.1c-1.2-0.1-2.3-0.2-3.5-0.2
		c-0.2,0-0.3,0-0.5,0c-1.2-0.1-2.5-0.1-3.7-0.1C969.2,578.1,932,629.5,903.2,699.4z"/>
</g>
<g id="roads">
	<path class="st8" d="M1081.1,922.8"/>
</g>
<g id="shadin">
	<polygon class="st26" points="570.6,1077.7 499,1142 136.3,1117.8 110.4,1079.2 	"/>
	<path class="st7" d="M748.9,367.5c82.2,2.3,142.9,122.6,142.9,122.6l9.8,49.9C877,403.3,842.9,306.7,768,288.8
		c-77-18.4-113.8,56.5-138.9,142C629.1,430.7,693.2,366,748.9,367.5z"/>
	<path class="st7" d="M594.1,174.3c39,10.8,83.7,106,97.1,136.5C677.8,182.7,648.7,77,585.2,76.7c-35.8-0.2-58.9,44.9-73.6,111.2
		C521.4,181.7,555,163.4,594.1,174.3z"/>
	<path class="st7" d="M1656.8,878.5c0,0,24-127.9,91.6-161.5c31.2-15.5,64.3-8,64.3-8l0,0c-13-44.5-29.8-76.3-53.8-85.8
		C1706.8,602.6,1680.8,735.4,1656.8,878.5L1656.8,878.5z"/>
	<path class="st7" d="M1772.9,512.5c0,0,28.1-104,87.5-127.3c27.4-10.7,49.5,4,49.5,4l0,0c-11.4-58.2-27.8-94.3-51.2-93.9
		C1822.8,295.9,1794.6,387.6,1772.9,512.5L1772.9,512.5z"/>
	<path class="st39" d="M275.7,1088C382,993,378.3,391,515.6,426.2C650.1,460.7,540.9,963,772.9,1083L275.7,1088L275.7,1088z"/>
	<path class="st12" d="M372.3,686.1c-12.8-6.1-25.6,8.2-38.3,2.2v-33c12.8,7.5,25.6-5.3,38.3,2.2V686.1L372.3,686.1z"/>
	<path class="st13" d="M366.2,655.2c-10.8-1.8-21.5,6.3-32.3,0v27.5c4.8-1.8,9.5-4.6,16.1-9.9C355.1,668.8,361.4,660.7,366.2,655.2
		L366.2,655.2z"/>
	<path class="st23" d="M331.9,654.2h4.6c0.1,0,0.2,0.1,0.2,0.2v74.8c0,0.1-0.1,0.2-0.2,0.2h-4.6c-0.1,0-0.2-0.1-0.2-0.2v-74.8
		C331.7,654.2,331.8,654.2,331.9,654.2z"/>
	<path class="st40" d="M335.5,654.2H333c-0.7,0-1.2,0.2-1.2,0.4v33.8c1.7-0.3,3.4-0.7,5-1.3v-32.4
		C336.7,654.3,336.2,654.2,335.5,654.2L335.5,654.2z"/>
	<path class="st41" d="M336.7,654.5c0-0.2-0.5-0.3-1.2-0.3H333c-0.7,0-1.2,0.2-1.2,0.3v21.3c1.1-0.2,2.1-0.5,3.1-0.9
		c0.7-0.2,1.3-0.5,1.9-0.7L336.7,654.5L336.7,654.5z"/>
	<path class="st26" d="M632.7,1083.5C522.1,1056,500.5,709,335.4,709c-174.1,0-184.6,325-343.8,376l19.3,0L632.7,1083.5z"/>
	<path class="st7" d="M513.7,517c60.1,22.4,88,156.3,88,156.3v0c-14.8-124.9-26.6-231.8-86.1-247.1c-44.9-11.5-74.7,45.1-98.2,129.8
		l0,0C417.4,556,465.1,498.9,513.7,517z"/>
	<path class="st7" d="M329.6,768.7c95.5,0.9,170,106.4,170,106.4l-6.1-13.2C456,781,410.6,709,335.4,709c-55.4,0-94.3,33-126.6,79.5
		l-8.5,12.7C200.3,801.2,269.8,768.2,329.6,768.7z"/>
	<path class="st42" d="M454.3,1137.1c94.2-61.3,89.4-519.1,205-519.1c124.5,0,92.5,390,202.9,470l-322.9,29.5L454.3,1137.1z"/>
	<path class="st43" d="M656.2,691.7C730.1,709.6,772.7,863,772.7,863l-1.4-12.7C748.2,732.6,726.7,618,659.3,618
		c-38.7,0-63.8,47-82.8,111.3C576.5,729.3,616.4,682.1,656.2,691.7z"/>
	<path class="st44" d="M864.8,1159.8h-36.3c-4.3-18.2-20.7-31.7-40.1-31.7h-39.9c-3.3-19.1-20-33.6-40-33.6H507.2
		c-19.2,0-34.9,14.8-36.4,33.6h-78.6c-19.5,0-35.8,13.5-40.1,31.7h-99c-11.2,0-20.3,9.1-20.3,20.3v0.7c0,11.2,9.1,20.3,20.3,20.3
		h611.8c11.2,0,20.3-9.1,20.3-20.3v-0.7C885.2,1168.9,876.1,1159.8,864.8,1159.8z"/>
	<path class="st45" d="M1609.7,1087.1h-29c-4.1-18.1-20.3-31.7-39.6-31.7h-27c-3.3-19.1-20-33.6-40-33.6h-201.2
		c-19.2,0-34.9,14.8-36.4,33.6h-62.1c-19.4,0-35.5,13.6-39.6,31.7h-63.9c-11.2,0-20.3,9.1-20.3,20.3v0.7c0,11.2,9.1,20.3,20.3,20.3
		h538.8c11.2,0,20.3-9.1,20.3-20.3v-0.7C1630,1096.2,1620.9,1087.1,1609.7,1087.1z"/>
	<path class="st46" d="M1153.9,1116.1h-58.9c-3.6-19.8-20.1-34.8-39.9-34.8h-35c-3.8-19.5-20.2-34.1-39.8-34.1H779
		c-18.7,0-34.2,14.9-36.3,34.1h-34.4c-19.8,0-36.3,15-39.9,34.8h-91.4c-11.2,0-20.3,9.6-20.3,21.4v0.7c0,11.8,9.1,21.4,20.3,21.4
		h576.8c11.2,0,20.3-9.6,20.3-21.4v-0.7C1174.2,1125.7,1165.1,1116.1,1153.9,1116.1z"/>
	<path class="st44" d="M2157.1,1164.7l-62.3-0.1c-2.5-19.8-19.1-35.1-39.4-35.5c-4.1-18.1-20.3-31.7-39.6-31.7l-298.2-1
		c-18.6,0-33.9,13.9-36.2,31.8l-70.5-0.2c-20.8,0-37.9,15.6-40.3,35.8l-87.2-0.1c-11.2,0-20.3,9.1-20.3,20.3v0.7
		c0,11.2,9.1,20.3,20.3,20.3l673.7,1c11.2,0,20.3-9.1,20.3-20.3v-0.7C2177.4,1173.8,2168.3,1164.7,2157.1,1164.7z"/>
	<path class="st47" d="M285.6,816.1c0,0,10.4-14.8,44.1-13c22.9,1.2,48,24.4,48,24.4l-15.2,12.2l-69.9-9.9L285.6,816.1L285.6,816.1z
		"/>
	<path class="st48" d="M353.9,1233.2c5.9,2.1,4.2,1.5,13.5,0c-0.1-4.2-0.2-17.3-0.2-22.1c-1.3-85.4-9.8-164.2-8.7-207.9
		c1.5-62.1,11-139.1,19.3-175.6c-11,0.4-27.5,0.5-45.1-1.6c-21.5-2.6-37.8-6.9-47-9.8c-9.8,51-17.1,113.2-18.6,179.6
		c-1.5,62.5,5.4,163,7.6,237.5H353.9z"/>
	<path class="st49" d="M285.6,816.1c9.2,2.9,25.6,7.3,47,9.8c17.5,2.1,34.1,2.1,45.1,1.6c-1.4,6.1-3,13.7-4.8,22.3
		c-11,0.4-26.8,0.3-43.6-1.7c-22-2.7-38.7-7.2-47.8-10.1C282.9,830.4,284.3,823,285.6,816.1L285.6,816.1z"/>
	<path class="st50" d="M839.9,825.8h-35.2c-2-13.4-13.5-23.7-27.5-23.7h-34.8c-1.9-13.6-13.5-24-27.5-24H577.1
		c-13.5,0-24.5,10.7-25,24h-31.4c-14,0-25.5,10.3-27.5,23.7h-48.3c-7.7,0-13.9,6.2-13.9,13.9v0.5c0,7.7,6.2,13.9,13.9,13.9h394.9
		c7.7,0,13.9-6.2,13.9-13.9v-0.5C853.8,832.1,847.5,825.8,839.9,825.8z"/>
	<path class="st50" d="M1598.3,511.7h-21.2c-2-13.4-13.5-23.7-27.5-23.7h-18.8c-1.9-13.6-13.5-24-27.5-24h-137.8
		c-13.5,0-24.5,10.7-25,24h-47.4c-14,0-25.5,10.3-27.5,23.7h-62.3c-7.7,0-13.9,6.2-13.9,13.9v0.5c0,7.7,6.2,13.9,13.9,13.9h394.9
		c7.7,0,13.9-6.2,13.9-13.9v-0.5C1612.2,518,1606,511.7,1598.3,511.7z"/>
</g>
<g id="clouds">
	<path class="st46" d="M-173,1114.5h80c3.7-17.6,18.6-30.7,36.4-30.7h6.5c3.1-18.5,18.4-32.5,36.8-32.5h185
		c17.6,0,32.1,14.3,33.5,32.5h57.1c17.8,0,32.7,13.1,36.4,30.7h58.7c10.3,0,18.7,8.8,18.7,19.7v0.6c0,10.9-8.4,19.7-18.7,19.7H-173
		c-10.3,0-18.7-8.8-18.7-19.7v-0.6C-191.7,1123.3-183.3,1114.5-173,1114.5z"/>
	<path class="st46" d="M293.8,1244.8h80c3.7-17.6,18.6-30.7,36.4-30.7h6.5c3.1-18.5,18.4-32.5,36.8-32.5h185
		c17.6,0,32.1,14.3,33.5,32.5H729c17.8,0,32.7,13.1,36.4,30.7h58.7c10.3,0,18.7,8.8,18.7,19.7v0.6c0,10.9-8.4,19.7-18.7,19.7H293.8
		c-10.3,0-18.7-8.8-18.7-19.7v-0.6C275.1,1253.6,283.5,1244.8,293.8,1244.8z"/>
	<path class="st45" d="M110.8,1293.2h80c3.7-16.7,18.6-29.1,36.4-29.1h6.5c3.1-17.5,18.4-30.9,36.8-30.9h185
		c17.6,0,32.1,13.6,33.5,30.9H546c17.8,0,32.7,12.5,36.4,29.1h58.7c10.3,0,18.7,8.4,18.7,18.7v0.6c0,10.3-8.4,18.7-18.7,18.7H110.8
		c-10.3,0-18.7-8.4-18.7-18.7v-0.6C92.2,1301.6,100.5,1293.2,110.8,1293.2z"/>
</g>
<g id="hide_when_save" class="st0">
	<path class="st51" d="M2076.6,2038.4h-80c-3.7-16.7-18.6-29.1-36.4-29.1h-6.5c-3.1-17.5-18.4-30.9-36.8-30.9h-185
		c-17.6,0-32.1,13.6-33.5,30.9h-57.1c-17.8,0-32.7,12.5-36.4,29.1h-58.7c-10.3,0-18.7,8.4-18.7,18.7v0.6c0,10.3,8.4,18.7,18.7,18.7
		h530.3c10.3,0,18.7-8.4,18.7-18.7v-0.6C2095.2,2046.7,2086.9,2038.4,2076.6,2038.4z"/>
	<path class="st52" d="M353,1711.2c13.7,8.2,24.4,18.7,31.1,29.5c12.7,0.9,27,5.4,40.6,13.6c8.3,5,15.4,10.8,21.3,17
		c-5.1-9.4-13.7-18.5-25-25.3c-11.3-6.8-23.2-10.2-33.9-10.3c-5.1-9.4-13.7-18.3-25-25.1c-11.2-6.8-23.4-10.2-34.1-10.3
		C336.3,1702.7,344.8,1706.3,353,1711.2L353,1711.2z"/>
	<path class="st52" d="M235.6,1819.6c12.9,5.1,23.6,12.5,30.9,20.8c11-1.1,23.9,0.7,36.8,5.8c7.8,3.1,14.8,7,20.7,11.5
		c-5.7-7.3-14.4-13.8-25.1-18c-10.6-4.2-21.4-5.4-30.5-3.9c-5.7-7.3-14.4-13.7-25-17.9c-10.6-4.2-21.5-5.4-30.7-3.9
		C220,1814.7,227.8,1816.5,235.6,1819.6z"/>
	<path class="st52" d="M96.9,1912.3c13.4,3.6,24.8,9.8,33,17.2c10.8-2.3,23.8-1.9,37.2,1.7c8.1,2.2,15.5,5.3,21.8,9.1
		c-6.5-6.7-15.9-12.2-27-15.1c-11-3-21.8-2.9-30.8-0.5c-6.5-6.6-15.8-12.1-26.8-15s-21.9-2.9-30.9-0.5
		C80.8,1909.2,88.8,1910.2,96.9,1912.3L96.9,1912.3z"/>
	<path class="st52" d="M1471.8,1443.6c8.3-5,16.7-8.6,25-10.9c-10.7,0.1-22.8,3.5-34.1,10.3c-11.2,6.8-19.9,15.8-25,25.1
		c-10.7,0.1-22.6,3.5-33.9,10.3c-11.3,6.8-19.9,15.8-25,25.3c5.9-6.2,13-12,21.3-17c13.7-8.2,28-12.7,40.6-13.6
		C1447.4,1462.3,1458.1,1451.7,1471.8,1443.6L1471.8,1443.6z"/>
	<path class="st52" d="M1612.2,1546.2c-9.2-1.5-20-0.3-30.7,3.9c-10.6,4.2-19.3,10.6-25,17.9c-9.2-1.4-19.9-0.3-30.5,3.9
		c-10.7,4.2-19.4,10.7-25.1,18c5.9-4.5,12.9-8.4,20.7-11.5c12.9-5.1,25.8-6.9,36.8-5.8c7.3-8.3,18-15.7,30.9-20.8
		C1597.1,1548.8,1604.8,1547,1612.2,1546.2z"/>
	<path class="st52" d="M1310,1556.3c8.1-2.2,16-3.2,23.4-3.1c-9-2.5-19.9-2.5-30.9,0.5c-11,3-20.3,8.4-26.8,15
		c-8.9-2.4-19.7-2.5-30.8,0.5c-11.1,3-20.5,8.5-27,15.1c6.4-3.8,13.8-6.9,21.8-9.1c13.4-3.6,26.4-4,37.2-1.7
		C1285.1,1566.2,1296.6,1560,1310,1556.3L1310,1556.3z"/>
	<path class="st51" d="M2289.2,1331.8h-140.3c-4.7-22.5-24.7-39.4-48.6-39.4h-24.7c-5.1-19.2-13-35-29.2-35h-280.9
		c-16.2,0-36,15.8-41.2,35h-47.8c-23.9,0-43.9,16.9-48.6,39.4h-43.7c-13.7,0-24.8,11.1-24.8,24.8v0.8c0,13.7,11.1,24.8,24.8,24.8
		h704.9c13.7,0,24.8-11.1,24.8-24.8v-0.8C2314,1342.9,2302.9,1331.8,2289.2,1331.8z"/>
	<path class="st51" d="M1837.8,2000.4h-80c-3.7-16.7-18.6-29.1-36.4-29.1h-6.5c-3.1-17.5-18.4-30.9-36.8-30.9h-185
		c-17.6,0-32.1,13.6-33.5,30.9h-57.1c-17.8,0-32.7,12.5-36.4,29.1h-58.7c-10.3,0-18.7,8.4-18.7,18.7v0.6c0,10.3,8.4,18.7,18.7,18.7
		h530.3c10.3,0,18.7-8.4,18.7-18.7v-0.6C1856.5,2008.7,1848.1,2000.4,1837.8,2000.4z"/>
	<path class="st51" d="M1806.7,1710.6h-44c-0.5-22-18.5-39.6-40.6-39.6h-34.3c-1.7-20.5-18.8-36.6-39.8-36.6h-152.3
		c-20,0-36.2,16.2-36.2,36.2v0.4h-72c-22.1,0-40.1,17.7-40.6,39.6h-108.6c-11.3,0-20.5,9.2-20.5,20.5v1.6c0,11.3,9.2,20.5,20.5,20.5
		h568.3c11.3,0,20.5-9.2,20.5-20.5v-1.6C1827.2,1719.8,1818,1710.6,1806.7,1710.6z"/>
	<path class="st51" d="M-69.1,2133H71.2c4.7-22.5,24.7-39.4,48.6-39.4h24.7c5.1-19.2,19-33,35.2-33h318.9c16.2,0,30,13.8,35.2,33
		h9.8c23.9,0,43.9,16.9,48.6,39.4h43.7c13.7,0,24.8,11.1,24.8,24.8v0.8c0,13.7-11.1,24.8-24.8,24.8H-69.1
		c-13.7,0-24.8-11.1-24.8-24.8v-0.8C-93.9,2144.1-82.8,2133-69.1,2133z"/>
	<path class="st52" d="M1310.7,2147.7c15.9-1,30.7,1.5,42.3,6.5c10.9-6.5,25.2-10.9,41.1-12c9.6-0.6,18.8,0.1,27.2,1.8
		c-9.6-4.8-21.8-7.3-35-6.5c-13.1,0.9-24.9,4.9-33.7,10.9c-9.5-4.8-21.7-7.2-34.8-6.4c-13.1,0.9-25,5-33.8,11
		C1292.1,2150.2,1301.1,2148.3,1310.7,2147.7L1310.7,2147.7z"/>
	<g class="st53">
		<path class="st54" d="M-166.8,708.2h-576.8c-11.2,0-20.3-9.1-20.3-20.3v-0.7c0-11.2,9.1-20.3,20.3-20.3h576.8
			c11.2,0,20.3,9.1,20.3,20.3v0.7C-146.5,699.1-155.6,708.2-166.8,708.2z"/>
		<path class="st54" d="M-252.8,676.6h-428v-0.7c0-22.4,18.2-40.6,40.6-40.6h346.7c22.4,0,40.6,18.2,40.6,40.6V676.6z"/>
		<path class="st54" d="M-299.8,643h-278.4v-4.8c0-20.2,16.4-36.5,36.5-36.5h201.2c22.4,0,40.6,18.2,40.6,40.6V643z"/>
	</g>
	<g class="st53">
		<path class="st54" d="M1446.3,1430.2H869.5c-11.2,0-20.3-9.1-20.3-20.3v-0.7c0-11.2,9.1-20.3,20.3-20.3h576.8
			c11.2,0,20.3,9.1,20.3,20.3v0.7C1466.6,1421.2,1457.5,1430.2,1446.3,1430.2z"/>
		<path class="st54" d="M1360.4,1398.6h-428v-0.7c0-22.4,18.2-40.6,40.6-40.6h346.7c22.4,0,40.6,18.2,40.6,40.6V1398.6z"/>
		<path class="st54" d="M1313.3,1365H1035v-4.8c0-20.2,16.4-36.5,36.5-36.5h201.2c22.4,0,40.6,18.2,40.6,40.6V1365z"/>
	</g>
</g>
</svg>
