<?xml version="1.0" encoding="UTF-8"?>
<svg id="road" xmlns="http://www.w3.org/2000/svg" viewBox="0 0 1300 905.62">
  <defs>
    <style>
      .cls-1 {
        fill: #fff;
        isolation: isolate;
        opacity: .2;
      }

      .cls-1, .cls-2, .cls-3, .cls-4 {
        stroke-width: 0px;
      }

      .cls-2 {
        fill: #fc3f3f;
      }

      .cls-3 {
        fill: #11b20d;
      }

      .cls-4 {
        fill: #007ac3;
      }
    </style>
  </defs>
  <path class="cls-4" d="m500.24,287.13h300.95c10.79,0,19.55,8.76,19.55,19.55v499.32h-340.05v-499.32c0-10.79,8.76-19.55,19.55-19.55Z"/>
  <path class="cls-2" d="m1161.06,813.33l-340.32-2.86v-333.62l323.56,2.69c10.8.09,19.48,8.92,19.39,19.72l-2.62,314.07h-.01Z"/>
  <path class="cls-3" d="m480.68,807.54l-351.32-2.13,1.22-201.37c.07-10.8,8.87-19.5,19.67-19.43l330.43,2.01v220.93h0Z"/>
  <path class="cls-1" d="m150.23,584.6l321.01,1.95-341.54,161.86,1.33-144.9c.09-10.52,8.68-18.98,19.2-18.91Z"/>
  <path class="cls-1" d="m480.69,307.63l.08,144.37,332.03-161.02c-3.25-2.41-7.26-3.85-11.61-3.85h-300.01c-11.32,0-20.5,9.18-20.49,20.5Z"/>
  <path class="cls-1" d="m820.85,476.85l-.11,40.42v126.51l334.79-160.56c-2.11-1.52-4.53-2.63-7.15-3.21l-147.27-1.66-180.26-1.5Z"/>
</svg>