<?xml version="1.0" encoding="utf-8"?>
<!-- Generator: Adobe Illustrator 27.9.5, SVG Export Plug-In . SVG Version: 9.03 Build 54986)  -->
<svg version="1.1" id="road" xmlns="http://www.w3.org/2000/svg" xmlns:xlink="http://www.w3.org/1999/xlink" x="0px" y="0px"
	 viewBox="0 0 1300 905.6" style="enable-background:new 0 0 1300 905.6;" xml:space="preserve">
<style type="text/css">
	.st0{fill:#F8C823;}
	.st1{fill:#F7DE2B;}
	.st2{fill:#F7D90C;}
	.st3{fill:#F5BB17;}
	.st4{fill:#161616;}
	.st5{fill:#1E1E1E;}
	.st6{opacity:0.1;fill:#FFFFFF;enable-background:new    ;}
	.st7{fill:#12A9D8;}
	.st8{fill:#211E1F;}
	.st9{fill:none;stroke:#211E1F;stroke-width:5;stroke-miterlimit:10;}
	.st10{fill:#1286CC;}
	.st11{fill:#FCB322;}
	.st12{fill:#FFC84D;}
	.st13{fill:#FFBD39;}
	.st14{fill:#62CE1B;}
	.st15{fill:#11B20D;}
	.st16{fill:#C6781C;}
	.st17{fill:#DD882C;}
	.st18{fill:#FC4F4F;}
	.st19{fill:#EA2D2D;}
	.st20{fill:#ADB8C0;}
	.st21{fill:#BECED7;}
	.st22{fill:#AAC2CD;}
</style>
<path class="st0" d="M382.7,464.1c17.8-10.2,38.1-32.2,45.4-40c8.6-9.1,18.4-25.9,30.3-8.2c22.8,34,20,72-21.3,113.4
	c-29,29-61,29.6-81.2,9.4C333.5,516.3,350.8,482.5,382.7,464.1L382.7,464.1z"/>
<path class="st1" d="M1107.3,366.3c-30.2-17-47.4-33.3-85.1-36.8c8.9-10.5,15.2-23.4,17.4-38c6.6-42.5-23.2-82.3-66.2-87.7
	c-39.2-4.9-76.3,21.4-84.5,60c-4.9,22.9,1,45.2,13.9,62.3c-29.2,13.1-49.6,38-52.7,69.7c-4.8,49.8,26,89.4,102.6,99.3
	c76.6,9.9,113.9-5.8,143.5-30c28.2-23.2,49.6-70.9,50.1-95.3c-0.7-2.8-3-3.1-3-3.1S1123.5,375.4,1107.3,366.3L1107.3,366.3z"/>
<path class="st2" d="M529.9,173.6c31.5-15.9,49.8-31.7,88.3-33.6c-8.6-11.1-14.4-24.5-16-39.5c-4.8-43.6,27.3-82.7,71.3-86.3
	c40.1-3.2,76.7,25.2,83.2,64.9c3.9,23.5-3,46-17,62.8c29.1,14.6,48.8,40.9,50.5,73.4c2.7,50.9-30.5,89.8-108.9,96.3
	s-115.7-11.1-144.6-37.1c-27.7-24.9-47.2-74.4-46.7-99.3c0.9-2.8,3.2-3.1,3.2-3.1S513,182.1,529.9,173.6L529.9,173.6z"/>
<path class="st3" d="M718.3,74.8c-12,4-10.4,16.4-17,20.6s-18.1,5.3-15.4,12.1c2.8,6.8,28.4,14.9,41.9,13s58.5-27.5,44.6-41.5
	c-7.5-7.5-24.1,0.8-32.7-0.6C731.2,77,728,71.6,718.3,74.8z"/>
<g>
	
		<rect x="684.6" y="46.4" transform="matrix(0.9333 -0.3592 0.3592 0.9333 29.6116 260.6875)" class="st4" width="63.5" height="8.6"/>
	<path class="st5" d="M684.8,92.1l-12.1,4.7c-14.9,5.7-24.8-1.3-29.3-13l-0.1-0.4c-1.3-3.5,0.4-7.4,3.9-8.7l41.7-16.1
		c3.5-1.3,7.4,0.4,8.7,3.9l0.2,0.5C702.2,74.6,699.4,87.3,684.8,92.1L684.8,92.1z"/>
	<path class="st4" d="M662.2,101.3c-8.1,0.1-15.8-4.8-18.9-12.8l-2.2-5.8c-0.7-1.8-0.6-3.7,0.1-5.5s2.2-3.1,4-3.8l44.2-17
		c1.8-0.7,3.7-0.6,5.5,0.1s3.1,2.2,3.8,4l2.3,5.9c3.9,10.2-1.2,21.7-11.4,25.6l-20.5,7.9C666.8,100.9,664.5,101.3,662.2,101.3
		L662.2,101.3z M692,59.5c-0.4,0-0.8,0.1-1.2,0.2l-44.2,17c-1.8,0.7-2.8,2.8-2.1,4.7l2.2,5.8c3.2,8.4,12.7,12.6,21.2,9.4l20.5-7.9
		c8.4-3.2,12.5-12.6,9.3-21l-2.3-5.9c-0.3-0.9-1-1.6-1.9-2C693,59.6,692.5,59.5,692,59.5L692,59.5z"/>
	<path class="st5" d="M764.3,61.3L752.2,66c-17.3,5.4-24.8-1.3-29.3-13l-0.1-0.4c-1.3-3.5,0.4-7.4,3.9-8.7l41.7-16.1
		c3.5-1.3,7.4,0.4,8.7,3.9l0.2,0.5C781.7,43.8,779.6,57.2,764.3,61.3L764.3,61.3z"/>
	<path class="st6" d="M768.9,29.2v-0.3c-0.3,0-0.6,0.1-1,0.2l-9.3,3.3l-5.5,31.3l10.2-4L768.9,29.2L768.9,29.2z"/>
	<path class="st6" d="M743.3,66.6l4.9-30.2l-15.6,7l-3,18.6C733.1,66.2,738.3,68.1,743.3,66.6L743.3,66.6z"/>
	<path class="st6" d="M691.5,59.6c-0.3,0-0.5,0.1-0.8,0.2l-9,3.5l-5.9,30.3l10.3-3.9L691.5,59.6L691.5,59.6z"/>
	<path class="st6" d="M666,97.2l5.8-30.2l-18.2,7l-3.5,18.6C654.1,96.9,660.2,98.8,666,97.2z"/>
	<path class="st4" d="M741.8,70.6c-8.1,0.1-15.8-4.8-18.9-12.8l-2.2-5.8c-0.7-1.8-0.6-3.7,0.1-5.5s2.2-3.1,4-3.8l44.2-17
		c1.8-0.7,3.7-0.6,5.5,0.1c1.8,0.8,3.1,2.2,3.8,4l2.3,5.9c3.9,10.2-1.2,21.7-11.4,25.6l-20.5,7.9C746.4,70.2,744.1,70.6,741.8,70.6
		L741.8,70.6z M771.5,28.8c-0.4,0-0.8,0.1-1.2,0.2l-44.2,17c-0.9,0.3-1.6,1-2,1.9s-0.4,1.9-0.1,2.8l2.2,5.8
		c3.2,8.4,12.7,12.6,21.2,9.4l20.5-7.9c8.4-3.2,12.5-12.6,9.3-21l-2.3-5.9c-0.3-0.9-1-1.6-1.9-2C772.5,28.9,772,28.8,771.5,28.8
		L771.5,28.8z"/>
</g>
<path class="st3" d="M624.9,179.9c38-13.5,78.5-4,81.3,30.8c2.5,31.2-20.8,57.6-65.7,61.1c-63.9,5-97.6-19.7-109.8-63
	c-6.3-22.5,14.8-18.8,28.4-19.5C570.9,188.8,603.7,187.5,624.9,179.9L624.9,179.9z"/>
<path class="st7" d="M741.1,142.6l-0.7-0.3l-0.1,5.5c-0.2,9.6-1.7,19-4.2,28.1c-3.3,11.4-8.3,22.3-15,32.2l-1.6,2.4l20,20.3l2.3-3.8
	c0.7-1.1,16.3-26.7,21.8-46.3c1.4-5.1,2.6-11.3,3.7-18.5C759.9,154.3,751.1,147.8,741.1,142.6L741.1,142.6z"/>
<circle class="st8" cx="1001" cy="255.2" r="13.2"/>
<path class="st0" d="M926,237.7c10.5,6.7,6,18.1,11.2,23.7c5.3,5.6,16,9.4,11.8,15.2c-4.2,5.8-30.7,7.4-43,2.3s-49.1-40.2-32.6-50.2
	c8.9-5.4,22.8,6.5,31.2,7.2S917.6,232.3,926,237.7L926,237.7z"/>
<path class="st0" d="M1024.5,371.2c-34.1-13.8-71.3-6.7-75.2,24.8c-3.5,28.3,16.7,53.3,57.4,58.2c58,7.1,89.7-14.1,102.4-53
	c6.7-20.3-12.7-17.7-25.1-18.9C1073.3,381.4,1043.5,378.9,1024.5,371.2L1024.5,371.2z"/>
<path class="st1" d="M189.8,469.7c30.5-16.5,47.9-32.6,85.6-35.6c-8.8-10.6-14.9-23.6-16.9-38.3c-6-42.6,24.4-82,67.4-86.8
	c39.2-4.4,76,22.5,83.6,61.2c4.5,22.9-1.6,45.2-14.8,62.1c29,13.5,49.1,38.7,51.7,70.5c4.1,49.9-27.2,89-104,97.8
	c-76.8,8.8-113.9-7.4-143-32.1c-27.9-23.6-48.6-71.6-48.8-96c0.8-2.8,3.1-3.1,3.1-3.1S173.5,478.5,189.8,469.7L189.8,469.7z"/>
<path class="st0" d="M383.2,367c-12.2,2.2-12.4,14.5-19.3,17.7s-18.4,2.7-16.6,9.7c1.7,7,25.6,18.4,39,18.3
	c13.4-0.1,60.6-18.8,49.1-34.2c-6.2-8.3-23.5-2.6-31.7-5.1S393.1,365.2,383.2,367L383.2,367z"/>
<path class="st0" d="M271.9,476.6c34.1-13.8,71.4-6.6,75.2,24.9c3.5,28.3-16.7,53.3-57.4,58.2c-58,7-89.6-14.2-102.4-53.1
	c-6.6-20.3,12.7-17.7,25.1-18.8C223.1,486.8,252.9,484.3,271.9,476.6L271.9,476.6z"/>
<path class="st9" d="M301.3,373.3c0,0,2.2-11.6,13.6-15.7s21.3,4.8,21.3,4.8"/>
<rect x="650.8" y="158" class="st2" width="54" height="37"/>
<path class="st10" d="M738.6,240.9l4.3,1.3l0.2-4.5c0.3-8.5-0.7-17-3-25.2l-0.5-1.8l-1.8-0.6c-25.8-8.4-50.4-19.8-73.2-33.9
	c-16.7-10.4-32.6-22.4-47.4-35.7l-0.4-0.3c-12.3,0.7-22.6,2.9-31.9,6l2.9,3.1c18.1,19.8,41,39.1,61.3,51.6
	c16.9,10.5,34.8,19.7,53.2,27.3C713.9,233,726.1,237.2,738.6,240.9L738.6,240.9z"/>
<g>
	<circle class="st11" cx="728.2" cy="225.1" r="45.6"/>
	<circle class="st12" cx="728.2" cy="225.1" r="34"/>
	<g>
		<path class="st13" d="M733.2,205.6l-2.4,0.8c-0.3,0.1-0.6,0.4-0.6,0.7l0.2,27.5l-20.7-21c-0.3-0.2-0.7-0.3-1-0.2l-2.5,0.8
			c-0.2,0.1-0.4,0.2-0.3,0.4c0,0.1,0.1,0.1,0.1,0.2l24.2,24.9c0.1,0.1,0.1,0.1,0.2,0.2l0,3.9l-27.1-28.1c-0.3-0.2-0.7-0.3-1.1-0.2
			l-2.5,0.8c-0.2,0.1-0.4,0.3-0.3,0.5c0,0.1,0,0.1,0.1,0.2l30.6,32.2c0.1,0.1,0.3,0.2,0.4,0.2c0.1,0.2,0.4,0.2,0.6,0.1l2.6-0.9
			c0.1,0,0.2-0.1,0.3-0.2c0.1-0.1,0.2-0.1,0.2-0.2c0.1-0.2,0.2-0.4,0.2-0.6l-0.6-41.6c0-0.2-0.2-0.4-0.4-0.4
			C733.4,205.5,733.3,205.5,733.2,205.6L733.2,205.6z"/>
		<path class="st13" d="M745.2,201.8l-2.3,0.7c-0.3,0.1-0.6,0.4-0.6,0.7l1.5,40.9c0,0.2,0.2,0.4,0.4,0.5c0.1,0,0.2,0,0.3-0.1
			l2.6-0.9c0.4-0.2,0.6-0.5,0.6-0.9l-1.9-40.6c0-0.2-0.2-0.4-0.4-0.4C745.4,201.7,745.3,201.7,745.2,201.8z"/>
		<path class="st13" d="M739.9,226.4l-2.5,0.8c-0.4,0.1-0.6,0.5-0.6,0.8l0.4,18.5c0,0.2,0.2,0.4,0.4,0.5c0.1,0,0.2,0,0.3-0.1
			l2.6-0.9c0.4-0.2,0.6-0.5,0.6-0.9l-0.6-18.4c0-0.2-0.2-0.4-0.4-0.4C740,226.3,740,226.3,739.9,226.4L739.9,226.4z"/>
		<path class="st13" d="M737.3,224.6l2.5-0.8c0.4-0.1,0.6-0.4,0.6-0.8l-0.6-18.9c0-0.2-0.2-0.4-0.5-0.4c0,0,0,0,0,0l-2.5,0.8
			c-0.1,0-0.1,0.1-0.2,0.1c-0.1,0.1-0.2,0.2-0.3,0.4c0,0.1,0,0.1,0,0.2l0.4,19.2C736.8,224.6,737,224.7,737.3,224.6L737.3,224.6z"/>
	</g>
</g>
<g>
	<path class="st14" d="M395.8,431L395.8,431C395.8,431,395.8,431,395.8,431C395.8,431,395.8,431,395.8,431L395.8,431z"/>
	<path class="st14" d="M385.8,513.6c0.8-1,19.7-24.3,27.7-43.1c1.9-4.5,5.6-13.6,7.7-20.5c-7.4-7-16-12.9-25.8-17.5l-0.6,2.4
		c-1.5,9.5-4.1,18.6-7.9,27.3c-4.7,10.9-11.2,21-19.1,30l-1.9,2.1l17.1,22.7L385.8,513.6L385.8,513.6z"/>
</g>
<path class="st15" d="M245.2,444.9c20.1,17.7,44.9,34.5,66.4,44.9c17.9,8.7,36.7,15.9,55.8,21.5c12,3.5,24.5,6.5,37.3,8.8l4.4,0.8
	l-0.3-4.5c-0.6-8.5-2.5-16.8-5.6-24.8l-0.7-1.8l-1.9-0.4c-26.5-5.6-52.2-14.4-76.4-26c-17.1-8.3-33.7-18.2-49.3-29.4
	c-13.1,1.1-23.8,3.8-33.4,7.5L245.2,444.9L245.2,444.9z"/>
<g>
	<circle class="st16" cx="384.6" cy="514.5" r="45.6"/>
	<circle class="st17" cx="384.6" cy="514.5" r="34"/>
	<g>
		<path class="st16" d="M389.6,494.9l-2.4,0.8c-0.4,0.1-0.6,0.4-0.6,0.7l0.1,27.5l-20.7-21c-0.3-0.2-0.7-0.3-1-0.2l-2.5,0.8
			c-0.2,0-0.4,0.2-0.3,0.5c0,0.1,0.1,0.1,0.1,0.2l24.2,24.9c0.1,0.1,0.1,0.1,0.2,0.2l0,3.9l-27.1-28.1c-0.3-0.2-0.7-0.3-1.1-0.2
			l-2.5,0.8c-0.2,0-0.4,0.3-0.4,0.5c0,0.1,0,0.1,0.1,0.2l30.6,32.2c0.1,0.1,0.3,0.2,0.4,0.2c0.1,0.2,0.4,0.2,0.6,0.1l2.6-1
			c0.1,0,0.2-0.1,0.3-0.2c0.1,0,0.1-0.1,0.2-0.2c0.1-0.2,0.2-0.3,0.2-0.5l-0.6-41.5c0-0.2-0.1-0.4-0.4-0.4
			C389.7,494.9,389.7,494.9,389.6,494.9L389.6,494.9z"/>
		<path class="st16" d="M401.6,491.1l-2.3,0.7c-0.4,0.1-0.6,0.4-0.6,0.7l1.5,40.9c0,0.2,0.2,0.4,0.4,0.5c0.1,0,0.2,0,0.3,0l2.6-0.9
			c0.4-0.2,0.6-0.5,0.6-0.9l-1.9-40.6c0-0.2-0.2-0.4-0.4-0.4C401.8,491,401.7,491,401.6,491.1L401.6,491.1z"/>
		<path class="st16" d="M396.2,515.7l-2.5,0.8c-0.4,0.1-0.6,0.5-0.6,0.8l0.4,18.5c0,0.2,0.2,0.4,0.4,0.5c0.1,0,0.2,0,0.3,0l2.6-0.9
			c0.4-0.2,0.6-0.5,0.6-0.9l-0.6-18.4c0-0.2-0.2-0.4-0.4-0.4C396.4,515.7,396.3,515.7,396.2,515.7L396.2,515.7z"/>
		<path class="st16" d="M393.7,513.9l2.5-0.8c0.4-0.1,0.6-0.5,0.6-0.8l-0.6-18.9c0-0.2-0.2-0.4-0.5-0.4c0,0,0,0,0,0l-2.5,0.8
			c-0.1,0-0.1,0-0.2,0.1c-0.1,0.1-0.2,0.2-0.3,0.4c0,0.1,0,0.1,0,0.2l0.4,19.2C393.1,513.9,393.4,514,393.7,513.9L393.7,513.9z"/>
	</g>
</g>
<path class="st18" d="M910.6,356.8c-3.8-8.6-6.4-17.8-7.9-27.3l-0.8-3c-9.2,4.2-17.5,9.6-24.6,16c1.5,7.9,4.9,18.4,6.7,22.6
	c8,18.8,26.9,42.1,27.7,43.1l2.8,3.5l17.1-22.7l-1.9-2.1C921.8,377.8,915.3,367.7,910.6,356.8L910.6,356.8z"/>
<path class="st19" d="M1055.9,337.5c-9.7-3.9-20.4-6.8-33.7-8c0.2-0.2-23.4,17.5-49.5,30c-24,11.5-49.8,19.5-76.4,24.6l-1.8,0.4
	l-0.7,1.8c-3,7.9-4.8,16.2-5.2,24.7l-0.2,4.5l4.5-0.7c12.8-2.1,25.4-4.8,37.4-8.1c19.1-5.2,37.9-12.1,55.8-20.4
	C1004.9,377.3,1036.8,353.3,1055.9,337.5L1055.9,337.5z"/>
<g>
	<circle class="st20" cx="914.8" cy="405" r="45.6"/>
	<circle class="st21" cx="914.8" cy="405" r="34"/>
	<g>
		<path class="st22" d="M909.9,385.4l2.4,0.8c0.3,0.1,0.6,0.4,0.6,0.7l-0.2,27.5l20.7-21c0.3-0.2,0.7-0.3,1-0.2l2.5,0.8
			c0.2,0,0.4,0.2,0.3,0.5c0,0.1-0.1,0.1-0.1,0.2l-24.2,24.9c-0.1,0.1-0.1,0.1-0.2,0.2l0,3.9l27.1-28.1c0.3-0.2,0.7-0.3,1.1-0.2
			l2.5,0.8c0.2,0,0.4,0.3,0.3,0.5c0,0.1,0,0.1-0.1,0.2l-30.6,32.2c-0.1,0.1-0.3,0.2-0.4,0.2c-0.1,0.2-0.4,0.2-0.6,0.1l-2.6-1
			c-0.1,0-0.2-0.1-0.3-0.2c-0.1,0-0.2-0.1-0.2-0.2c-0.1-0.2-0.2-0.4-0.2-0.5l0.6-41.5c0-0.2,0.2-0.4,0.4-0.4
			C909.7,385.4,909.8,385.4,909.9,385.4L909.9,385.4z"/>
		<path class="st22" d="M897.8,381.6l2.3,0.7c0.3,0.1,0.6,0.4,0.6,0.7l-1.5,40.9c0,0.2-0.2,0.4-0.4,0.5c-0.1,0-0.2,0-0.3,0l-2.6-0.9
			c-0.4-0.2-0.6-0.5-0.6-0.9l1.9-40.6c0-0.2,0.2-0.4,0.4-0.4C897.7,381.5,897.8,381.5,897.8,381.6z"/>
		<path class="st22" d="M903.2,406.2l2.5,0.8c0.4,0.1,0.6,0.5,0.6,0.8l-0.4,18.5c0,0.2-0.2,0.4-0.4,0.5c-0.1,0-0.2,0-0.3,0l-2.6-0.9
			c-0.4-0.2-0.6-0.5-0.6-0.9l0.6-18.4c0-0.2,0.2-0.4,0.4-0.4C903,406.1,903.1,406.1,903.2,406.2L903.2,406.2z"/>
		<path class="st22" d="M905.8,404.4l-2.5-0.8c-0.4-0.1-0.6-0.5-0.6-0.8l0.6-18.9c0-0.2,0.2-0.4,0.5-0.4c0,0,0,0,0,0l2.5,0.8
			c0.1,0,0.1,0,0.2,0.1c0.1,0.1,0.2,0.2,0.3,0.4c0,0.1,0,0.1,0,0.2l-0.4,19.2C906.3,404.4,906.1,404.5,905.8,404.4L905.8,404.4z"/>
	</g>
</g>
</svg>
