<?xml version="1.0" encoding="UTF-8"?>
<svg xmlns="http://www.w3.org/2000/svg" viewBox="0 0 1140 720">
  <defs>
    <style>
      .cls-1 {
        fill: #333;
        opacity: .4;
      }

      .cls-1, .cls-2, .cls-3, .cls-4, .cls-5, .cls-6, .cls-7, .cls-8 {
        stroke-width: 0px;
      }

      .cls-9 {
        fill: none;
        stroke: #cc2427;
        stroke-miterlimit: 10;
        stroke-width: 49px;
      }

      .cls-2 {
        fill: #f9da0e;
      }

      .cls-3 {
        fill: #f8ad1c;
      }

      .cls-4 {
        fill: #f8bc17;
      }

      .cls-5 {
        fill: #211e1f;
      }

      .cls-6 {
        fill: #cc2427;
      }

      .cls-7 {
        fill: #fff;
      }

      .cls-8 {
        fill: #013d5b;
      }
    </style>
  </defs>
  <g id="Layer_1" data-name="Layer 1">
    <g>
      <path class="cls-1" d="m961.44,411.59c-9.58-6.95-22.33-7.65-32.68-1.9-49.53,27.52-201,115.05-202.95,125.63-2.31,12.52,38.1,96.55,93.37,101.8,55.28,5.24,164.5-30.68,226.47-65.05,52.37-29.05-40.12-128.5-84.21-160.47Z"/>
      <path class="cls-6" d="m819.18,637.12c-31.88-3.02-60.59-36.54-79.18-64.36-13.21-19.77-7.57-46.46,12.77-58.78,47.66-28.86,131.92-79.62,169.99-100.94-55.72-47.23-195.58-40.11-261.47,12.92-75.78,61-73.89,150.94-43.79,220.63,21.85,50.58,65.98,75.03,156.07,73.68,176.72-2.65,228.08-61.51,246.46-82.52,6.42-7.34,21.26-31.81,11.62-58.33-63.33,31.92-161.14,62.56-212.47,57.69Z"/>
    </g>
    <path class="cls-2" d="m112.32,384.38c75.9-38.19,119.75-76.26,212.41-80.84-20.74-26.57-34.61-59.04-38.53-95.01C274.75,103.66,351.98,9.55,457.83.97c96.43-7.81,184.41,60.72,200.25,156.16,9.38,56.55-7.33,110.69-40.81,150.99,70.09,35.2,117.3,98.49,121.37,176.5,6.39,122.45-73.36,216.04-262.05,231.77-188.69,15.73-278.38-26.67-348-89.34-66.56-59.93-113.59-178.96-112.29-238.88,2.07-6.77,7.76-7.39,7.76-7.39,0,0,47.54,24.09,88.25,3.61Z"/>
    <circle class="cls-5" cx="463.98" cy="140.76" r="34.81"/>
    <circle class="cls-7" cx="477.16" cy="131.93" r="9.69"/>
    <path class="cls-3" d="m614.74,111.95c-28.65,10.35-24,40.07-39.59,50.58-15.59,10.52-43.3,13.88-36.27,30.11,7.03,16.23,69.33,34.17,101.64,28.53,32.31-5.64,139.03-69.87,104.76-102.58-18.38-17.55-57.89,3.31-78.58.56-20.69-2.75-28.88-15.54-51.96-7.21Z"/>
    <path class="cls-8" d="m738.64,484.62c-4.06-77.87-51.12-141.08-121.01-176.31-35.22,11.01-115.48,26.33-180.7,20.21-56.9-5.34-81.35-14.32-112.26-25.05.02.03.04.05.06.08-92.65,4.58-136.51,42.65-212.41,80.84-40.71,20.49-88.25-3.61-88.25-3.61,0,0-5.7.62-7.76,7.39-1.31,59.92,45.73,178.96,112.29,238.88,69.61,62.67,159.31,105.07,348,89.34,188.69-15.73,268.44-109.32,262.05-231.77Z"/>
    <path class="cls-6" d="m650.18,327.48c-12-9.2-18.51-12.09-32.5-19.15-.01,0-.03-.01-.04-.02-35.22,11.01-115.48,26.33-180.7,20.21-56.9-5.34-81.35-14.32-112.26-25.05.02.03.04.05.06.08-20.86,1.03-39.24,3.77-56.07,7.82,39.88,16.5,73.71,30.3,149.04,40.37,83.06,11.1,178.3-9.94,232.49-24.25Z"/>
    <ellipse class="cls-9" cx="416.06" cy="526.5" rx="131.42" ry="110.5"/>
  </g>
  <g id="Layer_2" data-name="Layer 2">
    <path class="cls-4" d="m387.12,414.74c93.26-2.59,175.49,47.32,156.82,125.71-16.78,70.44-86.79,111.86-187.99,87.55-144.1-34.62-200.54-113.03-196.46-216.8,2.13-54.08,45.87-30.77,76.41-22.52,26.14,7.06,99.15,27.5,151.21,26.06Z"/>
  </g>
</svg>