<?xml version="1.0" encoding="UTF-8"?>
<svg id="Layer_1" data-name="Layer 1" xmlns="http://www.w3.org/2000/svg" viewBox="0 0 1651 851">
  <defs>
    <style>
      .cls-1 {
        fill: #4d4c4d;
      }

      .cls-1, .cls-2, .cls-3, .cls-4, .cls-5, .cls-6, .cls-7, .cls-8 {
        stroke-width: 0px;
      }

      .cls-2 {
        fill: #397cb2;
      }

      .cls-3 {
        fill: #cc2427;
      }

      .cls-4 {
        fill: #e42b25;
      }

      .cls-5 {
        fill: #d82323;
      }

      .cls-6 {
        fill: #30302f;
      }

      .cls-7 {
        fill: #fff;
      }

      .cls-8 {
        fill: #013d5b;
      }
    </style>
  </defs>
  <path class="cls-6" d="m1143.02,294.24l-243.57-163.59c-10.55-7.08-13.3-21.29-6.14-31.73l7.47-10.89c7.16-10.44,21.52-13.15,32.06-6.07l243.57,163.59c10.55,7.08,13.3,21.29,6.14,31.73l-7.47,10.89c-7.16,10.44-21.52,13.15-32.06,6.07Z"/>
  <path class="cls-6" d="m959.58,40l-90.3,131.63c-6.89,10.05-20.72,12.67-30.87,5.84l-8.29-5.56c-10.16-6.82-12.8-20.5-5.91-30.55L914.52,9.73c6.89-10.05,20.72-12.67,30.87-5.84l8.29,5.56c10.16,6.82,12.8,20.5,5.91,30.55Z"/>
  <path class="cls-8" d="m280.99,54.98c18.22-12.69,42.33-12.62,60.44.22,110.38,78.31,277.2,185.71,381.37,197.89,143.29,16.74,330.92-90.68,376.42-124.42,6.19-4.59,24.38-29.22,49.65-22.23,36.36,10.07,72.99,22.27,107.69,37.06,164.36,70.04,325.25,187.37,371.15,279.36,39.41,78.96,22.68,201.88-38.41,220.19-47.33,14.17-814.88-.17-814.88-.17,0,0-709.82,4.39-750-30.67-40.18-35.04-41.16-220.05,90.41-403,48.01-66.76,123.82-124.73,166.18-154.22h-.02Z"/>
  <path class="cls-4" d="m163.49,231.94c48.01-66.76,123.82-124.73,166.18-154.22,9.14-6.36,19.74-9.51,30.32-9.46-6.33-4.42-12.52-8.78-18.54-13.05-18.12-12.86-42.22-12.93-60.44-.22-42.35,29.49-118.15,87.46-166.18,154.22C-16.75,392.15-15.76,577.16,24.42,612.2c4.54,3.96,17.68,7.42,37.35,10.44-.05-1.31-.07-2.6-.1-3.9-27.44-58.38-15.68-223.4,101.82-386.79v-.02Z"/>
  <path class="cls-5" d="m230.8,254.05c48.01-66.76,123.82-124.73,166.18-154.22,1.56-1.09,3.18-2.04,4.81-2.94-21.35-14.32-41.66-28.42-60.36-41.69-18.12-12.86-42.22-12.93-60.44-.22-42.35,29.49-118.15,87.46-166.18,154.22C-16.75,392.15-15.76,577.16,24.42,612.2c8.38,7.31,45.94,12.91,100.1,17.18-21.23-66.44-4.27-221.6,106.27-375.33h0Z"/>
  <path class="cls-5" d="m230.17,253.24c48.01-66.76,123.82-124.73,166.18-154.22,1.56-1.09,3.18-2.04,4.81-2.94-21.35-14.32-41.66-28.42-60.36-41.69-18.12-12.86-42.22-12.93-60.44-.22-42.35,29.49-118.15,87.46-166.18,154.22C-17.36,391.34-16.38,576.35,23.8,611.39c8.38,7.31,45.94,12.91,100.1,17.18-21.23-66.44-4.27-221.6,106.27-375.33h0Z"/>
  <path class="cls-7" d="m398.37,94.18c-6.51,1.46-12.82,4.2-18.54,8.18-42.35,29.49-118.15,87.46-166.18,154.22-107.94,150.09-126.65,301.54-107.7,370.46,30.84,2.82,68.48,5.12,110.06,7.01-5.05-78.17,22.48-205.86,113.61-332.6,45.52-63.29,115.98-118.66,159.28-149.38-31.18-18.78-61.82-38.56-90.54-57.88l.02-.02Z"/>
  <path class="cls-4" d="m163.21,234.14c48.1-66.17,124.05-123.61,166.47-152.84,9.15-6.3,19.77-9.43,30.38-9.38-6.35-4.38-12.55-8.7-18.58-12.93-18.15-12.74-42.29-12.8-60.55-.22-42.42,29.23-118.37,86.67-166.47,152.84C-17.35,392.91-16.36,576.25,23.89,610.98c4.55,3.93,17.71,7.35,37.42,10.35-.04-1.3-.07-2.57-.11-3.86-27.5-57.85-15.72-221.39,102-383.33Z"/>
  <g>
    <circle class="cls-6" cx="264.12" cy="652.96" r="191"/>
    <circle class="cls-1" cx="264.12" cy="652.96" r="139.4"/>
    <circle class="cls-6" cx="264.12" cy="652.96" r="40.76"/>
  </g>
  <path class="cls-2" d="m742.82,570.02c1.93,0,1.93-3,0-3s-1.93,3,0,3h0Z"/>
  <g>
    <path class="cls-3" d="m995.22,484.29h-.22c-38.5,27.25-83.92,55.8-133.02,85.87l-1.95,1.08c-.77.32-1.14,1.2-.83,1.98.32.77,1.2,1.14,1.98.83.22-.09.42-.24.58-.42l1.51-.87c41.75-21.63,89.55-47.37,137.57-73.97l.87-.43c-2.83-4.35-5.02-9.08-6.49-14.06Zm252.64-204.62c-60.56-66.84-451.2-6.71-617.1,29.63l-3.89.87c-.78.2-1.32.92-1.3,1.73.08.71.72,1.23,1.43,1.15.1-.01.2-.03.3-.07l3.89-.65c137.57-24.44,423.73-58.4,485.16,2.6,18.82,18.6,14.49,42.61-7.35,70.95,12.06,7.88,20.59,20.13,23.79,34.18,85.01-56.45,142.11-110.53,115.07-140.38Z"/>
    <g>
      <path class="cls-7" d="m669.26,431.95c-4.74.01-9.36,1.53-13.19,4.33-3.93,3.27-6.47,7.91-7.14,12.98-1.3,6.71-.65,11.25,1.95,14.28,3.06,2.97,7.21,4.54,11.46,4.33,3.28.07,6.53-.6,9.52-1.95,2.88-1.33,5.35-3.43,7.14-6.06,2.02-3.01,3.42-6.39,4.11-9.95,1.08-6.06.22-10.38-2.6-13.41-2.9-3.09-7.01-4.75-11.25-4.54Zm-67.27,83.92l17.95-101.23h32.44l-2.6,12.98c3.55-4.44,8.27-7.81,13.63-9.73,6.67-2.72,13.78-4.19,20.98-4.33,8.44,0,13.63.43,19.9,3.68,5.95,2.98,10.57,8.07,12.98,14.28,2.55,6.54,3.15,13.68,1.73,20.55-1.82,11.92-8.37,22.61-18.17,29.63-9.95,7.14-18.82,9.08-31.58,9.08-3.86.07-7.72-.37-11.46-1.3-2.58-.56-5.06-1.51-7.35-2.81-2.24-1.62-4.28-3.51-6.06-5.62l-6.06,34.82h-36.34Zm374.41-26.17h-37.64l19.03-105.12,36.55.87-17.95,104.26Zm-187.75-75.92l2.6-15.36,38.5-8.22-4.11,23.58h19.03l-3.68,15.36h-18.39l-11.03,60.56h-37.42l11.25-60.56h-14.06l2.81-15.14h14.49v-.22Zm-299.79,48.88c-10.08,2.26-20.39,3.34-30.71,3.24-17.52,0-31.58-8.65-30.71-24.87.43-10.6,13.19-33.09,45.21-33.09,10.14-.23,20.13,2.47,28.77,7.79l4.54-26.17c-11.54-4.58-23.93-6.65-36.34-6.06-42.18.43-82.63,19.47-87.6,58.4-4.97,38.93,43.26,49.53,64.67,49.53,12.33,0,25.31-.65,37.2-1.73l4.97-27.04Zm410.32-7.57l-6.27,1.73-14.49,2.6c-3.43.28-6.75,1.31-9.73,3.03-1.76.99-2.96,2.75-3.24,4.76-.53,1.97.25,4.06,1.95,5.19,1.95,1.3,4.97,1.73,9.3,1.73,3.22,0,6.42-.43,9.52-1.3,2.85-.83,5.49-2.23,7.79-4.11,1.52-1.33,2.64-3.05,3.24-4.97.91-2.82,1.56-5.71,1.95-8.65Zm39.8-24.87c-.22,3.68-.87,7.14-1.73,12.55l-6.71,37.85c-.73,3.13.79,6.36,3.68,7.79v1.3h-38.72v-9.73c-5.83,3.47-12.08,6.16-18.6,8-6.07,1.56-12.33,2.28-18.6,2.16-12.33,0-19.47-1.3-24.44-5.62s-7.35-7.35-7.14-13.41c.41-4.14,2.07-8.07,4.76-11.25,2.83-3.09,6.3-5.53,10.17-7.14,4.88-2.18,10.05-3.64,15.36-4.33,6.92-1.08,16.44-2.16,29.2-3.24,4.28-.41,8.5-1.36,12.55-2.81,2.6-1.08,3.68-2.16,4.11-4.33s-.43-6.06-5.62-7.14c-13.84-2.81-39.8,1.73-53.21,4.97l7.14-19.47c17.1-2.72,34.38-4.17,51.7-4.33,27.47.22,36.34,8.22,36.12,18.17h0Zm-221.06,59.48l13.41-75.49h36.99l-13.41,75.49h-36.99Zm15.57-92.79c1.08-6.27,10.81-11.25,21.85-11.25s18.82,4.97,17.74,11.25-10.81,11.25-21.85,11.25-18.82-5.19-17.74-11.25Zm-166.98,57.97c-2.02.82-4.12,1.4-6.27,1.73l-14.28,2.6c-3.5.25-6.9,1.28-9.95,3.03-1.77,1.09-2.97,2.91-3.24,4.97-.46,1.95.42,3.98,2.16,4.97,2.76,1.55,5.93,2.22,9.08,1.95,3.23-.06,6.43-.57,9.52-1.51,2.85-.83,5.49-2.23,7.79-4.11,1.52-1.33,2.64-3.05,3.24-4.97,1.05-2.78,1.71-5.69,1.95-8.65Zm39.8-24.66c-.22,3.68-.87,6.92-1.73,12.55l-6.71,37.64c-.73,3.13.79,6.36,3.68,7.79v1.51h-38.72v-9.52c-5.88,3.31-12.12,5.92-18.6,7.79-5.99,1.62-12.18,2.42-18.39,2.38-12.55,0-19.68-1.3-24.44-5.62-4.76-4.33-7.57-7.35-7.35-13.63.46-4.07,2.12-7.9,4.76-11.03,2.82-3.16,6.28-5.67,10.17-7.35,4.98-2.11,10.22-3.56,15.57-4.33,6.71-1.08,16.22-2.16,28.98-3.24,4.32-.13,8.58-1.08,12.55-2.81,2.81-1.08,3.68-2.16,4.11-4.33s-.43-6.06-5.62-7.14c-13.84-2.6-39.8,1.73-53.21,5.19l7.14-19.68c17.1-2.71,34.38-4.16,51.7-4.33,27.47,0,36.34,8,36.12,18.17Z"/>
      <path class="cls-7" d="m1126.95,440.39l8.44-.87c2.81,0,5.19.65,5.41,3.24s-2.81,12.98-3.46,15.79l-5.84,25.31c-2.16,10.38-4.76,21.2-6.92,29.85h14.71l8.22-40.23c25.52-26.39,35.26-35.04,41.1-35.04,2.38-.25,4.51,1.47,4.76,3.84.03.3.03.61,0,.91.22,4.54-2.81,15.14-3.68,18.17l-8.65,29.2c-1.73,6.71-3.24,12.55-3.03,16.87s4.11,9.3,9.73,9.3c10.81,0,18.82-11.25,25.52-22.28l-1.95-3.68c-2.81,4.33-9.08,14.06-14.28,14.06-1.51,0-3.03-1.08-3.03-3.68.17-4.05.9-8.05,2.16-11.9l9.52-34.39c2.38-9.52,3.68-15.57,3.68-18.82s-4.11-9.3-9.73-9.3c-9.73,0-22.71,7.14-49.96,38.5h-.43l3.46-15.36c1.95-8.44,3.68-17.09,5.41-23.14-10.25,3.64-20.73,6.6-31.36,8.87l.22,4.76Zm144.7.87c-.22-6.06-3.24-10.17-9.52-10.17-15.14,0-31.15,29.63-33.96,41.53,24.66,0,44.12-14.71,43.48-31.36Zm3.24,46.5l2.81,1.95c-7.35,14.92-22.28,27.04-40.02,27.04-14.49,0-26.17-9.52-26.82-27.47-1.3-32.44,29.2-62.51,53.86-62.51,10.6,0,20.55,4.76,20.98,16.22.87,25.74-35.26,33.53-59.05,33.96-.78,3.11-1.07,6.32-.87,9.52.43,10.81,6.92,19.68,20.12,19.68s23.14-9.3,28.98-18.39Zm-255.02-20.98c.65,23.58,15.57,42.83,35.04,42.83,37.64,0,53.64-46.29,52.56-77.22-.87-23.58-16.01-42.83-35.47-42.83-32.44,0-53.43,46.07-52.13,77.22Zm-19.9-1.3c-1.51-40.23,30.07-81.33,75.7-81.33,30.71,0,50.61,20.55,51.7,51.7,1.51,42.39-27.9,81.33-75.7,81.33-30.71,0-50.61-20.33-51.7-51.7Z"/>
    </g>
  </g>
  <g>
    <circle class="cls-6" cx="1410.83" cy="647.9" r="191"/>
    <circle class="cls-1" cx="1410.83" cy="647.9" r="139.4"/>
    <circle class="cls-6" cx="1410.83" cy="647.9" r="40.76"/>
  </g>
</svg>