<?xml version="1.0" encoding="UTF-8"?>
<svg id="road" xmlns="http://www.w3.org/2000/svg" viewBox="0 0 105.5 145.5">
  <defs>
    <style>
      .cls-1 {
        fill: #ffe36e;
        stroke-width: 0px;
      }
    </style>
  </defs>
  <path class="cls-1" d="m29.73,58.9L25.08,3.3c-.25-3,3.64-4.4,5.36-1.92l31.95,46.08c.52.74,1.35,1.21,2.25,1.26l37.32,2.16c2.61.15,3.74,3.38,1.8,5.13l-27.75,25.01c-.68.62-1.04,1.51-.96,2.43l4.84,58.66c.25,3.04-3.73,4.41-5.4,1.86l-32.1-49.02c-.51-.78-1.36-1.27-2.29-1.33l-37.27-2.16c-2.61-.15-3.74-3.38-1.8-5.13l27.75-25c.68-.62,1.04-1.52.96-2.43Z"/>
</svg>