<?xml version="1.0" encoding="utf-8"?>
<!-- Generator: Adobe Illustrator 27.9.4, SVG Export Plug-In . SVG Version: 9.03 Build 54784)  -->
<svg version="1.1" id="Layer_1" xmlns="http://www.w3.org/2000/svg" xmlns:xlink="http://www.w3.org/1999/xlink" x="0px" y="0px"
	 viewBox="0 0 1000 1000" style="enable-background:new 0 0 1000 1000;" xml:space="preserve">
<style type="text/css">
	.st0{fill:#FCE147;enable-background:new    ;}
</style>
<path class="st0" d="M514.3,271.5l280.9-115.4c30.9-12.7,61.8,18.2,49.1,49.1L729,486.2c-3.8,9.2-3.8,19.5,0,28.6l115.4,280.9
	c12.7,30.9-18.2,61.8-49.1,49.1L514.3,729.5c-9.2-3.8-19.5-3.8-28.6,0L204.8,844.9c-30.9,12.7-61.8-18.2-49.1-49.1L271,514.8
	c3.8-9.2,3.8-19.5,0-28.6L155.6,205.2c-12.7-30.9,18.2-61.8,49.1-49.1l280.9,115.4C494.9,275.3,505.2,275.3,514.3,271.5z"/>
</svg>
