<?xml version="1.0" encoding="UTF-8"?>
<svg id="about" xmlns="http://www.w3.org/2000/svg" viewBox="0 0 1920 274">
  <defs>
    <style>
      .cls-1 {
        fill: #3bb241;
      }

      .cls-1, .cls-2, .cls-3 {
        stroke-width: 0px;
      }

      .cls-2 {
        fill: #0a9e46;
      }

      .cls-3 {
        fill: #0ca84b;
      }
    </style>
  </defs>
  <path class="cls-1" d="m-1.73,266.41c24.33-44.62,322.9-117.01,495.37-113.16,232.1,5.17,388.46,43.72,615.81,49.79,218.06,5.82,403.36-34.27,581.18-12.29,140.22,17.34,215.12,59.71,286.08,91.18l-25.27-198.52-2035.53,7.07L-1.73,266.41Z"/>
  <path class="cls-3" d="m-1.44,212.09c24.33-44.62,286.38-106.05,458.58-113.81,121.76-5.49,348.15,32.98,461.39,37.51,249.55,9.97,590.85-28.51,788.94,0,139.46,20.07,198.57,60.35,269.53,91.82l-25.27-198.52L-83.8,36.16-1.44,212.09Z"/>
  <path class="cls-2" d="m-110,104.75C43.28,71.64,272.42,35.62,552.6,40.08c255.77,4.08,285.17,22.81,554.04,40.09,251.97,16.2,354.33-21.3,533.45-5.17,141.26,12.72,235.07,41.6,306.03,73.07l-20.59-159.07L-110-3.93v108.68Z"/>
</svg>