<?xml version="1.0" encoding="UTF-8"?>
<svg id="schedule_details" data-name="schedule details" xmlns="http://www.w3.org/2000/svg" viewBox="0 0 1920 368">
  <defs>
    <style>
      .cls-1 {
        fill: #3a3a3a;
      }

      .cls-1, .cls-2, .cls-3, .cls-4, .cls-5, .cls-6 {
        stroke-width: 0px;
      }

      .cls-2 {
        fill: #3bb241;
      }

      .cls-3 {
        fill: #0aa549;
      }

      .cls-4 {
        fill: #0a9e46;
      }

      .cls-5 {
        fill: #444;
      }

      .cls-6 {
        fill: #20ab45;
      }
    </style>
  </defs>
  <path class="cls-2" d="m-10.19,361.05L-1.19,74.07C89.74,47.46,276.29,1.47,525.81.03c281.92-1.63,546.68,62.12,637,90.37l-29,278.73L-10.19,361.05Z"/>
  <path class="cls-5" d="m581.85.55c-7.68-.18-15.39-.32-23.11-.41-8.07,17.4-14.59,38.06-15.93,60.87-5.88,99.96,37.14,144.17,44.45,150.92l13.35-16.31.2.17c-.11-.09-10.72-9.4-20.52-30.16-16.61-35.19-18.15-75.65-16.52-103.38,1.39-23.69,9.22-44.85,18.08-61.69Z"/>
  <path class="cls-1" d="m558.74.13c-7.64-.09-15.3-.13-22.98-.13-7.14,17.48-12.61,37.63-13.92,59.76-6.97,118.52,49.75,166.37,52.16,168.34l13.25-16.19c-7.31-6.76-50.33-50.96-44.45-150.92,1.34-22.81,7.86-43.47,15.93-60.87Z"/>
  <path class="cls-6" d="m1959.81,150.27c0-.15-172-89.81-435-97.16-316.79-8.85-555.29,84.55-614,109.14l21.22,236.81h1027.78v-248.79Z"/>
  <path class="cls-3" d="m10.81,459.53L-10.29,223.37c110.1-41.14,338.75-92.95,643.4-92.76,409.7.25,744.7,74.48,891.7,136.54l-91,193.84-1423-1.47Z"/>
  <path class="cls-1" d="m1610.81,121c11.26,109.76-4.74,199.5-36.16,245.78l39.62,27.56c40.34-58,56.48-159.41,44.29-278.24-1.83-17.8-4.52-35.47-8.06-52.97-16.34-2.16-33.21-4.05-50.58-5.61,4.72,19.62,8.57,40.85,10.9,63.48Z"/>
  <path class="cls-5" d="m1563.06,125.9c5.05,49.23,4.56,95.94-1.43,135.08-5.18,33.83-14.47,61.72-26.17,78.54l39.19,27.26c31.43-46.27,47.43-136.02,36.16-245.78-2.32-22.62-6.18-43.86-10.9-63.48-16.28-1.46-33-2.63-50.13-3.46,6.34,23.54,10.79,47.55,13.28,71.84Z"/>
  <path class="cls-5" d="m877.02,144.75c.79-1.42,2.44-3.51,3.53-4.96-24.55-1.81-49.53-3.38-74.91-4.68-9.61,23.37-17.3,51.11-20.38,83.38-16.74,175.05,68.44,231.77,77.95,237.53l27.76-80.5c1.42.76,2.07,1.18,2.09,1.19-.5-.33-12.32-8.15-22.78-28.34-15.02-29-20.21-69.09-15.42-119.14,2.97-31.01,6.93-57.21,22.15-84.47Z"/>
  <path class="cls-1" d="m805.65,135.1c-24.76-1.27-49.9-2.29-75.38-3.04-7.2,24.34-12.12,49.7-14.61,75.68-11.89,124.37,18.48,204.91,46.05,250.58.41.67.82,1.32,1.23,1.99l98.77.1,1.52-4.4c-9.51-5.76-94.69-62.48-77.95-237.53,3.09-32.27,10.78-60.01,20.38-83.38Z"/>
  <path class="cls-4" d="m1432.81,262.36c-429.98-6.87-546.93,111.18-1000,115-236,1.99-476.25-50.4-495.28-54.88-.47-.11-.72-.17-.72-.17,0,137.09,32-6.42,32,130.67l1991,.66c-14.33-120.87-9.67,13-24-107.86-204.77-64.67-377.22-81.41-503-83.42Z"/>
</svg>