<?xml version="1.0" encoding="UTF-8"?>
<svg xmlns="http://www.w3.org/2000/svg" viewBox="0 0 1920 496">
  <defs>
    <style>
      .cls-1 {
        fill: #3a3a3a;
      }

      .cls-1, .cls-2, .cls-3, .cls-4, .cls-5, .cls-6 {
        stroke-width: 0px;
      }

      .cls-2 {
        fill: #3bb241;
      }

      .cls-3 {
        fill: #0aa549;
      }

      .cls-4 {
        fill: #0a9e46;
      }

      .cls-5 {
        fill: #444;
      }

      .cls-6 {
        fill: #20ab45;
      }
    </style>
  </defs>
  <g id="hero_text_stuff" data-name="hero text stuff">
    <path class="cls-2" d="m-10.19,462.38L-1.19,98.83C89.74,65.13,276.29,6.87,525.81,5.04c281.92-2.07,546.68,78.69,637,114.48l-29,353.1L-10.19,462.38Z"/>
    <path class="cls-1" d="m556.6,5.14c-7.99-.11-16-.16-24.03-.14-10.71,20.9-19.98,47.04-21.73,76.76-6.97,118.52,49.75,166.37,52.16,168.34l13.25-16.19c-7.31-6.76-50.33-50.96-44.45-150.92,1.81-30.77,13.04-57.65,24.79-77.86Z"/>
    <path class="cls-5" d="m580.87,5.66c-8.07-.24-16.16-.41-24.27-.52-11.75,20.21-22.98,47.09-24.79,77.86-5.88,99.96,37.14,144.17,44.45,150.92l13.35-16.31.2.17c-.11-.09-10.72-9.4-20.52-30.16-16.61-35.19-18.15-75.65-16.52-103.38,1.91-32.49,15.91-60.21,28.1-78.57Z"/>
  </g>
  <g id="about">
    <path class="cls-6" d="m1959.81,195.36c0-.19-172-113.78-435-123.09-316.79-11.21-555.29,107.11-614,138.26l21.22,300h1027.78V195.36Z"/>
  </g>
  <g id="Layer_7" data-name="Layer 7">
    <path class="cls-3" d="m10.81,587.14L-10.29,287.97c110.1-52.12,338.75-117.75,643.4-117.51,409.7.32,744.7,94.36,891.7,172.98l-91,245.56-1423-1.86Z"/>
    <path class="cls-1" d="m1524.55,72.27c8,26.69,14.81,57.19,18.25,90.73,11.26,109.76-4.74,199.5-36.16,245.78l39.62,27.56c40.34-58,56.48-159.41,44.29-278.24-2.87-27.94-7.86-55.56-14.92-82.68-16.53-1.46-33.48-2.53-50.83-3.15-.08,0-.17,0-.25,0Z"/>
    <path class="cls-5" d="m1524.55,72.27c-16.93-.6-33.63-.82-50.1-.71,10.32,31.31,17.24,63.56,20.6,96.34,5.05,49.23,4.56,95.94-1.43,135.08-5.18,33.83-14.47,61.72-26.17,78.54l39.19,27.26c31.43-46.27,47.43-136.02,36.16-245.78-3.44-33.54-10.25-64.05-18.25-90.73Z"/>
    <path class="cls-5" d="m879.02,186.75c.9-1.62,1.92-3.11,2.96-4.53-24.89-2.34-50.22-4.36-75.95-6.04-9.79,23.56-17.63,51.62-20.76,84.31-16.74,175.05,68.44,231.77,77.95,237.53l27.76-80.5c1.42.76,2.07,1.18,2.09,1.19-.5-.33-12.32-8.15-22.78-28.34-15.02-29-20.21-69.09-15.42-119.14,2.97-31.01,8.93-57.21,24.15-84.47Z"/>
    <path class="cls-1" d="m806.02,176.17c-24.72-1.61-49.81-2.91-75.25-3.85-7.48,24.87-12.58,50.82-15.12,77.42-11.89,124.37,18.48,204.91,46.05,250.58,31.43,52.06,67.34,73.12,74.22,76.81l27.29-79.13c-9.51-5.76-94.69-62.48-77.95-237.53,3.13-32.69,10.97-60.75,20.76-84.31Z"/>
    <path class="cls-4" d="m1432.81,311.22c-429.98-9.65-546.93,156.03-1000,161.4-236,2.79-476.25-70.73-495.28-77.02-.47-.16-.72-.24-.72-.24,0,192.41,32-9.01,32,183.4l1991,.93c-14.33-169.63-9.67,18.25-24-151.38-204.77-90.76-377.22-114.26-503-117.08Z"/>
  </g>
</svg>