<?xml version="1.0" encoding="UTF-8"?>
<svg id="about" xmlns="http://www.w3.org/2000/svg" viewBox="0 0 1920 1080">
  <defs>
    <style>
      .cls-1 {
        fill: #39b541;
      }

      .cls-1, .cls-2, .cls-3 {
        stroke-width: 0px;
      }

      .cls-2 {
        fill: #0a9e46;
      }

      .cls-3 {
        fill: #0ca84b;
      }
    </style>
  </defs>
  <path class="cls-1" d="m-34.51,250.42c26-47.68,345.02-125.02,529.32-120.92,248,5.53,415.08,46.72,658,53.2,233,6.22,431-36.62,621-13.13,149.83,18.53,229.86,63.8,305.68,97.42l-27-212.12L-122.51,62.43-34.51,250.42Z"/>
  <path class="cls-3" d="m-34.19,192.38c26-47.68,306-113.32,490-121.61,130.11-5.86,372,35.24,493,40.08,266.65,10.66,631.34-30.47,843,0,149.01,21.45,212.18,64.49,288,98.11l-27-212.12L-122.19,4.39-34.19,192.38Z"/>
  <path class="cls-2" d="m-150.19,77.68C13.59,42.3,258.43,3.81,557.81,8.58c273.29,4.36,304.71,24.37,592,42.84,269.23,17.31,378.61-22.76,570-5.53,150.94,13.59,251.18,44.45,327,78.08l-22-169.97L-150.19-38.45v116.13Z"/>
</svg>