<?xml version="1.0" encoding="utf-8"?>
<!-- Generator: Adobe Illustrator 27.9.4, SVG Export Plug-In . SVG Version: 9.03 Build 54784)  -->
<svg version="1.1" id="Layer_1" xmlns="http://www.w3.org/2000/svg" xmlns:xlink="http://www.w3.org/1999/xlink" x="0px" y="0px"
	 viewBox="0 0 94 79" style="enable-background:new 0 0 94 79;" xml:space="preserve">
<style type="text/css">
	.st0{fill:#323232;}
	.st1{fill:#FFFFFF;}
</style>
<path class="st0" d="M93.41,26.61L82.87,15.4L93.41,4.19c0.39-0.75,0.39-1.74,0-2.49c-0.78-0.75-1.95-1.25-3.51-1.25H19.62
	c-1.17,0-2.34,0.25-3.12,1L0.88,13.91c-1.17,1-1.17,2.24,0,2.99L16.5,29.35c0.78,0.75,1.95,1,3.12,1H89.9c1.56,0,2.73-0.5,3.51-1.25
	C94.19,28.35,94.19,27.36,93.41,26.61z"/>
<path class="st0" d="M48.35,27.32h-7.02c-1.4,0-2.34,1.46-2.34,3.66v43.97h11.7V30.98C50.69,28.79,49.75,27.32,48.35,27.32z"/>
<path class="st1" d="M29.2,20.19v-9.8h3.18c1.15,0,2.09,0.2,2.83,0.6c0.75,0.4,1.3,0.97,1.65,1.71c0.36,0.73,0.55,1.6,0.55,2.6
	s-0.18,1.87-0.55,2.6c-0.35,0.73-0.91,1.29-1.65,1.69c-0.74,0.39-1.68,0.59-2.83,0.59L29.2,20.19L29.2,20.19z M30.68,18.93h1.64
	c0.89,0,1.59-0.14,2.1-0.43c0.52-0.29,0.9-0.7,1.12-1.25c0.23-0.54,0.35-1.19,0.35-1.95c0-0.76-0.12-1.41-0.35-1.96
	c-0.22-0.55-0.6-0.97-1.12-1.26c-0.51-0.3-1.21-0.45-2.1-0.45h-1.64V18.93z M41.34,20.36c-0.59,0-1.07-0.1-1.46-0.29
	c-0.38-0.2-0.67-0.45-0.85-0.77c-0.19-0.33-0.28-0.68-0.28-1.06c0-0.67,0.26-1.2,0.78-1.6c0.52-0.39,1.27-0.59,2.24-0.59h1.82v-0.13
	c0-0.54-0.15-0.95-0.45-1.22c-0.29-0.27-0.67-0.41-1.13-0.41c-0.41,0-0.77,0.1-1.08,0.31c-0.3,0.2-0.48,0.49-0.55,0.88H38.9
	c0.05-0.5,0.21-0.93,0.5-1.29c0.3-0.36,0.67-0.64,1.12-0.83c0.46-0.2,0.96-0.29,1.5-0.29c0.97,0,1.72,0.26,2.25,0.77
	c0.53,0.5,0.8,1.19,0.8,2.07v4.27h-1.29L43.66,19c-0.2,0.38-0.48,0.7-0.85,0.97C42.43,20.23,41.94,20.36,41.34,20.36z M41.63,19.16
	c0.4,0,0.74-0.09,1.01-0.28c0.28-0.2,0.49-0.45,0.64-0.77c0.16-0.32,0.26-0.67,0.29-1.05h-1.65c-0.59,0-1.01,0.1-1.26,0.31
	c-0.24,0.21-0.36,0.46-0.36,0.77c0,0.32,0.12,0.57,0.35,0.76C40.89,19.07,41.22,19.16,41.63,19.16z M47.4,23.27l1.67-3.65h-0.41
	l-2.74-6.37h1.61l2.13,5.14l2.23-5.14h1.57l-4.48,10.02C48.98,23.27,47.4,23.27,47.4,23.27z M59.26,20.19v-8.12l-1.58,0.36v-1.09
	l2.17-0.95h0.95v9.8H59.26z"/>
</svg>
