<?xml version="1.0" encoding="utf-8"?>
<!-- Generator: Adobe Illustrator 27.9.4, SVG Export Plug-In . SVG Version: 9.03 Build 54784)  -->
<svg version="1.1" id="Layer_1" xmlns="http://www.w3.org/2000/svg" xmlns:xlink="http://www.w3.org/1999/xlink" x="0px" y="0px"
	 viewBox="0 0 94 79" style="enable-background:new 0 0 94 79;" xml:space="preserve">
<style type="text/css">
	.st0{fill:#FFFFFF;}
</style>
<path class="st0" d="M19.62,30.04H89.9c1.56,0,2.73-0.5,3.51-1.25c0.78-0.75,0.78-1.74,0-2.49L82.87,15.1L93.41,3.89
	c0.39-0.75,0.39-1.74,0-2.49c-0.78-0.75-1.95-1.25-3.51-1.25H19.62c-1.17,0-2.34,0.25-3.12,1L0.88,13.6c-1.17,1-1.17,2.24,0,2.99
	L16.5,29.05C17.28,29.79,18.45,30.04,19.62,30.04z M82.87,25.06H21.18L8.69,15.1l12.49-9.96h61.69l-8.2,8.72
	c-0.78,0.75-0.78,1.74,0,2.49L82.87,25.06z"/>
<path class="st0" d="M82.87,25.06H21.18L8.69,15.1l12.49-9.96h61.69l-8.2,8.72c-0.78,0.75-0.78,1.74,0,2.49L82.87,25.06z"/>
<path class="st0" d="M38.99,74.64V30.67c0-2.2,0.94-3.66,2.34-3.66h7.02c1.4,0,2.34,1.47,2.34,3.66v43.97H38.99z M43.66,70.98H46
	V34.34h-2.34V70.98z"/>
<path class="st0" d="M43.66,70.98H46V34.34h-2.34V70.98z"/>
<path d="M29.2,19.89v-9.8h3.18c1.15,0,2.09,0.2,2.83,0.6c0.75,0.4,1.3,0.97,1.65,1.71c0.36,0.73,0.55,1.6,0.55,2.6
	c0,1-0.18,1.87-0.55,2.6c-0.35,0.73-0.91,1.29-1.65,1.69c-0.74,0.39-1.68,0.59-2.83,0.59H29.2z M30.68,18.63h1.64
	c0.89,0,1.59-0.14,2.1-0.43c0.52-0.29,0.9-0.7,1.12-1.25c0.23-0.54,0.35-1.19,0.35-1.95c0-0.76-0.12-1.41-0.35-1.96
	c-0.22-0.55-0.6-0.97-1.12-1.26c-0.51-0.3-1.21-0.45-2.1-0.45h-1.64V18.63z M41.34,20.06c-0.59,0-1.07-0.1-1.46-0.29
	c-0.38-0.2-0.67-0.45-0.85-0.77c-0.19-0.33-0.28-0.68-0.28-1.06c0-0.67,0.26-1.2,0.78-1.6c0.52-0.39,1.27-0.59,2.24-0.59h1.82v-0.13
	c0-0.54-0.15-0.95-0.45-1.22c-0.29-0.27-0.67-0.41-1.13-0.41c-0.41,0-0.77,0.1-1.08,0.31c-0.3,0.2-0.48,0.49-0.55,0.88H38.9
	c0.05-0.5,0.21-0.93,0.5-1.29c0.3-0.36,0.67-0.64,1.12-0.83c0.46-0.2,0.96-0.29,1.5-0.29c0.97,0,1.72,0.26,2.25,0.77
	c0.53,0.5,0.8,1.19,0.8,2.07v4.27h-1.29l-0.13-1.19c-0.2,0.38-0.48,0.7-0.85,0.97C42.43,19.93,41.94,20.06,41.34,20.06z
	 M41.63,18.85c0.4,0,0.74-0.09,1.01-0.28c0.28-0.2,0.49-0.45,0.64-0.77c0.16-0.32,0.26-0.67,0.29-1.05h-1.65
	c-0.59,0-1.01,0.1-1.26,0.31c-0.24,0.21-0.36,0.46-0.36,0.77c0,0.32,0.12,0.57,0.35,0.76C40.89,18.76,41.22,18.85,41.63,18.85z
	 M47.4,22.97l1.67-3.65h-0.41l-2.74-6.37h1.61l2.13,5.14l2.23-5.14h1.57l-4.48,10.02H47.4z M59.26,19.89v-8.12l-1.58,0.36v-1.09
	l2.17-0.95h0.95v9.8H59.26z"/>
</svg>
