<?xml version="1.0" encoding="utf-8"?>
<!-- Generator: Adobe Illustrator 27.9.4, SVG Export Plug-In . SVG Version: 9.03 Build 54784)  -->
<svg version="1.1" id="Layer_1" xmlns="http://www.w3.org/2000/svg" xmlns:xlink="http://www.w3.org/1999/xlink" x="0px" y="0px"
	 viewBox="0 0 94 79" style="enable-background:new 0 0 94 79;" xml:space="preserve">
<style type="text/css">
	.st0{fill:#FFFFFF;}
</style>
<path class="st0" d="M74.38,29.89H4.1c-1.56,0-2.73-0.5-3.51-1.25c-0.78-0.75-0.78-1.74,0-2.49l10.54-11.21L0.59,3.74
	c-0.39-0.75-0.39-1.74,0-2.49C1.37,0.5,2.54,0,4.1,0h70.28c1.17,0,2.34,0.25,3.12,1l15.62,12.45c1.17,1,1.17,2.24,0,2.99L77.5,28.89
	C76.72,29.64,75.55,29.89,74.38,29.89z M11.13,24.91h61.69l12.49-9.96L72.82,4.98H11.13l8.2,8.72c0.78,0.75,0.78,1.74,0,2.49
	L11.13,24.91z"/>
<path class="st0" d="M11.13,24.91h61.69l12.49-9.96L72.82,4.98H11.13l8.2,8.72c0.78,0.75,0.78,1.74,0,2.49L11.13,24.91z"/>
<path class="st0" d="M38.99,74.49V30.52c0-2.2,0.94-3.66,2.34-3.66h7.02c1.4,0,2.34,1.47,2.34,3.66v43.97H38.99z M43.66,70.82H46
	V34.19h-2.34V70.82z"/>
<path class="st0" d="M43.66,70.82H46V34.19h-2.34V70.82z"/>
<path d="M27.46,19.74v-9.8h3.18c1.15,0,2.09,0.2,2.83,0.6c0.75,0.4,1.3,0.97,1.65,1.71c0.36,0.73,0.55,1.6,0.55,2.6
	c0,1-0.18,1.87-0.55,2.6c-0.35,0.73-0.91,1.29-1.65,1.69c-0.74,0.39-1.68,0.59-2.83,0.59H27.46z M28.95,18.48h1.64
	c0.89,0,1.59-0.14,2.1-0.43c0.52-0.29,0.9-0.7,1.12-1.25c0.23-0.54,0.35-1.19,0.35-1.95c0-0.76-0.12-1.41-0.35-1.96
	c-0.22-0.55-0.6-0.97-1.12-1.26c-0.51-0.3-1.21-0.45-2.1-0.45h-1.64V18.48z M39.6,19.9c-0.59,0-1.07-0.1-1.46-0.29
	c-0.38-0.2-0.67-0.45-0.85-0.77c-0.19-0.33-0.28-0.68-0.28-1.06c0-0.67,0.26-1.2,0.78-1.6c0.52-0.39,1.27-0.59,2.24-0.59h1.82v-0.13
	c0-0.54-0.15-0.95-0.45-1.22c-0.29-0.27-0.67-0.41-1.13-0.41c-0.41,0-0.77,0.1-1.08,0.31c-0.3,0.2-0.48,0.49-0.55,0.88h-1.48
	c0.05-0.5,0.21-0.93,0.5-1.29c0.3-0.36,0.67-0.64,1.12-0.83c0.46-0.2,0.96-0.29,1.5-0.29c0.97,0,1.72,0.26,2.25,0.77
	c0.53,0.5,0.8,1.19,0.8,2.07v4.27h-1.29l-0.13-1.19c-0.2,0.38-0.48,0.7-0.85,0.97C40.7,19.77,40.21,19.9,39.6,19.9z M39.9,18.7
	c0.4,0,0.74-0.09,1.01-0.28c0.28-0.2,0.49-0.45,0.64-0.77c0.16-0.32,0.26-0.67,0.29-1.05h-1.65c-0.59,0-1.01,0.1-1.26,0.31
	c-0.24,0.21-0.36,0.46-0.36,0.77c0,0.32,0.12,0.57,0.35,0.76C39.16,18.61,39.48,18.7,39.9,18.7z M45.66,22.82l1.67-3.65h-0.41
	l-2.74-6.37h1.61l2.13,5.14l2.23-5.14h1.57l-4.48,10.02H45.66z M56.32,19.74v-1.06c0.63-0.5,1.24-1.01,1.82-1.53
	c0.58-0.51,1.09-1.02,1.54-1.51c0.46-0.5,0.82-0.99,1.08-1.47c0.26-0.49,0.39-0.95,0.39-1.4c0-0.3-0.05-0.58-0.15-0.84
	c-0.1-0.27-0.27-0.49-0.5-0.64c-0.23-0.17-0.55-0.25-0.94-0.25c-0.59,0-1.03,0.19-1.33,0.56c-0.29,0.37-0.43,0.82-0.42,1.34h-1.44
	c0.01-0.69,0.15-1.27,0.43-1.74c0.29-0.47,0.67-0.82,1.15-1.06c0.49-0.24,1.03-0.36,1.64-0.36c0.92,0,1.66,0.26,2.21,0.78
	c0.56,0.51,0.84,1.23,0.84,2.16c0,0.55-0.14,1.1-0.41,1.64c-0.26,0.54-0.61,1.06-1.04,1.57c-0.42,0.49-0.87,0.96-1.36,1.4
	c-0.49,0.44-0.95,0.84-1.39,1.19h4.48v1.23H56.32z"/>
</svg>
