<?xml version="1.0" encoding="utf-8"?>
<!-- Generator: Adobe Illustrator 27.9.4, SVG Export Plug-In . SVG Version: 9.03 Build 54784)  -->
<svg version="1.1" id="Layer_1" xmlns="http://www.w3.org/2000/svg" xmlns:xlink="http://www.w3.org/1999/xlink" x="0px" y="0px"
	 viewBox="0 0 94 79" style="enable-background:new 0 0 94 79;" xml:space="preserve">
<style type="text/css">
	.st0{fill:#323232;}
	.st1{fill:#FFFFFF;}
</style>
<path class="st0" d="M93.12,13.76L77.5,1.31c-0.78-0.75-1.95-1-3.12-1H4.1c-1.56,0-2.73,0.49-3.51,1.24C0.2,2.3,0.2,3.29,0.59,4.04
	l10.54,11.21L0.59,26.46c-0.78,0.75-0.78,1.74,0,2.49C1.37,29.7,2.54,30.2,4.1,30.2h34.92c-0.02,0.2-0.03,0.41-0.03,0.63v43.96v0.01
	h11.7V30.83c0-0.22-0.02-0.43-0.03-0.63h23.72c1.17,0,2.34-0.25,3.12-1l15.62-12.45C94.29,16,94.29,14.76,93.12,13.76z"/>
<path class="st1" d="M27.46,20.04v-9.8h3.18c1.15,0,2.09,0.2,2.83,0.6c0.75,0.4,1.3,0.97,1.65,1.71c0.36,0.73,0.55,1.6,0.55,2.6
	s-0.18,1.87-0.55,2.6c-0.35,0.73-0.91,1.29-1.65,1.69c-0.74,0.39-1.68,0.59-2.83,0.59L27.46,20.04L27.46,20.04z M28.95,18.78h1.64
	c0.89,0,1.59-0.14,2.1-0.43c0.52-0.29,0.9-0.7,1.12-1.25c0.23-0.54,0.35-1.19,0.35-1.95c0-0.76-0.12-1.41-0.35-1.96
	c-0.22-0.55-0.6-0.97-1.12-1.26c-0.51-0.3-1.21-0.45-2.1-0.45h-1.64C28.95,11.48,28.95,18.78,28.95,18.78z M39.6,20.21
	c-0.59,0-1.07-0.1-1.46-0.29c-0.38-0.2-0.67-0.45-0.85-0.77c-0.19-0.33-0.28-0.68-0.28-1.06c0-0.67,0.26-1.2,0.78-1.6
	c0.52-0.39,1.27-0.59,2.24-0.59h1.82v-0.13c0-0.54-0.15-0.95-0.45-1.22c-0.29-0.27-0.67-0.41-1.13-0.41c-0.41,0-0.77,0.1-1.08,0.31
	c-0.3,0.2-0.48,0.49-0.55,0.88h-1.48c0.05-0.5,0.21-0.93,0.5-1.29c0.3-0.36,0.67-0.64,1.12-0.83c0.46-0.2,0.96-0.29,1.5-0.29
	c0.97,0,1.72,0.26,2.25,0.77c0.53,0.5,0.8,1.19,0.8,2.07v4.27h-1.29l-0.13-1.19c-0.2,0.38-0.48,0.7-0.85,0.97
	C40.7,20.08,40.21,20.21,39.6,20.21z M39.9,19.01c0.4,0,0.74-0.09,1.01-0.28c0.28-0.2,0.49-0.45,0.64-0.77
	c0.16-0.32,0.26-0.67,0.29-1.05h-1.65c-0.59,0-1.01,0.1-1.26,0.31c-0.24,0.21-0.36,0.46-0.36,0.77c0,0.32,0.12,0.57,0.35,0.76
	C39.16,18.92,39.48,19.01,39.9,19.01z M45.66,23.12l1.67-3.65h-0.41l-2.74-6.37h1.61l2.13,5.14l2.23-5.14h1.57l-4.48,10.02
	C47.24,23.12,45.66,23.12,45.66,23.12z M56.32,20.04v-1.06c0.63-0.5,1.24-1.01,1.82-1.53c0.58-0.51,1.09-1.02,1.54-1.51
	c0.46-0.5,0.82-0.99,1.08-1.47c0.26-0.49,0.39-0.95,0.39-1.4c0-0.3-0.05-0.58-0.15-0.84c-0.1-0.27-0.27-0.49-0.5-0.64
	c-0.23-0.17-0.55-0.25-0.94-0.25c-0.59,0-1.03,0.19-1.33,0.56c-0.29,0.37-0.43,0.82-0.42,1.34h-1.44c0.01-0.69,0.15-1.27,0.43-1.74
	c0.29-0.47,0.67-0.82,1.15-1.06c0.49-0.24,1.03-0.36,1.64-0.36c0.92,0,1.66,0.26,2.21,0.78c0.56,0.51,0.84,1.23,0.84,2.16
	c0,0.55-0.14,1.1-0.41,1.64c-0.26,0.54-0.61,1.06-1.04,1.57c-0.42,0.49-0.87,0.96-1.36,1.4s-0.95,0.84-1.39,1.19h4.48v1.23h-6.6
	V20.04z"/>
</svg>
