<?xml version="1.0" encoding="UTF-8"?>
<svg id="Layer_3" data-name="Layer 3" xmlns="http://www.w3.org/2000/svg" viewBox="0 0 979 755">
  <defs>
    <style>
      .cls-1 {
        fill: #333;
        opacity: .4;
      }

      .cls-1, .cls-2, .cls-3, .cls-4, .cls-5, .cls-6, .cls-7, .cls-8, .cls-9, .cls-10, .cls-11, .cls-12 {
        stroke-width: 0px;
      }

      .cls-2 {
        fill: #f9da0e;
      }

      .cls-3 {
        fill: #f8ad1c;
      }

      .cls-4 {
        fill: #f8bc17;
      }

      .cls-5 {
        fill: #4d4c4d;
      }

      .cls-6 {
        fill: #6ebdf4;
      }

      .cls-7 {
        fill: #6fce51;
      }

      .cls-8 {
        fill: #3aa0d8;
      }

      .cls-9 {
        fill: #211e1f;
      }

      .cls-10 {
        fill: #e42b25;
      }

      .cls-11 {
        fill: #30302f;
      }

      .cls-12 {
        fill: #fff;
      }
    </style>
  </defs>
  <g>
    <path class="cls-2" d="m301.13,274.13c44.17-24.29,69.34-47.8,124.17-52.53-12.87-15.31-21.8-34.25-24.9-55.49-9.06-61.92,34.69-119.39,97.26-126.77,57-6.72,110.64,32,122.1,88.24,6.79,33.32-1.95,65.78-20.92,90.4,42.31,19.35,71.67,55.85,75.78,102.01,6.44,72.46-38.81,129.67-150.34,143.08-111.52,13.41-165.62-9.78-208.24-45.43-40.76-34.09-71.22-103.64-71.74-139.19,1.08-4.06,4.44-4.55,4.44-4.55,0,0,28.71,13.25,52.4.23Z"/>
    <circle class="cls-9" cx="482.34" cy="124.87" r="20.65"/>
    <circle class="cls-12" cx="488.88" cy="118.11" r="5.75"/>
    <path class="cls-4" d="m454.24,265.54c53.43-2.26,100.98,25.67,90.93,70.76-9.03,40.52-48.82,64.84-107.03,51.74-82.88-18.65-115.88-63.13-114.4-122.64.77-31.02,26.04-18.02,43.61-13.54,15.04,3.83,57.06,14.94,86.89,13.68Z"/>
    <path class="cls-3" d="m566.17,89.33c-15.32,9.58-8.91,26.23-16.64,34.28-7.73,8.05-23.38,13.46-17.28,21.99,6.11,8.54,44.48,11.16,62.51,3.85,18.03-7.3,71.9-57.88,47.94-72.57-12.85-7.88-33.16,9.15-45.5,10.14s-18.69-5.41-31.04,2.31Z"/>
  </g>
  <path class="cls-1" d="m614.73,26.79c-6.56-4.48-15.13-4.7-21.96-.64-32.7,19.42-132.65,81.07-133.75,88.2-1.31,8.45,27.42,64.05,64.61,66.5,37.19,2.45,109.78-23.76,150.7-48.01,34.58-20.5-29.4-85.44-59.59-106.05Z"/>
  <path class="cls-7" d="m523.63,180.85c-21.45-1.41-41.36-23.35-54.37-41.66-9.24-13.01-5.97-31.03,7.44-39.68,31.42-20.28,86.98-55.96,112.11-71-38.3-30.62-132-23.15-175.19,13.71-49.67,42.39-46.67,102.7-25.13,148.88,15.63,33.51,45.71,49.07,106.13,46.43,118.52-5.19,151.85-45.67,163.77-60.12,4.17-5.05,13.65-21.75,6.67-39.36-41.88,22.64-106.91,45.08-141.45,42.8Z"/>
  <path class="cls-6" d="m166.12,281.78c10.83-7.46,25.16-7.42,35.92.13,65.6,46.04,164.74,109.18,226.65,116.34,85.16,9.84,196.67-53.31,223.71-73.15,3.68-2.7,14.49-17.18,29.51-13.07,21.61,5.92,43.38,13.09,64,21.79,97.68,41.18,193.3,110.16,220.58,164.24,23.42,46.42,13.48,118.69-22.83,129.45-28.13,8.33-484.29-.1-484.29-.1,0,0-421.85,2.58-445.73-18.03-23.88-20.6-24.46-129.37,53.73-236.93,28.53-39.25,73.59-73.33,98.76-90.67Z"/>
  <g>
    <path class="cls-8" d="m504.82,413.83l-11.38,1.03c-1.72.23-3.07,1.27-3.46,2.68l-26.72,122.2-71.9-113.19c-.94-1.32-2.69-2.1-4.51-2.01l-11.96,1.09c-1.11,0-2,.73-1.99,1.65,0,.33.12.65.35.92l84.06,134.11c.22.33.49.64.81.9l-3.75,17.13-93.52-151c-.92-1.33-2.68-2.12-4.53-2.02l-12.11,1.1c-1.13,0-2.04.75-2.04,1.68,0,.32.12.64.33.91l105.36,172.41c.4.61.96,1.13,1.62,1.5.46.84,1.5,1.28,2.48,1.06l12.75-1.66c.5-.07.97-.22,1.41-.45.41-.13.77-.37,1.03-.68.72-.59,1.23-1.38,1.44-2.25l38.65-184.97c.3-.83-.29-1.76-1.31-2.08-.36-.11-.74-.13-1.1-.07Z"/>
    <path class="cls-8" d="m562.67,408.58l-11.1,1.01c-1.68.22-2.96,1.25-3.3,2.64l-33.92,182.85c-.32,1.02.33,2.12,1.46,2.46.39.12.81.13,1.2.04l12.41-1.61c1.86-.33,3.29-1.62,3.68-3.31l31.99-181.95c.26-.82-.34-1.74-1.35-2.05-.35-.11-.72-.13-1.07-.07Z"/>
    <path class="cls-8" d="m514.02,512.62l-11.96,1.34c-1.81.28-3.22,1.46-3.62,3.03l-16.63,82.3c-.34,1.02.29,2.13,1.42,2.48.39.12.81.14,1.21.05l12.63-1.64c1.85-.33,3.3-1.6,3.74-3.27l15.77-81.97c.29-.93-.34-1.94-1.42-2.26-.37-.11-.77-.13-1.14-.04Z"/>
    <path class="cls-8" d="m504.35,502.11l11.87-1.3c1.78-.27,3.16-1.42,3.55-2.96l16.28-84.56c.22-1.11-.53-1.96-1.74-2.11-.09,0-.17.01-.26.02l-11.94,1.08c-.31.03-.61.1-.89.21-.73.31-1.33.78-1.75,1.37-.15.23-.26.49-.32.75l-17.35,85.81c.07,1.1,1.09,1.84,2.54,1.69Z"/>
  </g>
  <path class="cls-10" d="m96.29,385.82c28.53-39.25,73.59-73.33,98.76-90.67,5.43-3.74,11.73-5.59,18.02-5.56-3.76-2.6-7.44-5.16-11.02-7.67-10.77-7.56-25.09-7.6-35.92-.13-25.17,17.34-70.22,51.42-98.76,90.67C-10.83,480.01-10.24,588.78,13.64,609.38c2.7,2.33,10.51,4.36,22.2,6.14-.03-.77-.04-1.53-.06-2.29-16.31-34.32-9.32-131.34,60.51-227.4Z"/>
  <g>
    <circle class="cls-11" cx="741.22" cy="601.35" r="146.24"/>
    <circle class="cls-5" cx="741.22" cy="601.35" r="106.74"/>
    <circle class="cls-11" cx="741.22" cy="601.35" r="31.21"/>
  </g>
  <path class="cls-8" d="m136.29,398.82c28.53-39.25,73.59-73.33,98.76-90.67.93-.64,1.89-1.2,2.86-1.73-12.69-8.42-24.76-16.71-35.87-24.51-10.77-7.56-25.09-7.6-35.92-.13-25.17,17.34-70.22,51.42-98.76,90.67C-10.83,480.01-10.24,588.78,13.64,609.38c4.98,4.3,27.3,7.59,59.49,10.1-12.62-39.06-2.54-130.28,63.16-220.66Z"/>
  <g>
    <circle class="cls-11" cx="204.08" cy="601.35" r="146.24"/>
    <circle class="cls-5" cx="204.08" cy="601.35" r="106.74"/>
    <circle class="cls-11" cx="204.08" cy="601.35" r="31.21"/>
  </g>
</svg>