<svg xmlns="http://www.w3.org/2000/svg" xmlns:xlink="http://www.w3.org/1999/xlink" id="Layer_3" data-name="Layer 3" viewBox="0 0 1132.5 1060"><defs><style>.cls-1,.cls-2,.cls-3,.cls-4,.cls-5{stroke-width:0}.cls-1,.cls-6{fill:#ef3737}.cls-2{fill:#b25b47}.cls-7{clip-path:url(#clippath)}.cls-3{fill:#fff;opacity:.08}.cls-4{fill:#ce6857}.cls-5{fill:#995542}</style><clipPath id="clippath"><path d="M1132.45,740.38c-359.71-140.69-719.42,190.76-1079.12,50.08V25.02c359.71,174.07,719.42-124,1079.12,50.08v665.28Z" class="cls-1"/></clipPath></defs><g><path d="M1132.45,740.38c-359.71-140.69-719.42,190.76-1079.12,50.08V25.02c359.71,174.07,719.42-124,1079.12,50.08v665.28Z" class="cls-6"/><g class="cls-7"><path d="M1177.38-12.97c-142.09,92.3-381.11,313.8-561.4,414.85C357.92,546.53,199.43,602.32,6.23,636.97L-107.61,17.75l1217.19-207.56,67.8,176.84Z" class="cls-3"/></g></g><rect width="68.83" height="1053.46" x="-1.5" y="-.39" class="cls-5" rx="12.73" ry="12.73"/><path d="M50.3-.39H15.53C6.12-.39-1.5,3.88-1.5,9.14v782.76c23.11-7.4,46.69-17.27,68.83-30.44V9.14c0-5.26-7.62-9.52-17.03-9.52Z" class="cls-2"/><path d="M67.33,7.63c0-4.43-7.62-8.01-17.03-8.01H15.53C6.12-.39-1.5,3.2-1.5,7.63v494.8c14.68-5.62,29.1-12.25,42.78-20.06,9.87-5.64,18.5-11.41,26.05-17.2V7.63Z" class="cls-4"/></svg>