<?xml version="1.0" encoding="UTF-8"?>
<svg id="Layer_3" data-name="Layer 3" xmlns="http://www.w3.org/2000/svg" viewBox="0 0 1920 1080">
  <defs>
    <style>
      .cls-1 {
        fill: #191919;
      }

      .cls-1, .cls-2 {
        stroke-width: 0px;
      }

      .cls-3 {
        stroke: #999;
        stroke-width: 4px;
      }

      .cls-3, .cls-4 {
        fill: none;
        stroke-miterlimit: 10;
      }

      .cls-4 {
        stroke: #fff78d;
        stroke-dasharray: 0 0 45.12 60.15;
        stroke-width: 23px;
      }

      .cls-2 {
        fill: #212121;
      }
    </style>
  </defs>
  <g>
    <path class="cls-2" d="M1852.85,408.05c-23.68-52.58-57.55-99.78-100.68-140.3-43.13-40.52-93.38-72.34-149.36-94.58-58-23.04-119.55-34.73-182.96-34.73H498.79c-63.41,0-124.96,11.68-182.96,34.73-55.97,22.24-106.23,54.06-149.36,94.58-43.13,40.52-77.01,87.72-100.68,140.3-24.53,54.48-36.97,112.3-36.97,171.87s12.44,117.39,36.97,171.87c23.68,52.58,57.55,99.78,100.68,140.3,43.13,40.52,93.38,72.34,149.36,94.58,58,23.04,119.55,34.73,182.96,34.73h921.06c63.41,0,124.96-11.68,182.96-34.73,55.97-22.24,106.23-54.06,149.36-94.58,43.13-40.52,77.01-87.72,100.68-140.3,24.53-54.48,36.97-112.3,36.97-171.87s-12.44-117.38-36.97-171.87ZM1800.65,579.92c0,197.56-170.49,357.71-380.8,357.71H498.79c-210.31,0-380.8-160.15-380.8-357.71h0c0-197.56,170.49-357.71,380.8-357.71h921.06c210.31,0,380.8,160.15,380.8,357.71h0Z"/>
    <path class="cls-3" d="M1419.85,305.97H498.79c-77.9,0-151.13,28.5-206.22,80.24-55.08,51.74-85.42,120.54-85.42,193.71s30.34,141.97,85.42,193.71c55.08,51.74,128.32,80.24,206.22,80.24h921.06c77.9,0,151.13-28.5,206.22-80.24,55.08-51.74,85.42-120.54,85.42-193.71s-30.34-141.97-85.42-193.71c-55.08-51.74-128.32-80.24-206.22-80.24Z"/>
    <path class="cls-1" d="M1419.85,222.21H498.79c-210.31,0-380.8,160.15-380.8,357.71h0c0,197.56,170.49,357.71,380.8,357.71h921.06c210.31,0,380.8-160.15,380.8-357.71h0c0-197.56-170.49-357.71-380.8-357.71ZM1626.07,773.63c-55.08,51.74-128.32,80.24-206.22,80.24H498.79c-77.9,0-151.13-28.5-206.22-80.24-55.08-51.74-85.42-120.54-85.42-193.71s30.34-141.97,85.42-193.71c55.08-51.74,128.32-80.24,206.22-80.24h921.06c77.9,0,151.13,28.5,206.22,80.24,55.08,51.74,85.42,120.54,85.42,193.71s-30.34,141.97-85.42,193.71Z"/>
  </g>
  <rect class="cls-4" x="198.77" y="299.57" width="1522.16" height="560.71" rx="280.35" ry="280.35"/>
</svg>