<?xml version="1.0" encoding="UTF-8"?>
<svg xmlns="http://www.w3.org/2000/svg" xmlns:xlink="http://www.w3.org/1999/xlink" viewBox="0 0 1920 1080">
  <defs>
    <style>
      .cls-1 {
        clip-path: url(#clippath);
      }

      .cls-2, .cls-3 {
        fill: #37bf51;
      }

      .cls-4 {
        fill: #4c4c4c;
        font-family: Helvetica-Light, Helvetica;
        font-size: 56.33px;
        font-weight: 300;
      }

      .cls-5 {
        fill: #606060;
      }

      .cls-5, .cls-6, .cls-7, .cls-8, .cls-9, .cls-10, .cls-11, .cls-3, .cls-12, .cls-13, .cls-14, .cls-15, .cls-16, .cls-17 {
        stroke-width: 0px;
      }

      .cls-6 {
        fill: #74d161;
      }

      .cls-7 {
        fill: #62c959;
      }

      .cls-8 {
        fill: #29a35d;
      }

      .cls-9 {
        fill: #52ffc1;
      }

      .cls-10 {
        fill: #52c159;
      }

      .cls-11 {
        fill: #6f6f6f;
      }

      .cls-12 {
        fill: #37e2a9;
      }

      .cls-13 {
        fill: #31f4a9;
      }

      .cls-14 {
        fill: #37b771;
      }

      .cls-15 {
        fill: #3fb252;
      }

      .cls-16 {
        fill: #8cd86f;
      }

      .cls-17 {
        fill: #7ccc5a;
      }
    </style>
    <clipPath id="clippath">
      <path class="cls-3" d="m867.73,1080c-105.06,2.43-139.64-505-313.97-505-196.31.35-143.03,505-363.03,507l677-2Z"/>
    </clipPath>
  </defs>
  <g id="hero_text_stuff" data-name="hero text stuff">
    <text class="cls-4" transform="translate(1812 768.34)"><tspan x="0" y="0" xml:space="preserve">Seu ih ui  n  bu ivuiguigb</tspan></text>
  </g>
  <g id="about">
    <path class="cls-16" d="m10.79,696.44c0-102.8-25.04-623.44,96.44-622.77,131.81.73,115.63,456.24,117.37,622.77H10.79Z"/>
    <path class="cls-9" d="m130.73,601h-28c-7-78-7-157-1-236,3-28,5-56,5-84,1.9-52.29,2-103.68-3.16-155.88-.43-4.35,3-8.12,7.37-8.12h14c3.27,0,6.01,2.5,6.29,5.76,6.49,76.13,6.35,153.18.5,230.24-3,28-5,56-5,84-2,55-2,109,4,164h0Z"/>
    <path class="cls-14" d="m496.12,1089c138.69-27,132.61-261,304.82-261,142.78,0,164.78,216,276.78,254l-581.61,7Z"/>
    <path class="cls-10" d="m294.73,714c46.33-29.12,68.62-256.05,163-234,107,25,92.1,165.36,162,216l-325,18Z"/>
    <path class="cls-7" d="m496.22,1012c-69.36-351-58.77-691-206.2-726.23-162.64-38.87-146,338.62-218.15,352.13-62.08,11.63-79.53-32.27-79.37-85.74l.16,447.98,503.56,11.86Z"/>
    <path class="cls-6" d="m-196.27,1085C-91.29,990-99,384.51,40.67,423.22c132.35,36.69,25.03,536.78,254.24,656.78l-491.18,5Z"/>
    <path class="cls-10" d="m-1.72,1080c73.2-46,29.86-465,182.99-465s92.46,390,202.89,470l-385.88-5Z"/>
    <path class="cls-8" d="m1785.68,1093c0-102.8,40.73-895,149.1-896.7,108.37-1.7,42.89,742.18,44.7,908.7l-193.8-12Z"/>
    <path class="cls-14" d="m1670.73,1145.51c70.65-95,75.84-598,169.83-559.29,89.07,36.69,74.29,408.67,149.72,558.78l-319.54.51Z"/>
    <g>
      <path class="cls-2" d="m867.73,1080c-105.06,2.43-139.64-505-313.97-505-196.31.35-143.03,505-363.03,507l677-2Z"/>
      <g class="cls-1">
        <g>
          <path class="cls-11" d="m688.22,844.85c-83.57-7-127.86,32.29-218.45,22.86-72.27-7.52-127.59-41.22-161.88-67.12l-13.55,17.94c54.54,41.19,112.78,65.26,173.1,71.55,50.7,5.28,87.39-3.42,122.87-11.83,30.5-7.23,59.3-14.06,96.03-10.99,60.32,5.05,120.5,35.81,178.88,91.44l15.51-16.28c-78.3-74.61-145.87-93.66-192.51-97.57Z"/>
          <path class="cls-5" d="m690.09,822.44c-43.88-3.67-77.57,4.32-110.16,12.04-33.29,7.89-64.73,15.35-107.84,10.86-52.06-5.42-102.75-26.52-150.66-62.7l-13.55,17.94c34.29,25.9,89.62,59.6,161.88,67.12,90.59,9.43,134.87-29.86,218.45-22.86,46.65,3.91,114.22,22.96,192.51,97.57l15.51-16.28c-65.99-62.88-135.35-97.77-206.15-103.7Z"/>
        </g>
      </g>
    </g>
    <path class="cls-17" d="m130.99,119.98s-4.63-9.48-15.26-8.98-12.55,10.28-12.55,10.28l.42,4.22,27.77-1.14-.37-4.37Z"/>
    <path class="cls-13" d="m113.73,122c-3.68,0-7.22-.25-10.56-.72.41,3.96.79,7.92,1.14,11.87,3.59.55,7.43.85,11.42.85,5.86,0,11.38-.65,16.27-1.78-.32-4.08-.67-8.16-1.02-12.23-5.12,1.28-11,2.02-17.25,2.02Z"/>
    <g>
      <path class="cls-13" d="m671.11,1243.48c-43.3,3.22-91.41,6.8-134.7,10.02-40.37-87.5-47.15-178.67-25.06-271.97,12.03-33.38,19.25-66.41,16.85-98.72,4.66-61.02.7-120.35-28.56-178.75-2.44-4.87,13.74-10.44,34.78-12.01l67.35-5.01c15.74-1.17,29.12.74,30.74,4.4,37.77,85.53,43.68,174.5,22.14,265.51-12.03,33.38-19.25,66.41-16.85,98.72-4.9,64.18-.27,126.5,33.32,187.82h0Z"/>
      <path class="cls-15" d="m631.11,688.32s-33.71-20.75-84.84-16.37c-51.13,4.38-48.85,27.82-48.85,27.82l2.38,4.72,133.48-11.25-2.17-4.91Z"/>
      <path class="cls-12" d="m548.22,696.82c-17.68,1.31-34.76,2.29-50.86,2.94,2.29,4.43,4.47,8.85,6.5,13.29,17.32-.65,35.8-1.67,55.02-3.1,28.18-2.1,54.71-4.82,78.13-7.88-1.88-4.59-3.91-9.17-5.97-13.75-24.53,3.31-52.74,6.26-82.81,8.5Z"/>
    </g>
  </g>
</svg>