<svg width="40" height="341" viewBox="0 0 40 341" fill="none" xmlns="http://www.w3.org/2000/svg">
<rect width="20" height="20" transform="matrix(-1 0 0 -1 20 340.332)" fill="#1F1F1F"/>
<rect width="20" height="20" transform="matrix(-1 0 0 -1 20 320.332)" fill="#FCF8F5"/>
<rect width="20" height="20" transform="matrix(-1 0 0 -1 20 300.332)" fill="#1F1F1F"/>
<rect width="20" height="20" transform="matrix(-1 0 0 -1 20 280.332)" fill="#FCF8F5"/>
<rect width="20" height="20" transform="matrix(-1 0 0 -1 20 260.332)" fill="#1F1F1F"/>
<rect width="20" height="20" transform="matrix(-1 0 0 -1 20 240.332)" fill="#FCF8F5"/>
<rect width="20" height="20" transform="matrix(-1 0 0 -1 20 220.332)" fill="#1F1F1F"/>
<rect width="20" height="20" transform="matrix(-1 0 0 -1 20 200.332)" fill="#FCF8F5"/>
<rect width="20" height="20" transform="matrix(-1 0 0 -1 20 180.332)" fill="#1F1F1F"/>
<rect width="20" height="20" transform="matrix(-1 0 0 -1 20 160.332)" fill="#FCF8F5"/>
<rect width="20" height="20" transform="matrix(-1 0 0 -1 20 140.332)" fill="#1F1F1F"/>
<rect width="20" height="20" transform="matrix(-1 0 0 -1 20 120.332)" fill="#FCF8F5"/>
<rect width="20" height="20" transform="matrix(-1 0 0 -1 20 100.332)" fill="#1F1F1F"/>
<rect width="20" height="20" transform="matrix(-1 0 0 -1 20 80.332)" fill="#FCF8F5"/>
<rect width="20" height="20" transform="matrix(-1 0 0 -1 20 60.332)" fill="#1F1F1F"/>
<rect width="20" height="20" transform="matrix(-1 0 0 -1 20 40.332)" fill="#FCF8F5"/>
<rect width="20" height="20" transform="matrix(-1 0 0 -1 20 20.332)" fill="#1F1F1F"/>
<rect width="20" height="20" transform="matrix(-1 0 0 -1 40 320)" fill="#1F1F1F"/>
<rect width="20" height="20" transform="matrix(-1 0 0 -1 40 300)" fill="#FCF8F5"/>
<rect width="20" height="20" transform="matrix(-1 0 0 -1 40 280)" fill="#1F1F1F"/>
<rect width="20" height="20" transform="matrix(-1 0 0 -1 40 260)" fill="#FCF8F5"/>
<rect width="20" height="20" transform="matrix(-1 0 0 -1 40 240)" fill="#1F1F1F"/>
<rect width="20" height="20" transform="matrix(-1 0 0 -1 40 220)" fill="#FCF8F5"/>
<rect width="20" height="20" transform="matrix(-1 0 0 -1 40 200)" fill="#1F1F1F"/>
<rect width="20" height="20" transform="matrix(-1 0 0 -1 40 180)" fill="#FCF8F5"/>
<rect width="20" height="20" transform="matrix(-1 0 0 -1 40 160)" fill="#1F1F1F"/>
<rect width="20" height="20" transform="matrix(-1 0 0 -1 40 140)" fill="#FCF8F5"/>
<rect width="20" height="20" transform="matrix(-1 0 0 -1 40 120)" fill="#1F1F1F"/>
<rect width="20" height="20" transform="matrix(-1 0 0 -1 40 100)" fill="#FCF8F5"/>
<rect width="20" height="20" transform="matrix(-1 0 0 -1 40 80)" fill="#1F1F1F"/>
<rect width="20" height="20" transform="matrix(-1 0 0 -1 40 60)" fill="#FCF8F5"/>
<rect width="20" height="20" transform="matrix(-1 0 0 -1 40 40)" fill="#1F1F1F"/>
<rect width="20" height="20" transform="matrix(-1 0 0 -1 40 20)" fill="#FCF8F5"/>
<rect width="40" height="340" fill="black" fill-opacity="0.5"/>
<rect width="40" height="340" fill="black" fill-opacity="0.5"/>
</svg>
