<?xml version="1.0" encoding="UTF-8"?>
<svg id="Layer_3" data-name="Layer 3" xmlns="http://www.w3.org/2000/svg" viewBox="0 0 289.83 108">
  <defs>
    <style>
      .cls-1, .cls-2 {
        fill: #000;
      }

      .cls-1, .cls-3 {
        stroke: #000;
        stroke-miterlimit: 10;
      }

      .cls-2, .cls-4 {
        stroke-width: 0px;
      }

      .cls-4 {
        fill: #e4002b;
      }

      .cls-3 {
        fill: #bd3400;
      }
    </style>
  </defs>
  <rect class="cls-2" x="68.38" y="72.03" width="16.85" height="16.85"/>
  <path class="cls-3" d="M251.68,0c-12,0-15.35-.43-22.13,8.38-7.4,9.62-26.92,40.27-40.9,60.12-2.65,3.76-7.56,10.84-10.97,14.5-6.97,7.5-7.69,9.21-18,10-13,1-63,1-63,1l-9,14s60.5-.5,78-1c16.39-.47,28.09-20.51,34.81-29.5,14.27-19.09,32.66-50.5,39.16-59,3.27-4.28,8.03-5.5,13.03-5.5h30L289.68,0h-38Z"/>
  <path class="cls-4" d="M19.8,21.9s35.53-.4,55.12,0l16.91,50.02,32.14-50.51h20.16l-21.84,35h19.18l23.34-35.1,15.86.1-44.88,73.1h-18.26l17.55-27.1h-20.8l-27,40-25-73c-8.01-.28-36.97.1-36.97.1l-5.53-12.6Z"/>
  <polygon class="cls-1" points="179.62 21.4 197.94 21.4 229.92 98.5 210.92 98.5 179.62 21.4"/>
  <path class="cls-2" d="M251.83,0c-12,0-15.35-.43-22.13,8.38-7.4,9.62-26.92,40.27-40.9,60.12-2.65,3.76-7.56,10.84-10.97,14.5-6.97,7.5-7.69,9.21-18,10-13,1-63,1-63,1l-9,14s60.5-.5,78-1c16.39-.47,28.09-20.51,34.81-29.5,14.27-19.09,32.66-50.5,39.16-59,3.27-4.28,8.03-5.5,13.03-5.5h30L289.83,0h-38Z"/>
  <polygon class="cls-4" points="263.8 13.5 210.8 98.71 230.48 98.71 282.87 13.23 263.8 13.5"/>
  <rect class="cls-2" y="37.15" width="16.85" height="16.85"/>
  <rect class="cls-2" x="16.85" y="54" width="16.85" height="16.85"/>
  <rect class="cls-2" x="33.69" y="37.15" width="16.85" height="16.85"/>
  <rect class="cls-2" x="50.54" y="54" width="16.85" height="16.85"/>
  <rect class="cls-2" x="33.69" y="72.03" width="16.85" height="16.85"/>
  <rect class="cls-2" y="72.03" width="16.85" height="16.85"/>
</svg>