<?xml version="1.0" encoding="UTF-8"?>
<svg id="hero_text_stuff" data-name="hero text stuff" xmlns="http://www.w3.org/2000/svg" viewBox="0 0 1012 366">
  <defs>
    <style>
      .cls-1 {
        fill: none;
      }

      .cls-1, .cls-2, .cls-3 {
        stroke-width: 0px;
      }

      .cls-2 {
        fill: #fc3f3f;
      }

      .cls-3 {
        fill: #333232;
      }
    </style>
  </defs>
  <polygon class="cls-3" points="615.13 70.08 677.99 70.08 787.67 334.56 722.5 334.56 615.13 70.08"/>
  <polygon class="cls-2" points="79.56 70.08 266.55 70.08 324.02 240.7 430.32 70.08 498.31 70.08 421.82 189.08 490.76 189.08 567.26 70.08 631.07 70.08 472.43 321.18 407.91 321.18 465.26 231.58 396.32 231.58 311.73 365.41 224.06 116.36 96.56 116.36 79.56 70.08"/>
  <polygon class="cls-2" points="736.17 334.56 799.93 334.56 944.22 106.13 880.46 106.13 736.17 334.56"/>
  <polygon class="cls-2" points="919.38 43.58 983.76 43.16 954.78 88.48 891.14 88.28 919.38 43.58"/>
  <path class="cls-3" d="m1011.64-.34s-44.43.01-58.15.01h-78.89c-41.16,0-52.64-1.47-75.9,28.75-25.4,33-92.34,133.41-140.31,201.5-9.08,12.89-25.95,37.17-37.62,49.74-23.9,25.73-26.29,36.75-61.73,37.82-45.06,1.36-216.91-.16-216.91-.16l-30.4,48.1s207.97,1.71,268,0c56.23-1.61,96.22-73.77,119.29-104.62,48.95-65.47,112.01-168.5,134.31-197.66,11.22-14.67,27.55-18.87,44.7-18.87,27.44,0,105.05-.04,105.05-.04L1011.64-.34Z"/>
  <rect class="cls-3" y="133.64" width="57.79" height="57.79"/>
  <rect class="cls-3" x="57.79" y="191.43" width="57.79" height="57.79"/>
  <rect class="cls-3" x="115.58" y="133.64" width="57.79" height="57.79"/>
  <rect class="cls-3" x="173.37" y="191.43" width="57.79" height="57.79"/>
  <rect class="cls-3" x="115.58" y="249.26" width="57.79" height="57.79"/>
  <rect class="cls-3" y="249.26" width="57.79" height="57.79"/>
  <polygon class="cls-3" points="254.25 249.26 232.37 249.26 232.37 307.05 273.94 307.05 254.25 249.26"/>
  <rect class="cls-1" y="-.34" width="1011.64" height="366.51"/>
</svg>